<svg width="32" height="32" viewBox="0 0 32 32" fill="none" xmlns="http://www.w3.org/2000/svg">
<circle r="16" transform="matrix(-1 -1.74846e-07 -1.74846e-07 1 16 16)" fill="#A43FD4"/>
<path d="M12.4894 15.714C12.5008 15.5826 12.5536 15.4582 12.6403 15.3587L17.6243 9.59589C17.6771 9.531 17.7423 9.47739 17.8162 9.43825C17.89 9.3991 17.971 9.37522 18.0543 9.36803C18.1376 9.36084 18.2215 9.37048 18.301 9.39639C18.3805 9.4223 18.4539 9.46393 18.517 9.51882C18.5801 9.57371 18.6314 9.64073 18.668 9.71589C18.7047 9.79105 18.7258 9.87281 18.7301 9.9563C18.7345 10.0398 18.722 10.1233 18.6934 10.2019C18.6648 10.2804 18.6207 10.3524 18.5637 10.4136L13.9349 15.7676L18.5637 21.1216C18.6207 21.1827 18.6648 21.2547 18.6934 21.3333C18.722 21.4119 18.7345 21.4954 18.7301 21.5789C18.7258 21.6624 18.7047 21.7441 18.668 21.8193C18.6314 21.8944 18.5801 21.9614 18.517 22.0163C18.4539 22.0712 18.3805 22.1129 18.301 22.1388C18.2215 22.1647 18.1376 22.1743 18.0543 22.1671C17.971 22.16 17.89 22.1361 17.8162 22.0969C17.7423 22.0578 17.6771 22.0042 17.6243 21.9393L12.6402 16.1764C12.5854 16.1134 12.5437 16.04 12.5178 15.9606C12.4919 15.8811 12.4822 15.7973 12.4894 15.714Z" fill="white"/>
</svg>
