<svg width="76" height="76" viewBox="0 0 76 76" fill="none" xmlns="http://www.w3.org/2000/svg">
<g filter="url(#filter0_d_11_605)">
<circle cx="38" cy="34" r="32" fill="white"/>
<circle cx="38" cy="34" r="31.5" stroke="#A43FD4"/>
</g>
<path d="M53.5312 48.4335H48.4594V47.5364C48.4594 47.2775 48.2496 47.0677 47.9906 47.0677C47.7317 47.0677 47.5219 47.2775 47.5219 47.5364V48.4335H39.435V33.2425L47.5007 36.0217C47.5132 36.0259 47.5219 36.0379 47.5219 36.0508V45.349C47.5219 45.608 47.7317 45.8178 47.9906 45.8178C48.2496 45.8178 48.4594 45.608 48.4594 45.349V36.0508C48.4594 35.6375 48.1966 35.2695 47.8059 35.1352L39.435 32.2509V27.8595C39.435 27.3943 39.0565 27.0158 38.5912 27.0158H37.7331V25.8589C37.7331 25.3937 37.3546 25.0152 36.8894 25.0152H33.9563V19.0977C33.9563 18.8387 33.7464 18.6289 33.4875 18.6289C33.2286 18.6289 33.0188 18.8387 33.0188 19.0977V25.0152H30.0863C29.621 25.0152 29.2425 25.3937 29.2425 25.859V27.0158H28.3844C27.9191 27.0158 27.5406 27.3943 27.5406 27.8596V28.6921C27.5406 28.951 27.7505 29.1608 28.0094 29.1608C28.2682 29.1608 28.4781 28.951 28.4781 28.6921V27.9533H38.4975V48.4336H28.4781V30.8796C28.4781 30.6207 28.2682 30.4108 28.0094 30.4108C27.7505 30.4108 27.5406 30.6207 27.5406 30.8796V48.4335H22.4688C22.2099 48.4335 22 48.6433 22 48.9023C22 49.1612 22.2099 49.371 22.4688 49.371H53.5312C53.7902 49.371 54 49.1612 54 48.9023C54 48.6433 53.7902 48.4335 53.5312 48.4335ZM30.18 25.9527H36.7956V27.0158H30.18V25.9527Z" fill="#252525"/>
<path d="M44.2892 29.8038C44.75 30.1051 45.0737 30.2088 45.4676 30.2413V30.554C45.4676 30.8129 45.6774 31.0228 45.9363 31.0228C46.1952 31.0228 46.4051 30.8129 46.4051 30.554V30.1969C47.2077 29.9981 47.7224 29.3146 47.8357 28.6407C47.983 27.7645 47.5254 27.0031 46.6699 26.7006C46.1739 26.5253 45.6246 26.313 45.3121 26.0679C45.1937 25.9751 45.1427 25.7794 45.1824 25.5694C45.2213 25.3626 45.3613 25.1121 45.6374 25.0289C46.2717 24.8379 46.7368 25.2389 46.7622 25.2615C46.9521 25.4349 47.2464 25.4231 47.4217 25.2346C47.598 25.045 47.5872 24.7484 47.3976 24.5721C47.3743 24.5505 46.9971 24.2078 46.4051 24.0838V23.7915C46.4051 23.5326 46.1952 23.3228 45.9363 23.3228C45.6774 23.3228 45.4676 23.5326 45.4676 23.7915V24.1036C45.4343 24.112 45.4009 24.121 45.3671 24.1312C44.7996 24.3022 44.3758 24.7868 44.2611 25.3958C44.1558 25.9543 44.3369 26.4944 44.7336 26.8055C45.0714 27.0705 45.542 27.2963 46.3574 27.5845C46.9582 27.7968 46.9449 28.2851 46.9112 28.4852C46.8444 28.8831 46.5097 29.3131 45.933 29.3169C45.4001 29.3207 45.2191 29.2918 44.8024 29.0192C44.5857 28.8774 44.2952 28.9382 44.1536 29.1549C44.0117 29.3715 44.0725 29.662 44.2892 29.8038Z" fill="#252525"/>
<path d="M45.9694 32.7286C49.0329 32.7286 51.5253 30.2363 51.5253 27.1728C51.5253 24.1093 49.0329 21.6169 45.9694 21.6169C42.9059 21.6169 40.4136 24.1093 40.4136 27.1728C40.4136 30.2363 42.9059 32.7286 45.9694 32.7286ZM45.9694 22.5545C48.5159 22.5545 50.5878 24.6263 50.5878 27.1728C50.5878 29.7194 48.516 31.7912 45.9694 31.7912C43.4229 31.7912 41.3511 29.7194 41.3511 27.1728C41.3511 24.6263 43.4229 22.5545 45.9694 22.5545Z" fill="#252525"/>
<path d="M30.4479 31.0056H36.5276C36.7865 31.0056 36.9964 30.7958 36.9964 30.5369C36.9964 30.2779 36.7865 30.0681 36.5276 30.0681H30.4479C30.1891 30.0681 29.9792 30.2779 29.9792 30.5369C29.9792 30.7958 30.1891 31.0056 30.4479 31.0056Z" fill="#252525"/>
<path d="M30.4479 33.1931H36.5276C36.7865 33.1931 36.9964 32.9833 36.9964 32.7244C36.9964 32.4654 36.7865 32.2556 36.5276 32.2556H30.4479C30.1891 32.2556 29.9792 32.4654 29.9792 32.7244C29.9792 32.9833 30.1891 33.1931 30.4479 33.1931Z" fill="#252525"/>
<path d="M30.4479 35.3806H36.5276C36.7865 35.3806 36.9964 35.1708 36.9964 34.9119C36.9964 34.6529 36.7865 34.4431 36.5276 34.4431H30.4479C30.1891 34.4431 29.9792 34.6529 29.9792 34.9119C29.9792 35.1708 30.1891 35.3806 30.4479 35.3806Z" fill="#252525"/>
<path d="M30.4479 37.5681H36.5276C36.7865 37.5681 36.9964 37.3583 36.9964 37.0994C36.9964 36.8404 36.7865 36.6306 36.5276 36.6306H30.4479C30.1891 36.6306 29.9792 36.8404 29.9792 37.0994C29.9792 37.3583 30.1891 37.5681 30.4479 37.5681Z" fill="#252525"/>
<path d="M30.4479 39.7556H36.5276C36.7865 39.7556 36.9964 39.5458 36.9964 39.2869C36.9964 39.0279 36.7865 38.8181 36.5276 38.8181H30.4479C30.1891 38.8181 29.9792 39.0279 29.9792 39.2869C29.9792 39.5458 30.1891 39.7556 30.4479 39.7556Z" fill="#252525"/>
<path d="M30.4479 41.9431H36.5276C36.7865 41.9431 36.9964 41.7333 36.9964 41.4744C36.9964 41.2154 36.7865 41.0056 36.5276 41.0056H30.4479C30.1891 41.0056 29.9792 41.2154 29.9792 41.4744C29.9792 41.7333 30.1891 41.9431 30.4479 41.9431Z" fill="#252525"/>
<path d="M30.4479 44.1306H36.5276C36.7865 44.1306 36.9964 43.9208 36.9964 43.6619C36.9964 43.4029 36.7865 43.1931 36.5276 43.1931H30.4479C30.1891 43.1931 29.9792 43.4029 29.9792 43.6619C29.9792 43.9208 30.1891 44.1306 30.4479 44.1306Z" fill="#252525"/>
<path d="M30.4479 46.3181H36.5276C36.7865 46.3181 36.9964 46.1083 36.9964 45.8494C36.9964 45.5904 36.7865 45.3806 36.5276 45.3806H30.4479C30.1891 45.3806 29.9792 45.5904 29.9792 45.8494C29.9792 46.1083 30.1891 46.3181 30.4479 46.3181Z" fill="#252525"/>
<path d="M40.822 37.6422V46.3421C40.822 46.6011 41.0318 46.8109 41.2908 46.8109C41.5497 46.8109 41.7595 46.6011 41.7595 46.3421V37.6422C41.7595 37.3833 41.5497 37.1735 41.2908 37.1735C41.0318 37.1735 40.822 37.3833 40.822 37.6422Z" fill="#252525"/>
<path d="M43.0095 37.6422V46.3421C43.0095 46.6011 43.2193 46.8109 43.4783 46.8109C43.7372 46.8109 43.947 46.6011 43.947 46.3421V37.6422C43.947 37.3833 43.7372 37.1735 43.4783 37.1735C43.2193 37.1735 43.0095 37.3833 43.0095 37.6422Z" fill="#252525"/>
<path d="M45.197 37.6422V46.3421C45.197 46.6011 45.4068 46.8109 45.6658 46.8109C45.9247 46.8109 46.1345 46.6011 46.1345 46.3421V37.6422C46.1345 37.3833 45.9247 37.1735 45.6658 37.1735C45.4068 37.1735 45.197 37.3833 45.197 37.6422Z" fill="#252525"/>
<defs>
<filter id="filter0_d_11_605" x="0" y="0" width="76" height="76" filterUnits="userSpaceOnUse" color-interpolation-filters="sRGB">
<feFlood flood-opacity="0" result="BackgroundImageFix"/>
<feColorMatrix in="SourceAlpha" type="matrix" values="0 0 0 0 0 0 0 0 0 0 0 0 0 0 0 0 0 0 127 0" result="hardAlpha"/>
<feOffset dy="4"/>
<feGaussianBlur stdDeviation="3"/>
<feComposite in2="hardAlpha" operator="out"/>
<feColorMatrix type="matrix" values="0 0 0 0 0 0 0 0 0 0 0 0 0 0 0 0 0 0 0.1 0"/>
<feBlend mode="normal" in2="BackgroundImageFix" result="effect1_dropShadow_11_605"/>
<feBlend mode="normal" in="SourceGraphic" in2="effect1_dropShadow_11_605" result="shape"/>
</filter>
</defs>
</svg>
