<svg width="24" height="24" viewBox="0 0 24 24" fill="none" xmlns="http://www.w3.org/2000/svg">
<path d="M23.8543 4.92025C23.7279 4.74847 23.5258 4.65031 23.2984 4.65031H5.12968L4.59903 2.51534C4.52322 2.19632 4.24525 2 3.91675 2H0.707542C0.328502 2 0 2.29448 0 2.68712C0 3.07975 0.328502 3.37423 0.707542 3.37423H3.36083L7.1765 18.7117C7.25231 19.0307 7.53027 19.227 7.85877 19.227H8.79374C8.4147 19.4969 8.13674 19.9387 8.13674 20.454C8.13674 21.3129 8.84428 22 9.72871 22C10.6131 22 11.3207 21.3129 11.3207 20.454C11.3207 19.9387 11.0427 19.5215 10.6637 19.227H17.0568C16.6778 19.4969 16.3998 19.9387 16.3998 20.454C16.3998 21.3129 17.1074 22 17.9918 22C18.8762 22 19.5838 21.3129 19.5838 20.454C19.5838 19.9387 19.3058 19.5215 18.9268 19.227H19.3816C19.7606 19.227 20.0891 18.9325 20.0891 18.5399C20.0891 18.1718 19.7606 17.8528 19.3816 17.8528H8.4147L8.01039 16.2577H20.7462C21.0747 16.2577 21.3526 16.0368 21.4284 15.7423L23.9806 5.5092C24.0312 5.28834 23.9806 5.06748 23.8543 4.92025ZM12.1546 11.4724L11.9019 9.43558H15.9955L15.7428 11.4724H12.1546ZM15.5659 12.8466L15.3132 14.8834H12.5589L12.3062 12.8466H15.5659ZM6.31734 9.43558H10.4868L10.7395 11.4724H6.82273L6.31734 9.43558ZM11.725 8.06135L11.4723 6.02454H16.3998L16.1471 8.06135H11.725ZM10.0572 6.02454L10.3099 8.06135H5.96357L5.45818 6.02454H10.0572ZM7.15123 12.8466H10.8911L11.1438 14.8834H7.65662L7.15123 12.8466ZM16.7283 14.8834L16.981 12.8466H20.6956L20.1902 14.8834H16.7283ZM21.0494 11.4724H17.1579L17.4106 9.43558H21.5548L21.0494 11.4724ZM21.8833 8.06135H17.5622L17.8149 6.02454H22.3887L21.8833 8.06135Z" fill="#4C1175"/>
</svg>
