<svg width="24" height="24" viewBox="0 0 24 24" fill="none" xmlns="http://www.w3.org/2000/svg">
<path d="M14.2043 11.966L23.6393 2.56255C23.8851 2.27655 24.0135 1.90867 23.9989 1.53242C23.9843 1.15617 23.8278 0.799256 23.5607 0.533006C23.2935 0.266757 22.9354 0.110781 22.5579 0.0962476C22.1804 0.0817146 21.8113 0.209695 21.5243 0.454614L12.0893 9.85809L2.65432 0.439664C2.37186 0.158152 1.98877 -7.84785e-09 1.58932 0C1.18986 7.84785e-09 0.806771 0.158152 0.524315 0.439664C0.24186 0.721176 0.0831777 1.10299 0.0831776 1.50111C0.0831776 1.89922 0.24186 2.28104 0.524315 2.56255L9.97432 11.966L0.524315 21.3695C0.367293 21.5035 0.239762 21.6684 0.149727 21.8539C0.0596923 22.0394 0.00909703 22.2414 0.00111779 22.4473C-0.00686145 22.6532 0.0279467 22.8585 0.103359 23.0504C0.17877 23.2422 0.293158 23.4164 0.43934 23.5621C0.585522 23.7078 0.760343 23.8218 0.952831 23.897C1.14532 23.9721 1.35132 24.0068 1.5579 23.9989C1.76447 23.9909 1.96717 23.9405 2.15327 23.8508C2.33937 23.761 2.50484 23.6339 2.63931 23.4774L12.0893 14.074L21.5243 23.4774C21.8113 23.7224 22.1804 23.8503 22.5579 23.8358C22.9354 23.8213 23.2935 23.6653 23.5607 23.399C23.8278 23.1328 23.9843 22.7759 23.9989 22.3996C24.0135 22.0234 23.8851 21.6555 23.6393 21.3695L14.2043 11.966Z" fill="#4C1175"/>
</svg>
