<svg width="76" height="76" viewBox="0 0 76 76" fill="none" xmlns="http://www.w3.org/2000/svg">
<g filter="url(#filter0_d_257_1390)">
<circle cx="38" cy="34" r="32" fill="white"/>
<circle cx="38" cy="34" r="31.5" stroke="#A43FD4"/>
</g>
<path d="M53.0008 24.9999H51.8123C52.0417 24.1132 52.0651 23.1857 51.8806 22.2885C51.6961 21.3913 51.3086 20.5483 50.7479 19.8241C50.1871 19.0998 49.468 18.5135 48.6457 18.1102C47.8233 17.7069 46.9195 17.4971 46.0036 17.4971C45.0876 17.4971 44.1838 17.7069 43.3615 18.1102C42.5391 18.5135 41.82 19.0998 41.2593 19.8241C40.6985 20.5483 40.3111 21.3913 40.1266 22.2885C39.942 23.1857 39.9654 24.1132 40.1948 24.9999H34.2078L27.5793 18.3714C27.3035 18.0934 26.9754 17.8725 26.614 17.7215C26.2525 17.5705 25.8648 17.4924 25.4731 17.4916C25.0814 17.4908 24.6934 17.5674 24.3314 17.7169C23.9693 17.8665 23.6404 18.0861 23.3634 18.3631C23.0865 18.6401 22.8669 18.969 22.7174 19.3311C22.5679 19.6931 22.4914 20.0811 22.4922 20.4729C22.493 20.8646 22.5712 21.2522 22.7222 21.6137C22.8733 21.9751 23.0942 22.3031 23.3723 22.5789L23.5928 22.7989C22.8938 23.5779 22.5052 24.5864 22.5008 25.6329V44.4999C22.5003 45.0254 22.6034 45.5458 22.8042 46.0313C23.0051 46.5168 23.2997 46.958 23.6712 47.3295C24.0427 47.7011 24.4839 47.9957 24.9695 48.1965C25.455 48.3974 25.9754 48.5005 26.5008 48.4999H53.0008C53.1334 48.4999 53.2606 48.4473 53.3544 48.3535C53.4481 48.2597 53.5008 48.1326 53.5008 47.9999V25.4999C53.5008 25.3673 53.4481 25.2402 53.3544 25.1464C53.2606 25.0526 53.1334 24.9999 53.0008 24.9999ZM41.0343 22.9079C41.1819 21.6393 41.8093 20.4751 42.788 19.6544C43.7667 18.8337 45.0223 18.4187 46.2973 18.4944C47.5723 18.5701 48.77 19.1309 49.6446 20.0617C50.5192 20.9925 51.0045 22.2227 51.0008 23.4999C51.0048 24.6166 50.6303 25.7016 49.9383 26.5779C49.0499 27.6967 48.5458 29.0721 48.5008 30.4999H47.5008V27.4999H48.0008C48.2975 27.4999 48.5875 27.412 48.8342 27.2472C49.0808 27.0823 49.2731 26.8481 49.3866 26.574C49.5002 26.2999 49.5299 25.9983 49.472 25.7073C49.4141 25.4163 49.2712 25.1491 49.0615 24.9393C48.8517 24.7295 48.5844 24.5866 48.2934 24.5288C48.0025 24.4709 47.7009 24.5006 47.4268 24.6141C47.1527 24.7277 46.9184 24.9199 46.7536 25.1666C46.5888 25.4133 46.5008 25.7033 46.5008 25.9999V26.4999H45.5008V25.9999C45.5008 25.7033 45.4128 25.4133 45.248 25.1666C45.0832 24.9199 44.8489 24.7277 44.5748 24.6141C44.3007 24.5006 43.9991 24.4709 43.7082 24.5288C43.4172 24.5866 43.1499 24.7295 42.9402 24.9393C42.7304 25.1491 42.5875 25.4163 42.5296 25.7073C42.4718 25.9983 42.5015 26.2999 42.615 26.574C42.7285 26.8481 42.9208 27.0823 43.1675 27.2472C43.4141 27.412 43.7041 27.4999 44.0008 27.4999H44.5008V30.4999H43.5008C43.4498 29.0575 42.9363 27.6698 42.0363 26.5414C41.2406 25.5076 40.881 24.2035 41.0343 22.9079ZM47.0008 33.4999C47.0008 33.7652 46.8955 34.0195 46.7079 34.2071C46.5204 34.3946 46.266 34.4999 46.0008 34.4999C45.7356 34.4999 45.4812 34.3946 45.2937 34.2071C45.1062 34.0195 45.0008 33.7652 45.0008 33.4999H47.0008ZM44.0008 32.4999C43.8682 32.4999 43.741 32.4473 43.6473 32.3535C43.5535 32.2597 43.5008 32.1326 43.5008 31.9999V31.4999H48.5008V31.9999C48.5008 32.1326 48.4481 32.2597 48.3544 32.3535C48.2606 32.4473 48.1334 32.4999 48.0008 32.4999H44.0008ZM44.5008 26.4999H44.0008C43.9019 26.4999 43.8053 26.4706 43.723 26.4157C43.6408 26.3607 43.5767 26.2827 43.5389 26.1913C43.501 26.0999 43.4911 25.9994 43.5104 25.9024C43.5297 25.8054 43.5773 25.7163 43.6473 25.6464C43.7172 25.5765 43.8063 25.5288 43.9033 25.5096C44.0003 25.4903 44.1008 25.5002 44.1922 25.538C44.2835 25.5759 44.3616 25.6399 44.4165 25.7222C44.4715 25.8044 44.5008 25.9011 44.5008 25.9999V26.4999ZM46.5008 30.4999H45.5008V27.4999H46.5008V30.4999ZM47.5008 26.4999V25.9999C47.5008 25.9011 47.5301 25.8044 47.5851 25.7222C47.64 25.6399 47.7181 25.5759 47.8095 25.538C47.9008 25.5002 48.0014 25.4903 48.0984 25.5096C48.1953 25.5288 48.2844 25.5765 48.3544 25.6464C48.4243 25.7163 48.4719 25.8054 48.4912 25.9024C48.5105 25.9994 48.5006 26.0999 48.4627 26.1913C48.4249 26.2827 48.3608 26.3607 48.2786 26.4157C48.1964 26.4706 48.0997 26.4999 48.0008 26.4999H47.5008ZM37.2553 32.2539L35.8693 31.8384L36.8393 30.8684L37.2553 32.2539ZM34.7813 31.5119L33.5008 31.1279V29.9999H34.5008C34.6334 29.9999 34.7606 29.9473 34.8544 29.8535C34.9481 29.7597 35.0008 29.6326 35.0008 29.4999V28.4999H36.1288L36.5128 29.7809L34.7813 31.5119ZM27.2078 24.9999L28.2508 23.9569L33.2938 28.9999H33.0008C32.8682 28.9999 32.741 29.0526 32.6473 29.1464C32.5535 29.2402 32.5008 29.3673 32.5008 29.4999V30.2924L27.2078 24.9999ZM26.5008 24.2929L25.7078 23.4999L28.5008 20.7069L29.2938 21.4999L26.5008 24.2929ZM34.5008 27.4999C34.3682 27.4999 34.241 27.5526 34.1473 27.6464C34.0535 27.7402 34.0008 27.8673 34.0008 27.9999V28.2929L28.9578 23.2499L30.0008 22.2069L35.2938 27.4999H34.5008ZM25.4758 18.4999C25.7353 18.4992 25.9923 18.55 26.232 18.6493C26.4717 18.7486 26.6894 18.8945 26.8723 19.0784L27.7938 19.9999L25.0008 22.7924L24.0793 21.8709C23.803 21.5948 23.6149 21.2429 23.5386 20.8598C23.4624 20.4767 23.5015 20.0796 23.651 19.7188C23.8005 19.3579 24.0537 19.0495 24.3785 18.8325C24.7033 18.6156 25.0852 18.4998 25.4758 18.4999ZM24.3008 23.5069L29.5008 28.7069V41.8539C29.4398 41.7849 29.376 41.7183 29.3093 41.6539C28.9335 41.2793 28.4863 40.9841 27.9941 40.7858C27.5019 40.5876 26.9748 40.4904 26.4443 40.4999C25.8848 40.5105 25.3337 40.6383 24.8267 40.8752C24.3196 41.112 23.868 41.4526 23.5008 41.8749V25.6329C23.5036 24.8512 23.7876 24.0966 24.3008 23.5069ZM52.5008 47.4999H26.5008C26.1032 47.5 25.7096 47.421 25.3429 47.2676C24.9761 47.1142 24.6435 46.8894 24.3643 46.6063C24.0852 46.3232 23.8651 45.9875 23.7169 45.6186C23.5686 45.2497 23.4952 44.855 23.5008 44.4574C23.5258 43.6811 23.8454 42.9434 24.3946 42.3941C24.9438 41.8448 25.6815 41.5251 26.4578 41.4999H26.5008C27.2965 41.4999 28.0595 41.816 28.6221 42.3786C29.1847 42.9412 29.5008 43.7043 29.5008 44.4999C29.5008 44.6326 29.5535 44.7597 29.6473 44.8535C29.741 44.9473 29.8682 44.9999 30.0008 44.9999C30.1334 44.9999 30.2606 44.9473 30.3544 44.8535C30.4481 44.7597 30.5008 44.6326 30.5008 44.4999V29.7069L32.6473 31.8534C32.7058 31.912 32.778 31.9551 32.8573 31.9789L37.8573 33.4789C37.9039 33.4928 37.9522 33.4999 38.0008 33.4999C38.0787 33.5 38.1556 33.4817 38.2252 33.4468C38.2949 33.4118 38.3554 33.361 38.4019 33.2985C38.4485 33.236 38.4797 33.1635 38.4933 33.0867C38.5068 33.01 38.5022 32.9311 38.4798 32.8564L36.9798 27.8564C36.956 27.7771 36.9129 27.705 36.8543 27.6464L35.2078 25.9999H40.5508C40.7369 26.4079 40.9682 26.7936 41.2403 27.1499C42.0365 28.1402 42.4801 29.3675 42.5008 30.6379V31.9999C42.5008 32.3978 42.6588 32.7793 42.9402 33.0606C43.2215 33.3419 43.603 33.4999 44.0008 33.4999C44.0008 34.0304 44.2115 34.5391 44.5866 34.9142C44.9617 35.2892 45.4704 35.4999 46.0008 35.4999C46.5312 35.4999 47.04 35.2892 47.415 34.9142C47.7901 34.5391 48.0008 34.0304 48.0008 33.4999C48.3986 33.4999 48.7802 33.3419 49.0615 33.0606C49.3428 32.7793 49.5008 32.3978 49.5008 31.9999V30.6354C49.5147 29.3843 49.9456 28.1735 50.7253 27.1949C51.0139 26.8263 51.2583 26.4253 51.4538 25.9999H52.5008V47.4999Z" fill="black"/>
<path d="M41.9305 42.8095C42.0665 42.5502 42.1791 42.2793 42.267 42H43C43.1326 42 43.2598 41.9473 43.3536 41.8536C43.4473 41.7598 43.5 41.6326 43.5 41.5V39.5C43.5 39.3674 43.4473 39.2402 43.3536 39.1464C43.2598 39.0527 43.1326 39 43 39H42.267C42.1791 38.7207 42.0665 38.4498 41.9305 38.1905L42.45 37.6715C42.5437 37.5777 42.5964 37.4506 42.5964 37.318C42.5964 37.1854 42.5437 37.0583 42.45 36.9645L41.0355 35.55C40.9417 35.4563 40.8146 35.4036 40.682 35.4036C40.5494 35.4036 40.4223 35.4563 40.3285 35.55L39.8095 36.0685C39.5501 35.933 39.2792 35.8207 39 35.733V35C39 34.8674 38.9473 34.7402 38.8536 34.6464C38.7598 34.5527 38.6326 34.5 38.5 34.5H36.5C36.3674 34.5 36.2402 34.5527 36.1464 34.6464C36.0527 34.7402 36 34.8674 36 35V35.733C35.7208 35.8208 35.4499 35.9333 35.1905 36.069L34.6715 35.55C34.576 35.4597 34.4495 35.4093 34.318 35.4093C34.1865 35.4093 34.06 35.4597 33.9645 35.55L32.55 36.9645C32.4563 37.0583 32.4036 37.1854 32.4036 37.318C32.4036 37.4506 32.4563 37.5777 32.55 37.6715L33.069 38.1905C32.9332 38.4498 32.8207 38.7207 32.733 39H32C31.8674 39 31.7402 39.0527 31.6464 39.1464C31.5527 39.2402 31.5 39.3674 31.5 39.5V41.5C31.5 41.6326 31.5527 41.7598 31.6464 41.8536C31.7402 41.9473 31.8674 42 32 42H32.733C32.8209 42.2793 32.9335 42.5502 33.0695 42.8095L32.55 43.3285C32.4563 43.4223 32.4036 43.5494 32.4036 43.682C32.4036 43.8146 32.4563 43.9417 32.55 44.0355L33.9645 45.45C34.0583 45.5437 34.1854 45.5964 34.318 45.5964C34.4506 45.5964 34.5777 45.5437 34.6715 45.45L35.1905 44.931C35.4498 45.0668 35.7207 45.1793 36 45.267V46C36 46.1326 36.0527 46.2598 36.1464 46.3536C36.2402 46.4473 36.3674 46.5 36.5 46.5H38.5C38.6326 46.5 38.7598 46.4473 38.8536 46.3536C38.9473 46.2598 39 46.1326 39 46V45.267C39.2793 45.1791 39.5502 45.0665 39.8095 44.9305L40.3285 45.45C40.424 45.5403 40.5505 45.5907 40.682 45.5907C40.8135 45.5907 40.94 45.5403 41.0355 45.45L42.45 44.0355C42.5437 43.9417 42.5964 43.8146 42.5964 43.682C42.5964 43.5494 42.5437 43.4223 42.45 43.3285L41.9305 42.8095ZM41.4 41.389C41.2999 41.8272 41.1263 42.2453 40.8865 42.6255C40.8259 42.7214 40.7997 42.8351 40.8123 42.9478C40.8248 43.0606 40.8753 43.1657 40.9555 43.246L41.3915 43.682L40.6845 44.389L40.2485 43.953C40.1683 43.8728 40.0633 43.8223 39.9507 43.8097C39.838 43.7971 39.7244 43.8231 39.6285 43.8835C39.2483 44.1237 38.83 44.2973 38.3915 44.397C38.281 44.4222 38.1824 44.4841 38.1117 44.5727C38.041 44.6612 38.0025 44.7712 38.0025 44.8845V45.5H37V44.8845C37 44.7712 36.9615 44.6612 36.8908 44.5727C36.8201 44.4841 36.7215 44.4222 36.611 44.397C36.1725 44.2973 35.7542 44.1237 35.374 43.8835C35.2781 43.8231 35.1645 43.7971 35.0518 43.8097C34.9392 43.8223 34.8342 43.8728 34.754 43.953L34.318 44.389L33.611 43.682L34.047 43.246C34.1272 43.1657 34.1777 43.0606 34.1902 42.9478C34.2028 42.8351 34.1766 42.7214 34.116 42.6255C33.8762 42.2453 33.7026 41.8272 33.6025 41.389C33.5773 41.2785 33.5154 41.1799 33.4268 41.1092C33.3383 41.0385 33.2283 41 33.115 41H32.5V40H33.115C33.2283 40 33.3383 39.9615 33.4268 39.8908C33.5154 39.8201 33.5773 39.7215 33.6025 39.611C33.7026 39.1728 33.8762 38.7547 34.116 38.3745C34.1766 38.2786 34.2028 38.1649 34.1902 38.0522C34.1777 37.9394 34.1272 37.8343 34.047 37.754L33.611 37.318L34.318 36.611L34.754 37.047C34.8342 37.1272 34.9392 37.1777 35.0518 37.1903C35.1645 37.2029 35.2781 37.1769 35.374 37.1165C35.7542 36.8763 36.1725 36.7026 36.611 36.603C36.7216 36.5778 36.8203 36.5158 36.891 36.4271C36.9617 36.3385 37.0001 36.2284 37 36.115V35.5H38V36.115C37.9999 36.2284 38.0383 36.3385 38.109 36.4271C38.1797 36.5158 38.2784 36.5778 38.389 36.603C38.8275 36.7026 39.2458 36.8763 39.626 37.1165C39.7219 37.1769 39.8355 37.2029 39.9482 37.1903C40.0608 37.1777 40.1658 37.1272 40.246 37.047L40.682 36.611L41.389 37.318L40.953 37.754C40.8728 37.8343 40.8223 37.9394 40.8098 38.0522C40.7972 38.1649 40.8234 38.2786 40.884 38.3745C41.1246 38.7545 41.2991 39.1726 41.4 39.611C41.4251 39.7211 41.4866 39.8194 41.5747 39.89C41.6627 39.9607 41.7721 39.9994 41.885 40H42.5V41H41.885C41.7721 41.0006 41.6627 41.0393 41.5747 41.11C41.4866 41.1806 41.4251 41.2789 41.4 41.389Z" fill="black"/>
<path d="M37.5 37.5C36.9067 37.5 36.3266 37.6759 35.8333 38.0056C35.3399 38.3352 34.9554 38.8038 34.7284 39.3519C34.5013 39.9001 34.4419 40.5033 34.5576 41.0853C34.6734 41.6672 34.9591 42.2018 35.3787 42.6213C35.7982 43.0409 36.3328 43.3266 36.9147 43.4424C37.4967 43.5581 38.0999 43.4987 38.6481 43.2716C39.1962 43.0446 39.6648 42.6601 39.9944 42.1667C40.3241 41.6734 40.5 41.0933 40.5 40.5C40.4992 39.7046 40.1829 38.942 39.6204 38.3796C39.058 37.8171 38.2954 37.5008 37.5 37.5ZM37.5 42.5C37.1044 42.5 36.7178 42.3827 36.3889 42.1629C36.06 41.9432 35.8036 41.6308 35.6522 41.2654C35.5009 40.8999 35.4613 40.4978 35.5384 40.1098C35.6156 39.7219 35.8061 39.3655 36.0858 39.0858C36.3655 38.8061 36.7219 38.6156 37.1098 38.5384C37.4978 38.4613 37.8999 38.5009 38.2654 38.6522C38.6308 38.8036 38.9432 39.06 39.1629 39.3889C39.3827 39.7178 39.5 40.1044 39.5 40.5C39.5 41.0304 39.2893 41.5391 38.9142 41.9142C38.5391 42.2893 38.0304 42.5 37.5 42.5Z" fill="black"/>
<path d="M49 23.5H50C49.9988 22.4395 49.577 21.4228 48.8271 20.6729C48.0772 19.923 47.0605 19.5012 46 19.5V20.5C46.7954 20.5008 47.558 20.8171 48.1204 21.3796C48.6829 21.942 48.9992 22.7046 49 23.5Z" fill="black"/>
<path d="M48.25 39C47.7859 39 47.3408 38.8156 47.0126 38.4874C46.6844 38.1592 46.5 37.7141 46.5 37.25V36.5H45.5V37.25C45.5008 37.9791 45.7908 38.6781 46.3063 39.1937C46.8219 39.7092 47.5209 39.9992 48.25 40C48.8467 40 49.419 40.2371 49.841 40.659C50.2629 41.081 50.5 41.6533 50.5 42.25C50.5 42.8467 50.2629 43.419 49.841 43.841C49.419 44.2629 48.8467 44.5 48.25 44.5H43V45.5H48.25C49.112 45.5 49.9386 45.1576 50.5481 44.5481C51.1576 43.9386 51.5 43.112 51.5 42.25C51.5 41.388 51.1576 40.5614 50.5481 39.9519C49.9386 39.3424 49.112 39 48.25 39Z" fill="black"/>
<defs>
<filter id="filter0_d_257_1390" x="0" y="0" width="76" height="76" filterUnits="userSpaceOnUse" color-interpolation-filters="sRGB">
<feFlood flood-opacity="0" result="BackgroundImageFix"/>
<feColorMatrix in="SourceAlpha" type="matrix" values="0 0 0 0 0 0 0 0 0 0 0 0 0 0 0 0 0 0 127 0" result="hardAlpha"/>
<feOffset dy="4"/>
<feGaussianBlur stdDeviation="3"/>
<feComposite in2="hardAlpha" operator="out"/>
<feColorMatrix type="matrix" values="0 0 0 0 0 0 0 0 0 0 0 0 0 0 0 0 0 0 0.1 0"/>
<feBlend mode="normal" in2="BackgroundImageFix" result="effect1_dropShadow_257_1390"/>
<feBlend mode="normal" in="SourceGraphic" in2="effect1_dropShadow_257_1390" result="shape"/>
</filter>
</defs>
</svg>
