<svg width="76" height="76" viewBox="0 0 76 76" fill="none" xmlns="http://www.w3.org/2000/svg">
<g filter="url(#filter0_d_11_673)">
<circle cx="38" cy="34" r="32" fill="white"/>
<circle cx="38" cy="34" r="31.5" stroke="#A43FD4"/>
</g>
<path d="M34.2611 41.8034C34.0141 41.8034 33.8124 41.6052 33.8083 41.3576C33.7959 40.5516 33.8024 38.9151 33.8083 37.2751C33.8148 35.6262 33.8213 33.9735 33.8083 33.163C33.8042 32.913 34.0041 32.7073 34.2541 32.7031C34.4911 32.7093 34.7098 32.8989 34.714 33.1489C34.7269 33.9626 34.7204 35.6226 34.714 37.2783C34.7081 38.9119 34.7016 40.541 34.714 41.3435C34.7175 41.5938 34.5182 41.7995 34.2682 41.8034C34.2658 41.8034 34.2635 41.8034 34.2611 41.8034Z" fill="#252525"/>
<path d="M38.8307 41.8033H38.8301C38.5801 41.803 38.3773 41.5999 38.3779 41.3499L38.3844 33.14C38.3849 32.89 38.5872 32.6877 38.8372 32.6877H38.8378C39.0878 32.688 39.2906 32.8912 39.29 33.1412L39.2835 41.3511C39.2829 41.6011 39.0807 41.8033 38.8307 41.8033Z" fill="#252525"/>
<path d="M37.4988 33.7577C36.9793 33.7577 36.4492 33.7191 35.9274 33.681C35.3466 33.6392 34.7983 33.5991 34.27 33.6088C34.267 33.6088 34.2641 33.6088 34.2611 33.6088C34.0147 33.6088 33.813 33.4116 33.8083 33.1645C33.8036 32.9145 34.0023 32.7079 34.2523 32.7031C34.8266 32.6916 35.4174 32.7359 35.9935 32.7777C36.9528 32.8485 37.9457 32.9207 38.7564 32.7306C38.9993 32.674 39.2435 32.8249 39.3006 33.0684C39.3572 33.3119 39.2063 33.5557 38.9628 33.6126C38.497 33.7214 38.0029 33.7577 37.4988 33.7577Z" fill="#252525"/>
<path d="M38.8602 33.6244C38.7128 33.6244 38.5677 33.5524 38.4811 33.4201C38.0754 32.8022 37.698 31.9988 37.3331 31.2217C37.1061 30.7382 36.8738 30.2438 36.6379 29.8027C36.3832 30.2638 36.1173 30.7411 35.8519 31.2184C35.4421 31.9555 35.0318 32.6931 34.658 33.3738C34.5383 33.5928 34.2629 33.6736 34.0436 33.553C33.8242 33.4328 33.744 33.1574 33.8643 32.9381C34.2381 32.2559 34.6497 31.5168 35.0607 30.7783C35.4622 30.0566 35.8631 29.3352 36.2293 28.6686C36.3054 28.5292 36.4492 28.4401 36.6084 28.4339C36.767 28.4257 36.918 28.5053 37.0046 28.6379C37.4103 29.2559 37.7877 30.0592 38.1526 30.8366C38.5041 31.5849 38.8679 32.3591 39.2381 32.923C39.3755 33.132 39.3171 33.4127 39.1078 33.5501C39.0318 33.6005 38.9451 33.6244 38.8602 33.6244Z" fill="#252525"/>
<path d="M36.6367 41.5165C36.6338 41.5165 36.6302 41.5165 36.6273 41.5165C36.3773 41.5112 36.1786 41.3042 36.1839 41.0542L36.2263 39.0315C36.2316 38.7815 36.4132 38.5926 36.6886 38.5881C36.9386 38.5934 37.1373 38.8004 37.132 39.0504L37.0895 41.0731C37.0842 41.3199 36.8826 41.5165 36.6367 41.5165Z" fill="#252525"/>
<path d="M40.5477 41.8058C40.3242 41.8058 40.1302 41.6407 40.0996 41.4134C39.7688 38.9611 40.3678 37.2969 41.4421 35.4072C41.8395 34.7079 42.3148 34.0543 42.7747 33.4225C43.4003 32.5625 43.9917 31.7503 44.4038 30.8308C45.4286 28.5454 45.1597 25.6654 43.7187 23.4936C42.3419 21.4184 39.7641 20.0334 37.1509 19.9647C33.3826 19.8806 29.6833 22.9328 29.0866 26.6613C28.6733 29.2471 29.5671 31.8727 30.392 33.8709C30.6874 34.5858 31.063 35.1554 31.461 35.7586C32.3254 37.0687 33.2193 38.4237 33.1597 41.2082C33.1538 41.4579 32.9298 41.653 32.6974 41.6513C32.4474 41.6457 32.2487 41.4387 32.2541 41.1887C32.3077 38.6867 31.5294 37.5065 30.7051 36.2571C30.3006 35.6451 29.8832 35.0118 29.5548 34.2164C28.6845 32.1082 27.7428 29.3279 28.1927 26.518C28.8572 22.3627 32.7682 19.0566 36.9669 19.0566C37.0359 19.0566 37.1049 19.0575 37.1745 19.0596C40.1184 19.1365 42.915 20.6436 44.4734 22.993C46.0819 25.4172 46.379 28.6395 45.2305 31.2014C44.7794 32.207 44.1326 33.0959 43.507 33.9555C43.0618 34.567 42.6019 35.1993 42.2299 35.8547C41.2234 37.625 40.6992 39.0826 40.997 41.2925C41.0306 41.5401 40.8566 41.7683 40.609 41.8016C40.5884 41.8046 40.5677 41.8058 40.5477 41.8058Z" fill="#252525"/>
<path d="M34.6638 47.2249C33.6473 47.2249 32.6809 47.1568 31.9015 46.6875C30.8166 46.0339 30.0495 44.3585 30.2252 43.0286C30.3478 42.0999 30.9026 41.449 31.7877 41.1952C32.6538 40.9469 33.6715 40.9587 34.5671 40.9699C34.8348 40.9726 35.0954 40.9761 35.3466 40.9726L40.3307 40.8995C40.6131 40.8959 40.9327 40.8906 41.2517 40.9723C41.8631 41.13 42.3561 41.5846 42.5707 42.1884C42.7487 42.6902 42.7169 43.1943 42.688 43.6389C42.6373 44.4378 42.5312 46.0999 41.0677 46.8157C40.3395 47.1719 39.4651 47.1804 38.7623 47.1872L34.9533 47.2235C34.8566 47.2244 34.76 47.2249 34.6638 47.2249ZM33.9793 41.8709C33.2924 41.8709 32.6137 41.9004 32.0377 42.0657C31.5052 42.2182 31.1975 42.5823 31.1232 43.1474C30.9964 44.1061 31.6013 45.4496 32.3684 45.9116C33.0188 46.3031 33.9581 46.3258 34.9451 46.3178L38.7541 46.2815C39.3967 46.2754 40.1261 46.2683 40.6703 46.0021C41.4923 45.5999 41.7104 44.7435 41.7847 43.5811C41.8083 43.2061 41.8331 42.8181 41.7169 42.4915C41.6296 42.2447 41.4015 41.9463 41.0259 41.8494C40.8248 41.7978 40.5813 41.8013 40.3443 41.8051H40.3437L35.3596 41.8782C35.1008 41.8824 34.8319 41.8785 34.5565 41.8756C34.3649 41.8732 34.1715 41.8709 33.9793 41.8709ZM40.3372 41.3523H40.3431H40.3372Z" fill="#252525"/>
<path d="M35.2588 48.9434C34.8649 48.9434 34.4769 48.8883 34.2092 48.6032C33.9846 48.3638 33.964 48.0761 33.9516 47.9042C33.9351 47.6745 33.9221 47.5174 33.9085 47.3606C33.895 47.1996 33.8808 47.0389 33.8643 46.8046C33.8466 46.5551 34.0341 46.3385 34.2835 46.3208C34.5306 46.306 34.7499 46.4906 34.7676 46.7403C34.7841 46.9694 34.7971 47.1265 34.8107 47.2833C34.8242 47.4443 34.8384 47.605 34.8549 47.8393C34.8578 47.8774 34.8643 47.9673 34.8761 47.9926C34.892 48.0015 34.9864 48.0481 35.3649 48.0363L37.3519 47.9856C37.5595 47.9803 37.8177 47.9738 37.9657 47.8954C38.1167 47.8158 38.1332 47.6539 38.1344 47.6061C38.1403 47.4349 38.0636 47.2326 37.9822 47.0186C37.8938 46.7845 38.0111 46.5233 38.2452 46.4346C38.4758 46.3461 38.7405 46.4632 38.8289 46.6972C38.9333 46.9717 39.0512 47.2827 39.04 47.635C39.0253 48.0914 38.7824 48.4879 38.3891 48.6961C38.053 48.8738 37.6615 48.8836 37.3749 48.8909L35.3879 48.9416C35.3449 48.9428 35.3018 48.9434 35.2588 48.9434Z" fill="#252525"/>
<path d="M36 35.9688L39 36" stroke="white" stroke-width="2" stroke-linecap="square"/>
<defs>
<filter id="filter0_d_11_673" x="0" y="0" width="76" height="76" filterUnits="userSpaceOnUse" color-interpolation-filters="sRGB">
<feFlood flood-opacity="0" result="BackgroundImageFix"/>
<feColorMatrix in="SourceAlpha" type="matrix" values="0 0 0 0 0 0 0 0 0 0 0 0 0 0 0 0 0 0 127 0" result="hardAlpha"/>
<feOffset dy="4"/>
<feGaussianBlur stdDeviation="3"/>
<feComposite in2="hardAlpha" operator="out"/>
<feColorMatrix type="matrix" values="0 0 0 0 0 0 0 0 0 0 0 0 0 0 0 0 0 0 0.1 0"/>
<feBlend mode="normal" in2="BackgroundImageFix" result="effect1_dropShadow_11_673"/>
<feBlend mode="normal" in="SourceGraphic" in2="effect1_dropShadow_11_673" result="shape"/>
</filter>
</defs>
</svg>
