<svg width="76" height="76" viewBox="0 0 76 76" fill="none" xmlns="http://www.w3.org/2000/svg">
<g filter="url(#filter0_d_76_2033)">
<circle cx="38" cy="34" r="32" fill="white"/>
<circle cx="38" cy="34" r="31.5" stroke="#A43FD4"/>
</g>
<path d="M42.3378 21.7889C43.4676 22.452 43.9847 23.5806 44.208 24.738C44.5638 26.5813 44.1822 28.5116 44.1333 29.0185C44.1047 29.3167 44.1956 29.7726 44.3927 30.2998C44.8086 31.4128 45.6836 32.8897 46.5593 33.8009C46.7577 34.0074 46.848 34.1703 46.8233 34.3214C46.7997 34.4656 46.6816 34.5725 46.5553 34.6663C46.1959 34.933 45.7009 35.0577 45.7009 35.0577C45.5936 35.0851 45.5039 35.1587 45.456 35.2586C45.408 35.3585 45.4069 35.4745 45.4526 35.5754C45.4526 35.5754 45.685 36.0847 45.7273 36.5917C45.7474 36.8326 45.7477 37.0849 45.5593 37.2161C45.3014 37.3955 44.8947 37.4479 44.5041 37.4654C43.8447 37.4949 43.2164 37.3957 43.2164 37.3957C43.0123 37.3634 42.8203 37.503 42.788 37.7072C42.7556 37.9113 42.8952 38.1033 43.0994 38.1356C43.0994 38.1356 43.8012 38.2467 44.5377 38.2138C45.0777 38.1896 45.6306 38.079 45.9871 37.8309C46.392 37.5492 46.517 37.0472 46.4738 36.5294C46.4471 36.2099 46.3602 35.8894 46.2811 35.6512C46.4991 35.5658 46.7716 35.4386 47.0018 35.2677C47.2903 35.0535 47.5086 34.7719 47.5626 34.4422C47.6154 34.1188 47.5242 33.724 47.0994 33.2819C46.2882 32.4378 45.4796 31.0685 45.0943 30.0376C44.9479 29.6458 44.8577 29.3119 44.879 29.0904C44.9303 28.5581 45.3171 26.5313 44.9436 24.5961C44.6808 23.2343 44.0462 21.9231 42.7169 21.1428C42.5387 21.0382 42.309 21.098 42.2044 21.2762C42.0997 21.4546 42.1595 21.6842 42.3378 21.7889Z" fill="#252525"/>
<path d="M45.1663 38.129C45.3326 38.2725 45.4213 38.4089 45.4428 38.5485C45.478 38.7772 45.3545 38.9897 45.2332 39.1841C45.1198 39.3661 44.995 39.533 44.9083 39.6781C44.8192 39.8273 44.7655 39.9656 44.7516 40.0825C44.7115 40.4176 44.8264 40.8063 44.9024 41.2154C44.9827 41.6469 44.9855 42.1148 44.3855 42.545C44.227 42.6586 44.0135 42.7163 43.7629 42.7486C43.3058 42.8075 42.7397 42.7719 42.1151 42.7079C40.4313 42.5354 38.3531 42.1636 36.7341 42.5746C36.5338 42.6255 36.4124 42.8294 36.4632 43.0298C36.5141 43.2301 36.718 43.3515 36.9184 43.3006C38.4592 42.9095 40.4363 43.2889 42.0388 43.4531C42.7286 43.5238 43.3539 43.5565 43.8586 43.4915C44.2492 43.4413 44.5749 43.3309 44.822 43.1537C45.76 42.4811 45.7643 41.7532 45.6389 41.0784C45.5777 40.7498 45.4631 40.4407 45.4953 40.1714C45.5042 40.0971 45.5791 40.0147 45.6499 39.9098C45.7703 39.7316 45.912 39.5305 46.0178 39.3153C46.1482 39.0502 46.2238 38.7651 46.1884 38.4729C46.1527 38.1776 46.0081 37.866 45.6557 37.5618C45.4991 37.4268 45.2624 37.4442 45.1274 37.6007C44.9924 37.7572 45.0098 37.9939 45.1663 38.129Z" fill="#252525"/>
<path d="M42.8024 19.4743C42.7577 20.176 42.4475 20.964 41.9082 21.8454C41.0549 23.2402 39.635 24.8467 37.7232 26.6714C34.3711 29.8705 32.6984 34.5924 34.8267 38.9557C36.2073 41.7861 36.3697 43.8391 36.0471 45.2878C35.587 47.354 34.1408 48.1302 34.1408 48.1302C33.9578 48.2262 33.887 48.4528 33.983 48.6359C34.079 48.8189 34.3055 48.8896 34.4886 48.7936C34.4886 48.7936 36.2335 47.8968 36.7783 45.4506C37.1256 43.8911 36.9862 41.6742 35.5 38.6273C33.5205 34.5692 35.1227 30.1886 38.2403 27.2133C40.2102 25.3332 41.6679 23.6734 42.5472 22.2364C43.1629 21.2298 43.4989 20.3231 43.55 19.5219C43.5631 19.3156 43.4062 19.1375 43.1999 19.1243C42.9936 19.1112 42.8155 19.268 42.8024 19.4743Z" fill="#252525"/>
<path d="M39.0233 29.1196C39.9134 27.8323 41.7839 27.5701 42.8111 27.7367C43.0152 27.7698 43.2077 27.631 43.2408 27.4269C43.2739 27.2229 43.1351 27.0304 42.931 26.9973C41.7003 26.7977 39.4737 27.1513 38.4073 28.6936C38.2897 28.8636 38.3323 29.0971 38.5024 29.2146C38.6723 29.3322 38.9059 29.2896 39.0233 29.1196Z" fill="#252525"/>
<path d="M42.9319 29.8657C41.9875 30.6787 40.8872 30.7879 39.6783 30.2476C39.4896 30.1632 39.2679 30.2479 39.1835 30.4366C39.0992 30.6254 39.1839 30.847 39.3726 30.9314C40.8775 31.6042 42.2448 31.4456 43.4206 30.4335C43.5773 30.2986 43.595 30.062 43.4601 29.9053C43.3253 29.7486 43.0886 29.7309 42.9319 29.8657Z" fill="#252525"/>
<path d="M37.9389 23.1297C37.5487 23.9588 36.5645 24.6332 35.4459 25.4649C33.6267 26.8176 31.4529 28.5229 30.4694 31.583C29.9397 33.2313 30.0178 34.7132 30.0977 36.193C30.21 38.2726 30.3229 40.3493 28.4552 42.9332C28.3341 43.1007 28.3719 43.3351 28.5394 43.4562C28.7069 43.5772 28.9412 43.5395 29.0623 43.372C30.7374 41.0545 30.9428 39.1187 30.894 37.2422C30.8481 35.4767 30.5543 33.7671 31.1826 31.8121C32.109 28.9292 34.179 27.3404 35.893 26.066C37.1299 25.1462 38.1852 24.3656 38.6167 23.4486C38.7047 23.2616 38.6243 23.0383 38.4373 22.9503C38.2503 22.8622 38.027 22.9426 37.9389 23.1297Z" fill="#252525"/>
<path d="M32.4739 41.1104C32.6335 42.423 32.1876 43.637 31.6044 44.6238C30.7081 46.1404 29.4784 47.1292 29.4784 47.1292C29.3172 47.2587 29.2914 47.4945 29.4208 47.6558C29.5502 47.817 29.7861 47.8428 29.9473 47.7134C29.9473 47.7134 31.2797 46.6455 32.2492 45.0049C32.91 43.8869 33.3983 42.5071 33.2175 41.02C33.1925 40.8148 33.0056 40.6685 32.8004 40.6935C32.5952 40.7184 32.4489 40.9052 32.4739 41.1104Z" fill="#252525"/>
<defs>
<filter id="filter0_d_76_2033" x="0" y="0" width="76" height="76" filterUnits="userSpaceOnUse" color-interpolation-filters="sRGB">
<feFlood flood-opacity="0" result="BackgroundImageFix"/>
<feColorMatrix in="SourceAlpha" type="matrix" values="0 0 0 0 0 0 0 0 0 0 0 0 0 0 0 0 0 0 127 0" result="hardAlpha"/>
<feOffset dy="4"/>
<feGaussianBlur stdDeviation="3"/>
<feComposite in2="hardAlpha" operator="out"/>
<feColorMatrix type="matrix" values="0 0 0 0 0 0 0 0 0 0 0 0 0 0 0 0 0 0 0.1 0"/>
<feBlend mode="normal" in2="BackgroundImageFix" result="effect1_dropShadow_76_2033"/>
<feBlend mode="normal" in="SourceGraphic" in2="effect1_dropShadow_76_2033" result="shape"/>
</filter>
</defs>
</svg>
