<svg width="76" height="76" viewBox="0 0 76 76" fill="none" xmlns="http://www.w3.org/2000/svg">
<g filter="url(#filter0_d_76_2112)">
<circle cx="38" cy="34" r="32" fill="white"/>
<circle cx="38" cy="34" r="31.5" stroke="#A43FD4"/>
</g>
<path d="M48.3499 28.9443C48.309 28.891 48.2564 28.8478 48.1962 28.8182C48.136 28.7885 48.0698 28.773 48.0026 28.7731H46.3876V28.0356C46.387 27.795 46.2939 27.5639 46.1276 27.3902C45.9612 27.2164 45.7344 27.1134 45.4941 27.1023V27.0273C45.4941 25.04 44.7046 23.134 43.2994 21.7288C41.8941 20.3235 39.9882 19.5341 38.0009 19.5341C36.0135 19.5341 34.1076 20.3235 32.7023 21.7288C31.2971 23.134 30.5076 25.04 30.5076 27.0273V27.1023C30.2673 27.1134 30.0405 27.2164 29.8742 27.3902C29.7078 27.5639 29.6147 27.795 29.6141 28.0356V28.7731H27.9991C27.932 28.773 27.8657 28.7885 27.8055 28.8182C27.7453 28.8478 27.6927 28.891 27.6519 28.9443C27.4589 29.1961 22.9319 35.2168 23.3389 44.6158C23.3583 45.1132 23.5696 45.5838 23.9285 45.9288C24.2875 46.2737 24.7661 46.4662 25.2639 46.4658H50.7389C51.2367 46.4662 51.7153 46.2737 52.0742 45.9288C52.4331 45.5838 52.6445 45.1132 52.6639 44.6158C53.0691 35.2168 48.5419 29.1961 48.3499 28.9443ZM46.2249 34.5208C44.9386 36.2441 42.8249 37.3418 39.9436 37.7901V37.5523C39.9436 37.0368 39.7388 36.5424 39.3743 36.1779C39.0098 35.8133 38.5154 35.6086 37.9999 35.6086C37.4843 35.6086 36.9899 35.8133 36.6254 36.1779C36.2609 36.5424 36.0561 37.0368 36.0561 37.5523V37.7901C33.1749 37.3418 31.0611 36.2441 29.7749 34.5208C28.3681 32.6371 28.3404 30.4891 28.3941 29.6481H47.6064C47.6599 30.4896 47.6319 32.6373 46.2249 34.5208ZM39.0686 37.5523V39.3001C39.0686 39.5835 38.956 39.8553 38.7556 40.0558C38.5551 40.2562 38.2833 40.3688 37.9999 40.3688C37.7164 40.3688 37.4446 40.2562 37.2441 40.0558C37.0437 39.8553 36.9311 39.5835 36.9311 39.3001V37.5523C36.9311 37.2689 37.0437 36.997 37.2441 36.7966C37.4446 36.5962 37.7164 36.4836 37.9999 36.4836C38.2833 36.4836 38.5551 36.5962 38.7556 36.7966C38.956 36.997 39.0686 37.2689 39.0686 37.5523ZM32.9776 27.1023V27.0273C32.9776 25.6953 33.5067 24.4179 34.4486 23.476C35.3904 22.5342 36.6679 22.0051 37.9999 22.0051C39.3318 22.0051 40.6093 22.5342 41.5511 23.476C42.493 24.4179 43.0221 25.6953 43.0221 27.0273V27.1023C42.7818 27.1133 42.5549 27.2164 42.3886 27.3902C42.2222 27.5639 42.129 27.795 42.1284 28.0356V28.7731H33.8714V28.0356C33.8707 27.795 33.7775 27.5639 33.6112 27.3902C33.4448 27.2164 33.2179 27.1133 32.9776 27.1023ZM45.5116 28.0356V28.7731H43.0034V28.0356C43.0034 28.019 43.01 28.0031 43.0217 27.9914C43.0334 27.9797 43.0493 27.9731 43.0659 27.9731H45.4499C45.4663 27.9733 45.482 27.9799 45.4936 27.9916C45.5051 28.0033 45.5116 28.0191 45.5116 28.0356ZM37.9999 20.4103C39.7545 20.4121 41.4368 21.1099 42.6776 22.3506C43.9184 23.5914 44.6163 25.2736 44.6181 27.0283V27.0981H43.8971V27.0283C43.8971 25.4643 43.2758 23.9643 42.1698 22.8583C41.0639 21.7524 39.5639 21.1311 37.9999 21.1311C36.4358 21.1311 34.9358 21.7524 33.8299 22.8583C32.7239 23.9643 32.1026 25.4643 32.1026 27.0283V27.0981H31.3816V27.0283C31.3835 25.2736 32.0813 23.5914 33.3221 22.3506C34.5629 21.1099 36.2452 20.4121 37.9999 20.4103ZM30.4881 28.0353C30.4881 28.0187 30.4947 28.0028 30.5064 27.9911C30.5181 27.9794 30.534 27.9728 30.5506 27.9728H32.9339C32.9504 27.9729 32.9663 27.9795 32.978 27.9912C32.9897 28.0029 32.9963 28.0188 32.9964 28.0353V28.7728H30.4881V28.0353ZM51.7881 44.5776C51.7778 44.8492 51.6627 45.1064 51.467 45.2951C51.2712 45.4838 51.01 45.5893 50.7381 45.5896H25.2621C24.9902 45.5893 24.729 45.4838 24.5332 45.2951C24.3375 45.1064 24.2224 44.8492 24.2121 44.5776C23.9977 39.7531 25.1449 34.9656 27.5226 30.7623C27.619 32.3039 28.1542 33.7858 29.0651 35.0333C30.5131 36.9801 32.8651 38.2023 36.0561 38.6738V39.3001C36.0561 39.8156 36.2609 40.31 36.6254 40.6745C36.9899 41.039 37.4843 41.2438 37.9999 41.2438C38.5154 41.2438 39.0098 41.039 39.3743 40.6745C39.7388 40.31 39.9436 39.8156 39.9436 39.3001V38.6751C43.1339 38.2036 45.4866 36.9813 46.9346 35.0346C47.846 33.7863 48.3813 32.3034 48.4774 30.7608C50.8574 34.9638 52.0047 39.7526 51.7876 44.5778L51.7881 44.5776Z" fill="#252525"/>
<defs>
<filter id="filter0_d_76_2112" x="0" y="0" width="76" height="76" filterUnits="userSpaceOnUse" color-interpolation-filters="sRGB">
<feFlood flood-opacity="0" result="BackgroundImageFix"/>
<feColorMatrix in="SourceAlpha" type="matrix" values="0 0 0 0 0 0 0 0 0 0 0 0 0 0 0 0 0 0 127 0" result="hardAlpha"/>
<feOffset dy="4"/>
<feGaussianBlur stdDeviation="3"/>
<feComposite in2="hardAlpha" operator="out"/>
<feColorMatrix type="matrix" values="0 0 0 0 0 0 0 0 0 0 0 0 0 0 0 0 0 0 0.1 0"/>
<feBlend mode="normal" in2="BackgroundImageFix" result="effect1_dropShadow_76_2112"/>
<feBlend mode="normal" in="SourceGraphic" in2="effect1_dropShadow_76_2112" result="shape"/>
</filter>
</defs>
</svg>
