<svg width="76" height="76" viewBox="0 0 76 76" fill="none" xmlns="http://www.w3.org/2000/svg">
<g filter="url(#filter0_d_76_2047)">
<circle cx="38" cy="34" r="32" fill="white"/>
<circle cx="38" cy="34" r="31.5" stroke="#A43FD4"/>
</g>
<path d="M37.6836 42.8167H38.3039V49.8927H37.6836V42.8167Z" fill="#252525"/>
<path d="M31.3074 50C31.2143 49.7347 29 43.5052 29 40.0178C29 37.1305 30.2777 35.1846 31.4066 33.4661C32.2316 32.2089 32.9449 31.1285 32.9449 29.9471C32.9449 27.4831 32.2316 25.3919 32.0393 24.8802C31.5493 24.6654 29.9304 23.8188 29.9304 21.9803C29.9304 19.9838 31.1895 18.0758 31.2454 18L31.7602 18.3538C31.7416 18.3728 30.5507 20.1797 30.5507 21.9803C30.5507 23.6482 32.3122 24.3116 32.3866 24.3368C32.4673 24.3684 32.5355 24.4316 32.5665 24.5137C32.6099 24.6148 33.5652 26.984 33.5652 29.9471C33.5652 31.3181 32.765 32.5311 31.9214 33.8136C30.8422 35.4563 29.6203 37.32 29.6203 40.0178C29.6203 43.3915 31.8656 49.722 31.8904 49.7852L31.3074 50Z" fill="#252525"/>
<path d="M44.6801 50L44.0971 49.7852C44.1219 49.722 46.3672 43.3978 46.3672 40.0178C46.3672 37.32 45.1453 35.4563 44.0661 33.8136C43.2225 32.5311 42.4224 31.3117 42.4224 29.9471C42.4224 26.9903 43.3776 24.6148 43.421 24.5137C43.452 24.4316 43.5202 24.3684 43.6071 24.3368C43.6815 24.3116 45.4431 23.6482 45.4431 21.9803C45.4431 20.1797 44.2521 18.3728 44.2397 18.3538L44.7546 18C44.8104 18.0821 46.0695 19.9838 46.0695 21.9803C46.0695 23.8188 44.4506 24.6654 43.9606 24.8802C43.7683 25.3919 43.055 27.4831 43.055 29.9471C43.055 31.1285 43.7683 32.2089 44.5933 33.4661C45.7222 35.1846 46.9999 37.1305 46.9999 40.0178C46.9875 43.5052 44.7732 49.7347 44.6801 50Z" fill="#252525"/>
<path d="M37.9939 43.1325C37.8761 43.1325 37.7644 43.063 37.7148 42.9493C35.3206 37.7371 30.315 36.1387 30.2654 36.1197C30.1786 36.0944 30.1041 36.0249 30.0669 35.9428C30.0297 35.8544 30.0359 35.7596 30.0793 35.6775C30.3957 35.0583 30.743 34.496 31.0097 34.079C31.0904 33.9527 31.2454 33.9021 31.3819 33.959C32.2378 34.3065 34.5949 35.1152 37.9877 35.1152C41.3868 35.1152 43.7438 34.3065 44.5997 33.959C44.7362 33.9021 44.8913 33.9527 44.9719 34.079C45.2386 34.496 45.586 35.0583 45.9023 35.6775C45.9457 35.7596 45.9457 35.8607 45.9147 35.9428C45.8775 36.0313 45.8092 36.0944 45.7162 36.1197C45.7038 36.126 44.4323 36.524 42.8878 37.5665C41.4674 38.5205 39.5136 40.2326 38.2668 42.9493C38.2234 43.063 38.1118 43.1325 37.9939 43.1325ZM30.7988 35.6459C31.3012 35.8417 32.2813 36.265 33.4163 37.0295C34.8057 37.9645 36.6851 39.5819 37.9939 42.109C39.3027 39.5819 41.1821 37.9645 42.5715 37.0295C43.7065 36.265 44.6866 35.8354 45.189 35.6459C44.9905 35.2731 44.7796 34.9319 44.5935 34.6413C43.4088 35.0962 41.1449 35.7533 37.9877 35.7533C34.8368 35.7533 32.5728 35.0962 31.3881 34.6413C31.2082 34.9256 30.9973 35.2731 30.7988 35.6459Z" fill="#252525"/>
<path d="M37.9941 26.6302C35.4262 26.6302 33.553 26.4154 32.666 26.289L32.7529 25.6636C33.6212 25.7899 35.4634 25.9984 37.9941 25.9984C40.5248 25.9984 42.3608 25.7899 43.2353 25.6636L43.3222 26.289C42.4352 26.4154 40.562 26.6302 37.9941 26.6302Z" fill="#252525"/>
<path d="M33.7881 25.1961C33.2981 25.1961 32.7399 25.133 32.1816 24.9371L32.3863 24.3369C33.8253 24.8423 35.2954 24.3432 35.3078 24.3369L35.5125 24.9371C35.4628 24.9497 34.7433 25.1961 33.7881 25.1961Z" fill="#252525"/>
<path d="M42.1996 25.1961C41.2444 25.1961 40.5249 24.9497 40.4814 24.9371L40.6861 24.3369C40.6985 24.3432 42.1748 24.8423 43.6076 24.3369L43.8123 24.9371C43.2478 25.133 42.6896 25.1961 42.1996 25.1961Z" fill="#252525"/>
<path d="M37.6836 32.9608H38.3039V34.2244H37.6836V32.9608Z" fill="#252525"/>
<defs>
<filter id="filter0_d_76_2047" x="0" y="0" width="76" height="76" filterUnits="userSpaceOnUse" color-interpolation-filters="sRGB">
<feFlood flood-opacity="0" result="BackgroundImageFix"/>
<feColorMatrix in="SourceAlpha" type="matrix" values="0 0 0 0 0 0 0 0 0 0 0 0 0 0 0 0 0 0 127 0" result="hardAlpha"/>
<feOffset dy="4"/>
<feGaussianBlur stdDeviation="3"/>
<feComposite in2="hardAlpha" operator="out"/>
<feColorMatrix type="matrix" values="0 0 0 0 0 0 0 0 0 0 0 0 0 0 0 0 0 0 0.1 0"/>
<feBlend mode="normal" in2="BackgroundImageFix" result="effect1_dropShadow_76_2047"/>
<feBlend mode="normal" in="SourceGraphic" in2="effect1_dropShadow_76_2047" result="shape"/>
</filter>
</defs>
</svg>
