<svg width="76" height="76" viewBox="0 0 76 76" fill="none" xmlns="http://www.w3.org/2000/svg">
<g filter="url(#filter0_d_11_306)">
<circle cx="38" cy="34" r="32" fill="white"/>
<circle cx="38" cy="34" r="31.5" stroke="#A43FD4"/>
</g>
<path d="M42.4078 25.9818C42.6727 25.7008 42.8381 25.3248 42.8381 24.909C42.8381 24.3313 42.5208 23.831 42.0547 23.5587L43.7894 18.9311C43.8887 18.6671 43.7442 18.3679 43.4669 18.2879C41.5587 17.7315 40.0519 18.1451 38.5952 18.5448C36.8659 19.0188 35.2325 19.467 32.8858 18.3181C32.4882 18.123 32.0551 18.5166 32.2105 18.9311L33.9452 23.5586C33.4791 23.831 33.1619 24.3312 33.1619 24.9089C33.1619 25.3271 33.3287 25.7053 33.5962 25.9867C29.2892 29.0637 26.2452 36.0462 26.2452 41.0273C26.2452 46.802 30.4232 49.9821 38.0096 49.9821C45.5835 49.9821 49.7549 46.8019 49.7549 41.0273C49.7548 36.0432 46.712 29.0558 42.4078 25.9818ZM34.7307 25.4961C34.4072 25.4961 34.1436 25.2325 34.1436 24.909C34.1436 24.585 34.4072 24.3213 34.7307 24.3213H41.2693C41.5928 24.3213 41.8564 24.585 41.8564 24.909C41.8564 25.2325 41.5928 25.4961 41.2693 25.4961H34.7307ZM38.8546 19.4914C40.0931 19.152 41.2697 18.83 42.676 19.1046L41.0883 23.3397H34.9116L33.5266 19.6453C35.6581 20.3676 37.2796 19.9238 38.8546 19.4914ZM38.0096 49.0005C33.0905 49.0005 27.2267 47.6173 27.2267 41.0273C27.2267 36.2141 30.3734 29.1288 34.6179 26.4663C34.6558 26.4691 34.6921 26.4777 34.7307 26.4777H41.2693C41.3118 26.4777 41.3517 26.4685 41.3934 26.4651C45.6315 29.1267 48.7732 36.2134 48.7732 41.0273C48.7732 47.6173 42.92 49.0005 38.0096 49.0005Z" fill="#252525"/>
<path d="M37.9976 32.6338C34.9497 32.6338 32.4703 35.1132 32.4703 38.1606C32.4703 41.208 34.9497 43.6874 37.9976 43.6874C41.0478 43.6874 43.5297 41.208 43.5297 38.1606C43.5297 35.1132 41.0478 32.6338 37.9976 32.6338ZM37.9976 42.7058C35.4913 42.7058 33.4519 40.6669 33.4519 38.1606C33.4519 35.6544 35.4913 33.6154 37.9976 33.6154C40.5067 33.6154 42.5481 35.6544 42.5481 38.1606C42.5481 40.6669 40.5067 42.7058 37.9976 42.7058Z" fill="#252525"/>
<path d="M37.9152 36.6619H39.0794C39.3507 36.6619 39.5702 36.4424 39.5702 36.1711C39.5702 35.8998 39.3507 35.6803 39.0794 35.6803H38.4923V35.4747C38.4923 35.2034 38.2728 34.9839 38.0015 34.9839C37.7302 34.9839 37.5107 35.2034 37.5107 35.4747V35.7433C36.889 35.9208 36.4299 36.4877 36.4299 37.1656C36.4299 37.9848 37.0961 38.6514 37.9152 38.6514C37.9644 38.6514 38.1341 38.6514 38.0849 38.6514C38.3629 38.6514 38.5887 38.8777 38.5887 39.1557C38.5887 39.4337 38.3629 39.6594 38.0849 39.6594H36.9206C36.6493 39.6594 36.4298 39.879 36.4298 40.1503C36.4298 40.4216 36.6493 40.6411 36.9206 40.6411H37.5106V40.8467C37.5106 41.118 37.7301 41.3375 38.0014 41.3375C38.2727 41.3375 38.4922 41.118 38.4922 40.8467V40.5771C39.1125 40.3987 39.5702 39.8326 39.5702 39.1557C39.5702 38.3366 38.9039 37.6699 38.0848 37.6699C38.0356 37.6699 37.866 37.6699 37.9151 37.6699C37.6371 37.6699 37.4114 37.4436 37.4114 37.1656C37.4114 36.8876 37.6372 36.6619 37.9152 36.6619Z" fill="#252525"/>
<path d="M27 32.5L30.5 34" stroke="white" stroke-width="2" stroke-linecap="square"/>
<defs>
<filter id="filter0_d_11_306" x="0" y="0" width="76" height="76" filterUnits="userSpaceOnUse" color-interpolation-filters="sRGB">
<feFlood flood-opacity="0" result="BackgroundImageFix"/>
<feColorMatrix in="SourceAlpha" type="matrix" values="0 0 0 0 0 0 0 0 0 0 0 0 0 0 0 0 0 0 127 0" result="hardAlpha"/>
<feOffset dy="4"/>
<feGaussianBlur stdDeviation="3"/>
<feComposite in2="hardAlpha" operator="out"/>
<feColorMatrix type="matrix" values="0 0 0 0 0 0 0 0 0 0 0 0 0 0 0 0 0 0 0.1 0"/>
<feBlend mode="normal" in2="BackgroundImageFix" result="effect1_dropShadow_11_306"/>
<feBlend mode="normal" in="SourceGraphic" in2="effect1_dropShadow_11_306" result="shape"/>
</filter>
</defs>
</svg>
