<svg width="76" height="76" viewBox="0 0 76 76" fill="none" xmlns="http://www.w3.org/2000/svg">
<g filter="url(#filter0_d_257_1421)">
<circle cx="38" cy="34" r="32" fill="white"/>
<circle cx="38" cy="34" r="31.5" stroke="#A43FD4"/>
</g>
<path d="M25.8 38.3334C23.4143 38.3334 21 39.0662 21 40.4667V46.8667C21 48.2672 23.4143 49 25.8 49C28.1857 49 30.6 48.2672 30.6 46.8667V40.4667C30.6 39.0662 28.1857 38.3334 25.8 38.3334ZM25.8 39.4C28.225 39.4 29.5333 40.1573 29.5333 40.4667C29.5333 40.7761 28.225 41.5334 25.8 41.5334C23.375 41.5334 22.0667 40.7761 22.0667 40.4667C22.0667 40.1573 23.375 39.4 25.8 39.4ZM25.8 47.9334C23.375 47.9334 22.0667 47.1761 22.0667 46.8667V46.1201C23.2383 46.6495 24.5151 46.9047 25.8 46.8667C27.0849 46.9047 28.3617 46.6495 29.5333 46.1201V46.8667C29.5333 47.1761 28.225 47.9334 25.8 47.9334ZM25.8 45.8C23.375 45.8 22.0667 45.0427 22.0667 44.7334V43.9868C23.2383 44.5162 24.5151 44.7714 25.8 44.7334C27.0849 44.7714 28.3617 44.5162 29.5333 43.9868V44.7334C29.5333 45.0427 28.225 45.8 25.8 45.8ZM25.8 43.6667C23.375 43.6667 22.0667 42.9094 22.0667 42.6V41.8534C23.2383 42.3829 24.5151 42.6381 25.8 42.6C27.0849 42.6381 28.3617 42.3829 29.5333 41.8534V42.6C29.5333 42.9094 28.225 43.6667 25.8 43.6667Z" fill="black"/>
<path d="M36.9992 34.0667C34.6135 34.0667 32.1992 34.7995 32.1992 36.2V46.8667C32.1992 48.2672 34.6135 49 36.9992 49C39.3849 49 41.7992 48.2672 41.7992 46.8667V36.2C41.7992 34.7995 39.3849 34.0667 36.9992 34.0667ZM36.9992 35.1333C39.4242 35.1333 40.7326 35.8906 40.7326 36.2C40.7326 36.5094 39.4242 37.2667 36.9992 37.2667C34.5742 37.2667 33.2659 36.5094 33.2659 36.2C33.2659 35.8906 34.5742 35.1333 36.9992 35.1333ZM36.9992 47.9333C34.5742 47.9333 33.2659 47.176 33.2659 46.8667V46.12C34.4375 46.6495 35.7143 46.9047 36.9992 46.8667C38.2841 46.9047 39.5609 46.6495 40.7326 46.12V46.8667C40.7326 47.176 39.4242 47.9333 36.9992 47.9333ZM36.9992 45.8C34.5742 45.8 33.2659 45.0427 33.2659 44.7333V43.9867C34.4375 44.5161 35.7143 44.7713 36.9992 44.7333C38.2841 44.7713 39.5609 44.5161 40.7326 43.9867V44.7333C40.7326 45.0427 39.4242 45.8 36.9992 45.8ZM36.9992 43.6667C34.5742 43.6667 33.2659 42.9094 33.2659 42.6V41.8534C34.4375 42.3828 35.7143 42.638 36.9992 42.6C38.2841 42.638 39.5609 42.3828 40.7326 41.8534V42.6C40.7326 42.9094 39.4242 43.6667 36.9992 43.6667ZM36.9992 41.5333C34.5742 41.5333 33.2659 40.776 33.2659 40.4667V39.72C34.4375 40.2495 35.7143 40.5047 36.9992 40.4667C38.2841 40.5047 39.5609 40.2495 40.7326 39.72V40.4667C40.7326 40.776 39.4242 41.5333 36.9992 41.5333ZM36.9992 39.4C34.5742 39.4 33.2659 38.6427 33.2659 38.3333V37.5867C34.4375 38.1161 35.7143 38.3713 36.9992 38.3333C38.2841 38.3713 39.5609 38.1161 40.7326 37.5867V38.3333C40.7326 38.6427 39.4242 39.4 36.9992 39.4Z" fill="black"/>
<path d="M48.2004 27.6666C45.8147 27.6666 43.4004 28.3994 43.4004 29.8V46.8666C43.4004 48.2671 45.8147 49 48.2004 49C50.5861 49 53.0004 48.2671 53.0004 46.8666V29.8C53.0004 28.3994 50.5861 27.6666 48.2004 27.6666ZM48.2004 28.7333C50.6254 28.7333 51.9337 29.4906 51.9337 29.8C51.9337 30.1093 50.6254 30.8666 48.2004 30.8666C45.7754 30.8666 44.4671 30.1093 44.4671 29.8C44.4671 29.4906 45.7754 28.7333 48.2004 28.7333ZM48.2004 47.9333C45.7754 47.9333 44.4671 47.176 44.4671 46.8666V46.12C45.6387 46.6494 46.9155 46.9046 48.2004 46.8666C49.4853 46.9046 50.7621 46.6494 51.9337 46.12V46.8666C51.9337 47.176 50.6254 47.9333 48.2004 47.9333ZM48.2004 45.8C45.7754 45.8 44.4671 45.0427 44.4671 44.7333V43.9867C45.6387 44.5161 46.9155 44.7713 48.2004 44.7333C49.4853 44.7713 50.7621 44.5161 51.9337 43.9867V44.7333C51.9337 45.0427 50.6254 45.8 48.2004 45.8ZM48.2004 43.6666C45.7754 43.6666 44.4671 42.9093 44.4671 42.6V41.8533C45.6387 42.3828 46.9155 42.638 48.2004 42.6C49.4853 42.638 50.7621 42.3828 51.9337 41.8533V42.6C51.9337 42.9093 50.6254 43.6666 48.2004 43.6666ZM48.2004 41.5333C45.7754 41.5333 44.4671 40.776 44.4671 40.4666V39.72C45.6387 40.2494 46.9155 40.5046 48.2004 40.4666C49.4853 40.5046 50.7621 40.2494 51.9337 39.72V40.4666C51.9337 40.776 50.6254 41.5333 48.2004 41.5333ZM48.2004 39.4C45.7754 39.4 44.4671 38.6427 44.4671 38.3333V37.5867C45.6387 38.1161 46.9155 38.3713 48.2004 38.3333C49.4853 38.3713 50.7621 38.1161 51.9337 37.5867V38.3333C51.9337 38.6427 50.6254 39.4 48.2004 39.4ZM48.2004 37.2666C45.7754 37.2666 44.4671 36.5093 44.4671 36.2V35.4533C45.6387 35.9828 46.9155 36.238 48.2004 36.2C49.4853 36.238 50.7621 35.9828 51.9337 35.4533V36.2C51.9337 36.5093 50.6254 37.2666 48.2004 37.2666ZM48.2004 35.1333C45.7754 35.1333 44.4671 34.376 44.4671 34.0666V33.32C45.6387 33.8494 46.9155 34.1046 48.2004 34.0666C49.4853 34.1046 50.7621 33.8494 51.9337 33.32V34.0666C51.9337 34.376 50.6254 35.1333 48.2004 35.1333ZM48.2004 33C45.7754 33 44.4671 32.2427 44.4671 31.9333V31.1867C45.6387 31.7161 46.9155 31.9713 48.2004 31.9333C49.4853 31.9713 50.7621 31.7161 51.9337 31.1867V31.9333C51.9337 32.2427 50.6254 33 48.2004 33Z" fill="black"/>
<path d="M47.1332 17V18.0667H51.179L41.0457 28.2H29.866L21.1816 35.7984L21.8848 36.6016L30.2671 29.2667H41.4874L51.9332 18.8208V22.8667H52.9999V17H47.1332Z" fill="black"/>
<defs>
<filter id="filter0_d_257_1421" x="0" y="0" width="76" height="76" filterUnits="userSpaceOnUse" color-interpolation-filters="sRGB">
<feFlood flood-opacity="0" result="BackgroundImageFix"/>
<feColorMatrix in="SourceAlpha" type="matrix" values="0 0 0 0 0 0 0 0 0 0 0 0 0 0 0 0 0 0 127 0" result="hardAlpha"/>
<feOffset dy="4"/>
<feGaussianBlur stdDeviation="3"/>
<feComposite in2="hardAlpha" operator="out"/>
<feColorMatrix type="matrix" values="0 0 0 0 0 0 0 0 0 0 0 0 0 0 0 0 0 0 0.1 0"/>
<feBlend mode="normal" in2="BackgroundImageFix" result="effect1_dropShadow_257_1421"/>
<feBlend mode="normal" in="SourceGraphic" in2="effect1_dropShadow_257_1421" result="shape"/>
</filter>
</defs>
</svg>
