<svg width="24" height="18" viewBox="0 0 24 18" fill="none" xmlns="http://www.w3.org/2000/svg">
<path d="M18.6 13.5H19.65C19.95 13.5 20.25 13.2 20.25 12.9V2.10002C20.25 1.80002 19.95 1.50002 19.65 1.50002H18.6C18.3 1.50002 18 1.80002 18 2.10002V12.9C18 13.2 18.3 13.5 18.6 13.5ZM9.6 13.5H10.65C10.95 13.5 11.25 13.2 11.25 12.9V3.60002C11.25 3.30002 10.95 3.00002 10.65 3.00002H9.6C9.3 3.00002 9 3.30002 9 3.60002V12.9C9 13.2 9.3 13.5 9.6 13.5ZM14.1 13.5H15.15C15.45 13.5 15.75 13.2 15.75 12.9V6.60002C15.75 6.30002 15.45 6.00002 15.15 6.00002H14.1C13.8 6.00002 13.5 6.30002 13.5 6.60002V12.9C13.5 13.2 13.8 13.5 14.1 13.5ZM23.25 15.75H2.25V0.750015C2.25 0.33564 1.91438 1.52588e-05 1.5 1.52588e-05H0.75C0.335625 1.52588e-05 0 0.33564 0 0.750015V16.5C0 17.3283 0.671719 18 1.5 18H23.25C23.6644 18 24 17.6644 24 17.25V16.5C24 16.0856 23.6644 15.75 23.25 15.75ZM5.1 13.5H6.15C6.45 13.5 6.75 13.2 6.75 12.9V9.60001C6.75 9.30001 6.45 9.00002 6.15 9.00002H5.1C4.8 9.00002 4.5 9.30001 4.5 9.60001V12.9C4.5 13.2 4.8 13.5 5.1 13.5Z" fill="#4C1175"/>
</svg>
