<svg width="12" height="11" viewBox="0 0 12 11" fill="none" xmlns="http://www.w3.org/2000/svg">
<g clip-path="url(#clip0_54_517)">
<path d="M8.77324 7.60272H9.22976C9.36019 7.60272 9.49063 7.47229 9.49063 7.34185V2.6462C9.49063 2.51576 9.36019 2.38533 9.22976 2.38533H8.77324C8.6428 2.38533 8.51237 2.51576 8.51237 2.6462V7.34185C8.51237 7.47229 8.6428 7.60272 8.77324 7.60272ZM4.86019 7.60272H5.31671C5.44715 7.60272 5.57758 7.47229 5.57758 7.34185V3.29837C5.57758 3.16794 5.44715 3.0375 5.31671 3.0375H4.86019C4.72976 3.0375 4.59932 3.16794 4.59932 3.29837V7.34185C4.59932 7.47229 4.72976 7.60272 4.86019 7.60272ZM6.81671 7.60272H7.27324C7.40367 7.60272 7.53411 7.47229 7.53411 7.34185V4.60272C7.53411 4.47229 7.40367 4.34185 7.27324 4.34185H6.81671C6.68628 4.34185 6.55584 4.47229 6.55584 4.60272V7.34185C6.55584 7.47229 6.68628 7.60272 6.81671 7.60272ZM10.795 8.58098H1.66454V2.05924C1.66454 1.87908 1.51862 1.73315 1.33845 1.73315H1.01237C0.832203 1.73315 0.686279 1.87908 0.686279 2.05924V8.90707C0.686279 9.26719 0.978331 9.55924 1.33845 9.55924H10.795C10.9751 9.55924 11.1211 9.41332 11.1211 9.23316V8.90707C11.1211 8.72691 10.9751 8.58098 10.795 8.58098ZM2.90367 7.60272H3.36019C3.49063 7.60272 3.62106 7.47229 3.62106 7.34185V5.90707C3.62106 5.77663 3.49063 5.6462 3.36019 5.6462H2.90367C2.77324 5.6462 2.6428 5.77663 2.6428 5.90707V7.34185C2.6428 7.47229 2.77324 7.60272 2.90367 7.60272Z" fill="#252525"/>
</g>
<defs>
<clipPath id="clip0_54_517">
<rect width="10.4348" height="10.4348" fill="white" transform="translate(0.686279 0.428955)"/>
</clipPath>
</defs>
</svg>
