<svg width="76" height="76" viewBox="0 0 76 76" fill="none" xmlns="http://www.w3.org/2000/svg">
<g filter="url(#filter0_d_76_2018)">
<circle cx="38" cy="34" r="32" fill="white"/>
<circle cx="38" cy="34" r="31.5" stroke="#A43FD4"/>
</g>
<path d="M26.5 45.265V49C26.5 49.276 26.724 49.5 27 49.5H49C49.276 49.5 49.5 49.276 49.5 49V45.265C49.5 43.2945 48.5485 41.4805 46.9545 40.3465C46.8625 37.0515 46.628 33.747 46.252 30.486L45.769 26.299C45.5795 24.654 44.7825 23.1545 43.525 22.077C42.3385 21.06 40.8245 20.5 39.262 20.5H36.7375C35.175 20.5 33.6615 21.06 32.475 22.0765C31.2175 23.1545 30.421 24.6535 30.231 26.2985L29.7485 30.4855C29.372 33.747 29.1375 37.0515 29.0455 40.346C27.4515 41.4805 26.5 43.2945 26.5 45.265ZM30.742 30.6005L31.2245 26.4135C31.3855 25.0195 32.0605 23.749 33.126 22.836C34.1315 21.9745 35.414 21.5 36.738 21.5H39.2625C40.586 21.5 41.869 21.9745 42.874 22.836C43.9395 23.749 44.6145 25.02 44.7755 26.4135L45.2585 30.6005C45.7405 34.7795 45.99 39.031 46 43.24C45.471 43.6025 44.9195 43.922 44.351 44.1995L44 36.4775L43.001 36.523L43.3695 44.628C42.5655 44.9405 41.731 45.166 40.8775 45.311L40.5 37.4765L39.501 37.5245L39.882 45.441C39.49 45.476 39.096 45.5 38.6985 45.5H37.301C36.9035 45.5 36.51 45.476 36.118 45.4405L36.499 37.524L35.5 37.476L35.1225 45.3105C34.269 45.1655 33.4345 44.94 32.6305 44.6275L32.999 36.5225L32 36.477L31.649 44.199C31.0805 43.9215 30.529 43.602 30 43.2395C30.0105 39.031 30.2595 34.7795 30.742 30.6005ZM29.0265 41.658C29.0165 42.2725 29 42.8875 29 43.5C29 43.6615 29.078 43.813 29.2095 43.907C31.5845 45.6035 34.3825 46.5 37.3015 46.5H38.699C41.6175 46.5 44.416 45.6035 46.791 43.907C46.922 43.813 47 43.6615 47 43.5C47 42.8875 46.9835 42.2725 46.9735 41.658C47.938 42.598 48.5 43.8845 48.5 45.265V48.5H27.5V45.265C27.5 43.8845 28.062 42.598 29.0265 41.658Z" fill="#252525"/>
<defs>
<filter id="filter0_d_76_2018" x="0" y="0" width="76" height="76" filterUnits="userSpaceOnUse" color-interpolation-filters="sRGB">
<feFlood flood-opacity="0" result="BackgroundImageFix"/>
<feColorMatrix in="SourceAlpha" type="matrix" values="0 0 0 0 0 0 0 0 0 0 0 0 0 0 0 0 0 0 127 0" result="hardAlpha"/>
<feOffset dy="4"/>
<feGaussianBlur stdDeviation="3"/>
<feComposite in2="hardAlpha" operator="out"/>
<feColorMatrix type="matrix" values="0 0 0 0 0 0 0 0 0 0 0 0 0 0 0 0 0 0 0.1 0"/>
<feBlend mode="normal" in2="BackgroundImageFix" result="effect1_dropShadow_76_2018"/>
<feBlend mode="normal" in="SourceGraphic" in2="effect1_dropShadow_76_2018" result="shape"/>
</filter>
</defs>
</svg>
