<svg width="76" height="76" viewBox="0 0 76 76" fill="none" xmlns="http://www.w3.org/2000/svg">
<g filter="url(#filter0_d_11_236)">
<circle cx="38" cy="34" r="32" fill="white"/>
<circle cx="38" cy="34" r="31.5" stroke="#A43FD4"/>
</g>
<path d="M38.1774 35.6211C38.5254 35.6094 38.8573 35.4702 39.1107 35.2296C39.1491 35.1976 39.1808 35.1581 39.204 35.1136C39.2271 35.0691 39.2412 35.0203 39.2454 34.9703C39.2496 34.9202 39.2439 34.8697 39.2285 34.8219C39.2131 34.7741 39.1885 34.7298 39.1559 34.6918C39.1234 34.6537 39.0836 34.6225 39.039 34.6001C38.9943 34.5777 38.9457 34.5645 38.8959 34.5612C38.8462 34.558 38.7962 34.5648 38.7491 34.5812C38.702 34.5976 38.6586 34.6234 38.6214 34.6569C38.5669 34.7221 38.4989 34.7744 38.4222 34.8103C38.3455 34.8462 38.262 34.8648 38.1774 34.8648C38.0929 34.8648 38.0093 34.8462 37.9326 34.8103C37.8559 34.7744 37.788 34.7221 37.7334 34.6569C37.6963 34.6234 37.6529 34.5976 37.6057 34.5812C37.5586 34.5648 37.5087 34.558 37.4589 34.5612C37.4091 34.5645 37.3605 34.5777 37.3159 34.6001C37.2712 34.6225 37.2315 34.6537 37.1989 34.6918C37.1664 34.7298 37.1417 34.7741 37.1263 34.8219C37.111 34.8697 37.1052 34.9202 37.1094 34.9703C37.1136 35.0203 37.1277 35.0691 37.1509 35.1136C37.174 35.1581 37.2057 35.1976 37.2442 35.2296C37.4976 35.4702 37.8294 35.6094 38.1774 35.6211Z" fill="#252525"/>
<path d="M39.9794 36.9074H39.9749C39.697 36.9638 39.4114 36.9713 39.1309 36.9296C39.0609 36.9193 38.9927 36.9057 38.9109 36.8898C38.7942 36.8625 38.6735 36.8566 38.5547 36.8724C38.4304 36.8945 38.3122 36.9432 38.2082 37.0153C38.1989 37.0208 38.1882 37.0238 38.1774 37.0238C38.1666 37.0238 38.156 37.0208 38.1467 37.0153C38.0427 36.9432 37.9245 36.8945 37.8002 36.8724C37.6814 36.8566 37.5607 36.8625 37.4439 36.8898C37.3624 36.9057 37.2939 36.9193 37.2239 36.9296C36.9435 36.9713 36.6581 36.9638 36.3802 36.9074H36.3754C36.3102 36.8945 36.2426 36.9064 36.1855 36.9407C36.1285 36.9751 36.0861 37.0295 36.0665 37.0935C36.0469 37.1575 36.0515 37.2265 36.0794 37.2873C36.1073 37.3481 36.1566 37.3963 36.2177 37.4226C36.5523 37.5692 36.9149 37.6399 37.2797 37.6297C37.3702 37.6272 37.4617 37.6197 37.5394 37.6136C37.6124 37.6071 37.6437 37.6192 37.7522 37.6834C37.872 37.7569 38.0091 37.7969 38.1494 37.7993H38.2054C38.3457 37.7969 38.4828 37.7569 38.6027 37.6834C38.7112 37.6192 38.7424 37.6078 38.8154 37.6136C38.8932 37.6197 38.9847 37.6272 39.0752 37.6297C39.44 37.6399 39.8025 37.5692 40.1372 37.4226C40.1983 37.3963 40.2475 37.3481 40.2755 37.2873C40.3034 37.2265 40.308 37.1575 40.2884 37.0935C40.2688 37.0295 40.2264 36.9751 40.1693 36.9407C40.1123 36.9064 40.0446 36.8945 39.9794 36.9074Z" fill="#252525"/>
<path d="M38.4054 38.2269C38.3352 38.2645 38.2569 38.2842 38.1774 38.2842C38.0979 38.2842 38.0196 38.2645 37.9494 38.2269C37.8607 38.1889 37.7609 38.1869 37.6707 38.2211C37.5805 38.2554 37.5068 38.3233 37.465 38.4108C37.4232 38.4983 37.4164 38.5987 37.4461 38.6911C37.4758 38.7836 37.5396 38.8609 37.6244 38.9071C37.7962 38.9938 37.9856 39.0389 38.1777 39.0389C38.3698 39.0389 38.5592 38.9938 38.7309 38.9071C38.7776 38.8871 38.8198 38.8578 38.8549 38.8209C38.8901 38.784 38.9174 38.7404 38.9353 38.6925C38.9532 38.6447 38.9612 38.5937 38.959 38.5426C38.9567 38.4915 38.9442 38.4414 38.9222 38.3954C38.9002 38.3493 38.8692 38.3082 38.8309 38.2746C38.7927 38.241 38.7481 38.2155 38.6999 38.1998C38.6516 38.184 38.6007 38.1783 38.5501 38.183C38.4996 38.1876 38.4506 38.2026 38.4059 38.2269H38.4054Z" fill="#252525"/>
<path d="M42.5797 32.7423L42.6749 32.6839C42.7049 32.6647 42.7189 32.6524 42.7419 32.6358C42.8155 32.5863 42.8936 32.5441 42.9752 32.5098C43.0482 32.4735 43.1299 32.4588 43.2109 32.4675L43.2609 32.473C43.2926 32.4764 43.3246 32.4711 43.3535 32.4576C43.3824 32.4441 43.4071 32.423 43.4251 32.3965C43.4431 32.37 43.4535 32.3391 43.4554 32.307C43.4573 32.275 43.4506 32.243 43.4359 32.2145C43.3845 32.1292 43.313 32.0579 43.2279 32.0069C43.1427 31.9558 43.0464 31.9266 42.9474 31.9218C42.7705 31.9135 42.5941 31.9464 42.4319 32.018L42.3262 32.0636L42.2484 32.0997C42.1949 32.1216 42.1427 32.1453 42.0869 32.1642C41.9794 32.2085 41.8674 32.245 41.7564 32.2803C41.5401 32.3495 41.3171 32.3955 41.0912 32.4176C40.8893 32.4414 40.6847 32.4235 40.4899 32.365L40.4534 32.3529C40.3943 32.3335 40.3303 32.3355 40.2725 32.3584C40.2146 32.3813 40.1664 32.4238 40.1362 32.4785C40.106 32.5333 40.0956 32.5969 40.1067 32.6585C40.1179 32.7202 40.1499 32.776 40.1974 32.8164C40.4543 33.0223 40.7725 33.135 41.1007 33.1364C41.3987 33.1437 41.6959 33.1007 41.9799 33.0091C42.1186 32.965 42.2541 32.9112 42.3854 32.8482C42.4524 32.8162 42.5154 32.7784 42.5797 32.7423Z" fill="#252525"/>
<path d="M36.2387 32.5256C36.2166 32.4574 36.1687 32.4009 36.1053 32.3684C36.0419 32.3359 35.9683 32.3301 35.9007 32.3523L35.8644 32.3641C35.67 32.4225 35.4659 32.4404 35.2644 32.4167C35.0385 32.3947 34.8155 32.3487 34.5992 32.2794C34.4882 32.2442 34.3762 32.2076 34.2687 32.1633C34.2129 32.1444 34.1607 32.1207 34.1072 32.0988L34.0274 32.0628L33.9217 32.0172C33.7595 31.9455 33.5831 31.9126 33.4062 31.9209C33.3072 31.9258 33.2109 31.955 33.1257 32.006C33.0406 32.057 32.9691 32.1284 32.9177 32.2137C32.9015 32.2446 32.895 32.2797 32.8989 32.3145C32.9041 32.3613 32.9276 32.4041 32.9641 32.4335C33.0006 32.463 33.0472 32.4766 33.0937 32.4714L33.1437 32.4659C33.2246 32.4572 33.3064 32.4719 33.3794 32.5082C33.4609 32.5425 33.539 32.5847 33.6124 32.6342C33.6357 32.6508 33.6497 32.6631 33.6797 32.6823L33.7749 32.7407C33.8392 32.7768 33.9029 32.8143 33.9687 32.8458C34.1 32.9088 34.2355 32.9626 34.3742 33.0068C34.6582 33.0983 34.9553 33.1413 35.2534 33.134C35.5816 33.1326 35.8998 33.0199 36.1567 32.814C36.197 32.7794 36.2263 32.7336 36.2409 32.6823C36.2555 32.631 36.2547 32.5765 36.2387 32.5256Z" fill="#252525"/>
<path d="M48.2382 46.815C47.4512 46.0806 46.0132 45.6057 44.6242 45.1444C43.8844 44.922 43.1607 44.6485 42.4582 44.3259C41.0367 43.5991 40.9582 42.2671 40.9022 41.2946C40.9022 41.271 40.8994 41.2511 40.8979 41.2281C41.6006 40.8021 42.2486 40.2908 42.8274 39.7054C43.6393 38.8692 44.246 37.8534 44.5992 36.7389C45.8259 36.6994 47.0639 35.38 47.2584 34.1924C47.2803 34.0629 47.2938 33.9322 47.2989 33.8009C47.5215 33.7166 47.7102 33.5605 47.8357 33.357C48.2829 32.6264 48.0357 31.7479 47.7747 30.8178L47.7587 30.7616C48.3017 28.7804 48.0994 24.5867 45.9337 21.5661C44.3924 19.4178 40.7427 17.1913 38.1774 18.2902C35.6119 17.191 31.9624 19.4176 30.4212 21.5653C28.2544 24.587 28.0522 28.7807 28.5962 30.7608L28.5802 30.817C28.3189 31.7472 28.0719 32.6256 28.5189 33.3562C28.6446 33.5596 28.8333 33.7155 29.0559 33.7997C29.0609 33.9303 29.0744 34.0605 29.0962 34.1894C29.2909 35.379 30.5289 36.6986 31.7557 36.7382C32.1087 37.8529 32.7155 38.869 33.5274 39.7054C34.1066 40.2908 34.755 40.8021 35.4579 41.2281C35.4564 41.2511 35.4549 41.271 35.4537 41.2946C35.3967 42.2671 35.3189 43.5991 33.8977 44.3259C33.1952 44.6485 32.4715 44.922 31.7317 45.1444C30.3417 45.6044 28.9047 46.0806 28.1177 46.815C27.3366 47.5579 26.732 48.4688 26.3489 49.4799C26.3116 49.5726 26.3122 49.6765 26.3508 49.7687C26.3893 49.861 26.4626 49.934 26.5545 49.9719C26.6464 50.0098 26.7495 50.0093 26.8411 49.9707C26.9327 49.9321 27.0054 49.8584 27.0432 49.7659C27.3858 48.8572 27.9273 48.0381 28.6274 47.3695C29.2942 46.747 30.7137 46.2771 31.9657 45.8624C32.7419 45.6289 33.5008 45.3408 34.2369 45.0001C35.8942 44.1526 36.1142 42.6405 36.1852 41.6055C36.684 41.8318 37.2048 42.0054 37.7392 42.1235C38.0282 42.1878 38.3277 42.1878 38.6167 42.1235C39.1514 42.0052 39.6725 41.8315 40.1717 41.6053C40.2427 42.6402 40.4627 44.1523 42.1199 44.9998C42.856 45.3405 43.615 45.6287 44.3912 45.8622C45.6432 46.2769 47.0627 46.7467 47.7294 47.3692C48.4296 48.0379 48.9711 48.857 49.3137 49.7656C49.3515 49.8582 49.4241 49.9318 49.5157 49.9705C49.6074 50.0091 49.7104 50.0095 49.8024 49.9717C49.8943 49.9338 49.9676 49.8607 50.0061 49.7685C50.0446 49.6763 50.0453 49.5724 50.0079 49.4797C49.6245 48.4685 49.0196 47.5577 48.2382 46.815ZM45.7202 33.2444C45.7024 33.2394 45.6843 33.2357 45.6659 33.2336C45.5363 33.2214 45.4056 33.2317 45.2794 33.264C45.2884 33.1381 45.2957 33.0121 45.3022 32.8836C45.4477 33.0116 45.587 33.1319 45.7202 33.2444ZM44.8452 35.9476C44.9908 35.3909 45.1018 34.8256 45.1774 34.2549C45.3317 33.9624 45.5274 33.9778 45.5932 33.9846C45.6921 33.9942 45.7908 33.9638 45.8676 33.9001C45.9443 33.8365 45.9928 33.7447 46.0024 33.645C46.0086 33.5772 45.9963 33.509 45.9669 33.4477C46.0492 33.514 46.1317 33.581 46.2079 33.6397C46.3101 33.7183 46.4248 33.7787 46.5472 33.8183C46.5424 33.9017 46.5331 33.9848 46.5194 34.0672C46.3947 34.8328 45.6104 35.7488 44.8444 35.9464L44.8452 35.9476ZM45.3259 22.0082C47.0354 24.3922 47.4669 27.748 47.1854 29.8085C47.0346 29.5985 46.8659 29.4022 46.6812 29.2218C46.6075 29.1585 46.5124 29.1263 46.4157 29.132C46.3191 29.1378 46.2284 29.181 46.1626 29.2526C46.0968 29.3242 46.0611 29.4187 46.0629 29.5163C46.0647 29.6138 46.1038 29.7069 46.1722 29.776C46.5109 30.1093 46.7975 30.4924 47.0222 30.9123C47.2264 31.3831 47.4722 32.512 47.1972 32.96C47.1666 33.0081 47.1247 33.0479 47.0752 33.0759C47.0257 33.1039 46.9702 33.1192 46.9134 33.1204C46.8238 33.1202 46.7364 33.0919 46.6634 33.0393C46.3884 32.8269 45.9102 32.4359 45.2042 31.7797C44.5114 31.1382 43.7272 30.3595 42.8729 29.4652C41.6177 28.1551 40.2004 26.5846 38.6604 24.8004C39.3727 23.7481 38.8587 22.6506 38.4369 21.755C38.2321 21.3907 38.0911 20.9936 38.0202 20.581C37.9952 20.0792 38.2849 19.3483 38.4519 18.9938C40.6144 18.0509 43.9952 20.1537 45.3259 22.0082ZM29.3322 30.9125C29.5567 30.4926 29.8433 30.1095 30.1822 29.7765C30.2505 29.7074 30.2897 29.6143 30.2915 29.5168C30.2933 29.4192 30.2576 29.3247 30.1918 29.2531C30.126 29.1815 30.0353 29.1383 29.9386 29.1325C29.842 29.1268 29.7469 29.159 29.6732 29.2223C29.4885 29.4027 29.3197 29.599 29.1689 29.809C28.8874 27.7485 29.3189 24.3925 31.0284 22.0087C32.1332 20.4697 34.6497 18.7583 36.7087 18.7583C37.0353 18.7552 37.3604 18.804 37.6719 18.9029C37.4228 19.4409 37.2866 20.025 37.2719 20.6185C37.3414 21.1319 37.5071 21.6273 37.7602 22.0782C38.2514 23.121 38.5262 23.8571 37.8977 24.5615L37.8929 24.5666C36.2754 26.4493 34.7902 28.0972 33.4797 29.4654C32.6259 30.3593 31.8417 31.138 31.1482 31.7802C30.4429 32.4364 29.9657 32.8274 29.6884 33.0398C29.619 33.0928 29.534 33.1211 29.4469 33.1202C29.3891 33.1197 29.3323 33.1047 29.2816 33.0767C29.2309 33.0486 29.1879 33.0083 29.1564 32.9595C28.8824 32.5138 29.1274 31.3831 29.3322 30.9125ZM31.0524 32.8824C31.0589 33.0101 31.0662 33.1371 31.0752 33.2628C30.949 33.2305 30.8183 33.2202 30.6887 33.2323C30.6703 33.2345 30.6522 33.2381 30.6344 33.2431C30.7679 33.1313 30.9073 33.011 31.0524 32.8824ZM29.8344 34.0649C29.8209 33.9833 29.8117 33.9009 29.8069 33.8183C29.9288 33.7793 30.0431 33.7197 30.1449 33.6419C30.2217 33.5827 30.3047 33.516 30.3872 33.449C30.3583 33.5093 30.3459 33.5762 30.3513 33.643C30.3568 33.7097 30.3798 33.7738 30.418 33.8285C30.4563 33.8833 30.5084 33.9267 30.5689 33.9544C30.6294 33.982 30.6961 33.9929 30.7622 33.9858C30.8274 33.9788 31.0234 33.9637 31.1777 34.2562C31.2539 34.8262 31.3651 35.3909 31.5107 35.9471C30.7449 35.7473 29.9602 34.8316 29.8347 34.0649H29.8344ZM38.4524 41.3858C38.2706 41.4264 38.0821 41.4264 37.9002 41.3858C36.1024 40.9858 34.9862 40.0813 34.0479 39.1635C33.2711 38.3476 32.701 37.3547 32.3862 36.2693C32.3824 36.2544 32.3775 36.2398 32.3717 36.2255C32.155 35.5254 32.0001 34.8074 31.9087 34.0798C31.8307 33.4624 31.7878 32.8409 31.7802 32.2185C32.4397 31.6025 33.1737 30.873 33.9687 30.0421C34.6622 30.0413 35.3551 30.0823 36.0437 30.1648L36.0564 30.1673C36.1276 30.1808 36.2011 30.1677 36.2633 30.1305C36.3256 30.0932 36.3722 30.0344 36.3944 29.965C36.4166 29.8956 36.413 29.8204 36.3841 29.7535C36.3553 29.6866 36.3032 29.6327 36.2377 29.6017C35.9074 29.4531 35.555 29.3605 35.1947 29.3276C35.0203 29.3097 34.845 29.3017 34.6697 29.3037C35.7432 28.1586 36.9197 26.8466 38.1779 25.3901C39.4369 26.8466 40.6132 28.1586 41.6862 29.3037C41.5109 29.3019 41.3356 29.3099 41.1612 29.3276C40.8009 29.3605 40.4485 29.4531 40.1182 29.6017C40.0526 29.6326 40.0005 29.6866 39.9716 29.7536C39.9427 29.8205 39.9391 29.8957 39.9613 29.9652C39.9836 30.0346 40.0303 30.0935 40.0926 30.1307C40.1549 30.1679 40.2285 30.1809 40.2997 30.1673L40.3122 30.1648C41.0008 30.0823 41.6937 30.0415 42.3872 30.0423C43.1824 30.8737 43.9167 31.6043 44.5754 32.2185C44.5679 32.8407 44.525 33.462 44.4469 34.0793C44.3566 34.7961 44.2047 35.5037 43.9929 36.194C43.9817 36.2199 43.9733 36.2469 43.9679 36.2746C43.6531 37.358 43.0837 38.349 42.3082 39.1635C41.3679 40.0811 40.2524 40.9855 38.4524 41.3858Z" fill="#252525"/>
<path d="M30.7249 26.8654C30.7802 26.8655 30.8348 26.8533 30.8849 26.8296C30.9349 26.8059 30.9792 26.7713 31.0144 26.7284C31.0454 26.6906 34.1427 22.9494 36.5764 22.9494C36.6759 22.9494 36.7713 22.9096 36.8416 22.8387C36.9119 22.7678 36.9514 22.6717 36.9514 22.5715C36.9514 22.4713 36.9119 22.3752 36.8416 22.3043C36.7713 22.2334 36.6759 22.1936 36.5764 22.1936C33.7934 22.1936 30.5719 26.0827 30.4362 26.248C30.3912 26.3032 30.3627 26.3702 30.354 26.4411C30.3453 26.512 30.3567 26.584 30.3869 26.6486C30.4172 26.7133 30.465 26.768 30.5248 26.8063C30.5846 26.8447 30.654 26.8652 30.7249 26.8654Z" fill="#252525"/>
<path d="M39.7774 22.9481C42.2079 22.9481 45.3084 26.6906 45.3394 26.7271C45.3708 26.7653 45.4094 26.797 45.4529 26.8202C45.4964 26.8435 45.5441 26.8579 45.5931 26.8626C45.6422 26.8673 45.6916 26.8622 45.7387 26.8476C45.7858 26.833 45.8296 26.8092 45.8676 26.7776C45.9055 26.746 45.9369 26.7071 45.96 26.6632C45.9831 26.6194 45.9973 26.5714 46.002 26.522C46.0067 26.4725 46.0016 26.4227 45.9871 26.3752C45.9727 26.3278 45.9491 26.2836 45.9177 26.2454C45.7819 26.0801 42.5604 22.191 39.7774 22.191C39.678 22.191 39.5826 22.2309 39.5123 22.3017C39.4419 22.3726 39.4024 22.4687 39.4024 22.5689C39.4024 22.6692 39.4419 22.7653 39.5123 22.8362C39.5826 22.907 39.678 22.9468 39.7774 22.9468V22.9481Z" fill="#252525"/>
<path d="M33 51L32 43" stroke="white" stroke-width="2" stroke-linecap="square"/>
<defs>
<filter id="filter0_d_11_236" x="0" y="0" width="76" height="76" filterUnits="userSpaceOnUse" color-interpolation-filters="sRGB">
<feFlood flood-opacity="0" result="BackgroundImageFix"/>
<feColorMatrix in="SourceAlpha" type="matrix" values="0 0 0 0 0 0 0 0 0 0 0 0 0 0 0 0 0 0 127 0" result="hardAlpha"/>
<feOffset dy="4"/>
<feGaussianBlur stdDeviation="3"/>
<feComposite in2="hardAlpha" operator="out"/>
<feColorMatrix type="matrix" values="0 0 0 0 0 0 0 0 0 0 0 0 0 0 0 0 0 0 0.1 0"/>
<feBlend mode="normal" in2="BackgroundImageFix" result="effect1_dropShadow_11_236"/>
<feBlend mode="normal" in="SourceGraphic" in2="effect1_dropShadow_11_236" result="shape"/>
</filter>
</defs>
</svg>
