<svg width="76" height="76" viewBox="0 0 76 76" fill="none" xmlns="http://www.w3.org/2000/svg">
<g filter="url(#filter0_d_11_266)">
<circle cx="38" cy="34" r="32" fill="white"/>
<circle cx="38" cy="34" r="31.5" stroke="#A43FD4"/>
</g>
<path d="M40.1867 36.6613C40.1043 36.6613 40.0225 36.6559 39.9402 36.6445C39.3577 36.5636 38.8545 36.2039 38.5944 35.6823L36.3479 31.1823C36.2614 31.0096 36.0978 30.8945 35.8981 30.867C35.6996 30.8388 35.51 30.9059 35.3808 31.0492L33.7114 32.9023C33.1514 33.524 32.3532 33.8802 31.5218 33.8802H22.5926C22.2649 33.8802 22 33.6116 22 33.2806C22 32.9497 22.2649 32.6811 22.5926 32.6811H31.5212C32.0202 32.6811 32.499 32.4671 32.835 32.0942L34.5049 30.2405C34.8948 29.8076 35.478 29.5966 36.0581 29.6787C36.6406 29.7591 37.1443 30.1188 37.4051 30.6409L39.6516 35.1409C39.7381 35.3136 39.9017 35.4281 40.1008 35.4557C40.2999 35.4821 40.4895 35.4173 40.6187 35.274L42.288 33.4209C42.848 32.7992 43.6468 32.4431 44.4777 32.4431H53.4074C53.7351 32.4431 54 32.7117 54 33.0426C54 33.3736 53.7351 33.6421 53.4074 33.6421H44.4788C43.9799 33.6421 43.5017 33.8562 43.1651 34.2291L41.4951 36.0828C41.1591 36.4545 40.6833 36.6613 40.1867 36.6613Z" fill="#252525"/>
<path d="M50.9553 30.6199C50.6347 30.6199 50.371 30.3609 50.3627 30.0354C50.2821 26.7494 48.0095 23.2014 44.4777 23.199C44.1506 23.199 43.8857 22.9305 43.8857 22.5995C43.8857 22.2686 44.1512 22 44.4783 22H44.4789C48.7242 22.003 51.4537 26.1577 51.5479 30.0054C51.5562 30.3363 51.2972 30.6115 50.9695 30.6193C50.9654 30.6199 50.9601 30.6199 50.9553 30.6199Z" fill="#252525"/>
<path d="M38 46C37.856 46 37.7114 45.9472 37.597 45.8405C37.357 45.6157 37.3422 45.2362 37.565 44.9934C39.1828 43.2248 41.0922 41.7925 42.9387 40.407L43.6273 39.8891C45.4311 38.5299 47.296 37.1247 48.6359 35.3069C49.2154 34.5204 49.6593 33.6816 49.9544 32.8123C50.0604 32.4994 50.3941 32.3321 50.7076 32.44C51.0169 32.5479 51.1816 32.8891 51.075 33.202C50.7407 34.1888 50.2394 35.1379 49.5864 36.0239C48.1428 37.982 46.2074 39.44 44.336 40.8507L43.645 41.3699C41.7588 42.7847 39.9781 44.1211 38.4344 45.8075C38.3182 45.9352 38.1594 46 38 46Z" fill="#252525"/>
<path d="M25.571 33.8531C25.3298 33.8531 25.1028 33.7026 25.0151 33.4604C24.6341 32.4119 24.4439 31.3141 24.4504 30.1966C24.4522 29.8669 24.7171 29.6007 25.043 29.6007H25.0465C25.3736 29.6025 25.6374 29.8723 25.6356 30.2038C25.6302 31.1774 25.7962 32.1337 26.1274 33.0468C26.24 33.3579 26.083 33.702 25.7754 33.8165C25.7085 33.8411 25.6391 33.8531 25.571 33.8531Z" fill="#252525"/>
<path d="M38 46C37.8394 46 37.6806 45.9346 37.5639 45.8057C36.0693 44.1588 34.2424 42.7979 32.4747 41.482C30.5339 40.0359 28.5262 38.5413 26.8901 36.6324C26.6762 36.3824 26.7028 36.0036 26.9499 35.7865C27.1976 35.5695 27.571 35.5959 27.7861 35.8465C29.3351 37.6546 31.2883 39.1091 33.1775 40.5161C34.9908 41.8663 36.8646 43.2619 38.4368 44.9946C38.6584 45.2386 38.6424 45.6181 38.4012 45.8417C38.2868 45.9478 38.1434 46 38 46Z" fill="#252525"/>
<path d="M38 26.2392C37.8501 26.2392 37.7007 26.1823 37.5852 26.0677C36.2684 24.7626 34.1469 23.2056 31.5206 23.199C31.1929 23.1984 30.9286 22.9293 30.9292 22.5983C30.9298 22.268 31.1952 22 31.5218 22H31.5229C34.5487 22.0072 36.941 23.7506 38.4154 25.211C38.6495 25.443 38.6524 25.8225 38.4237 26.0588C38.3075 26.1793 38.1541 26.2392 38 26.2392Z" fill="#252525"/>
<path d="M38.0001 26.2392C37.846 26.2392 37.6925 26.1793 37.5769 26.0594C37.3476 25.8226 37.3512 25.4437 37.5852 25.2116C39.0596 23.7506 41.4513 22.0078 44.4777 22.0006H44.4789C44.8054 22.0006 45.0709 22.268 45.0715 22.5989C45.0721 22.9299 44.8078 23.1991 44.4801 23.1997C41.8531 23.2062 39.7316 24.7632 38.4155 26.0684C38.2993 26.1823 38.15 26.2392 38.0001 26.2392Z" fill="#252525"/>
<path d="M25.043 30.7998C25.0424 30.7998 25.0418 30.7998 25.0406 30.7998C24.7135 30.7986 24.4492 30.5294 24.4504 30.1985C24.4646 26.2668 27.1716 22.015 31.52 22.0006H31.5218C31.8483 22.0006 32.1132 22.268 32.1144 22.5983C32.1156 22.9293 31.8513 23.1985 31.5236 23.1997C27.9029 23.2116 25.648 26.8441 25.6356 30.2027C25.6344 30.5324 25.3695 30.7998 25.043 30.7998Z" fill="#252525"/>
<defs>
<filter id="filter0_d_11_266" x="0" y="0" width="76" height="76" filterUnits="userSpaceOnUse" color-interpolation-filters="sRGB">
<feFlood flood-opacity="0" result="BackgroundImageFix"/>
<feColorMatrix in="SourceAlpha" type="matrix" values="0 0 0 0 0 0 0 0 0 0 0 0 0 0 0 0 0 0 127 0" result="hardAlpha"/>
<feOffset dy="4"/>
<feGaussianBlur stdDeviation="3"/>
<feComposite in2="hardAlpha" operator="out"/>
<feColorMatrix type="matrix" values="0 0 0 0 0 0 0 0 0 0 0 0 0 0 0 0 0 0 0.1 0"/>
<feBlend mode="normal" in2="BackgroundImageFix" result="effect1_dropShadow_11_266"/>
<feBlend mode="normal" in="SourceGraphic" in2="effect1_dropShadow_11_266" result="shape"/>
</filter>
</defs>
</svg>
