<svg width="116" height="21" viewBox="0 0 116 21" fill="none" xmlns="http://www.w3.org/2000/svg">
<path d="M20.423 13.995L16.0388 1.0022H12.7698L8.29237 13.9318L3.99805 1.0022H0L6.33829 19.9705H9.99013L14.3277 7.28056L18.662 19.9705H22.2639L28.6022 1.0022H24.8072L20.423 13.995Z" fill="#252525"/>
<path d="M34.5641 12.0835H43.409V8.6114H34.5641V4.5268H44.491V1.00146H30.7158V19.9697H44.8438V16.4444H34.5641V12.0835Z" fill="#252525"/>
<path d="M61.585 2.18314C59.9536 1.37831 58.1541 0.973236 56.3353 1.00137H48.2227V19.9763H56.3353C58.1598 20.0071 59.9652 19.6019 61.6016 18.7945C63.1084 18.0419 64.3686 16.8742 65.2335 15.429C66.0804 13.9208 66.5252 12.2202 66.5252 10.4905C66.5252 8.76082 66.0804 7.0602 65.2335 5.55202C64.363 4.10451 63.0972 2.93572 61.585 2.18314ZM52.0742 4.51339H56.1688C57.3665 4.48655 58.5533 4.74559 59.6309 5.26906C60.5641 5.72723 61.342 6.44959 61.8679 7.34632C62.3857 8.30687 62.6568 9.38098 62.6568 10.4722C62.6568 11.5634 62.3857 12.6375 61.8679 13.5981C61.3418 14.4938 60.5638 15.215 59.6309 15.672C58.5536 16.1966 57.3668 16.4568 56.1688 16.431H52.0742V4.51339Z" fill="#252525"/>
<path d="M81.9686 11.5941C81.9686 13.3285 81.5958 14.6135 80.8601 15.4124C80.1244 16.2114 79.0791 16.5975 77.6476 16.5975C74.7148 16.5975 73.35 15.0063 73.35 11.6041V1.00146H69.5117V11.694C69.5117 14.3804 70.2341 16.4877 71.6655 17.9524C73.097 19.4171 75.1043 20.1695 77.631 20.1695C80.1577 20.1695 82.165 19.4304 83.5998 17.9657C85.0345 16.501 85.7536 14.4004 85.7536 11.694V1.00146H81.9686V11.5941Z" fill="#252525"/>
<path d="M109.662 1.00146H106.01L101.672 13.6914L97.3381 1.00146H93.7362L87.3979 19.9697H91.1929L95.5771 6.97689L99.9613 19.9697H103.23L107.708 7.04014L112.002 19.9697H116L109.662 1.00146Z" fill="#252525"/>
</svg>
