<svg width="13" height="12" viewBox="0 0 13 12" fill="none" xmlns="http://www.w3.org/2000/svg">
<path d="M11.094 2.78124C10.2057 1.00638 8.01551 0.817104 6.85443 2.73291L6.47115 3.36533L6.08792 2.73288C4.92705 0.817113 2.73711 1.00639 1.84888 2.78123C0.815431 4.84623 2.22443 7.652 6.47119 10.0347C10.7183 7.65199 12.1275 4.84622 11.094 2.78124ZM11.8955 2.3801C13.198 4.98256 11.4776 8.32646 6.68577 10.9402L6.47117 11.0573L6.25658 10.9402C1.46512 8.32646 -0.255047 4.98256 1.04737 2.38011C2.14887 0.179125 4.85105 -0.217369 6.47121 1.72893C8.09157 -0.217362 10.7939 0.179119 11.8955 2.3801Z" fill="#252525"/>
</svg>
