<svg width="76" height="76" viewBox="0 0 76 76" fill="none" xmlns="http://www.w3.org/2000/svg">
<g filter="url(#filter0_d_257_1580)">
<circle cx="38" cy="34" r="32" fill="white"/>
<circle cx="38" cy="34" r="31.5" stroke="#A43FD4"/>
</g>
<g clip-path="url(#clip0_257_1580)">
<path d="M36.6246 33.4997H43.1195C43.3954 33.4997 43.6191 33.2761 43.6191 33.0001C43.6191 32.7242 43.3954 32.5005 43.1195 32.5005H36.6246C36.3487 32.5005 36.125 32.7242 36.125 33.0001C36.125 33.2761 36.3487 33.4997 36.6246 33.4997Z" fill="black"/>
<path d="M36.6246 30.8157H43.1195C43.3954 30.8157 43.6191 30.592 43.6191 30.316C43.6191 30.0401 43.3954 29.8164 43.1195 29.8164H36.6246C36.3487 29.8164 36.125 30.0401 36.125 30.316C36.125 30.592 36.3487 30.8157 36.6246 30.8157Z" fill="black"/>
<path d="M36.6246 23.7502H43.1195C43.3954 23.7502 43.6191 23.5265 43.6191 23.2506C43.6191 22.9747 43.3954 22.751 43.1195 22.751H36.6246C36.3487 22.751 36.125 22.9747 36.125 23.2506C36.125 23.5265 36.3487 23.7502 36.6246 23.7502Z" fill="black"/>
<path d="M36.6246 21.0661H43.1195C43.3954 21.0661 43.6191 20.8425 43.6191 20.5665C43.6191 20.2906 43.3954 20.0669 43.1195 20.0669H36.6246C36.3487 20.0669 36.125 20.2906 36.125 20.5665C36.125 20.8425 36.3487 21.0661 36.6246 21.0661Z" fill="black"/>
<path d="M48.4779 37.6754C46.3825 37.6754 44.6777 39.381 44.6777 41.4774C44.6777 43.5729 46.3825 45.2776 48.4779 45.2776C50.5734 45.2776 52.2781 43.5729 52.2781 41.4774C52.2781 39.381 50.5734 37.6754 48.4779 37.6754ZM48.4779 44.2784C47.7972 44.2784 47.1727 44.0342 46.6868 43.629V39.3245C47.1727 38.9191 47.7972 38.6747 48.4779 38.6747C50.0224 38.6747 51.2789 39.932 51.2789 41.4775C51.2789 43.0219 50.0223 44.2784 48.4779 44.2784Z" fill="black"/>
<path d="M34.0372 41.0099L31.6257 43.1974L30.823 42.3959C30.6277 42.201 30.3114 42.2012 30.1164 42.3965C29.9214 42.5917 29.9217 42.9081 30.117 43.103L31.2562 44.2404C31.3535 44.3375 31.4812 44.3865 31.6092 44.3865C31.7292 44.3865 31.8494 44.3435 31.9449 44.2569L32.8742 43.414V44.9339H28.0675V40.565H33.3737C33.6496 40.565 33.8733 40.3414 33.8733 40.0654C33.8733 39.7895 33.6496 39.5658 33.3737 39.5658H27.568C27.292 39.5658 27.0684 39.7895 27.0684 40.0654V45.4335C27.0684 45.7095 27.292 45.9332 27.568 45.9332H33.3737C33.6497 45.9332 33.8734 45.7095 33.8734 45.4335V42.5077L34.7085 41.75C34.9129 41.5647 34.9283 41.2487 34.7429 41.0443C34.5575 40.8399 34.2416 40.8245 34.0372 41.0099Z" fill="black"/>
<path d="M55.6798 40.3079L54.7671 39.9563L54.7541 39.9514C54.5978 39.3029 54.3429 38.6879 53.9939 38.1171L54.3963 37.2079C54.4798 37.0192 54.4386 36.7984 54.2926 36.6525L53.3005 35.6604C53.1544 35.5142 52.9332 35.4731 52.7443 35.5571L51.837 35.9604C51.2653 35.6117 50.6499 35.3566 50.0011 35.199L49.6453 34.2736C49.5711 34.0806 49.3857 33.9532 49.179 33.9532H47.7758C47.5691 33.9532 47.3837 34.0806 47.3095 34.2736L46.9595 35.1839L46.9537 35.1989C46.8638 35.2207 46.7748 35.2449 46.6863 35.2704V17.4999C46.6863 17.2239 46.4626 17.0002 46.1866 17.0002H24.5016C24.2256 17.0002 24.002 17.2239 24.002 17.4999V48.5002C24.002 48.7761 24.2256 48.9998 24.5016 48.9998H46.1866C46.4625 48.9998 46.6862 48.7761 46.6862 48.5002V47.6835C46.7748 47.709 46.864 47.733 46.9538 47.7547L47.3095 48.6795C47.3836 48.8724 47.569 48.9998 47.7758 48.9998H49.1789C49.3856 48.9998 49.571 48.8724 49.6452 48.6795L49.9953 47.7691L50.0009 47.7547C50.65 47.5982 51.2658 47.3427 51.8375 46.9929L52.7443 47.3959C52.9332 47.4799 53.1543 47.4389 53.3005 47.2927L54.2926 46.3006C54.4386 46.1546 54.4797 45.9339 54.3962 45.7451L54 44.8497L53.9938 44.8359C54.3429 44.2651 54.5978 43.6501 54.7541 43.0017L55.6798 42.6452C55.8726 42.5709 55.9998 42.3856 55.9998 42.179V40.7741C55.9998 40.5674 55.8726 40.3821 55.6798 40.3079ZM45.687 48.0007H25.0011V17.9995H45.687V35.6522C45.493 35.7454 45.3028 35.8475 45.1177 35.9604L44.2103 35.5571C44.0215 35.4732 43.8003 35.5142 43.6541 35.6604L42.662 36.6525C42.516 36.7985 42.4749 37.0192 42.5584 37.2079L42.9546 38.1034L42.9608 38.1172C42.6118 38.688 42.3568 39.3029 42.2005 39.9514L41.2734 40.3077C41.0805 40.3819 40.9531 40.5673 40.9531 40.7741V42.179C40.9531 42.3857 41.0805 42.5711 41.2734 42.6453L42.1991 43.0012C42.3566 43.6502 42.6118 44.2656 42.9603 44.837L42.5585 45.7451C42.475 45.9339 42.5161 46.1546 42.6621 46.3006L43.6542 47.2927C43.8004 47.4389 44.0215 47.4799 44.2104 47.3959L45.1173 46.9929C45.3025 47.1063 45.4929 47.2087 45.687 47.3021V48.0007ZM55.0007 41.8362L54.1465 42.1639C53.985 42.2251 53.8667 42.3655 53.8336 42.535C53.6947 43.2455 53.4185 43.9117 53.0128 44.5153C52.9166 44.6585 52.901 44.8412 52.9717 44.9986L53.344 45.8362L52.8367 46.3436L51.9961 45.9706C51.8393 45.9012 51.6577 45.9171 51.5153 46.0129C50.9119 46.4185 50.2461 46.6946 49.5365 46.8337C49.3686 46.8666 49.2291 46.9832 49.167 47.1427L48.8359 48.0007H48.1191L47.7879 47.1427C47.7258 46.9832 47.5864 46.8666 47.4184 46.8337C46.7088 46.6946 46.043 46.4185 45.4396 46.0129C45.2973 45.9171 45.1158 45.9012 44.9589 45.9706L44.1182 46.3436L43.6109 45.8362L43.9826 44.9961C44.0518 44.8395 44.0361 44.6583 43.9408 44.5161C43.5363 43.9119 43.2599 43.245 43.1193 42.5339C43.0859 42.3652 42.9682 42.2256 42.8076 42.1642L41.9524 41.8359V41.1173L42.8084 40.7894C42.9698 40.7281 43.0881 40.5877 43.1213 40.4182C43.2602 39.7077 43.5363 39.0415 43.9421 38.4379C44.0383 38.2947 44.0539 38.112 43.9832 37.9546L43.6108 37.1169L44.1181 36.6096L44.9588 36.9826C45.1153 37.0519 45.2965 37.0361 45.4388 36.9409C45.7376 36.7409 46.0517 36.5724 46.3788 36.4359C46.3812 36.4349 46.3836 36.4337 46.386 36.4327C46.7179 36.2947 47.0631 36.1899 47.4194 36.1193C47.587 36.0861 47.7259 35.9697 47.7878 35.8106L48.119 34.9525H48.8359L49.167 35.8105C49.229 35.9696 49.368 36.0861 49.5355 36.1193C50.2456 36.2601 50.912 36.5365 51.5161 36.9409C51.6584 37.0362 51.8395 37.0519 51.9961 36.9826L52.8366 36.6096L53.344 37.1169L53.0886 37.6941L52.9716 37.9546C52.901 38.1119 52.9165 38.2947 53.0128 38.4379C53.4185 39.0414 53.6946 39.7077 53.8335 40.4182C53.8666 40.5876 53.985 40.728 54.1464 40.7893L55.0006 41.117H55.0007V41.8362Z" fill="black"/>
<path d="M39.5568 39.5658H36.6246C36.3487 39.5658 36.125 39.7895 36.125 40.0654C36.125 40.3414 36.3487 40.565 36.6246 40.565H39.5568C39.8327 40.565 40.0564 40.3414 40.0564 40.0654C40.0564 39.7895 39.8327 39.5658 39.5568 39.5658Z" fill="black"/>
<path d="M39.5568 42.2499H36.6246C36.3487 42.2499 36.125 42.4736 36.125 42.7495C36.125 43.0254 36.3487 43.2491 36.6246 43.2491H39.5568C39.8327 43.2491 40.0564 43.0254 40.0564 42.7495C40.0564 42.4736 39.8327 42.2499 39.5568 42.2499Z" fill="black"/>
<path d="M34.0371 21.5112L31.6258 23.7L30.8232 22.8974C30.628 22.7023 30.3117 22.7023 30.1166 22.8974C29.9215 23.0925 29.9215 23.4088 30.1166 23.604L31.2558 24.7431C31.3531 24.8405 31.481 24.8895 31.6091 24.8895C31.7291 24.8895 31.8494 24.8465 31.9449 24.7598L32.874 23.9163V25.4351H28.0675V21.0661H33.3737C33.6496 21.0661 33.8733 20.8425 33.8733 20.5665C33.8733 20.2906 33.6496 20.0669 33.3737 20.0669H27.568C27.292 20.0669 27.0684 20.2906 27.0684 20.5665V25.9346C27.0684 26.2106 27.292 26.4343 27.568 26.4343H33.3737C33.6497 26.4343 33.8734 26.2106 33.8734 25.9346V23.0093L34.7087 22.2511C34.913 22.0656 34.9284 21.7497 34.7429 21.5453C34.5574 21.341 34.2415 21.3257 34.0371 21.5112Z" fill="black"/>
<path d="M34.0371 31.2607L31.6258 33.4493L30.8232 32.6468C30.6281 32.4517 30.3117 32.4517 30.1167 32.6468C29.9215 32.8419 29.9215 33.1582 30.1167 33.3533L31.2559 34.4925C31.3532 34.5898 31.481 34.6388 31.6092 34.6388C31.7292 34.6388 31.8494 34.5958 31.9449 34.5092L32.8741 33.6658V35.1845H28.0675V30.8157H33.3737C33.6496 30.8157 33.8733 30.592 33.8733 30.316C33.8733 30.0401 33.6496 29.8164 33.3737 29.8164H27.568C27.292 29.8164 27.0684 30.0401 27.0684 30.316V35.6842C27.0684 35.96 27.292 36.1837 27.568 36.1837H33.3737C33.6497 36.1837 33.8734 35.96 33.8734 35.684V32.7588L34.7087 32.0005C34.913 31.8151 34.9284 31.4992 34.7429 31.2948C34.5574 31.0905 34.2415 31.0752 34.0371 31.2607Z" fill="black"/>
</g>
<defs>
<filter id="filter0_d_257_1580" x="0" y="0" width="76" height="76" filterUnits="userSpaceOnUse" color-interpolation-filters="sRGB">
<feFlood flood-opacity="0" result="BackgroundImageFix"/>
<feColorMatrix in="SourceAlpha" type="matrix" values="0 0 0 0 0 0 0 0 0 0 0 0 0 0 0 0 0 0 127 0" result="hardAlpha"/>
<feOffset dy="4"/>
<feGaussianBlur stdDeviation="3"/>
<feComposite in2="hardAlpha" operator="out"/>
<feColorMatrix type="matrix" values="0 0 0 0 0 0 0 0 0 0 0 0 0 0 0 0 0 0 0.1 0"/>
<feBlend mode="normal" in2="BackgroundImageFix" result="effect1_dropShadow_257_1580"/>
<feBlend mode="normal" in="SourceGraphic" in2="effect1_dropShadow_257_1580" result="shape"/>
</filter>
<clipPath id="clip0_257_1580">
<rect width="32" height="32" fill="white" transform="translate(24 17)"/>
</clipPath>
</defs>
</svg>
