<svg width="76" height="76" viewBox="0 0 76 76" fill="none" xmlns="http://www.w3.org/2000/svg">
<g filter="url(#filter0_d_257_1520)">
<circle cx="38" cy="34" r="32" fill="white"/>
<circle cx="38" cy="34" r="31.5" stroke="#A43FD4"/>
</g>
<path d="M53.9016 32.9259L52.8612 30.3613C53.1426 30.0293 53.313 29.5991 53.313 29.1295C53.313 28.2445 52.7092 27.4988 51.8947 27.2884C51.8946 27.1651 51.8948 24.0762 51.8947 23.9451C51.8947 23.5193 51.6347 23.1542 51.2323 23.0149L38.0535 18.4526C37.5098 18.2643 36.911 18.2644 36.3673 18.4526L33.086 19.5885C32.8414 19.6731 32.7117 19.9401 32.7964 20.1848C32.8811 20.4295 33.148 20.559 33.3927 20.4744L36.6739 19.3385C37.0198 19.2187 37.4008 19.2187 37.7468 19.3385L50.9256 23.9007C50.9396 23.9056 50.9571 23.9117 50.9571 23.9451C50.9571 23.9785 50.9396 23.9846 50.9256 23.9895L46.3888 25.5601V25.4197C46.3888 24.8517 45.983 24.3667 45.424 24.2665C39.9738 23.289 34.4468 23.289 28.9967 24.2665C28.4377 24.3668 28.0319 24.8517 28.0319 25.4197V25.5601L23.4952 23.9895C23.4811 23.9846 23.4636 23.9785 23.4636 23.9451C23.4636 23.9117 23.4811 23.9056 23.4952 23.9007L31.2875 21.2032C31.5322 21.1185 31.6619 20.8515 31.5772 20.6069C31.4925 20.3622 31.2255 20.2326 30.9808 20.3173L23.1885 23.0149C22.7861 23.1542 22.5261 23.5193 22.5261 23.9451C22.5261 24.371 22.7861 24.7361 23.1885 24.8754L28.0319 26.5521V31.1913C25.5766 31.4358 23.6527 33.5133 23.6527 36.0319C23.6527 37.7149 24.512 39.2007 25.8148 40.0745C23.6355 40.556 22 42.502 22 44.8239C22 47.5063 24.1824 49.6887 26.8648 49.6887H50.9604C51.7656 49.6887 52.4207 49.0336 52.4207 48.2283C52.4207 47.433 51.7816 46.7846 50.99 46.7687C50.5002 45.5101 50.4965 44.1398 50.9787 42.8794C51.7755 42.8695 52.4207 42.2186 52.4207 41.4195C52.4207 40.6142 51.7656 39.9591 50.9604 39.9591H50.6709C50.7334 39.7967 50.7681 39.6205 50.7681 39.4363C50.7681 38.631 50.113 37.976 49.3077 37.976H49.2951C48.841 36.7985 48.8115 35.5244 49.2067 34.3343C49.4547 34.6028 49.8037 34.7588 50.1745 34.7588H52.6773C53.1165 34.7588 53.5257 34.5405 53.772 34.1748C54.0207 33.8056 54.0691 33.3387 53.9016 32.9259ZM52.3755 29.1295C52.3755 29.6604 51.9495 30.0924 51.426 30.0924C50.9024 30.0924 50.4764 29.6604 50.4764 29.1295C50.4764 28.5985 50.9024 28.1665 51.426 28.1665C51.9495 28.1665 52.3755 28.5985 52.3755 29.1295ZM50.9572 24.9706V27.2884C50.1427 27.4988 49.5389 28.2445 49.5389 29.1295C49.5389 29.5992 49.7093 30.0293 49.9907 30.3613L49.6638 31.167H46.3889V26.5521L50.9572 24.9706ZM29.1622 25.1893C34.5025 24.2317 39.9182 24.2317 45.2585 25.1893C45.3702 25.2094 45.4513 25.3062 45.4513 25.4197V28.6146H42.5629C42.304 28.6146 42.0941 28.8244 42.0941 29.0834C42.0941 29.3423 42.304 29.5521 42.5629 29.5521H45.4513V31.167H28.9694V29.5521H40.3753C40.6342 29.5521 40.8441 29.3423 40.8441 29.0834C40.8441 28.8244 40.6342 28.6146 40.3753 28.6146H28.9694V25.4197C28.9694 25.3062 29.0505 25.2094 29.1622 25.1893ZM51.4833 41.4194C51.4833 41.7076 51.2488 41.9422 50.9604 41.9422H26.8648C25.2759 41.9422 23.9832 43.2349 23.9832 44.8238C23.9832 46.4127 25.2759 47.7054 26.8648 47.7054H45.3754C45.6343 47.7054 45.8442 47.4956 45.8442 47.2366C45.8442 46.9777 45.6343 46.7679 45.3754 46.7679H26.8648C25.7928 46.7679 24.9207 45.8958 24.9207 44.8238C24.9207 43.7519 25.7928 42.8797 26.8648 42.8797H41.6485V45.5074C41.6485 45.6623 41.725 45.8073 41.853 45.8946C41.981 45.9819 42.1439 46.0005 42.2882 45.9438L43.5538 45.4483L44.8193 45.9438C44.8746 45.9655 44.9325 45.9762 44.9902 45.9762C45.0832 45.9762 45.1755 45.9485 45.2545 45.8946C45.3825 45.8073 45.459 45.6623 45.459 45.5074V42.8797H49.9839C49.5765 44.1498 49.5795 45.4991 49.9932 46.7679H47.5629C47.3041 46.7679 47.0942 46.9777 47.0942 47.2367C47.0942 47.4956 47.3041 47.7054 47.5629 47.7054H50.9604C51.2487 47.7054 51.4832 47.94 51.4832 48.2283C51.4832 48.5165 51.2487 48.7511 50.9604 48.7511H26.8648C24.6993 48.7511 22.9375 46.9894 22.9375 44.8238C22.9375 42.6583 24.6993 40.8966 26.8648 40.8966H50.9604C51.2487 40.8966 51.4833 41.1311 51.4833 41.4194ZM42.586 42.8798H44.5215V44.8205L43.7247 44.5085C43.6148 44.4654 43.4928 44.4654 43.3828 44.5085L42.586 44.8205V42.8798ZM34.5627 38.9134H49.3078C49.5961 38.9134 49.8306 39.148 49.8306 39.4362C49.8306 39.7245 49.5961 39.9591 49.3078 39.9591H28.5174C26.352 39.9591 24.5902 38.1973 24.5902 36.0317C24.5902 33.8662 26.352 32.1045 28.5174 32.1045H49.2834C49.1676 32.4154 48.9536 32.8561 48.8816 33.1501H28.5174C26.9285 33.1501 25.6358 34.4428 25.6358 36.0317C25.6358 37.6206 26.9285 38.9133 28.5174 38.9133H32.3752C32.6341 38.9133 32.8439 38.7035 32.8439 38.4445C32.8439 38.1856 32.6341 37.9758 32.3752 37.9758H28.5174C27.4455 37.9758 26.5733 37.1037 26.5733 36.0317C26.5733 34.9598 27.4455 34.0876 28.5174 34.0876H30.2313V36.6928C30.2313 36.8477 30.3078 36.9927 30.4358 37.08C30.5638 37.1673 30.7267 37.1858 30.871 37.1293L32.1366 36.6337L33.4021 37.1293C33.4574 37.1509 33.5153 37.1616 33.573 37.1616C33.666 37.1616 33.7583 37.1339 33.8373 37.08C33.9653 36.9927 34.0418 36.8477 34.0418 36.6928V34.0876H48.2995C47.889 35.3571 47.889 36.7064 48.2995 37.9758H34.5627C34.3038 37.9758 34.094 38.1856 34.094 38.4446C34.094 38.7035 34.3038 38.9134 34.5627 38.9134ZM31.1688 34.0877H33.1043V36.0059L32.3075 35.6939C32.1976 35.6508 32.0756 35.6508 31.9656 35.6939L31.1688 36.0059V34.0877ZM52.9944 33.651C52.96 33.7022 52.86 33.8213 52.6773 33.8213H50.1745C49.9917 33.8213 49.8919 33.7022 49.8574 33.651C49.7821 33.5393 49.7681 33.4034 49.8189 33.2783L50.7779 30.9144C50.9801 30.9891 51.1983 31.0298 51.4259 31.0298C51.6535 31.0298 51.8717 30.9891 52.0739 30.9144L53.0329 33.2783C53.0837 33.4035 53.0697 33.5393 52.9944 33.651Z" fill="black"/>
<defs>
<filter id="filter0_d_257_1520" x="0" y="0" width="76" height="76" filterUnits="userSpaceOnUse" color-interpolation-filters="sRGB">
<feFlood flood-opacity="0" result="BackgroundImageFix"/>
<feColorMatrix in="SourceAlpha" type="matrix" values="0 0 0 0 0 0 0 0 0 0 0 0 0 0 0 0 0 0 127 0" result="hardAlpha"/>
<feOffset dy="4"/>
<feGaussianBlur stdDeviation="3"/>
<feComposite in2="hardAlpha" operator="out"/>
<feColorMatrix type="matrix" values="0 0 0 0 0 0 0 0 0 0 0 0 0 0 0 0 0 0 0.1 0"/>
<feBlend mode="normal" in2="BackgroundImageFix" result="effect1_dropShadow_257_1520"/>
<feBlend mode="normal" in="SourceGraphic" in2="effect1_dropShadow_257_1520" result="shape"/>
</filter>
</defs>
</svg>
