<svg width="76" height="76" viewBox="0 0 76 76" fill="none" xmlns="http://www.w3.org/2000/svg">
<g filter="url(#filter0_d_11_715)">
<circle cx="38" cy="34" r="32" fill="white"/>
<circle cx="38" cy="34" r="31.5" stroke="#A43FD4"/>
</g>
<path d="M48.0445 37.0194H44.9741C44.6995 37.0194 44.4786 36.8104 44.4786 36.5507V31.037H43.5638C43.3759 31.037 43.2046 30.9374 43.1199 30.7772C43.0353 30.619 43.0538 30.4276 43.1674 30.285L46.1119 26.5858C46.2048 26.4686 46.3514 26.3983 46.5083 26.3983C46.6652 26.3983 46.8098 26.4667 46.9048 26.5858L49.8492 30.285C49.9628 30.4276 49.9814 30.6171 49.8967 30.7772C49.812 30.9354 49.6407 31.037 49.4528 31.037H48.538V36.5526C48.5401 36.8104 48.3171 37.0194 48.0445 37.0194ZM45.4697 36.0819H47.549V30.5682C47.549 30.3085 47.7699 30.0995 48.0445 30.0995H48.4616L46.5104 27.6483L44.5591 30.0995H44.9762C45.2508 30.0995 45.4718 30.3085 45.4718 30.5682L45.4697 36.0819Z" fill="#252525"/>
<path d="M33.0311 49H27.041C26.7663 49 26.5454 48.791 26.5454 48.5312V44.3965C26.5454 44.1367 26.7663 43.9277 27.041 43.9277H33.0311C33.3057 43.9277 33.5266 44.1367 33.5266 44.3965V48.5312C33.5266 48.791 33.3036 49 33.0311 49ZM27.5365 48.0625H32.5355V44.8652H27.5365V48.0625Z" fill="#252525"/>
<path d="M41.2678 49H35.2777C35.003 49 34.7821 48.791 34.7821 48.5312V41.1816C34.7821 40.9219 35.003 40.7129 35.2777 40.7129H41.2678C41.5424 40.7129 41.7633 40.9219 41.7633 41.1816V48.5312C41.7633 48.791 41.5403 49 41.2678 49ZM35.7732 48.0625H40.7722V41.6504H35.7732V48.0625Z" fill="#252525"/>
<path d="M49.5045 49H43.5144C43.2397 49 43.0188 48.791 43.0188 48.5312V36.5508C43.0188 36.291 43.2397 36.082 43.5144 36.082H49.5045C49.7791 36.082 50 36.291 50 36.5508V48.5312C50 48.791 49.777 49 49.5045 49ZM44.0099 48.0625H49.0089V37.0195H44.0099V48.0625Z" fill="#252525"/>
<path d="M30.0392 42.6953C29.8348 42.6953 29.6324 42.6621 29.4383 42.5918C28.6124 42.3008 28.156 41.4707 28.377 40.664L30.353 33.4121L30.3902 28.3105L29.2752 29.0508L29.0419 31.6973C29.0068 32.0996 28.7941 32.4707 28.4575 32.7168C28.1209 32.9629 27.6873 33.0664 27.2682 32.998C26.8924 32.9375 26.5558 32.748 26.3225 32.4648C26.0871 32.1816 25.9756 31.8262 26.0045 31.4668L26.2791 28.0625C26.3183 27.5859 26.5744 27.1543 26.9832 26.873L30.3076 24.5976C31.3896 23.8574 32.8721 23.959 33.8302 24.8398L36.4773 27.2812L39.2876 27.7305C40.0784 27.8574 40.6545 28.5 40.6545 29.2598C40.6545 29.7109 40.448 30.1387 40.0867 30.4336C39.7274 30.7285 39.2504 30.8594 38.7776 30.7949L36.0685 30.4219C35.8393 30.3906 35.6246 30.3164 35.4263 30.2031L34.4868 29.6601L34.5137 31.6367L37.485 32.9297C37.9702 33.1406 38.2737 33.6211 38.2366 34.1269L37.9682 37.832C37.9372 38.2578 37.7286 38.6426 37.3817 38.916C37.0348 39.1894 36.5971 39.3105 36.149 39.2617C35.3169 39.1699 34.6974 38.5019 34.7057 37.709L34.7326 35.4414L33.4482 34.9473L31.7034 41.4687C31.5837 41.916 31.2678 42.2949 30.8341 42.5097C30.5884 42.6328 30.3138 42.6953 30.0392 42.6953ZM30.8899 26.9355C30.9684 26.9355 31.0468 26.9531 31.1191 26.9883C31.2843 27.0703 31.3854 27.2305 31.3854 27.4062L31.3421 33.4746C31.3421 33.5137 31.3359 33.5508 31.3256 33.5879L29.3351 40.8945C29.2421 41.2363 29.4342 41.5859 29.7831 41.7109C29.9793 41.7812 30.1899 41.7676 30.3757 41.6758C30.5616 41.584 30.6917 41.4277 30.7433 41.2344L32.6285 34.1894C32.6636 34.0586 32.7565 33.9473 32.8845 33.8867C33.0125 33.8262 33.1612 33.8203 33.2954 33.8711L35.4201 34.6894C35.608 34.7617 35.7319 34.9355 35.7278 35.1289L35.6968 37.7148C35.6927 38.0273 35.9364 38.289 36.2647 38.3262C36.4402 38.3457 36.6136 38.2969 36.7499 38.1894C36.8862 38.082 36.9688 37.9316 36.9812 37.7637L37.2496 34.0586C37.2578 33.9394 37.1876 33.8262 37.0741 33.7773L33.8178 32.3613C33.6444 32.2851 33.5308 32.123 33.5288 31.9414L33.4854 28.8203C33.4833 28.6504 33.5783 28.4922 33.7352 28.4062C33.8922 28.3223 34.0842 28.3242 34.2391 28.4141L35.9446 29.3984C36.0272 29.4453 36.116 29.4765 36.213 29.4902L38.9221 29.8633C39.1121 29.8887 39.2958 29.8379 39.4404 29.7207C39.5849 29.6016 39.6655 29.4375 39.6655 29.2558C39.6655 28.9551 39.4383 28.7012 39.1245 28.6504L36.1594 28.1797C36.0602 28.1641 35.9694 28.1191 35.8971 28.0527L33.1344 25.5137C32.5211 24.9512 31.5754 24.8867 30.8837 25.3594L27.5593 27.6348C27.3879 27.7519 27.2785 27.9355 27.264 28.1348L26.9894 31.539C26.9688 31.8008 27.1587 32.0312 27.4313 32.0742C27.58 32.0976 27.7286 32.0625 27.8484 31.9746C27.9681 31.8867 28.0404 31.7598 28.0528 31.6172L28.3047 28.7519C28.3171 28.6133 28.3935 28.4863 28.5133 28.4062L30.6049 27.0215C30.6896 26.9648 30.7908 26.9355 30.8899 26.9355Z" fill="#252525"/>
<path d="M32.6904 23.7266C31.3132 23.7266 30.192 22.666 30.192 21.3633C30.192 20.0605 31.3132 19 32.6904 19C34.0677 19 35.1889 20.0605 35.1889 21.3633C35.1889 22.666 34.0677 23.7266 32.6904 23.7266ZM32.6904 19.9375C31.8583 19.9375 31.1831 20.5781 31.1831 21.3633C31.1831 22.1484 31.8603 22.7891 32.6904 22.7891C33.5205 22.7891 34.1977 22.1484 34.1977 21.3633C34.1977 20.5781 33.5225 19.9375 32.6904 19.9375Z" fill="#252525"/>
<path d="M41.8555 33.9391L45.6445 33.561" stroke="white" stroke-width="2" stroke-linecap="square"/>
<defs>
<filter id="filter0_d_11_715" x="0" y="0" width="76" height="76" filterUnits="userSpaceOnUse" color-interpolation-filters="sRGB">
<feFlood flood-opacity="0" result="BackgroundImageFix"/>
<feColorMatrix in="SourceAlpha" type="matrix" values="0 0 0 0 0 0 0 0 0 0 0 0 0 0 0 0 0 0 127 0" result="hardAlpha"/>
<feOffset dy="4"/>
<feGaussianBlur stdDeviation="3"/>
<feComposite in2="hardAlpha" operator="out"/>
<feColorMatrix type="matrix" values="0 0 0 0 0 0 0 0 0 0 0 0 0 0 0 0 0 0 0.1 0"/>
<feBlend mode="normal" in2="BackgroundImageFix" result="effect1_dropShadow_11_715"/>
<feBlend mode="normal" in="SourceGraphic" in2="effect1_dropShadow_11_715" result="shape"/>
</filter>
</defs>
</svg>
