<svg width="76" height="76" viewBox="0 0 76 76" fill="none" xmlns="http://www.w3.org/2000/svg">
<g filter="url(#filter0_d_257_1462)">
<circle cx="38" cy="34" r="32" fill="white"/>
<circle cx="38" cy="34" r="31.5" stroke="#A43FD4"/>
</g>
<path d="M40.8555 31.2168C40.5126 31.2168 40.2344 31.4949 40.2344 31.8379V31.8467C40.2344 32.1897 40.5125 32.4678 40.8555 32.4678C41.1984 32.4678 41.4766 32.1897 41.4766 31.8467V31.8379C41.4766 31.4949 41.1985 31.2168 40.8555 31.2168Z" fill="black"/>
<path d="M44.4363 33.9535V28.8556C44.4363 28.6587 44.3429 28.4734 44.1845 28.3562C44.0262 28.2392 43.8216 28.204 43.6333 28.2618L29.7042 32.5275H26.1495C23.8615 32.5275 22 34.3889 22 36.6769C22 38.8418 23.6667 40.6237 25.7843 40.8094L27.1513 47.3635C27.376 48.4409 28.3379 49.2229 29.4385 49.2229C30.145 49.2229 30.8058 48.9085 31.2514 48.3603C31.6971 47.812 31.8699 47.101 31.7256 46.4094L31.4261 44.9734C32.7362 44.569 33.7288 43.4811 34.0176 42.1473L43.6332 45.092C43.6928 45.1102 43.7541 45.1192 43.815 45.1192C43.9464 45.1192 44.0762 45.0774 44.1844 44.9974C44.3428 44.8803 44.4362 44.695 44.4362 44.498V39.4002C45.6788 39.1169 46.6091 38.0039 46.6091 36.6768C46.6091 35.3499 45.6787 34.2368 44.4363 33.9535ZM26.1495 39.584C24.5464 39.584 23.2422 38.2799 23.2422 36.6769C23.2422 35.0737 24.5464 33.7696 26.1495 33.7696H29.1761V39.5841H26.2927H26.1495V39.584ZM30.2877 47.5767C30.079 47.8335 29.7694 47.9807 29.4386 47.9807C28.9231 47.9807 28.4726 47.6145 28.3674 47.1099L27.0567 40.8262H29.2923L30.0859 44.6308C30.086 44.6312 30.0861 44.6317 30.0862 44.6322L30.5098 46.663C30.5773 46.9869 30.4964 47.32 30.2877 47.5767ZM31.1709 43.7494L30.6197 41.1066L32.8241 41.7817C32.6667 42.6874 32.0302 43.4401 31.1709 43.7494ZM43.1941 43.6583L41.4759 43.1321V34.3284C41.4759 33.9854 41.1978 33.7072 40.8548 33.7072C40.5119 33.7072 40.2337 33.9854 40.2337 34.3284V42.7517L33.7604 40.7693C33.7001 40.7392 33.6344 40.7185 33.5649 40.7094L30.4184 39.7458V33.6079L43.1942 29.6954V43.6583H43.1941ZM44.4363 38.0984V35.2554C44.9835 35.4954 45.3668 36.042 45.3668 36.6769C45.3668 37.3117 44.9835 37.8584 44.4363 38.0984Z" fill="black"/>
<path d="M51.1745 36.0559H48.4043C48.0614 36.0559 47.7832 36.334 47.7832 36.677C47.7832 37.02 48.0613 37.2981 48.4043 37.2981H51.1745C51.5174 37.2981 51.7955 37.02 51.7955 36.677C51.7955 36.334 51.5174 36.0559 51.1745 36.0559Z" fill="black"/>
<path d="M49.4017 31.2645C49.1995 30.9873 48.8108 30.9266 48.5338 31.1288L47.1399 32.1455C46.8628 32.3476 46.802 32.7361 47.0041 33.0133C47.1257 33.18 47.3147 33.2684 47.5063 33.2684C47.6333 33.2684 47.7614 33.2296 47.8718 33.149L49.2658 32.1323C49.543 31.9302 49.6038 31.5416 49.4017 31.2645Z" fill="black"/>
<path d="M49.2671 41.2216L47.8817 40.2111C47.6046 40.0091 47.216 40.0697 47.0139 40.3469C46.8117 40.6241 46.8726 41.0126 47.1497 41.2147L48.5351 42.2252C48.6456 42.3057 48.7736 42.3446 48.9006 42.3446C49.0923 42.3446 49.2814 42.2561 49.4029 42.0894C49.6051 41.8122 49.5443 41.4237 49.2671 41.2216Z" fill="black"/>
<path d="M50.298 23.0129H37.4062C37.0633 23.0129 36.7852 23.2911 36.7852 23.634C36.7852 23.9769 37.0633 24.2551 37.4062 24.2551H50.298C50.6409 24.2551 50.9191 23.9769 50.9191 23.634C50.9191 23.2911 50.641 23.0129 50.298 23.0129Z" fill="black"/>
<path d="M31.1091 23.1949C30.9935 23.0794 30.8334 23.0129 30.67 23.0129C30.5066 23.0129 30.3464 23.0793 30.2309 23.1949C30.1148 23.3104 30.0488 23.4707 30.0488 23.6341C30.0488 23.7974 30.1147 23.9576 30.2309 24.0731C30.3463 24.1886 30.5066 24.2552 30.67 24.2552C30.8334 24.2552 30.9935 24.1888 31.1091 24.0731C31.2246 23.9577 31.2911 23.7974 31.2911 23.6341C31.2911 23.4707 31.2246 23.3104 31.1091 23.1949Z" fill="black"/>
<path d="M28.8259 23.1949C28.7103 23.0794 28.5502 23.0129 28.3868 23.0129C28.2234 23.0129 28.0632 23.0793 27.9477 23.1949C27.8322 23.3104 27.7656 23.4707 27.7656 23.6341C27.7656 23.7974 27.8321 23.9576 27.9477 24.0731C28.0631 24.1886 28.2234 24.2552 28.3868 24.2552C28.5502 24.2552 28.7103 24.1888 28.8259 24.0731C28.9414 23.9577 29.0079 23.7974 29.0079 23.6341C29.0079 23.4707 28.9414 23.3104 28.8259 23.1949Z" fill="black"/>
<path d="M33.3903 23.1949C33.2742 23.0794 33.1146 23.0129 32.9512 23.0129C32.7873 23.0129 32.6276 23.0793 32.5115 23.1949C32.396 23.3104 32.3301 23.4707 32.3301 23.6341C32.3301 23.7974 32.396 23.9576 32.5115 24.0731C32.6276 24.1886 32.7872 24.2552 32.9512 24.2552C33.1146 24.2552 33.2741 24.1888 33.3903 24.0731C33.5058 23.9577 33.5723 23.7974 33.5723 23.6341C33.5723 23.4707 33.5059 23.3104 33.3903 23.1949Z" fill="black"/>
<path d="M51.3905 20.777H27.2922C25.8538 20.777 24.6836 21.9472 24.6836 23.3855V31.8945C24.6836 32.2374 24.9617 32.5155 25.3047 32.5155C25.6476 32.5155 25.9257 32.2374 25.9257 31.8945V29.4767H29.7962C30.1392 29.4767 30.4173 29.1986 30.4173 28.8557C30.4173 28.5127 30.1392 28.2345 29.7962 28.2345H25.9258V26.4906C25.9281 26.4906 25.9303 26.491 25.9325 26.491H52.7569V42.6394C52.7569 43.3928 52.144 44.0057 51.3905 44.0057H46.4425C46.0995 44.0057 45.8213 44.2839 45.8213 44.6269C45.8213 44.9699 46.0995 45.2479 46.4425 45.2479H51.3905C52.8289 45.2479 53.9991 44.0777 53.9991 42.6394V23.3855C53.9991 21.9472 52.8289 20.777 51.3905 20.777ZM52.7569 25.2489H25.9325C25.9302 25.2489 25.928 25.2492 25.9258 25.2492V23.3855C25.9258 22.6321 26.5387 22.0192 27.2922 22.0192H51.3905C52.144 22.0192 52.7569 22.6321 52.7569 23.3855V25.2489Z" fill="black"/>
<path d="M32.2496 28.4164C32.1342 28.3009 31.974 28.2344 31.8106 28.2344C31.6472 28.2344 31.487 28.3008 31.3715 28.4164C31.256 28.5319 31.1895 28.6921 31.1895 28.8555C31.1895 29.0189 31.2558 29.1791 31.3715 29.2946C31.487 29.4108 31.6472 29.4766 31.8106 29.4766C31.974 29.4766 32.1341 29.4109 32.2496 29.2946C32.3651 29.1792 32.4317 29.0189 32.4317 28.8555C32.4317 28.6921 32.3652 28.5319 32.2496 28.4164Z" fill="black"/>
<defs>
<filter id="filter0_d_257_1462" x="0" y="0" width="76" height="76" filterUnits="userSpaceOnUse" color-interpolation-filters="sRGB">
<feFlood flood-opacity="0" result="BackgroundImageFix"/>
<feColorMatrix in="SourceAlpha" type="matrix" values="0 0 0 0 0 0 0 0 0 0 0 0 0 0 0 0 0 0 127 0" result="hardAlpha"/>
<feOffset dy="4"/>
<feGaussianBlur stdDeviation="3"/>
<feComposite in2="hardAlpha" operator="out"/>
<feColorMatrix type="matrix" values="0 0 0 0 0 0 0 0 0 0 0 0 0 0 0 0 0 0 0.1 0"/>
<feBlend mode="normal" in2="BackgroundImageFix" result="effect1_dropShadow_257_1462"/>
<feBlend mode="normal" in="SourceGraphic" in2="effect1_dropShadow_257_1462" result="shape"/>
</filter>
</defs>
</svg>
