<svg width="76" height="76" viewBox="0 0 76 76" fill="none" xmlns="http://www.w3.org/2000/svg">
<g filter="url(#filter0_d_257_1600)">
<circle cx="38" cy="34" r="32" fill="white"/>
<circle cx="38" cy="34" r="31.5" stroke="#A43FD4"/>
</g>
<path d="M27.6091 32.96C27.4808 33.0199 27.3339 33.0264 27.2009 32.978C27.0678 32.9296 26.9595 32.8302 26.8997 32.7019C26.4026 31.6366 26.1403 30.4769 26.1307 29.3013C26.1131 28.1797 26.2073 27.0592 26.4117 25.9563C26.4474 25.7691 26.5802 25.6151 26.7601 25.5523C26.94 25.4896 27.1398 25.5276 27.2841 25.6521C27.4284 25.7765 27.4954 25.9685 27.4597 26.1557C27.2684 27.1874 27.1805 28.2356 27.1973 29.2848C27.2046 30.3109 27.4329 31.3234 27.8667 32.2533C27.9898 32.5196 27.8747 32.8354 27.6091 32.96Z" fill="black"/>
<path d="M54.2141 36.9418C54.0388 37.0636 53.8536 37.1707 53.6605 37.2618C53.4301 37.3797 53.0434 37.577 53.0162 37.7152C52.9827 37.8975 53.0046 38.0857 53.0792 38.2554C53.1586 38.4261 53.2418 38.5728 53.3138 38.6992C53.509 39.0442 53.836 39.6224 53.3432 40.025C53.228 40.1317 53.029 40.2858 52.8477 40.425C52.9812 40.6584 53.0416 40.9265 53.021 41.1946C52.9927 41.4058 52.8782 41.5958 52.7048 41.7194C52.5864 41.8026 52.46 41.8752 52.3357 41.9461C52.02 42.1253 51.8968 42.209 51.8557 42.3765C51.8261 42.5911 51.8443 42.8097 51.909 43.0165C51.9405 43.1589 51.9709 43.3018 51.989 43.4432C52.042 43.9292 51.982 44.4209 51.8136 44.88C51.5737 45.7273 50.8072 46.3177 49.9266 46.3333C49.7797 46.3329 49.6331 46.3173 49.4893 46.2869C47.9657 45.9257 46.4643 45.4764 44.9928 44.9413C43.7912 45.6464 43.0322 47.7904 42.8344 48.5952C42.7753 48.8331 42.5616 49.0001 42.3165 49L28.9298 48.9626C28.7602 48.9623 28.6008 48.8813 28.5006 48.7444C28.4003 48.6075 28.3712 48.4311 28.4221 48.2693C28.554 47.9079 28.7358 47.5668 28.9624 47.256C29.0903 47.0716 29.2055 46.8788 29.3074 46.6789C29.549 46.1901 29.7504 45.6825 29.9096 45.161C30.2142 44.1304 30.4254 43.0744 30.5405 42.0058C30.7272 40.409 30.484 38.7913 29.836 37.32C29.7297 37.07 29.6034 36.8291 29.4584 36.5994C29.3574 36.4375 29.3505 36.2339 29.4402 36.0655C29.53 35.8971 29.7028 35.7893 29.8936 35.7828C30.0843 35.7763 30.2641 35.8721 30.365 36.0341C30.5379 36.31 30.6891 36.5988 30.8173 36.8981C31.5391 38.5433 31.809 40.3512 31.5992 42.1354C31.4758 43.2682 31.2509 44.3875 30.9272 45.48C30.7517 46.0533 30.5303 46.6115 30.2653 47.1493C30.1436 47.3908 30.0055 47.6237 29.852 47.8464L29.8162 47.8997L41.9133 47.9333C42.2674 46.6681 42.91 45.5023 43.7906 44.5274L43.3106 44.3594C42.9533 44.2346 42.684 44.1408 42.5458 44.0965C40.261 43.3738 39.1186 42.3333 39.1496 41.0032C39.1565 40.7136 39.3933 40.4825 39.6829 40.4826H39.6925C39.9869 40.4896 40.2199 40.7338 40.213 41.0282C40.2002 41.577 40.6498 42.3776 42.8669 43.0789C43.0114 43.1253 43.2898 43.2224 43.6594 43.3514C44.0557 43.4901 44.5597 43.6661 45.1154 43.8549H45.1192C46.6201 44.4051 48.1515 44.8681 49.7058 45.2416C50.2032 45.3377 50.6878 45.0238 50.8034 44.5306C50.9174 44.2272 50.9603 43.9017 50.9288 43.5792C50.9149 43.4672 50.8893 43.3562 50.8648 43.2448C50.7561 42.876 50.7402 42.4862 50.8184 42.1098C50.9735 41.6199 51.334 41.2216 51.8061 41.0186L51.9165 40.9557C51.8589 40.8394 51.7902 40.729 51.7112 40.6261C51.6217 40.5127 51.582 40.3679 51.6012 40.2248C51.6204 40.0816 51.6969 39.9524 51.813 39.8666C51.941 39.7728 52.2429 39.5466 52.4637 39.3685C52.4381 39.3221 52.4104 39.2709 52.3837 39.2245C52.3 39.0778 52.2045 38.9072 52.1112 38.7098C51.9424 38.336 51.8927 37.9193 51.9688 37.5162C52.0968 36.8656 52.7202 36.5466 53.1746 36.3141C53.3281 36.2412 53.4752 36.1557 53.6146 36.0586C53.728 35.982 53.8344 35.8954 53.9325 35.8C53.9325 35.7189 53.8456 35.5226 53.4392 35.0282C52.4839 33.7985 51.6649 32.4688 50.9965 31.0624C50.8715 30.842 50.8011 30.5949 50.7912 30.3418C50.8463 29.8057 51.1304 29.3196 51.5704 29.0085C51.7837 28.8106 51.989 28.624 52.013 28.4501C52.0095 28.3242 51.9812 28.2003 51.9298 28.0853C51.8429 27.8565 51.7426 27.6325 51.6418 27.408C51.4231 26.957 51.2485 26.486 51.1202 26.0016L51.0669 25.7744C50.9543 25.2412 50.8092 24.7154 50.6322 24.2C50.2118 23.0396 49.5609 21.9763 48.7186 21.0741C47.6984 19.9946 46.0925 19.2309 43.9389 18.8026C43.388 18.6912 42.8365 18.5856 42.2797 18.4826C42.0058 18.4154 41.8315 18.1465 41.8821 17.869C41.9327 17.5915 42.1906 17.4014 42.4706 17.4352C43.0331 17.5368 43.5924 17.6435 44.1485 17.7552C46.5533 18.2352 48.301 19.0784 49.4941 20.3392C50.4352 21.3462 51.1629 22.5332 51.6333 23.8288C51.8254 24.3868 51.9832 24.956 52.1058 25.5333L52.1592 25.7584C52.273 26.1767 52.4257 26.5834 52.6152 26.9733C52.7218 27.2165 52.8328 27.4597 52.9282 27.7114C53.051 27.9916 53.0995 28.2987 53.069 28.6032C52.9617 29.0811 52.6859 29.5045 52.292 29.7957C52.0312 30.0346 51.86 30.2032 51.8578 30.3498C51.8769 30.4309 51.9075 30.5088 51.9485 30.5813C52.5872 31.9259 53.3695 33.1975 54.2818 34.3738C54.6685 34.8442 55.0738 35.393 54.9885 35.9424C54.8754 36.3661 54.5962 36.7264 54.2141 36.9418Z" fill="black"/>
<path d="M34.295 17.6698C34.475 17.6071 34.6747 17.6452 34.819 17.7697C34.9633 17.8943 35.0301 18.0863 34.9945 18.2735C34.9588 18.4607 34.8259 18.6146 34.6459 18.6773C33.7232 19.0043 32.8423 19.4389 32.0214 19.9722C31.7731 20.1307 31.4433 20.0579 31.2849 19.8096C31.1264 19.5613 31.1992 19.2315 31.4475 19.073C32.3383 18.4951 33.294 18.0241 34.295 17.6698Z" fill="black"/>
<path d="M49.0426 26.4933L48.9892 26.2613C48.8957 25.8158 48.7765 25.3759 48.6324 24.944C48.3108 24.0538 47.813 23.2376 47.169 22.544C46.4777 21.8924 45.6317 21.4278 44.7108 21.1941C44.5249 21.1418 44.3818 20.9929 44.3368 20.8051C44.2918 20.6172 44.3519 20.4197 44.4939 20.2887C44.6359 20.1578 44.8376 20.1138 45.0212 20.1739C46.1202 20.4595 47.127 21.0236 47.9444 21.8117C48.6871 22.6094 49.2613 23.5486 49.6324 24.5733C49.7923 25.0462 49.9241 25.5281 50.0271 26.0165L50.0804 26.2475C50.126 26.4337 50.068 26.6301 49.9287 26.7617C49.7894 26.8934 49.5901 26.9402 49.4067 26.8843C49.2233 26.8283 49.0841 26.6783 49.042 26.4912L49.0426 26.4933Z" fill="black"/>
<path d="M50.1991 28.7333C49.9045 28.7333 49.6658 28.4945 49.6658 28.2C49.6658 27.9054 49.9045 27.6666 50.1991 27.6666C50.4936 27.6666 50.7324 27.9054 50.7324 28.2C50.7324 28.4945 50.4936 28.7333 50.1991 28.7333Z" fill="black"/>
<path d="M35.265 25C36.737 25.0018 37.9299 26.1946 37.9316 27.6667C37.9316 27.9612 37.6929 28.2 37.3983 28.2C37.1038 28.2 36.865 27.9612 36.865 27.6667C36.865 26.783 36.1486 26.0667 35.265 26.0667C34.9704 26.0667 34.7316 25.8279 34.7316 25.5333C34.7316 25.2388 34.9704 25 35.265 25Z" fill="black"/>
<path d="M25.6651 34.0667C26.2139 34.0674 26.749 34.2386 27.1962 34.5568L31.4347 30.5467C30.2289 28.9588 30.1399 26.7879 31.2117 25.1067L29.392 23.6507C28.1525 24.7491 26.2783 24.7151 25.0795 23.5723C23.8808 22.4296 23.7573 20.559 24.7953 19.2685C25.8333 17.978 27.6868 17.6978 29.06 18.6237C30.4331 19.5497 30.8681 21.3731 30.0608 22.8192L31.8741 24.2709C33.0915 23.0469 34.876 22.5775 36.5381 23.0443L37.0011 21.8923C35.8993 21.1641 35.4982 19.7382 36.0586 18.5425C36.6191 17.3467 37.9717 16.7428 39.2361 17.1238C40.5006 17.5047 41.2944 18.7553 41.1011 20.0616C40.9077 21.368 39.7856 22.335 38.4651 22.3333C38.3066 22.3314 38.1487 22.3155 37.9931 22.2859L37.5307 23.4368C39.5687 24.5264 40.5397 26.9147 39.84 29.1173L42.1984 30.1659C43.1309 28.744 44.9982 28.2752 46.4917 29.0881C47.9852 29.901 48.6053 31.7236 47.9175 33.2787C47.2297 34.8337 45.4639 35.6011 43.8578 35.0429C42.2516 34.4848 41.3422 32.7878 41.7669 31.1413L39.4 30.0896C38.8189 31.0785 37.9042 31.8277 36.8203 32.2027L37.4731 35.1408C38.5533 35.1726 39.4412 36.0032 39.545 37.0789C39.6488 38.1547 38.9361 39.1397 37.8818 39.3774C36.8275 39.6152 35.761 39.0315 35.393 38.0153C35.025 36.9991 35.4705 35.8679 36.4325 35.3755L35.7813 32.4379C35.6099 32.4566 35.4375 32.4662 35.2651 32.4667C34.1289 32.4671 33.0299 32.0624 32.1653 31.3253L27.9258 35.336C28.1894 35.7546 28.33 36.2387 28.3317 36.7333C28.3317 38.2061 27.1378 39.4 25.6651 39.4C24.1923 39.4 22.9984 38.2061 22.9984 36.7333C22.9984 35.2606 24.1923 34.0667 25.6651 34.0667ZM40.0651 19.6667C40.0665 18.8607 39.4683 18.1795 38.6689 18.0769C37.8695 17.9742 37.1186 18.4821 36.9163 19.2622C36.714 20.0423 37.1235 20.8511 37.872 21.1499H37.8752C38.0626 21.226 38.2628 21.2657 38.4651 21.2667C38.8894 21.2667 39.2964 21.0981 39.5964 20.798C39.8965 20.498 40.0651 20.091 40.0651 19.6667ZM44.8651 34.0667C46.0433 34.0667 46.9984 33.1115 46.9984 31.9333C46.9984 30.7551 46.0433 29.8 44.8651 29.8C43.6868 29.8 42.7317 30.7551 42.7317 31.9333C42.7317 33.1115 43.6868 34.0667 44.8651 34.0667ZM37.3984 38.3333C37.9875 38.3333 38.4651 37.8558 38.4651 37.2667C38.4651 36.6776 37.9875 36.2 37.3984 36.2C36.8093 36.2 36.3317 36.6776 36.3317 37.2667C36.3317 37.8558 36.8093 38.3333 37.3984 38.3333ZM27.2651 19.1333C26.0868 19.1333 25.1317 20.0884 25.1317 21.2667C25.1317 22.4449 26.0868 23.4 27.2651 23.4C28.4433 23.4 29.3984 22.4449 29.3984 21.2667C29.3984 20.0884 28.4433 19.1333 27.2651 19.1333ZM38.9984 27.6667C38.9984 25.6048 37.3269 23.9333 35.2651 23.9333C33.2032 23.9333 31.5317 25.6048 31.5317 27.6667C31.5317 29.7285 33.2032 31.4 35.2651 31.4C37.3259 31.3976 38.996 29.7275 38.9984 27.6667ZM25.6651 38.3333C26.5487 38.3333 27.2651 37.617 27.2651 36.7333C27.2651 35.8497 26.5487 35.1333 25.6651 35.1333C24.7814 35.1333 24.0651 35.8497 24.0651 36.7333C24.0651 37.617 24.7814 38.3333 25.6651 38.3333Z" fill="black"/>
<defs>
<filter id="filter0_d_257_1600" x="0" y="0" width="76" height="76" filterUnits="userSpaceOnUse" color-interpolation-filters="sRGB">
<feFlood flood-opacity="0" result="BackgroundImageFix"/>
<feColorMatrix in="SourceAlpha" type="matrix" values="0 0 0 0 0 0 0 0 0 0 0 0 0 0 0 0 0 0 127 0" result="hardAlpha"/>
<feOffset dy="4"/>
<feGaussianBlur stdDeviation="3"/>
<feComposite in2="hardAlpha" operator="out"/>
<feColorMatrix type="matrix" values="0 0 0 0 0 0 0 0 0 0 0 0 0 0 0 0 0 0 0.1 0"/>
<feBlend mode="normal" in2="BackgroundImageFix" result="effect1_dropShadow_257_1600"/>
<feBlend mode="normal" in="SourceGraphic" in2="effect1_dropShadow_257_1600" result="shape"/>
</filter>
</defs>
</svg>
