<svg width="76" height="76" viewBox="0 0 76 76" fill="none" xmlns="http://www.w3.org/2000/svg">
<g filter="url(#filter0_d_53_435)">
<circle cx="38" cy="34" r="32" fill="white"/>
<circle cx="38" cy="34" r="31.5" stroke="#A43FD4"/>
</g>
<path d="M39.625 25.5008L38.5265 23.6726C38.1334 23.0182 37.2579 22.8041 36.5884 23.1984C35.4635 23.8609 34.5794 24.8416 34.0568 25.9939C32.0012 25.0907 29.7064 25.1458 27.7594 25.9956C27.2369 24.8422 26.3524 23.8607 25.2267 23.1977C24.5588 22.8044 23.6829 23.0158 23.2887 23.6719L22.1902 25.5002C21.964 25.8767 21.9386 26.3212 22.1204 26.7198C22.3003 27.1139 22.653 27.3939 23.088 27.4877C23.7182 27.6238 24.3267 27.8726 24.8717 28.2146C24.3912 28.8247 24.0086 29.5109 23.7449 30.2538C23.6396 30.5506 23.6795 30.8773 23.8416 31.1439C23.1354 34.3002 24.7684 37.4304 27.7057 38.8279C27.1227 39.542 26.8302 40.4055 26.8302 41.2691C26.8302 41.6636 27.0812 42.0231 27.461 42.1741C27.4114 42.7273 27.8235 43.2217 28.3991 43.2927V43.5696C28.3991 44.3583 29.0669 44.9999 29.8877 44.9999C30.282 44.9999 30.6409 44.8514 30.9075 44.61C31.1741 44.8514 31.5329 44.9999 31.9273 44.9999C32.7481 44.9999 33.4159 44.3582 33.4159 43.5696V43.2927C33.9914 43.2217 34.4035 42.7274 34.354 42.1741C34.7238 42.027 34.9848 41.677 34.9848 41.2691C34.9848 40.7714 34.8811 40.3828 34.8811 40.3828C34.7452 39.8116 34.4818 39.2842 34.1097 38.8287C34.3922 38.6942 34.6669 38.5424 34.9309 38.3716C35.1457 38.2327 35.2026 37.9527 35.058 37.7465C34.9135 37.54 34.6222 37.4853 34.4074 37.6243C33.3746 38.2923 32.1643 38.6453 30.9074 38.6453C26.9929 38.6453 23.9951 35.2309 24.7247 31.4934H27.0502C29.506 31.4934 31.8237 30.6295 33.6274 29.0517L35.4235 30.7776C35.8723 31.2088 36.4593 31.4589 37.0884 31.4899C37.4504 33.337 36.8962 35.1558 35.7036 36.5086C35.5363 36.6984 35.5607 36.9827 35.7583 37.1434C35.9559 37.3043 36.2517 37.2806 36.4189 37.0908C37.8139 35.5085 38.4647 33.3457 37.9727 31.1452C38.1354 30.8784 38.1756 30.5509 38.07 30.2535C37.8094 29.5194 37.427 28.8311 36.9424 28.2158C37.4877 27.8734 38.0967 27.6243 38.7271 27.4882C39.645 27.2903 40.0979 26.2879 39.625 25.5008ZM30.4389 43.5697C30.4389 43.8617 30.1917 44.0992 29.8878 44.0992C29.5839 44.0992 29.3367 43.8617 29.3367 43.5697V43.3015H30.4389V43.5697ZM32.4785 43.5697C32.4785 43.8617 32.2312 44.0992 31.9274 44.0992C31.6236 44.0992 31.3764 43.8617 31.3764 43.5697V43.3015H32.4785V43.5697ZM27.8479 40.5837L27.8484 40.5838C27.9734 40.0586 28.2372 39.5814 28.6162 39.1891C29.3365 39.4205 30.107 39.5462 30.9075 39.5462C31.6954 39.5462 32.4672 39.4244 33.1992 39.1897C33.5787 39.5823 33.8426 40.0593 33.9674 40.5837C34.0205 40.8071 34.0474 41.0377 34.0474 41.2691C34.0474 41.3124 34.0108 41.3476 33.9658 41.3476H33.9413L33.4513 40.6414C33.3078 40.4344 33.0166 40.3785 32.8013 40.5165C32.5859 40.6545 32.5277 40.9341 32.6713 41.141C33.084 41.7359 32.982 41.5889 33.3969 42.1868C33.4602 42.278 33.3931 42.4006 33.2777 42.4006H28.5374C28.4231 42.4006 28.3544 42.2789 28.4183 42.1868L29.1439 41.1411C29.2875 40.9341 29.2293 40.6544 29.0139 40.5165C28.7986 40.3786 28.5074 40.4344 28.3638 40.6413L27.8494 41.3476C27.8044 41.3476 27.7677 41.3124 27.7677 41.2691C27.7678 41.0455 27.7962 40.8022 27.8479 40.5837ZM23.2935 26.6088C22.9928 26.5439 22.846 26.2106 23.0021 25.9506L24.1006 24.1224C24.2301 23.9069 24.5179 23.837 24.7369 23.9659C25.7197 24.5448 26.4865 25.408 26.9283 26.4211C26.4004 26.733 25.9171 27.1048 25.4878 27.5272C24.8231 27.0923 24.0727 26.777 23.2935 26.6088ZM37.1919 30.5924C36.7742 30.585 36.3827 30.4253 36.0864 30.1406L33.9666 28.1037C33.7837 27.928 33.4867 27.9278 33.3037 28.1038C31.6334 29.7088 29.4125 30.5927 27.0503 30.5927H24.6232C24.6237 30.5764 24.6267 30.5602 24.6323 30.5446C25.9664 26.7864 30.5107 25.141 34.0834 27.0127C34.2923 27.122 34.3295 27.2548 34.3394 27.3452C34.3644 27.5744 34.5657 27.7486 34.8056 27.7486C35.0546 27.7486 35.1844 27.7325 35.3169 27.8456C36.62 28.959 37.1862 30.4337 37.1919 30.5924ZM36.3266 27.5283C35.9404 27.1476 35.6848 26.8996 35.1615 26.8546C35.0928 26.7079 34.9942 26.5756 34.8704 26.4601C35.3094 25.4304 36.0831 24.5526 37.0784 23.9664C37.2982 23.837 37.5857 23.9083 37.7147 24.1229L38.8131 25.9511C38.9695 26.2113 38.822 26.5445 38.5217 26.6094C37.7423 26.7776 36.9915 27.0931 36.3266 27.5283Z" fill="#252525"/>
<path d="M27.7815 33.3816V33.8757C27.7815 34.1245 27.9914 34.3261 28.2502 34.3261C28.5091 34.3261 28.719 34.1245 28.719 33.8757V33.3816C28.719 33.1328 28.5091 32.9312 28.2502 32.9312C27.9914 32.9312 27.7815 33.1328 27.7815 33.3816Z" fill="#252525"/>
<path d="M33.1335 33.3816V33.8757C33.1335 34.1245 33.3434 34.3261 33.6023 34.3261C33.8612 34.3261 34.071 34.1245 34.071 33.8757V33.3816C34.071 33.1328 33.8612 32.9312 33.6023 32.9312C33.3434 32.9312 33.1335 33.1328 33.1335 33.3816Z" fill="#252525"/>
<path d="M31.2784 33.5646C31.1894 33.6628 31.0611 33.719 30.9262 33.719C30.7914 33.719 30.6631 33.6627 30.5741 33.5646C30.404 33.3771 30.1079 33.3576 29.9127 33.521C29.7176 33.6844 29.6972 33.9689 29.8673 34.1565C30.1344 34.4509 30.5203 34.6198 30.9262 34.6198C31.3321 34.6198 31.718 34.4509 31.9851 34.1565C32.1551 33.9689 32.1348 33.6844 31.9396 33.521C31.7446 33.3576 31.4484 33.3771 31.2784 33.5646Z" fill="#252525"/>
<path d="M43.4651 33.6526V34.1552C43.4651 34.404 43.6749 34.6056 43.9338 34.6056C44.1928 34.6056 44.4026 34.404 44.4026 34.1552V33.6526C44.4026 33.4038 44.1928 33.2021 43.9338 33.2021C43.6749 33.2021 43.4651 33.4038 43.4651 33.6526Z" fill="#252525"/>
<path d="M48.9102 33.6526V34.1552C48.9102 34.404 49.12 34.6056 49.3789 34.6056C49.6378 34.6056 49.8477 34.404 49.8477 34.1552V33.6526C49.8477 33.4038 49.6378 33.2021 49.3789 33.2021C49.12 33.2021 48.9102 33.4038 48.9102 33.6526Z" fill="#252525"/>
<path d="M47.0207 33.844C46.9286 33.9454 46.7957 34.0037 46.6562 34.0037C46.5167 34.0037 46.3839 33.9455 46.2919 33.844C46.1218 33.6564 45.8257 33.637 45.6306 33.8003C45.4354 33.9637 45.415 34.2483 45.5851 34.4357C45.8551 34.7336 46.2456 34.9045 46.6562 34.9045C47.0667 34.9045 47.4572 34.7337 47.7274 34.4358C47.8975 34.2483 47.8772 33.9638 47.682 33.8004C47.4869 33.6368 47.1907 33.6564 47.0207 33.844Z" fill="#252525"/>
<path d="M52.9488 28.8114C53.2264 28.3159 53.4473 27.7952 53.6067 27.2598C53.8859 26.3214 52.8071 25.5741 51.9709 26.0988C51.6243 26.3165 51.2592 26.5112 50.8825 26.6794C49.6416 25.8375 48.1864 25.394 46.6562 25.394C42.6069 25.394 39.3125 28.5596 39.3125 32.4505C39.3125 35.2956 41.0742 37.7526 43.6044 38.8679C43.2954 39.1919 43.0428 39.5634 42.8595 39.9673C42.5424 40.666 42.5162 41.2093 42.5162 41.7501C42.5162 42.5483 43.1919 43.1976 44.0225 43.1976H44.0433V43.5195C44.0433 44.3359 44.7345 45 45.584 45C46.0002 45 46.3785 44.8405 46.656 44.5819C46.9335 44.8405 47.3118 45 47.728 45C48.5776 45 49.2687 44.3358 49.2687 43.5195V43.1976H49.29C50.1206 43.1976 50.7963 42.5483 50.7963 41.7501C50.7963 41.2094 50.7701 40.6661 50.453 39.9673C50.2698 39.5637 50.0176 39.1926 49.7092 38.8689C50.0372 38.7247 50.3552 38.557 50.6604 38.3659C50.8774 38.2301 50.9386 37.9511 50.7972 37.7427C50.6558 37.5342 50.3653 37.4754 50.1486 37.6113C49.1093 38.262 47.9016 38.6059 46.6561 38.6059C43.2813 38.6059 40.5079 36.0854 40.2671 32.9007L46.0204 32.8994C46.0232 32.8994 46.0262 32.8994 46.0291 32.8993C47.4925 32.8729 48.8803 32.4699 50.0774 31.7579C50.9427 32.3975 51.9797 32.7875 53.0453 32.8791C52.9479 34.2224 52.3969 35.5004 51.4661 36.5159C51.295 36.7026 51.3138 36.9872 51.5081 37.1517C51.7024 37.316 51.9986 37.298 52.1697 37.1113C53.3499 35.8236 53.9999 34.1683 53.9999 32.4505C54 31.1605 53.6374 29.9083 52.9488 28.8114ZM44.0432 41.7501V42.2968H44.0224C43.7088 42.2968 43.4536 42.0516 43.4536 41.7501C43.4536 41.5097 43.4541 41.231 43.5248 40.9074C43.6927 41.0269 43.8663 41.142 44.0432 41.2504V41.7501ZM48.3312 43.5195C48.3312 43.8391 48.0607 44.0992 47.7281 44.0992C47.3954 44.0992 47.1248 43.8391 47.1248 43.5195V43.0915C47.1248 42.8427 46.915 42.6411 46.6561 42.6411C46.3971 42.6411 46.1873 42.8427 46.1873 43.0915V43.5195C46.1873 43.8391 45.9167 44.0992 45.5841 44.0992C45.2514 44.0992 44.9809 43.8391 44.9809 43.5195V42.2006H48.3312V43.5195ZM49.789 40.9064C49.8447 41.1656 49.8588 41.4269 49.8588 41.7501C49.8588 42.0516 49.6037 42.2968 49.29 42.2968H49.2687V41.7501V41.2507C49.4463 41.1419 49.6206 41.0263 49.789 40.9064ZM44.5744 39.2175C45.2348 39.4054 45.9333 39.5068 46.6562 39.5068C47.3673 39.5068 48.0677 39.4087 48.739 39.2183C49.0189 39.4492 49.2546 39.7248 49.4369 40.031C49.1629 40.24 48.8649 40.4379 48.5602 40.6122C48.4182 40.6934 48.3312 40.8404 48.3312 40.9992V41.2997H44.9808V40.999C44.9808 40.8402 44.8938 40.6932 44.7519 40.612C44.4473 40.4378 44.1495 40.24 43.8756 40.031C44.0581 39.7245 44.2941 39.4487 44.5744 39.2175ZM46.0158 31.9986L40.2673 31.9999C40.5082 28.8153 43.2815 26.2949 46.6562 26.2949C48.0733 26.2949 49.4164 26.7308 50.5403 27.5555C50.6821 27.6595 50.8669 27.6739 51.0196 27.607C51.5286 27.3973 52.0211 27.1435 52.4837 26.8529C52.6 26.78 52.7431 26.8843 52.7053 27.012C52.5414 27.5626 52.3037 28.0961 51.9988 28.5975C51.9962 28.6017 51.9946 28.6062 51.9921 28.6105C50.7242 30.6863 48.4916 31.9524 46.0158 31.9986ZM50.8852 31.2077C51.4452 30.7737 51.9493 30.2643 52.381 29.6867C52.7543 30.399 52.9789 31.1737 53.043 31.9732C52.2787 31.8937 51.534 31.63 50.8852 31.2077Z" fill="#252525"/>
<defs>
<filter id="filter0_d_53_435" x="0" y="0" width="76" height="76" filterUnits="userSpaceOnUse" color-interpolation-filters="sRGB">
<feFlood flood-opacity="0" result="BackgroundImageFix"/>
<feColorMatrix in="SourceAlpha" type="matrix" values="0 0 0 0 0 0 0 0 0 0 0 0 0 0 0 0 0 0 127 0" result="hardAlpha"/>
<feOffset dy="4"/>
<feGaussianBlur stdDeviation="3"/>
<feComposite in2="hardAlpha" operator="out"/>
<feColorMatrix type="matrix" values="0 0 0 0 0 0 0 0 0 0 0 0 0 0 0 0 0 0 0.1 0"/>
<feBlend mode="normal" in2="BackgroundImageFix" result="effect1_dropShadow_53_435"/>
<feBlend mode="normal" in="SourceGraphic" in2="effect1_dropShadow_53_435" result="shape"/>
</filter>
</defs>
</svg>
