<svg width="76" height="76" viewBox="0 0 76 76" fill="none" xmlns="http://www.w3.org/2000/svg">
<g filter="url(#filter0_d_53_466)">
<circle cx="38" cy="34" r="32" fill="white"/>
<circle cx="38" cy="34" r="31.5" stroke="#A43FD4"/>
</g>
<path d="M27.88 31.1167C28.1396 31.1167 28.3501 30.9063 28.3501 30.6466V29.557C28.3501 29.2974 28.1396 29.0869 27.88 29.0869C27.6204 29.0869 27.4099 29.2974 27.4099 29.557V30.6466C27.4099 30.9063 27.6203 31.1167 27.88 31.1167Z" fill="#252525"/>
<path d="M32.5901 31.1167C32.8497 31.1167 33.0602 30.9063 33.0602 30.6466V29.557C33.0602 29.2974 32.8497 29.0869 32.5901 29.0869C32.3304 29.0869 32.1199 29.2974 32.1199 29.557V30.6466C32.12 30.9063 32.3304 31.1167 32.5901 31.1167Z" fill="#252525"/>
<path d="M32.5633 33.944C32.7443 33.8889 32.8746 33.7309 32.8942 33.5428C32.8986 33.4998 32.9959 32.4791 32.3061 31.7139C31.8324 31.1884 31.1279 30.9219 30.2121 30.9219C29.2964 30.9219 28.5919 31.1883 28.1182 31.7139C27.4284 32.4792 27.5256 33.4998 27.5301 33.5428C27.5496 33.7309 27.6799 33.8889 27.8609 33.944C28.4169 34.1131 29.4916 34.1892 30.2121 33.5414C30.651 33.936 31.2212 34.0621 31.7255 34.0621C32.0493 34.062 32.346 34.0101 32.5633 33.944ZM30.6355 32.5758C30.6291 32.5625 30.622 32.5495 30.6143 32.5367C30.5291 32.3962 30.3767 32.3104 30.2123 32.3104H30.212C30.0476 32.3104 29.8953 32.3962 29.81 32.5367C29.8023 32.5495 29.7952 32.5625 29.7888 32.5758C29.4944 33.1231 28.873 33.1539 28.4808 33.1099C28.5128 32.8847 28.598 32.5859 28.8166 32.3434C29.1045 32.0241 29.5741 31.8621 30.2122 31.8621C30.8464 31.8621 31.3142 32.0221 31.6024 32.3376C31.8241 32.5802 31.9104 32.8824 31.9429 33.1099C31.5501 33.1537 30.9296 33.1224 30.6355 32.5758Z" fill="#252525"/>
<path d="M53.5299 43.9114C53.7896 43.9114 54 43.701 54 43.4413V41.8991C54 40.3492 53.451 38.9252 52.5375 37.8108C53.8794 36.9008 53.9942 35.5088 53.9988 35.4433C54.0137 35.231 53.8882 35.0367 53.6869 34.9675C53.6843 34.9665 53.4171 34.8667 53.1904 34.6158C52.9032 34.2981 52.8032 33.8728 52.893 33.3517C53.4692 30.0068 53.639 25.4057 51.1751 22.481C49.8599 20.9198 47.9385 20.0602 45.7649 20.0602C44.2429 20.0602 42.8272 20.4824 41.6711 21.2813C41.4576 21.4288 41.404 21.7217 41.5516 21.9353C41.6991 22.1488 41.9921 22.2025 42.2056 22.0548C43.2039 21.365 44.4348 21.0004 45.7649 21.0004C47.1031 21.0004 49.0033 21.3623 50.456 23.0868C52.2219 25.183 52.7442 28.6773 51.9664 33.192C51.7381 34.5168 52.4129 35.3111 53.0008 35.6736C52.8963 36.0426 52.6146 36.6731 51.877 37.1162C50.9879 36.3095 49.8737 35.747 48.6412 35.5347C50.1157 34.5855 51.0952 32.9308 51.0952 31.0506V28.5398C51.0952 28.3535 50.9851 28.1847 50.8145 28.1096C48.9191 27.2751 47.9321 24.674 47.9224 24.6478C47.8604 24.4808 47.7093 24.3632 47.5321 24.344C47.3551 24.3254 47.1819 24.4077 47.0857 24.5578C45.2116 27.4845 41.0052 28.1466 40.8441 28.1707C40.6131 28.2005 40.4346 28.3979 40.4346 28.637V31.0506C40.4346 32.9308 41.414 34.5856 42.8886 35.5347C41.6561 35.747 40.5419 36.3095 39.6528 37.1162C38.9144 36.6727 38.6329 36.0416 38.5287 35.6737C39.1167 35.3113 39.7917 34.517 39.5634 33.192C38.8068 28.7998 39.2828 25.3623 40.9403 23.251C41.1006 23.0468 41.065 22.7513 40.8608 22.591C40.6567 22.4307 40.3611 22.4663 40.2007 22.6705C38.3746 24.9967 37.8337 28.6902 38.6369 33.3517C38.7266 33.8728 38.6266 34.2981 38.3394 34.6158C38.1132 34.8662 37.8467 34.966 37.8469 34.966C37.6457 35.0352 37.5161 35.231 37.5309 35.4433C37.5355 35.5087 37.6503 36.9007 38.9923 37.8108C38.5825 38.3107 38.2463 38.8729 37.9999 39.4808C37.1736 37.442 35.3352 35.9178 33.1112 35.5347C34.1038 34.8958 34.8712 33.9374 35.2671 32.8052C36.4179 32.8028 37.3534 31.866 37.3534 30.7146C37.3534 30.4053 37.2853 30.1118 37.1643 29.8474C38.0435 27.2537 37.9982 25.2106 37.0279 23.7728C36.0771 22.364 34.5265 21.9767 33.8351 21.872C33.7043 21.5087 33.4041 20.9526 32.7269 20.5046C31.2244 19.5108 28.7052 19.537 25.2391 20.5823C23.9442 20.973 23.0568 21.6967 22.6016 22.7335C21.9136 24.3007 22.2455 26.5412 23.5871 29.3952C23.2932 29.7554 23.1166 30.2148 23.1166 30.7148C23.1166 31.8662 24.0521 32.803 25.2029 32.8054C25.599 33.9381 26.367 34.8968 27.3602 35.5357C26.2026 35.7353 25.1143 36.2471 24.2186 37.0271C24.0228 37.1977 24.0024 37.4946 24.1729 37.6904C24.3434 37.8862 24.6403 37.9067 24.8361 37.7362C25.6731 37.0072 26.7073 36.5527 27.8004 36.4216C27.862 36.8928 28.0387 37.5833 28.5379 38.0972C28.9665 38.5385 29.5375 38.7622 30.235 38.7622C30.933 38.7622 31.5042 38.5381 31.933 38.0963C32.4324 37.5817 32.6088 36.8915 32.67 36.4205C35.4035 36.7469 37.5298 39.0792 37.5298 41.8992V47.2815H35.4025V42.6395C35.4025 42.3798 35.192 42.1693 34.9324 42.1693C34.6727 42.1693 34.4622 42.3798 34.4622 42.6395V47.2815H26.0078V42.6395C26.0078 42.3798 25.7973 42.1693 25.5377 42.1693C25.2781 42.1693 25.0676 42.3798 25.0676 42.6395V47.2815H22.9402V41.8992C22.9402 40.897 23.2114 39.9159 23.7244 39.062C23.8581 38.8394 23.7861 38.5506 23.5636 38.4169C23.3409 38.2831 23.0522 38.3552 22.9185 38.5778C22.3176 39.5779 22 40.7265 22 41.8991V47.7515C22 48.0112 22.2105 48.2217 22.4701 48.2217H53.5299C53.7896 48.2217 54 48.0112 54 47.7515V45.3217C54 45.062 53.7896 44.8516 53.5299 44.8516C53.2702 44.8516 53.0597 45.062 53.0597 45.3217V47.2814H50.9324V42.6393C50.9324 42.3797 50.7219 42.1692 50.4622 42.1692C50.2026 42.1692 49.9921 42.3797 49.9921 42.6393V47.2814H41.5377V42.6393C41.5377 42.3797 41.3272 42.1692 41.0676 42.1692C40.8079 42.1692 40.5974 42.3797 40.5974 42.6393V47.2814H38.4701V41.899C38.4701 41.8982 38.4701 41.8974 38.4701 41.8966C38.4713 39.0803 40.5935 36.7508 43.3226 36.4212C43.3842 36.8925 43.5609 37.5835 44.0603 38.0973C44.4889 38.5383 45.0599 38.762 45.7572 38.762C46.4553 38.762 47.0268 38.5378 47.4555 38.0958C47.9552 37.5807 48.1314 36.8903 48.1924 36.4194C50.9296 36.7425 53.0598 39.0764 53.0598 41.899V43.4412C53.0597 43.701 53.2702 43.9114 53.5299 43.9114ZM35.5067 31.8387C35.545 31.5814 35.5653 31.3184 35.5653 31.0507V29.6046C36.0544 29.7374 36.4132 30.1849 36.4132 30.7148C36.4132 31.2655 36.0243 31.7265 35.5067 31.8387ZM23.4626 23.1115C23.8069 22.3272 24.4768 21.7944 25.5106 21.4827C29.4443 20.2962 31.3079 20.7119 32.1785 21.2697C32.8831 21.721 32.9897 22.3018 32.9985 22.3582C33.0188 22.5918 33.2087 22.7618 33.4434 22.7735C33.4619 22.7745 35.2987 22.8824 36.2537 24.3065C36.9815 25.3918 37.0461 26.9668 36.4489 28.9944C36.1903 28.8156 35.8899 28.6935 35.5653 28.6462V27.8162C35.5653 27.6367 35.4632 27.4729 35.3021 27.394C33.8443 26.6797 32.8781 24.2875 32.8687 24.2637C32.7623 23.9725 32.3642 23.8708 32.1313 24.0754C28.6965 26.9293 25.4524 26.6615 25.4214 26.6591C25.1534 26.6262 24.8987 26.8569 24.9048 27.1269V28.6462C24.7103 28.6745 24.5247 28.7299 24.3513 28.8081C23.2182 26.3338 22.9101 24.3698 23.4626 23.1115ZM24.0568 30.7148C24.0568 30.1849 24.4158 29.7373 24.9048 29.6045V31.0507C24.9048 31.3184 24.9251 31.5815 24.9634 31.8387C24.4459 31.7265 24.0568 31.2655 24.0568 30.7148ZM25.8449 31.0507V27.6082C26.9113 27.5872 29.4758 27.2908 32.2528 25.1798C32.6444 25.9735 33.4661 27.3891 34.6251 28.0938V31.0507C34.6251 33.4713 32.6557 35.4408 30.235 35.4408C27.8144 35.4408 25.8449 33.4713 25.8449 31.0507ZM30.235 37.8218C29.7951 37.8218 29.4606 37.6976 29.2123 37.442C28.9189 37.14 28.7962 36.7066 28.745 36.381H31.7253C31.6743 36.7062 31.5518 37.1391 31.2583 37.4415C31.0099 37.6974 30.6752 37.8218 30.235 37.8218ZM41.3748 31.0507V29.0278C42.5244 28.7986 45.5185 28.0016 47.3849 25.7402C47.8401 26.6367 48.751 28.0899 50.1549 28.8341V31.0507C50.1549 33.4713 48.1856 35.4408 45.7649 35.4408C43.3442 35.4408 41.3748 33.4713 41.3748 31.0507ZM45.7572 37.8218C45.3174 37.8218 44.9829 37.6977 44.7346 37.4422C44.4413 37.1403 44.3185 36.7068 44.2673 36.381H47.2476C47.1967 36.7061 47.0742 37.1387 46.7806 37.4413C46.5322 37.6974 46.1974 37.8218 45.7572 37.8218Z" fill="#252525"/>
<path d="M43.4099 29.0869C43.1502 29.0869 42.9398 29.2974 42.9398 29.557V30.6466C42.9398 30.9063 43.1502 31.1167 43.4099 31.1167C43.6696 31.1167 43.88 30.9063 43.88 30.6466V29.557C43.8799 29.2974 43.6695 29.0869 43.4099 29.0869Z" fill="#252525"/>
<path d="M48.1199 31.1167C48.3796 31.1167 48.5901 30.9063 48.5901 30.6466V29.557C48.5901 29.2974 48.3796 29.0869 48.1199 29.0869C47.8602 29.0869 47.6498 29.2974 47.6498 29.557V30.6466C47.6499 30.9063 47.8603 31.1167 48.1199 31.1167Z" fill="#252525"/>
<path d="M47.251 32.7852C47.5149 32.2023 46.6775 31.8133 46.3993 32.3838C46.3848 32.4132 46.2436 32.6707 45.7649 32.6707C45.2863 32.6707 45.1451 32.4132 45.1306 32.3838C44.8524 31.8133 44.0149 32.2023 44.2789 32.7852C44.4253 33.106 44.8866 33.6126 45.7649 33.6126C46.6433 33.6126 47.1046 33.106 47.251 32.7852Z" fill="#252525"/>
<defs>
<filter id="filter0_d_53_466" x="0" y="0" width="76" height="76" filterUnits="userSpaceOnUse" color-interpolation-filters="sRGB">
<feFlood flood-opacity="0" result="BackgroundImageFix"/>
<feColorMatrix in="SourceAlpha" type="matrix" values="0 0 0 0 0 0 0 0 0 0 0 0 0 0 0 0 0 0 127 0" result="hardAlpha"/>
<feOffset dy="4"/>
<feGaussianBlur stdDeviation="3"/>
<feComposite in2="hardAlpha" operator="out"/>
<feColorMatrix type="matrix" values="0 0 0 0 0 0 0 0 0 0 0 0 0 0 0 0 0 0 0.1 0"/>
<feBlend mode="normal" in2="BackgroundImageFix" result="effect1_dropShadow_53_466"/>
<feBlend mode="normal" in="SourceGraphic" in2="effect1_dropShadow_53_466" result="shape"/>
</filter>
</defs>
</svg>
