<svg width="76" height="76" viewBox="0 0 76 76" fill="none" xmlns="http://www.w3.org/2000/svg">
<g filter="url(#filter0_d_53_498)">
<circle cx="38" cy="34" r="32" fill="white"/>
<circle cx="38" cy="34" r="31.5" stroke="#A43FD4"/>
</g>
<path d="M33.405 47.5141V44.7324H36.0405C36.1732 44.7324 36.3005 44.6797 36.3943 44.586C36.4881 44.4922 36.5408 44.365 36.5408 44.2324C36.5408 44.0998 36.4881 43.9726 36.3943 43.8789C36.3005 43.7851 36.1732 43.7324 36.0405 43.7324H33.405V38.968C34.1481 38.9087 34.873 38.7076 35.5403 38.3755C35.5571 38.3691 35.5735 38.3617 35.5894 38.3535C36.4912 37.8937 37.2595 37.2098 37.8205 36.3675C38.3814 35.5252 38.7161 34.5528 38.7924 33.5438C38.8687 32.5348 38.684 31.5232 38.2561 30.6062C37.8282 29.6891 37.1715 28.8976 36.349 28.3076C36.2412 28.2302 36.1071 28.1988 35.9761 28.2203C35.8452 28.2417 35.7281 28.3143 35.6507 28.4221C35.5733 28.5298 35.5419 28.6639 35.5633 28.7948C35.5848 28.9257 35.6575 29.0427 35.7653 29.1201C36.3965 29.5736 36.9109 30.1705 37.2661 30.8615C37.6214 31.5526 37.8074 32.3182 37.8087 33.0952C37.8056 33.9908 37.5586 34.8687 37.0942 35.6346C36.6297 36.4006 35.9654 37.0257 35.1725 37.4428C35.1564 37.4492 35.1405 37.4565 35.1251 37.4643C34.4379 37.8159 33.6767 37.9986 32.9048 37.997C31.7601 37.9976 30.6513 37.5977 29.7707 36.8667C28.8901 36.1357 28.2932 35.1197 28.0835 33.9949C27.8738 32.8701 28.0646 31.7075 28.6227 30.7085C29.1809 29.7096 30.0712 28.9374 31.1392 28.5259C31.2006 28.5023 31.2566 28.4668 31.3043 28.4216C31.3519 28.3763 31.3901 28.3221 31.4167 28.2621C31.4434 28.2021 31.4579 28.1374 31.4596 28.0717C31.4612 28.0061 31.4498 27.9407 31.4262 27.8795C31.4025 27.8182 31.367 27.7622 31.3217 27.7146C31.2764 27.6671 31.2221 27.6289 31.1621 27.6023C31.102 27.5758 31.0372 27.5613 30.9715 27.5597C30.9058 27.5582 30.8405 27.5695 30.7792 27.5932C29.5334 28.0728 28.4871 28.9606 27.8114 30.1115C27.1357 31.2624 26.8705 32.6083 27.0592 33.9293C27.2479 35.2503 27.8793 36.4683 28.8502 37.3842C29.8211 38.3001 31.0742 38.8598 32.4045 38.9717V43.7324H29.7687C29.6361 43.7324 29.5088 43.7851 29.415 43.8789C29.3212 43.9726 29.2685 44.0998 29.2685 44.2324C29.2685 44.365 29.3212 44.4922 29.415 44.586C29.5088 44.6797 29.6361 44.7324 29.7687 44.7324H32.4045V47.5141C32.4082 47.6443 32.4626 47.7678 32.556 47.8585C32.6494 47.9493 32.7745 48 32.9047 48C33.035 48 33.1601 47.9493 33.2535 47.8585C33.3469 47.7678 33.4012 47.6443 33.405 47.5141L33.405 47.5141Z" fill="#252525"/>
<path d="M47.9739 21.7183L47.9051 25.017C47.9025 25.1495 47.9526 25.2777 48.0444 25.3734C48.1362 25.469 48.2623 25.5244 48.3949 25.5272H48.4056C48.5365 25.5271 48.662 25.4758 48.7555 25.3842C48.8489 25.2927 48.9028 25.1682 48.9056 25.0375L48.9999 20.5106C49.0013 20.4432 48.989 20.3763 48.9638 20.3138C48.9386 20.2513 48.901 20.1945 48.8533 20.1469C48.8064 20.0982 48.7497 20.0599 48.6869 20.0347C48.6242 20.0094 48.5568 19.9977 48.4892 20.0004L43.9599 20.0946C43.8273 20.0975 43.7012 20.1528 43.6094 20.2485C43.5176 20.3441 43.4675 20.4723 43.4702 20.6048C43.4705 20.6708 43.4841 20.7361 43.5102 20.7967C43.5362 20.8573 43.5742 20.9121 43.6218 20.9578C43.6695 21.0034 43.7258 21.0391 43.7875 21.0626C43.8492 21.0861 43.9149 21.097 43.9809 21.0946L47.281 21.0258L42.1225 26.1817C40.9598 25.197 39.461 24.6998 37.94 24.7944C36.4189 24.8889 34.9933 25.5677 33.9616 26.6889C32.9298 27.81 32.3719 29.2865 32.4045 30.8094C32.437 32.3324 33.0576 33.7837 34.1363 34.8597C34.3643 35.0886 34.6123 35.2966 34.8774 35.4813C34.9865 35.5569 35.1212 35.586 35.2518 35.5624C35.3824 35.5387 35.4982 35.4641 35.5738 35.3551C35.6494 35.2461 35.6786 35.1115 35.6549 34.9809C35.6312 34.8504 35.5566 34.7346 35.4475 34.6591C35.2316 34.5086 35.0295 34.3391 34.8437 34.1527C34.0548 33.3586 33.5597 32.3197 33.4398 31.207C33.32 30.0943 33.5826 28.9739 34.1845 28.0302C34.3745 27.7369 34.5955 27.465 34.8437 27.2191C35.7548 26.3058 36.9899 25.7892 38.2803 25.7816C39.5706 25.774 40.8117 26.2761 41.7335 27.1786C41.7462 27.1949 41.7599 27.2103 41.7745 27.225C42.6919 28.144 43.2073 29.3892 43.2077 30.6875C43.208 31.9858 42.6934 33.2312 41.7765 34.1508C41.2942 34.6329 40.7154 35.0078 40.0781 35.2509C40.0165 35.2739 39.9601 35.3089 39.912 35.3538C39.864 35.3987 39.8253 35.4527 39.7981 35.5126C39.7709 35.5725 39.7558 35.6371 39.7537 35.7028C39.7516 35.7686 39.7624 35.834 39.7857 35.8956C39.8089 35.9571 39.844 36.0134 39.8891 36.0613C39.9341 36.1093 39.9882 36.1479 40.0481 36.1749C40.1081 36.2019 40.1728 36.2168 40.2386 36.2188C40.3043 36.2208 40.3698 36.2098 40.4313 36.1864C41.2008 35.8938 41.8997 35.4416 42.4819 34.8598C43.5262 33.8124 44.1393 32.4115 44.1997 30.934C44.2602 29.4566 43.7637 28.0103 42.8084 26.8812L47.9739 21.7183Z" fill="#252525"/>
<defs>
<filter id="filter0_d_53_498" x="0" y="0" width="76" height="76" filterUnits="userSpaceOnUse" color-interpolation-filters="sRGB">
<feFlood flood-opacity="0" result="BackgroundImageFix"/>
<feColorMatrix in="SourceAlpha" type="matrix" values="0 0 0 0 0 0 0 0 0 0 0 0 0 0 0 0 0 0 127 0" result="hardAlpha"/>
<feOffset dy="4"/>
<feGaussianBlur stdDeviation="3"/>
<feComposite in2="hardAlpha" operator="out"/>
<feColorMatrix type="matrix" values="0 0 0 0 0 0 0 0 0 0 0 0 0 0 0 0 0 0 0.1 0"/>
<feBlend mode="normal" in2="BackgroundImageFix" result="effect1_dropShadow_53_498"/>
<feBlend mode="normal" in="SourceGraphic" in2="effect1_dropShadow_53_498" result="shape"/>
</filter>
</defs>
</svg>
