<svg width="76" height="76" viewBox="0 0 76 76" fill="none" xmlns="http://www.w3.org/2000/svg">
<g filter="url(#filter0_d_11_619)">
<circle cx="38" cy="34" r="32" fill="white"/>
<circle cx="38" cy="34" r="31.5" stroke="#A43FD4"/>
</g>
<path d="M44.0028 27.2443C43.2286 27.0183 42.4059 27.0262 41.6361 27.2669C40.8662 27.5077 40.1827 27.9709 39.6697 28.5995C39.1567 27.9707 38.4732 27.5074 37.7033 27.2666C36.9333 27.0258 36.1105 27.018 35.3363 27.2443C31.1334 28.9468 31.6646 34.4102 38.4021 38.5528C38.784 38.7881 39.2225 38.9126 39.6696 38.9126C40.1167 38.9126 40.5552 38.7881 40.9371 38.5528C47.6748 34.4106 48.2055 28.9473 44.0028 27.2443ZM40.4121 37.6908C40.1886 37.829 39.9317 37.9021 39.6698 37.9021C39.4078 37.9021 39.151 37.829 38.9275 37.6908C33.0548 34.0782 32.2883 29.6115 35.6367 28.2095C36.8459 27.8414 38.0182 28.2766 38.9483 29.3018C39.0421 29.3992 39.1543 29.4766 39.2782 29.5294C39.4021 29.5823 39.5352 29.6095 39.6697 29.6095C39.8041 29.6095 39.9372 29.5823 40.0611 29.5294C40.185 29.4766 40.2972 29.3992 40.3911 29.3018C44.1598 25.33 50.0186 31.8493 40.4121 37.6908Z" fill="#252525"/>
<path d="M40.622 20.0534C33.9297 19.3857 27.7294 25.0725 27.7121 31.8702C27.4524 40.7142 37.0767 47.0287 44.9105 42.9852C45.3749 43.1002 49.3675 44.6019 49.7795 44.5038C50.1314 44.4992 50.4773 44.4111 50.7895 44.2467C51.1016 44.0823 51.3713 43.8461 51.5768 43.557C51.7822 43.268 51.9178 42.9343 51.9726 42.5826C52.0274 42.2309 51.9998 41.8712 51.8922 41.5322C51.3132 39.7791 50.6839 37.8674 50.485 37.2624C54.1021 29.8076 48.8443 20.5657 40.622 20.0534ZM49.4973 37.0034C49.4392 37.1228 49.4299 37.2606 49.4714 37.3869C49.4714 37.3869 50.2439 39.7356 50.9426 41.852C51.0122 42.0713 51.0206 42.3058 50.9669 42.5296C50.9132 42.7534 50.7995 42.9578 50.6383 43.1205C50.4772 43.2831 50.2748 43.3976 50.0534 43.4514C49.8321 43.5052 49.6003 43.4961 49.3837 43.4252L45.0303 41.9588C37.6417 45.6705 28.5554 40.4933 28.7127 31.8905C28.73 25.6595 34.407 20.4563 40.5444 21.0628C48.158 21.5386 52.9652 30.1581 49.4973 37.0034Z" fill="#252525"/>
<path d="M26.2179 47.9956C26.6202 48.0913 30.6182 46.5958 31.0868 46.4768C33.0153 47.4381 35.1662 47.8502 37.3087 47.6688C39.4511 47.4874 41.5044 46.7194 43.2482 45.4473C43.3531 45.3678 43.4231 45.2499 43.4431 45.1189C43.463 44.9878 43.4314 44.8541 43.3549 44.7464C43.2784 44.6387 43.1633 44.5656 43.0341 44.5429C42.905 44.5201 42.7722 44.5496 42.6643 44.6248C41.0388 45.8059 39.1228 46.5107 37.127 46.6615C35.1312 46.8124 33.133 46.4035 31.352 45.4798C31.2326 45.4187 31.094 45.408 30.9668 45.4502L26.6119 46.9172C26.3954 46.9902 26.163 47.0007 25.9409 46.9476C25.7187 46.8945 25.5156 46.7798 25.3543 46.6164C25.193 46.4531 25.0799 46.2475 25.0276 46.0227C24.9753 45.798 24.986 45.5629 25.0584 45.3439C25.753 43.2275 26.5293 40.8798 26.5293 40.8798C26.5712 40.7532 26.562 40.615 26.5037 40.4953C25.6519 38.7497 25.2704 36.8078 25.3977 34.8654C25.5249 32.923 26.1565 31.0489 27.2285 29.4324C27.2654 29.3774 27.2913 29.3155 27.3045 29.2504C27.3178 29.1853 27.3183 29.1182 27.3059 29.0529C27.2935 28.9876 27.2686 28.9255 27.2325 28.8699C27.1963 28.8144 27.1498 28.7666 27.0954 28.7293C27.041 28.692 26.9799 28.6658 26.9155 28.6524C26.8512 28.639 26.7848 28.6385 26.7203 28.651C26.6557 28.6635 26.5943 28.6888 26.5394 28.7253C26.4845 28.7618 26.4372 28.809 26.4003 28.864C25.4492 30.2782 24.814 31.885 24.539 33.5728C24.1279 36.0111 24.469 38.5184 25.516 40.7538C25.3159 41.3592 24.6842 43.271 24.1091 45.0232C24.0008 45.3619 23.9726 45.7215 24.0269 46.0733C24.0811 46.425 24.2163 46.7589 24.4215 47.0481C24.6266 47.3373 24.8961 47.5737 25.2081 47.7383C25.5201 47.9029 25.866 47.991 26.2179 47.9956Z" fill="#252525"/>
<defs>
<filter id="filter0_d_11_619" x="0" y="0" width="76" height="76" filterUnits="userSpaceOnUse" color-interpolation-filters="sRGB">
<feFlood flood-opacity="0" result="BackgroundImageFix"/>
<feColorMatrix in="SourceAlpha" type="matrix" values="0 0 0 0 0 0 0 0 0 0 0 0 0 0 0 0 0 0 127 0" result="hardAlpha"/>
<feOffset dy="4"/>
<feGaussianBlur stdDeviation="3"/>
<feComposite in2="hardAlpha" operator="out"/>
<feColorMatrix type="matrix" values="0 0 0 0 0 0 0 0 0 0 0 0 0 0 0 0 0 0 0.1 0"/>
<feBlend mode="normal" in2="BackgroundImageFix" result="effect1_dropShadow_11_619"/>
<feBlend mode="normal" in="SourceGraphic" in2="effect1_dropShadow_11_619" result="shape"/>
</filter>
</defs>
</svg>
