<svg width="76" height="76" viewBox="0 0 76 76" fill="none" xmlns="http://www.w3.org/2000/svg">
<g filter="url(#filter0_d_53_452)">
<circle cx="38" cy="34" r="32" fill="white"/>
<circle cx="38" cy="34" r="31.5" stroke="#A43FD4"/>
</g>
<path d="M43.4788 29.1878V28.7066C43.4788 28.4579 43.2689 28.2563 43.01 28.2563C42.7511 28.2563 42.5413 28.4579 42.5413 28.7066V29.1878C42.5413 29.4365 42.7511 29.6381 43.01 29.6381C43.2689 29.6381 43.4788 29.4365 43.4788 29.1878Z" fill="#252525"/>
<path d="M46.0161 29.6381C46.275 29.6381 46.4849 29.4365 46.4849 29.1878V28.7066C46.4849 28.4579 46.275 28.2563 46.0161 28.2563C45.7572 28.2563 45.5474 28.4579 45.5474 28.7066V29.1878C45.5474 29.4365 45.7572 29.6381 46.0161 29.6381Z" fill="#252525"/>
<path d="M45.9427 30.9278C45.8366 30.701 45.5591 30.5999 45.323 30.7018C45.0868 30.8038 44.8068 30.8577 44.5132 30.8577C44.2195 30.8577 43.9395 30.8038 43.7033 30.7018C43.4672 30.5999 43.1898 30.7011 43.0836 30.9278C42.9774 31.1546 43.0828 31.4211 43.3189 31.5231C43.675 31.6769 44.088 31.7582 44.5131 31.7582C44.9382 31.7582 45.3512 31.6769 45.7073 31.5231C45.9435 31.4211 46.0489 31.1546 45.9427 30.9278Z" fill="#252525"/>
<path d="M29.0387 32.3717C28.9325 32.5985 29.0379 32.865 29.274 32.9669C29.6301 33.1208 30.043 33.202 30.4682 33.202C30.8934 33.202 31.3064 33.1208 31.6625 32.9669C31.8986 32.865 32.0039 32.5985 31.8978 32.3717C31.7916 32.1449 31.5141 32.0437 31.278 32.1457C31.0419 32.2477 30.7619 32.3016 30.4682 32.3016C30.1745 32.3016 29.8946 32.2477 29.6584 32.1457C29.4223 32.0437 29.1448 32.1448 29.0387 32.3717Z" fill="#252525"/>
<path d="M28.9651 31.0814C29.224 31.0814 29.4338 30.8798 29.4338 30.6312V30.15C29.4338 29.9013 29.224 29.6997 28.9651 29.6997C28.7062 29.6997 28.4963 29.9013 28.4963 30.15V30.6312C28.4963 30.8798 28.7062 31.0814 28.9651 31.0814Z" fill="#252525"/>
<path d="M31.9712 31.0814C32.2301 31.0814 32.4399 30.8798 32.4399 30.6312V30.15C32.4399 29.9013 32.2301 29.6997 31.9712 29.6997C31.7123 29.6997 31.5024 29.9013 31.5024 30.15V30.6312C31.5024 30.8798 31.7123 31.0814 31.9712 31.0814Z" fill="#252525"/>
<path d="M53.5312 45.0994H52.998V38.0771C52.998 37.1716 52.4742 36.3575 51.6311 35.9526L48.8723 34.6276C48.8644 34.6096 48.8576 34.5912 48.8491 34.5735C48.6379 34.1324 48.2868 33.8548 47.9882 33.7005V32.8792C48.9094 32.0911 49.491 30.9442 49.491 29.6688V29.5638C50.0728 29.3753 50.493 28.8466 50.493 28.225V26.3001C50.493 24.1943 48.7094 22.4812 46.5172 22.4812H42.5091C40.8694 22.4812 39.5353 23.7625 39.5353 25.3376C39.5353 25.9592 39.9556 26.4879 40.5373 26.6764V29.6688C40.5373 31.4332 41.6497 32.9521 43.2359 33.6142C42.9109 33.7371 42.4408 34.0316 42.1812 34.5735C42.0909 34.762 42.0316 34.9656 42.0027 35.1834L40.4013 35.9526C39.5581 36.3575 39.0343 37.1716 39.0343 38.0771V38.7396C38.7268 39.0069 38.5333 39.393 38.5333 39.8218V44.5402C38.5333 44.7383 38.5747 44.9271 38.6494 45.0994H37.3506C37.4253 44.9271 37.4668 44.7383 37.4668 44.5402V39.8218C37.4668 39.0169 36.785 38.3621 35.9471 38.3621H34.4607V38.3311C34.4607 36.9092 33.3734 35.727 31.9556 35.5105V34.9637C33.2373 34.3506 34.1721 33.1651 34.3934 31.7572C35.0723 31.0678 35.4459 30.1596 35.4459 29.1876C35.4459 27.6308 34.9204 26.1962 33.9664 25.1481C32.9659 24.0491 31.5456 23.4437 29.9671 23.4437C29.7564 23.4437 29.5483 23.4544 29.3432 23.4749C28.7007 22.5595 27.6186 22 26.4601 22C24.5441 22 22.9852 23.4973 22.9852 25.3377C22.9852 26.3016 23.4091 27.2013 24.1551 27.8354C24.0457 28.2693 23.9872 28.722 23.9872 29.1876C23.9872 30.4296 24.5951 31.5499 25.656 32.2688C25.8921 33.0799 26.3698 33.7947 27.0101 34.3371V35.4984C24.7611 35.7242 23.0021 37.5558 23.0021 39.7749V45.0995H22.4688C22.2099 45.0995 22 45.3011 22 45.5497C22 45.7984 22.2099 46 22.4688 46H53.5312C53.7901 46 54 45.7984 54 45.5497C54 45.3011 53.7901 45.0994 53.5312 45.0994ZM23.9227 25.3377C23.9227 23.9938 25.0609 22.9005 26.4601 22.9005C27.1662 22.9005 27.8329 23.1861 28.3072 23.6691C26.598 24.1441 25.2018 25.3336 24.4929 26.8773C24.1262 26.4468 23.9227 25.9077 23.9227 25.3377ZM25.4959 30.8814C25.1239 30.4012 24.9248 29.8226 24.9248 29.1876C24.9248 26.5169 27.1867 24.3443 29.9671 24.3443C31.29 24.3443 32.4289 24.8272 33.2606 25.7408C34.0652 26.6247 34.5084 27.8488 34.5084 29.1876C34.5084 29.3976 34.4862 29.6012 34.4439 29.7975V29.7699C34.4439 29.0376 33.8751 28.4334 33.1208 28.3646C31.9436 28.2571 29.7434 27.9233 28.2342 26.8954C28.0405 26.7635 27.7749 26.7915 27.6156 26.9604L26.8161 27.8084C26.0151 28.6579 25.5513 29.7413 25.4959 30.8814ZM26.4278 31.1117C26.4278 30.1122 26.8124 29.1537 27.511 28.4128L28.0408 27.851C29.694 28.827 31.8471 29.1528 33.0321 29.261C33.3025 29.2857 33.5064 29.5044 33.5064 29.7699V31.1125C33.5064 32.9871 31.9186 34.5121 29.9671 34.5121C28.0155 34.5121 26.4278 32.9871 26.4278 31.1117ZM31.954 35.5101C31.9539 35.5101 31.9539 35.5101 31.9538 35.5101C31.9539 35.5083 31.9539 35.5088 31.954 35.5101ZM31.0181 35.2918V35.4436C31.0181 36.2568 30.3294 36.9183 29.4828 36.9183C28.6363 36.9183 27.9476 36.2567 27.9476 35.4436V34.9484C28.5548 35.2446 29.2407 35.4127 29.9671 35.4127C30.3291 35.4127 30.6807 35.3701 31.0181 35.2918ZM36.5293 44.5402C36.5293 44.8485 36.2681 45.0994 35.9471 45.0994H27.0268C26.7057 45.0994 26.4446 44.8485 26.4446 44.5402V42.181C26.4446 41.9323 26.2347 41.7307 25.9758 41.7307C25.7169 41.7307 25.5071 41.9323 25.5071 42.181V44.5402C25.5071 44.7382 25.5485 44.927 25.6232 45.0994H23.9395V39.7748C23.9395 37.9861 25.3854 36.5167 27.2133 36.3857C27.5938 37.228 28.4676 37.8188 29.4828 37.8188C30.4954 37.8188 31.3674 37.2308 31.7494 36.3919C32.7486 36.516 33.5232 37.338 33.5232 38.331V38.362H27.0268C26.1888 38.362 25.5071 39.0168 25.5071 39.8217V40.256C25.5071 40.5046 25.7169 40.7062 25.9758 40.7062C26.2347 40.7062 26.4446 40.5046 26.4446 40.256V39.8217C26.4446 39.5134 26.7057 39.2625 27.0268 39.2625H35.9471C36.2681 39.2625 36.5293 39.5133 36.5293 39.8217V44.5402ZM48.0034 34.9628C48.1954 35.379 48.1286 35.9821 47.8119 36.7235L46.2711 35.8355L47.6226 34.5375C47.7505 34.6163 47.9049 34.749 48.0034 34.9628ZM45.5151 35.2881L44.0319 33.8634C44.3483 33.9317 44.6767 33.969 45.0142 33.969C45.7474 33.969 46.4392 33.7977 47.0506 33.4963V33.8133L45.5151 35.2881ZM45.9965 38.362H45.0338L45.2248 36.6172L45.5151 36.4499L45.8054 36.6172L45.9965 38.362ZM41.4748 29.6688V26.7504H45.0141C45.2729 26.7504 45.4828 26.5488 45.4828 26.3001C45.4828 26.0515 45.2729 25.8499 45.0141 25.8499H41.0061C40.712 25.8499 40.4728 25.6201 40.4728 25.3377C40.4728 24.2592 41.3863 23.3817 42.5091 23.3817H46.5172C48.1925 23.3817 49.5555 24.6909 49.5555 26.3001V28.2251C49.5555 28.5075 49.3162 28.7373 49.0222 28.7373C48.7283 28.7373 48.4891 28.5076 48.4891 28.2252V27.249C48.4945 26.8855 48.3491 26.5403 48.0794 26.2768C47.8018 26.0055 47.415 25.8499 47.0182 25.8499C46.7593 25.8499 46.5494 26.0515 46.5494 26.3001C46.5494 26.5488 46.7593 26.7504 47.0182 26.7504C47.1652 26.7504 47.3083 26.8079 47.4108 26.908C47.5038 26.9989 47.5539 27.1161 47.5516 27.2378C47.5516 27.2403 47.5516 27.243 47.5516 27.2456V28.2252C47.5516 28.8467 47.9718 29.3754 48.5534 29.5638V29.6688C48.5534 31.5434 46.9657 33.0685 45.0141 33.0685C43.0625 33.0685 41.4748 31.5434 41.4748 29.6688ZM43.0268 34.9628C43.1256 34.7487 43.2803 34.6159 43.4076 34.5372L44.7591 35.8355L43.2184 36.7234C42.9017 35.9821 42.8348 35.379 43.0268 34.9628ZM39.9718 38.0771C39.9718 37.5148 40.2969 37.0095 40.8204 36.7581L42.0578 36.1638C42.1502 36.5944 42.3271 37.0633 42.5908 37.57C42.6492 37.6822 42.7536 37.7658 42.879 37.8009C42.922 37.8129 42.9661 37.8189 43.01 37.8189C43.0942 37.8189 43.1776 37.7971 43.2512 37.7547L44.2186 37.1971L44.091 38.3621H40.0529C40.0256 38.3621 39.9986 38.3629 39.9717 38.3642V38.0771H39.9718ZM49.5554 44.5402C49.5554 44.8485 49.2942 45.0994 48.9732 45.0994H40.0529C39.7319 45.0994 39.4708 44.8485 39.4708 44.5402V39.8218C39.4708 39.5134 39.7319 39.2625 40.0529 39.2625H48.9732C49.2942 39.2625 49.5554 39.5134 49.5554 39.8218V44.5402ZM52.0605 45.0994H50.3768C50.4515 44.927 50.4929 44.7382 50.4929 44.5402V39.8218C50.4929 39.0169 49.8112 38.362 48.9732 38.362H46.9392L46.8116 37.1971L47.779 37.7547C47.8526 37.7971 47.9361 37.8189 48.0202 37.8189C48.0641 37.8189 48.1083 37.8129 48.1513 37.8009C48.2766 37.7658 48.3811 37.6822 48.4394 37.57C48.7978 36.8816 48.9982 36.2616 49.0401 35.715L51.2118 36.7581C51.7353 37.0095 52.0605 37.5149 52.0605 38.0771V45.0994Z" fill="#252525"/>
<path d="M31.4869 40.7681C30.6759 40.7681 30.0161 41.4018 30.0161 42.1808C30.0161 42.9597 30.6759 43.5935 31.4869 43.5935C32.2978 43.5935 32.9576 42.9597 32.9576 42.1808C32.9576 41.4018 32.2978 40.7681 31.4869 40.7681ZM31.4869 42.693C31.1928 42.693 30.9536 42.4632 30.9536 42.1808C30.9536 41.8984 31.1929 41.6686 31.4869 41.6686C31.7809 41.6686 32.0201 41.8984 32.0201 42.1808C32.0201 42.4632 31.7809 42.693 31.4869 42.693Z" fill="#252525"/>
<path d="M44.513 40.7681C43.702 40.7681 43.0422 41.4018 43.0422 42.1808C43.0422 42.9597 43.702 43.5935 44.513 43.5935C45.3239 43.5935 45.9837 42.9597 45.9837 42.1808C45.9837 41.4018 45.324 40.7681 44.513 40.7681ZM44.513 42.693C44.2189 42.693 43.9797 42.4632 43.9797 42.1808C43.9797 41.8984 44.219 41.6686 44.513 41.6686C44.807 41.6686 45.0462 41.8984 45.0462 42.1808C45.0462 42.4632 44.807 42.693 44.513 42.693Z" fill="#252525"/>
<defs>
<filter id="filter0_d_53_452" x="0" y="0" width="76" height="76" filterUnits="userSpaceOnUse" color-interpolation-filters="sRGB">
<feFlood flood-opacity="0" result="BackgroundImageFix"/>
<feColorMatrix in="SourceAlpha" type="matrix" values="0 0 0 0 0 0 0 0 0 0 0 0 0 0 0 0 0 0 127 0" result="hardAlpha"/>
<feOffset dy="4"/>
<feGaussianBlur stdDeviation="3"/>
<feComposite in2="hardAlpha" operator="out"/>
<feColorMatrix type="matrix" values="0 0 0 0 0 0 0 0 0 0 0 0 0 0 0 0 0 0 0.1 0"/>
<feBlend mode="normal" in2="BackgroundImageFix" result="effect1_dropShadow_53_452"/>
<feBlend mode="normal" in="SourceGraphic" in2="effect1_dropShadow_53_452" result="shape"/>
</filter>
</defs>
</svg>
