<svg width="76" height="76" viewBox="0 0 76 76" fill="none" xmlns="http://www.w3.org/2000/svg">
<g filter="url(#filter0_d_11_691)">
<circle cx="38" cy="34" r="32" fill="white"/>
<circle cx="38" cy="34" r="31.5" stroke="#A43FD4"/>
</g>
<path d="M53.9808 31.5474C53.9985 31.4899 54.0041 31.4293 53.9974 31.3695C53.9906 31.3097 53.9716 31.2519 53.9415 31.1998C53.9114 31.1477 53.8708 31.1023 53.8224 31.0666C53.774 31.0309 53.7187 31.0055 53.66 30.9921C51.6172 30.5903 49.5173 30.5727 47.468 30.9404C47.8366 28.8893 47.8174 26.7874 47.4115 24.7434C47.3982 24.6847 47.3729 24.6293 47.3372 24.5808C47.3014 24.5324 47.2561 24.4918 47.204 24.4617C47.1518 24.4315 47.0941 24.4125 47.0342 24.4057C46.9744 24.399 46.9138 24.4046 46.8563 24.4224C44.8863 25.0954 43.059 26.1297 41.468 27.4724C40.7616 25.5119 39.694 23.7012 38.3205 22.1341C38.2787 22.0916 38.2288 22.0579 38.1737 22.0349C38.1187 22.0119 38.0597 22 38 22C37.9404 22 37.8813 22.0119 37.8263 22.0349C37.7713 22.0579 37.7214 22.0916 37.6795 22.1341C36.306 23.7012 35.2384 25.5119 34.532 27.4724C32.9411 26.1297 31.1138 25.0954 29.1438 24.4224C29.0863 24.4046 29.0257 24.3989 28.9659 24.4056C28.9061 24.4123 28.8483 24.4313 28.7962 24.4614C28.7441 24.4914 28.6987 24.5319 28.6629 24.5803C28.6271 24.6287 28.6017 24.684 28.5883 24.7426C28.1827 26.7866 28.1636 28.8886 28.532 30.9396C26.4827 30.5723 24.3829 30.5898 22.34 30.9914C22.2813 31.0048 22.2259 31.0301 22.1774 31.0659C22.1289 31.1017 22.0883 31.1471 22.0582 31.1993C22.0281 31.2515 22.0091 31.3094 22.0024 31.3693C21.9957 31.4292 22.0014 31.4898 22.0193 31.5474C22.0865 31.7659 23.7 36.8681 27.9843 39.4369C26.9354 39.9473 25.9278 40.5382 24.9703 41.2044C24.914 41.2449 24.8682 41.2982 24.8366 41.3599C24.805 41.4217 24.7885 41.49 24.7885 41.5594C24.7885 41.6287 24.805 41.6971 24.8366 41.7588C24.8682 41.8205 24.914 41.8738 24.9703 41.9144C25.1505 42.0441 29.4308 45.1001 33.0575 45.1001C34.9425 45.1001 36.725 44.7109 38 44.0269C39.275 44.7109 41.0573 45.1001 42.9423 45.1001C46.5693 45.1001 50.8493 42.0441 51.0298 41.9144C51.086 41.8738 51.1319 41.8205 51.1635 41.7588C51.1951 41.6971 51.2116 41.6287 51.2116 41.5594C51.2116 41.49 51.1951 41.4217 51.1635 41.3599C51.1319 41.2982 51.086 41.2449 51.0298 41.2044C50.0723 40.5382 49.0646 39.9473 48.0158 39.4369C52.3 36.8674 53.9133 31.7651 53.9808 31.5474ZM46.6473 25.4251C46.8675 26.8151 47.289 30.9126 45.3498 34.2716C43.7925 36.9686 41.0625 38.5849 39.3668 39.3784C40.5095 37.7629 42.175 34.8254 42.175 31.4179C42.1696 30.3953 42.0279 29.378 41.7535 28.3929C43.1959 27.1213 44.853 26.1164 46.6473 25.4251ZM38 23.1084C38.886 24.2024 41.3 27.5399 41.3 31.4179C41.3 35.2959 38.886 38.6336 38 39.7276C37.114 38.6336 34.7 35.2974 34.7 31.4179C34.7 27.5384 37.114 24.2024 38 23.1084ZM29.3528 25.4249C31.1477 26.1148 32.8051 27.1195 34.247 28.3916C33.9727 29.3767 33.8309 30.394 33.8255 31.4166C33.8255 34.8241 35.4905 37.7616 36.6333 39.3771C34.9375 38.5849 32.2075 36.9686 30.65 34.2724C28.7108 30.9121 29.1328 26.8141 29.3528 25.4249ZM23.0225 31.7556C24.9219 31.4563 26.8594 31.4975 28.7443 31.8774C28.9994 32.8681 29.3855 33.8204 29.8923 34.7091C31.5963 37.6591 34.5073 39.3716 36.3045 40.1991C34.4393 40.3599 31.2663 40.3241 28.569 38.7679C25.2103 36.8286 23.5268 33.0694 23.0225 31.7556ZM42.9423 44.2244C41.0973 44.2244 39.3773 43.8319 38.2233 43.1476C38.1557 43.1076 38.0786 43.0865 38 43.0865C37.9215 43.0865 37.8444 43.1076 37.7768 43.1476C36.6228 43.8319 34.9018 44.2244 33.0575 44.2244C30.4158 44.2244 27.2443 42.3566 26.0095 41.5584C26.949 40.9507 27.9322 40.4136 28.9513 39.9516C30.7964 40.7703 32.7972 41.1788 34.8155 41.1491C35.8842 41.1534 36.9508 41.0534 38 40.8506C39.0493 41.0535 40.1158 41.1534 41.1845 41.1491C43.2029 41.1788 45.2036 40.7702 47.0488 39.9516C48.0678 40.4136 49.0511 40.9507 49.9905 41.5584C48.7555 42.3566 45.5843 44.2244 42.9423 44.2244ZM47.431 38.7679C44.7338 40.3254 41.561 40.3599 39.6955 40.1991C41.493 39.3714 44.4038 37.6601 46.1078 34.7091C46.6146 33.8204 47.0006 32.8681 47.2558 31.8774C49.1407 31.4973 51.0782 31.4561 52.9775 31.7556C52.4733 33.0694 50.7898 36.8286 47.431 38.7679Z" fill="#252525"/>
<path d="M33 32.7399L39.3472 29.6074" stroke="white" stroke-width="2" stroke-linecap="square"/>
<defs>
<filter id="filter0_d_11_691" x="0" y="0" width="76" height="76" filterUnits="userSpaceOnUse" color-interpolation-filters="sRGB">
<feFlood flood-opacity="0" result="BackgroundImageFix"/>
<feColorMatrix in="SourceAlpha" type="matrix" values="0 0 0 0 0 0 0 0 0 0 0 0 0 0 0 0 0 0 127 0" result="hardAlpha"/>
<feOffset dy="4"/>
<feGaussianBlur stdDeviation="3"/>
<feComposite in2="hardAlpha" operator="out"/>
<feColorMatrix type="matrix" values="0 0 0 0 0 0 0 0 0 0 0 0 0 0 0 0 0 0 0.1 0"/>
<feBlend mode="normal" in2="BackgroundImageFix" result="effect1_dropShadow_11_691"/>
<feBlend mode="normal" in="SourceGraphic" in2="effect1_dropShadow_11_691" result="shape"/>
</filter>
</defs>
</svg>
