<svg width="76" height="76" viewBox="0 0 76 76" fill="none" xmlns="http://www.w3.org/2000/svg">
<g filter="url(#filter0_d_257_1493)">
<circle cx="38" cy="34" r="32" fill="white"/>
<circle cx="38" cy="34" r="31.5" stroke="#A43FD4"/>
</g>
<path d="M39.0328 36.5806H36.9683C36.684 36.5806 36.4522 36.3488 36.4522 36.0645H35.4199C35.4199 36.9181 36.1147 37.6129 36.9683 37.6129H37.4844V38.129H38.5167V37.6129H39.0328C39.8864 37.6129 40.5812 36.9181 40.5812 36.0645V35.5484C40.5812 34.6948 39.8864 34 39.0328 34H36.9683C36.684 34 36.4522 33.7681 36.4522 33.4838V32.9677C36.4522 32.6834 36.684 32.4516 36.9683 32.4516H39.0328C39.3171 32.4516 39.549 32.6834 39.549 32.9677H40.5812C40.5812 32.1141 39.8864 31.4193 39.0328 31.4193H38.5167V30.9032H37.4844V31.4193H36.9683C36.1147 31.4193 35.4199 32.1141 35.4199 32.9677V33.4838C35.4199 34.3374 36.1147 35.0322 36.9683 35.0322H39.0328C39.3171 35.0322 39.549 35.2641 39.549 35.5484V36.0645C39.549 36.3488 39.3171 36.5806 39.0328 36.5806Z" fill="black"/>
<path d="M52.4516 24.1935H45.7419V19.5484C45.7419 18.6948 45.0471 18 44.1935 18H31.8065C30.9529 18 30.2581 18.6948 30.2581 19.5484V24.1935H23.5484C22.6948 24.1935 22 24.8884 22 25.7419V32.4516C22 33.1235 22.433 33.6913 23.0323 33.905V46.9032H32.3226V48.9677H31.2903V50H44.7097V48.9677H43.6774V46.9032H52.9677V33.905C53.567 33.6913 54 33.1235 54 32.4516V25.7419C54 24.8884 53.3052 24.1935 52.4516 24.1935ZM31.2903 19.5484C31.2903 19.2641 31.5222 19.0323 31.8065 19.0323H44.1935C44.4778 19.0323 44.7097 19.2641 44.7097 19.5484V24.1935H43.6774V20.0645H32.3226V24.1935H31.2903V19.5484ZM42.6452 24.1935H33.3548V21.0968H42.6452V24.1935ZM34.3871 48.9677H33.3548V45.871H34.3871V48.9677ZM38.5161 48.9677H37.4839V43.8064H38.5161V48.9677ZM41.6129 48.9677V41.7419H42.6452V48.9677H41.6129ZM43.6774 45.871V40.7097H40.5806V48.9677H39.5484V42.7742H36.4516V48.9677H35.4194V44.8387H32.3226V45.871H24.0645V34H32.3488C32.3334 34.1704 32.3226 34.3417 32.3226 34.5161C32.3226 37.6464 34.8697 40.1935 38 40.1935C41.1303 40.1935 43.6774 37.6464 43.6774 34.5161C43.6774 34.3417 43.6666 34.1704 43.6512 34H51.9355V45.871H43.6774ZM33.3548 34.5161C33.3548 31.9551 35.439 29.871 38 29.871C40.561 29.871 42.6452 31.9551 42.6452 34.5161C42.6452 37.0771 40.561 39.1613 38 39.1613C35.439 39.1613 33.3548 37.0771 33.3548 34.5161ZM52.9677 32.4516C52.9677 32.7359 52.7359 32.9677 52.4516 32.9677H43.4577C42.7815 30.5885 40.5935 28.8387 38 28.8387C35.4065 28.8387 33.219 30.5885 32.5423 32.9677H23.5484C23.2641 32.9677 23.0323 32.7359 23.0323 32.4516V25.7419C23.0323 25.4577 23.2641 25.2258 23.5484 25.2258H52.4516C52.7359 25.2258 52.9677 25.4577 52.9677 25.7419V32.4516Z" fill="black"/>
<path d="M24.0645 26.2581H25.0967V27.2903H24.0645V26.2581Z" fill="black"/>
<path d="M26.1289 26.2581H27.1612V27.2903H26.1289V26.2581Z" fill="black"/>
<path d="M28.1934 26.2581H29.2256V27.2903H28.1934V26.2581Z" fill="black"/>
<path d="M24.0645 28.3226H25.0967V29.3549H24.0645V28.3226Z" fill="black"/>
<path d="M26.1289 28.3226H27.1612V29.3549H26.1289V28.3226Z" fill="black"/>
<path d="M50.9023 30.9032H51.9346V31.9355H50.9023V30.9032Z" fill="black"/>
<path d="M48.8379 30.9032H49.8701V31.9355H48.8379V30.9032Z" fill="black"/>
<path d="M46.7734 30.9032H47.8057V31.9355H46.7734V30.9032Z" fill="black"/>
<path d="M50.9023 28.8387H51.9346V29.871H50.9023V28.8387Z" fill="black"/>
<path d="M48.8379 28.8387H49.8701V29.871H48.8379V28.8387Z" fill="black"/>
<path d="M25.0977 41.7419H28.1944V42.7742H25.0977V41.7419Z" fill="black"/>
<path d="M25.0977 43.8064H29.2267V44.8387H25.0977V43.8064Z" fill="black"/>
<defs>
<filter id="filter0_d_257_1493" x="0" y="0" width="76" height="76" filterUnits="userSpaceOnUse" color-interpolation-filters="sRGB">
<feFlood flood-opacity="0" result="BackgroundImageFix"/>
<feColorMatrix in="SourceAlpha" type="matrix" values="0 0 0 0 0 0 0 0 0 0 0 0 0 0 0 0 0 0 127 0" result="hardAlpha"/>
<feOffset dy="4"/>
<feGaussianBlur stdDeviation="3"/>
<feComposite in2="hardAlpha" operator="out"/>
<feColorMatrix type="matrix" values="0 0 0 0 0 0 0 0 0 0 0 0 0 0 0 0 0 0 0.1 0"/>
<feBlend mode="normal" in2="BackgroundImageFix" result="effect1_dropShadow_257_1493"/>
<feBlend mode="normal" in="SourceGraphic" in2="effect1_dropShadow_257_1493" result="shape"/>
</filter>
</defs>
</svg>
