<svg width="76" height="76" viewBox="0 0 76 76" fill="none" xmlns="http://www.w3.org/2000/svg">
<g filter="url(#filter0_d_257_2359)">
<circle cx="38" cy="34" r="32" fill="white"/>
<circle cx="38" cy="34" r="31.5" stroke="#A43FD4"/>
</g>
<path d="M52 36.2096C52 31.2644 49.3203 26.6862 45.0064 24.2615C43.3574 23.3353 41.5758 22.7739 39.7033 22.5868C39.7038 22.584 39.7045 22.5812 39.705 22.5784C39.9172 21.3504 39.9839 19.7232 39.1004 18.9479C38.1744 18.1146 36.397 18.4774 35.4197 18.7677C34.322 19.0945 33.2804 19.9127 32.4071 21.1347L31.4613 22.4653L30.2489 22.0638L30.9055 21.3239C31.171 21.0252 31.3041 20.6398 31.2803 20.2386C31.2565 19.8378 31.0789 19.4712 30.7807 19.2066L29.953 18.4712C29.655 18.2058 29.27 18.0729 28.8697 18.0966C28.4698 18.1204 28.1037 18.2977 27.8384 18.5961L26.0065 20.6591L24.8708 20.2831C23.5545 19.8477 22.4077 20.4447 21.9586 20.9517L21.2232 21.7789C20.8815 22.1637 20.7441 22.5464 20.815 22.9165C20.8924 23.3204 21.2052 23.6552 21.7663 23.9374L28.0905 27.2077L26.1092 29.9951L23.1557 28.9556C22.0922 28.5806 21.1424 29.0776 20.7623 29.5041L20.3603 29.9581C20.0703 30.2828 19.9545 30.6112 20.016 30.9339C20.111 31.4322 20.5999 31.697 20.7942 31.7953L23.5565 33.6009C22.9198 34.7168 23.2289 35.7284 23.829 36.2436C24.0382 36.4231 24.3165 36.5678 24.6402 36.6281C24.6927 38.2583 25.0282 39.8451 25.6413 41.3512C25.7159 41.5345 25.8925 41.6456 26.0789 41.6456C26.1382 41.6456 26.1985 41.6343 26.2568 41.6106C26.4983 41.5122 26.6145 41.2367 26.5162 40.9951C25.9405 39.5809 25.6275 38.0897 25.5829 36.5575C25.8333 36.4752 26.094 36.3389 26.3587 36.1347L28.5468 38.6911C28.6683 38.8746 28.9869 39.3254 29.4903 39.3618C29.5124 39.3634 29.5342 39.3642 29.5561 39.3642C29.8602 39.3642 30.1507 39.2102 30.4202 38.9062L30.8239 38.4519C31.2042 38.0229 31.5878 37.0178 31.0862 36.0067L29.6657 33.1471L32.1919 30.8566L33.732 33.1359C33.8233 33.271 33.9722 33.3438 34.1238 33.3438C34.2148 33.3438 34.3068 33.3176 34.3878 33.2628C34.604 33.1167 34.6608 32.8232 34.5148 32.607L32.8989 30.2155L35.769 27.6132L36.4865 29.1496C36.4895 29.1563 36.4926 29.163 36.4959 29.1696L38.5852 33.6432C38.9912 34.5112 38.6452 35.3286 38.4137 35.5886L37.6778 36.4163C37.5167 36.5984 37.4103 36.6447 37.3721 36.6399C37.318 36.6361 37.1712 36.5458 36.9613 36.2273L35.6585 34.3001C35.5125 34.0841 35.2188 34.0273 35.0027 34.1733C34.7866 34.3194 34.7298 34.613 34.8759 34.8292L36.1756 36.7518C36.5247 37.2814 36.8941 37.553 37.3051 37.5822C37.3293 37.5839 37.3533 37.5848 37.3773 37.5848C37.7276 37.5847 38.0663 37.4027 38.3844 37.0432L39.1195 36.2165C39.5707 35.7096 40.0285 34.4993 39.4408 33.2432L38.9344 32.1589L40.7673 30.0947C41.3145 29.4767 41.2584 28.5274 40.6418 27.9782L39.8142 27.2427C39.5159 26.9769 39.131 26.8434 38.7305 26.8674C38.3302 26.8912 37.964 27.069 37.6998 27.3674L37.0422 28.1073L36.5013 26.9492L37.7115 25.852C37.712 25.8516 37.7123 25.8512 37.7128 25.8509C38.5168 25.1167 39.0985 24.3205 39.4323 23.5092C40.537 23.6044 41.6082 23.8396 42.6365 24.2114C42.3035 24.5797 42.1133 24.9712 42.0612 25.3959C41.9285 26.4781 42.7355 27.4368 43.5159 28.364C44.5887 29.6385 45.0365 30.3146 44.5099 31.0066C43.2699 32.6361 42.842 33.9248 43.2379 34.8371C43.4335 35.2877 43.9217 35.8508 45.1372 35.9743C45.1765 35.9782 45.2184 35.982 45.2625 35.986C46.1461 36.0663 46.9483 36.2256 47.0588 37.2787C47.167 38.3119 48.1476 39.0536 49.4433 39.0823C49.4666 39.0828 49.4899 39.0831 49.5133 39.0831C49.9498 39.0831 50.3976 38.9926 50.7904 38.8022C50.502 40.1946 49.9857 41.5041 49.283 42.6909C47.9642 41.489 46.3267 40.9014 44.7093 41.0687C43.3543 41.2086 42.2323 41.8624 41.6308 42.8628C40.9985 43.9166 39.9301 44.2988 39.1452 44.4339C37.7965 44.6658 36.5015 44.3137 36.0855 43.9706C34.7662 42.8801 33.1908 42.5737 31.9742 43.1712C30.9772 43.6608 30.3512 44.6749 30.1887 46.0193C29.2038 45.1976 28.333 44.2202 27.6141 43.1053C27.4728 42.8861 27.1805 42.823 26.9612 42.9642C26.742 43.1056 26.6788 43.3979 26.8202 43.6172C29.3592 47.5552 33.6569 49.9062 38.3168 49.9062C41.9721 49.9062 45.4084 48.4815 47.9927 45.8944C50.3342 43.5505 51.7224 40.5066 51.9625 37.2341C51.9625 37.2339 51.9625 37.2337 51.9626 37.2335C51.9665 37.2076 51.9676 37.182 51.9672 37.1566C51.9886 36.8427 52 36.5271 52 36.2096ZM38.4065 27.9942C38.5037 27.8844 38.6386 27.8191 38.7864 27.8103C38.9342 27.8012 39.0763 27.8504 39.1863 27.9484L40.0139 28.6839C40.2422 28.8872 40.263 29.2392 40.0605 29.4679L38.4989 31.2265L37.4774 29.0394L38.4065 27.9942ZM28.5446 19.2235C28.6422 19.1137 28.7776 19.0484 28.9259 19.0396C29.0741 19.0297 29.2155 19.0794 29.3251 19.177L30.1535 19.9131C30.2632 20.0104 30.3285 20.1459 30.3373 20.2946C30.3462 20.4437 30.2972 20.5864 30.1992 20.6966L29.2729 21.7406L26.9828 20.9823L28.5446 19.2235ZM22.1955 23.0958C21.7822 22.888 21.7457 22.7534 21.7428 22.7387C21.7357 22.7014 21.767 22.5892 21.9294 22.4064L22.6652 21.5787C22.8955 21.3187 23.6652 20.8791 24.5741 21.1799L29.2522 22.729C29.2601 22.732 29.2681 22.7344 29.2761 22.7369L30.8888 23.2709L28.6433 26.43L22.1955 23.0958ZM21.2423 30.9634C21.0346 30.8591 20.967 30.7849 20.9482 30.7589C20.9561 30.7363 20.9823 30.68 21.0663 30.5858L21.4687 30.1315C21.632 29.9482 22.2045 29.6218 22.8419 29.8467L25.54 30.7961L24.0973 32.8258L21.2888 30.9902C21.2738 30.9803 21.2582 30.9714 21.2423 30.9634ZM30.24 36.4267C30.5398 37.0311 30.281 37.6402 30.1174 37.8248L29.7136 38.2791C29.6308 38.3726 29.578 38.4051 29.5563 38.4157C29.5283 38.3997 29.4469 38.3411 29.32 38.1475C29.309 38.1307 29.2969 38.1147 29.2839 38.0995L27.064 35.506L28.9385 33.8064L30.24 36.4267ZM37.076 25.1532L35.6203 26.473C35.6122 26.4799 35.6042 26.4871 35.5967 26.4944L25.8425 35.3382C25.581 35.5535 25.313 35.6767 25.066 35.7053C25.0607 35.7057 25.0553 35.7061 25.05 35.7067C24.8219 35.7294 24.6124 35.6711 24.4442 35.5267C24.1363 35.2625 24.0029 34.7009 24.394 34.0387L29.1699 27.3196C29.1735 27.3147 29.1769 27.3099 29.1803 27.3049L33.1763 21.683C33.9257 20.6344 34.7947 19.9394 35.689 19.6732C36.9896 19.2866 38.0548 19.2778 38.4728 19.654C38.89 20.0201 39.0054 21.079 38.7739 22.4181C38.6167 23.3366 38.0295 24.2824 37.076 25.1532ZM49.4643 38.1379C48.784 38.1228 48.0621 37.7891 47.9983 37.1802C47.7978 35.2678 46.0811 35.1117 45.3481 35.0451C45.3067 35.0413 45.2673 35.0377 45.2315 35.0342C44.8124 34.9917 44.2767 34.8576 44.1045 34.4607C43.8653 33.9097 44.287 32.8591 45.2617 31.5784C46.3037 30.2089 45.1587 28.8486 44.2386 27.7555C43.5885 26.9832 42.9162 26.1845 42.9988 25.5108C43.0366 25.203 43.2317 24.9038 43.5919 24.6012C43.914 24.7484 44.2315 24.9097 44.5437 25.0851C48.5603 27.3426 51.0554 31.6052 51.0554 36.2096C51.0554 36.519 51.0437 36.8257 51.022 37.1297C50.8843 37.8951 50.1018 38.1526 49.4643 38.1379ZM38.3169 48.9615C35.688 48.9615 33.1835 48.1561 31.0913 46.706C31.0997 45.3962 31.5668 44.4236 32.3907 44.019C33.2695 43.5872 34.4547 43.8478 35.4841 44.6989C36.2407 45.3231 37.8836 45.6092 39.3053 45.3647C40.2851 45.1962 41.6244 44.7096 42.4406 43.3491C42.8808 42.6171 43.7652 42.1157 44.8063 42.0083C46.2 41.8641 47.6234 42.4048 48.7633 43.4981C46.4587 46.7984 42.6357 48.9615 38.3169 48.9615Z" fill="black"/>
<path d="M35.5169 20.7216C35.257 20.7434 35.0639 20.9717 35.0857 21.2316C35.1075 21.4916 35.3356 21.6853 35.5958 21.6629C36.0697 21.6245 36.6976 22.2005 36.7553 22.7279C36.7818 22.9698 36.9865 23.1489 37.2243 23.1489C37.2415 23.1489 37.2588 23.148 37.2763 23.146C37.5356 23.1176 37.7228 22.8844 37.6944 22.6251C37.5802 21.5819 36.5019 20.6381 35.5169 20.7216Z" fill="black"/>
<defs>
<filter id="filter0_d_257_2359" x="0" y="0" width="76" height="76" filterUnits="userSpaceOnUse" color-interpolation-filters="sRGB">
<feFlood flood-opacity="0" result="BackgroundImageFix"/>
<feColorMatrix in="SourceAlpha" type="matrix" values="0 0 0 0 0 0 0 0 0 0 0 0 0 0 0 0 0 0 127 0" result="hardAlpha"/>
<feOffset dy="4"/>
<feGaussianBlur stdDeviation="3"/>
<feComposite in2="hardAlpha" operator="out"/>
<feColorMatrix type="matrix" values="0 0 0 0 0 0 0 0 0 0 0 0 0 0 0 0 0 0 0.1 0"/>
<feBlend mode="normal" in2="BackgroundImageFix" result="effect1_dropShadow_257_2359"/>
<feBlend mode="normal" in="SourceGraphic" in2="effect1_dropShadow_257_2359" result="shape"/>
</filter>
</defs>
</svg>
