<svg width="76" height="76" viewBox="0 0 76 76" fill="none" xmlns="http://www.w3.org/2000/svg">
<g filter="url(#filter0_d_11_329)">
<circle cx="38" cy="34" r="32" fill="white"/>
<circle cx="38" cy="34" r="31.5" stroke="#A43FD4"/>
</g>
<path d="M52.5454 35.4545C52.109 35.4545 51.8182 35.7454 51.8182 36.1817V45.6363C51.8182 46.0727 51.5272 46.3635 51.0909 46.3635H24.909C24.4727 46.3635 24.1818 46.0726 24.1818 45.6363V36.1817C24.1818 35.7453 23.8909 35.4545 23.4545 35.4545C23.0182 35.4545 22.7273 35.7454 22.7273 36.1817V45.6363C22.7273 46.8727 23.6727 47.8181 24.9091 47.8181H51.0909C52.3273 47.8181 53.2727 46.8727 53.2727 45.6363V36.1817C53.2727 35.7453 52.9818 35.4545 52.5454 35.4545Z" fill="#252525"/>
<path d="M51.8182 25.2727H24.1818C22.9454 25.2727 22 26.2181 22 27.4545V32.1091C22 33.1272 22.7272 34 23.6727 34.2181L35.0909 36.7636V39.0908C35.0909 39.5272 35.3819 39.8181 35.8182 39.8181H40.1818C40.6182 39.8181 40.9091 39.5271 40.9091 39.0908V36.7636L52.3272 34.2181C53.2727 34 54 33.1272 54 32.109V27.4545C54 26.2181 53.0546 25.2727 51.8182 25.2727ZM39.4546 38.3636H36.5455V35.4545H39.4546V38.3636ZM52.5454 32.109C52.5454 32.4726 52.3272 32.7636 51.9636 32.8363L40.9091 35.309V34.7272C40.9091 34.2908 40.6181 34 40.1818 34H35.8182C35.3818 34 35.0909 34.2909 35.0909 34.7272V35.309L24.0364 32.8363C23.6727 32.7636 23.4546 32.4727 23.4546 32.1091V27.4545C23.4546 27.0181 23.7455 26.7273 24.1818 26.7273H51.8182C52.2546 26.7273 52.5454 27.0182 52.5454 27.4545V32.109Z" fill="#252525"/>
<path d="M41.6364 20.1818H34.3636C33.1273 20.1818 32.1818 21.1272 32.1818 22.3636V23.0908C32.1818 23.5272 32.4728 23.8181 32.9091 23.8181C33.3454 23.8181 33.6363 23.5271 33.6363 23.0908V22.3636C33.6363 21.9272 33.9273 21.6363 34.3636 21.6363H41.6363C42.0727 21.6363 42.3636 21.9273 42.3636 22.3636V23.0908C42.3636 23.5272 42.6545 23.8181 43.0908 23.8181C43.5272 23.8181 43.8181 23.5271 43.8181 23.0908V22.3636C43.8182 21.1272 42.8728 20.1818 41.6364 20.1818Z" fill="#252525"/>
<defs>
<filter id="filter0_d_11_329" x="0" y="0" width="76" height="76" filterUnits="userSpaceOnUse" color-interpolation-filters="sRGB">
<feFlood flood-opacity="0" result="BackgroundImageFix"/>
<feColorMatrix in="SourceAlpha" type="matrix" values="0 0 0 0 0 0 0 0 0 0 0 0 0 0 0 0 0 0 127 0" result="hardAlpha"/>
<feOffset dy="4"/>
<feGaussianBlur stdDeviation="3"/>
<feComposite in2="hardAlpha" operator="out"/>
<feColorMatrix type="matrix" values="0 0 0 0 0 0 0 0 0 0 0 0 0 0 0 0 0 0 0.1 0"/>
<feBlend mode="normal" in2="BackgroundImageFix" result="effect1_dropShadow_11_329"/>
<feBlend mode="normal" in="SourceGraphic" in2="effect1_dropShadow_11_329" result="shape"/>
</filter>
</defs>
</svg>
