<svg width="76" height="76" viewBox="0 0 76 76" fill="none" xmlns="http://www.w3.org/2000/svg">
<g filter="url(#filter0_d_257_1622)">
<circle cx="38" cy="34" r="32" fill="white"/>
<circle cx="38" cy="34" r="31.5" stroke="#A43FD4"/>
</g>
<path d="M44.354 43.388C44.1153 43.2884 43.8406 43.4013 43.7409 43.6401C43.6412 43.879 43.7541 44.1536 43.993 44.2533C45.9351 45.0636 46.8397 46.1445 46.8397 47.6551V48.0251C46.8397 48.0457 46.8227 48.0626 46.8017 48.0626H30.0504V44.2374C30.868 43.9004 31.7594 43.6475 32.5559 43.4223C32.8606 43.3362 33.1484 43.2548 33.4234 43.1716C33.8945 43.0279 34.2111 42.6008 34.2111 42.1088V38.4491C35.1979 39.0374 36.1973 39.3787 37.0004 39.3787C37.8231 39.3787 38.8118 39.04 39.7898 38.4539V42.1088C39.7898 42.6008 40.1063 43.0279 40.5788 43.172C40.8476 43.2531 41.7939 43.5206 41.9816 43.5748C42.2304 43.6468 42.4902 43.5031 42.562 43.2546C42.6339 43.0059 42.4905 42.7459 42.2418 42.6741C42.0524 42.6194 41.1104 42.3531 40.8509 42.2748C40.7769 42.2523 40.7273 42.1856 40.7273 42.1088V37.8121C41.0669 37.5496 41.3979 37.2597 41.7124 36.946C42.7238 35.9368 43.4772 34.776 43.9405 33.5391C45.6866 33.2868 46.9686 32.1494 46.9686 30.8051C46.9686 30.085 46.5947 29.4177 45.9742 28.9165C46.104 28.249 46.1698 27.5654 46.1698 26.8801C46.1698 21.5724 42.1759 17 37.0004 17C35.3303 17 33.6954 17.4884 32.2726 18.4125C32.0555 18.5535 31.9938 18.8438 32.1348 19.0609C32.2759 19.2781 32.5662 19.3398 32.7832 19.1988C34.0537 18.3736 35.5119 17.9375 37.0004 17.9375C38.2755 17.9375 39.4838 18.2541 40.5621 18.8186C39.151 18.9867 37.5887 19.4956 36.0249 20.3079C34.1056 21.3049 32.4485 22.6659 31.5034 23.8857C30.6236 25.0214 29.9952 26.4198 29.712 28.1339C29.4199 28.1982 29.1441 28.288 28.8882 28.3995C28.8093 27.8989 28.7686 27.3901 28.7686 26.8799C28.7686 24.494 29.6232 22.2504 31.1749 20.5621C31.3501 20.3716 31.3377 20.075 31.1471 19.8998C30.9565 19.7246 30.6599 19.7371 30.4847 19.9277C28.7735 21.7893 27.8311 24.2584 27.8311 26.8799C27.8311 27.5651 27.8969 28.2485 28.0266 28.9159C27.4061 29.4168 27.0324 30.0841 27.0324 30.8048C27.0324 31.7223 27.6252 32.5579 28.5941 33.0717C28.0499 33.6482 27.7069 34.4157 27.6773 35.2619L26.6329 35.8751C26.0256 36.2316 25.6484 36.8905 25.6484 37.5947V48.2188C25.6484 48.6496 25.9989 49 26.4297 49H46.8017C47.3396 49 47.7772 48.5626 47.7772 48.025V47.655C47.7772 45.7448 46.6575 44.3491 44.354 43.388ZM33.2736 42.1087C33.2736 42.1856 33.2239 42.2522 33.1509 42.2744C32.8851 42.3549 32.6013 42.4351 32.3009 42.5201C31.5913 42.7206 30.8088 42.9427 30.0504 43.2295V40.4918L31.3641 39.6961C31.7913 39.4373 32.0895 39.028 32.2053 38.5427C32.6048 38.3959 32.9653 38.1772 33.2736 37.9039V42.1087H33.2736ZM46.0311 30.805C46.0311 31.5597 45.2906 32.2404 44.2524 32.5194C44.4022 31.8916 44.4792 31.2502 44.4792 30.6044C44.4792 30.0957 44.4587 29.6067 44.4186 29.1369C45.2189 29.3895 46.0311 29.9797 46.0311 30.805ZM36.457 21.1399C38.4124 20.1241 40.3404 19.6174 41.9067 19.7037C43.9235 21.3352 45.2323 23.9446 45.2323 26.8799C45.2323 27.3901 45.1916 27.8989 45.1128 28.3995C44.8598 28.2891 44.5872 28.1999 44.2988 28.1357C43.9947 26.2008 43.3072 24.6465 42.2438 23.4976C40.956 22.1064 39.1509 21.3713 37.023 21.3713C37.0204 21.3713 37.0177 21.3713 37.0151 21.3713C36.6308 21.3716 36.2537 21.3988 35.8861 21.4519C36.0739 21.3443 36.2644 21.24 36.457 21.1399ZM32.5259 24.141C33.9599 22.6287 35.7591 22.3099 37.0158 22.3088H37.0229C38.8827 22.3088 40.45 22.9401 41.5557 24.1346C43.1104 25.8141 43.5416 28.3031 43.5416 30.6044C43.5416 33.3816 41.9806 35.3539 41.0501 36.2824C39.5637 37.7656 37.9089 38.4412 37.0004 38.4412C36.1699 38.4412 34.9946 37.9338 33.9221 37.1264C34.2336 36.6128 34.4104 36.0132 34.4104 35.3813C34.4104 33.5241 32.8995 32.0131 31.0423 32.0131C30.8931 32.0131 30.7465 32.0239 30.6024 32.0428C30.5075 31.5683 30.4592 31.0863 30.4592 30.6044C30.4592 28.2743 30.9288 25.8252 32.5259 24.141ZM31.0423 32.9506C32.3826 32.9506 33.4729 34.041 33.4729 35.3813C33.4729 36.301 32.9551 37.1259 32.1653 37.5375C32.1166 37.3894 32.0487 37.2464 31.962 37.1114L31.4305 36.2849C31.4259 36.2778 31.4253 36.2688 31.4288 36.261L31.7021 35.6581C31.8745 35.2779 31.8544 34.8341 31.6482 34.4711C31.2872 33.8351 30.4771 33.6181 29.8466 33.9884L28.7254 34.6466C29.0376 33.6644 29.958 32.9506 31.0423 32.9506ZM27.9698 30.805C27.9698 29.9761 28.7825 29.3883 29.5856 29.136C29.5433 29.6065 29.5217 30.0957 29.5217 30.6044C29.5217 31.1709 29.5814 31.7374 29.6975 32.2941C29.608 32.3333 29.5202 32.3756 29.4349 32.4222C28.5384 32.0946 27.9698 31.4741 27.9698 30.805ZM29.1129 40.466V48.0625H26.5859V37.5949C26.5859 37.2218 26.7858 36.8726 27.1074 36.6838L30.3212 34.7969C30.6308 34.6149 30.9979 34.941 30.8481 35.2711L30.5749 35.874C30.4394 36.1729 30.4644 36.5161 30.6419 36.7921L31.1734 37.6186C31.3079 37.8277 31.3512 38.0764 31.2951 38.3187C31.2391 38.561 31.0911 38.7653 30.8784 38.8942L29.5426 39.7033C29.2775 39.8638 29.1129 40.1561 29.1129 40.466Z" fill="black"/>
<path d="M34.9693 33.885C34.8582 34.1188 34.9578 34.3985 35.1916 34.5095C35.7914 34.7943 36.3953 34.9366 36.9993 34.9366C37.6032 34.9366 38.2071 34.7943 38.8069 34.5095C39.0408 34.3985 39.1403 34.1188 39.0293 33.885C38.9183 33.6511 38.6384 33.5516 38.4048 33.6626C37.459 34.1117 36.5396 34.1117 35.5938 33.6626C35.3599 33.5516 35.0803 33.6513 34.9693 33.885Z" fill="black"/>
<path d="M39.1455 28.7969C39.6707 28.4011 40.7408 28.4011 41.266 28.7969C41.4727 28.9527 41.7667 28.9116 41.9225 28.7049C42.0784 28.4981 42.0372 28.2042 41.8305 28.0484C40.965 27.3958 39.4465 27.3958 38.5811 28.0484C38.3744 28.2042 38.3332 28.4981 38.489 28.7049C38.6448 28.9116 38.9387 28.9528 39.1455 28.7969Z" fill="black"/>
<path d="M32.7334 28.797C33.2586 28.4011 34.3288 28.4011 34.8539 28.797C35.0607 28.9529 35.3546 28.9117 35.5104 28.705C35.6663 28.4982 35.6251 28.2043 35.4183 28.0485C34.5529 27.396 33.0345 27.396 32.169 28.0485C31.9623 28.2043 31.9211 28.4982 32.0769 28.7049C32.2332 28.9123 32.5272 28.9524 32.7334 28.797Z" fill="black"/>
<path d="M33.793 29.5443C33.5341 29.5443 33.3242 29.7541 33.3242 30.0131V30.3032C33.3242 30.5622 33.5341 30.772 33.793 30.772C34.0518 30.772 34.2617 30.5622 34.2617 30.3032V30.0131C34.2617 29.7541 34.0518 29.5443 33.793 29.5443Z" fill="black"/>
<path d="M40.2051 29.5443C39.9461 29.5443 39.7363 29.7541 39.7363 30.0131V30.3032C39.7363 30.5622 39.9461 30.772 40.2051 30.772C40.464 30.772 40.6738 30.5622 40.6738 30.3032V30.0131C40.6738 29.7541 40.464 29.5443 40.2051 29.5443Z" fill="black"/>
<path d="M52.0125 37.9355C50.697 37.5002 50.1908 36.994 49.7555 35.6786C49.6315 35.3037 49.2972 35.0615 48.9037 35.0614C48.5102 35.0614 48.1758 35.3037 48.0518 35.6785C47.6165 36.994 47.1103 37.5002 45.7949 37.9355C45.42 38.0595 45.1778 38.3938 45.1777 38.7873C45.1777 39.1808 45.4199 39.5152 45.7948 39.6393C47.1103 40.0746 47.6165 40.5808 48.0518 41.8963C48.1759 42.2712 48.5103 42.5133 48.9037 42.5133C49.2972 42.5133 49.6316 42.2711 49.7555 41.8963C50.1909 40.5808 50.697 40.0746 52.0125 39.6393C52.3874 39.5153 52.6297 39.1808 52.6297 38.7873C52.6295 38.3938 52.3873 38.0595 52.0125 37.9355ZM48.9036 41.489C48.3946 40.0207 47.6704 39.2963 46.2019 38.7873C47.6701 38.2784 48.3944 37.5543 48.9036 36.0857C49.4125 37.5537 50.1367 38.2781 51.6053 38.7873C50.137 39.2963 49.4129 40.0203 48.9036 41.489Z" fill="black"/>
<path d="M26.5737 26.9069C26.5737 26.5833 26.3667 26.2974 26.0586 26.1955C25.2477 25.9272 24.9522 25.6317 24.6838 24.8206C24.5818 24.5125 24.296 24.3057 23.9724 24.3057C23.6488 24.3057 23.363 24.5126 23.261 24.8206C22.9927 25.6317 22.6972 25.9272 21.8862 26.1955C21.5781 26.2974 21.3711 26.5833 21.3711 26.9069C21.3711 27.2305 21.5781 27.5164 21.8862 27.6183C22.6971 27.8867 22.9927 28.1822 23.261 28.9932C23.363 29.3012 23.6488 29.5082 23.9724 29.5082C24.296 29.5082 24.5818 29.3012 24.6838 28.9932C24.9522 28.1822 25.2477 27.8867 26.0587 27.6183C26.3667 27.5164 26.5737 27.2305 26.5737 26.9069ZM23.9724 28.2353C23.682 27.5932 23.2862 27.1974 22.644 26.9069C23.2862 26.6165 23.682 26.2207 23.9724 25.5785C24.2628 26.2207 24.6586 26.6165 25.3008 26.9069C24.6586 27.1973 24.2628 27.5931 23.9724 28.2353Z" fill="black"/>
<defs>
<filter id="filter0_d_257_1622" x="0" y="0" width="76" height="76" filterUnits="userSpaceOnUse" color-interpolation-filters="sRGB">
<feFlood flood-opacity="0" result="BackgroundImageFix"/>
<feColorMatrix in="SourceAlpha" type="matrix" values="0 0 0 0 0 0 0 0 0 0 0 0 0 0 0 0 0 0 127 0" result="hardAlpha"/>
<feOffset dy="4"/>
<feGaussianBlur stdDeviation="3"/>
<feComposite in2="hardAlpha" operator="out"/>
<feColorMatrix type="matrix" values="0 0 0 0 0 0 0 0 0 0 0 0 0 0 0 0 0 0 0.1 0"/>
<feBlend mode="normal" in2="BackgroundImageFix" result="effect1_dropShadow_257_1622"/>
<feBlend mode="normal" in="SourceGraphic" in2="effect1_dropShadow_257_1622" result="shape"/>
</filter>
</defs>
</svg>
