<svg width="76" height="76" viewBox="0 0 76 76" fill="none" xmlns="http://www.w3.org/2000/svg">
<g filter="url(#filter0_d_257_1543)">
<circle cx="38" cy="34" r="32" fill="white"/>
<circle cx="38" cy="34" r="31.5" stroke="#A43FD4"/>
</g>
<path d="M32.9292 26.5206H30.6323C30.5893 26.5206 30.55 26.4958 30.5317 26.4566L30.2817 25.9233C30.1097 25.5568 29.737 25.3199 29.3323 25.3199H27.7167C27.1385 25.3199 26.668 25.7904 26.668 26.3687V30.6468C26.668 31.2251 27.1385 31.6956 27.7167 31.6956H28.1873C28.4462 31.6956 28.6561 31.4857 28.6561 31.2268C28.6561 30.9679 28.4462 30.7581 28.1873 30.7581H27.7167C27.6554 30.7581 27.6055 30.7082 27.6055 30.6468V26.3687C27.6055 26.3074 27.6554 26.2574 27.7167 26.2574H29.3323C29.3752 26.2574 29.4147 26.2826 29.433 26.3214L29.6825 26.8537C29.8537 27.2209 30.2266 27.4581 30.6323 27.4581H32.9292C32.9905 27.4581 33.0405 27.5079 33.0405 27.5693V30.6468C33.0405 30.7081 32.9906 30.7581 32.9292 30.7581H30.3723C30.1135 30.7581 29.9036 30.9679 29.9036 31.2268C29.9036 31.4857 30.1135 31.6956 30.3723 31.6956H32.9292C33.5075 31.6956 33.978 31.2251 33.978 30.6468V27.5693C33.9779 26.991 33.5074 26.5206 32.9292 26.5206Z" fill="black"/>
<path d="M41.5736 31.6953C42.1518 31.6953 42.6221 31.2249 42.6221 30.6468V27.5692C42.6221 26.991 42.1518 26.5206 41.5736 26.5206H39.2764C39.2335 26.5206 39.1941 26.4955 39.1759 26.4567L38.9261 25.9235C38.7543 25.5568 38.3816 25.3198 37.9766 25.3198H36.3611C35.7829 25.3198 35.3125 25.7902 35.3125 26.3684V30.6468C35.3125 31.2249 35.7829 31.6953 36.3611 31.6953H41.5736ZM36.25 30.6468V26.3684C36.25 26.3072 36.2998 26.2574 36.3611 26.2574H37.9766C38.0195 26.2574 38.0589 26.2825 38.0771 26.3213L38.3269 26.8545C38.4988 27.2212 38.8715 27.4582 39.2764 27.4582H41.5736C41.6348 27.4582 41.6846 27.508 41.6846 27.5693V30.6468C41.6846 30.7081 41.6348 30.7579 41.5736 30.7579H36.3611C36.2998 30.7578 36.25 30.708 36.25 30.6468Z" fill="black"/>
<path d="M32.9291 33.8882H30.6319C30.589 33.8882 30.5495 33.8631 30.5313 33.8243L30.2815 33.2911C30.1097 32.9244 29.737 32.6874 29.332 32.6874H27.7165C27.1383 32.6874 26.668 33.1578 26.668 33.7359V38.0143C26.668 38.5925 27.1383 39.0629 27.7165 39.0629H32.9291C33.5073 39.0629 33.9777 38.5925 33.9777 38.0143V34.9368C33.9777 34.3586 33.5073 33.8882 32.9291 33.8882ZM33.0402 38.0143C33.0402 38.0756 32.9903 38.1254 32.9291 38.1254H27.7165C27.6553 38.1254 27.6055 38.0756 27.6055 38.0143V33.7359C27.6055 33.6747 27.6553 33.6249 27.7165 33.6249H29.332C29.375 33.6249 29.4144 33.65 29.4326 33.6888L29.6824 34.2221C29.8543 34.5888 30.227 34.8257 30.6319 34.8257H32.9291C32.9903 34.8257 33.0402 34.8755 33.0402 34.9368V38.0143Z" fill="black"/>
<path d="M46.2301 41.4475C44.2939 41.4475 42.7188 43.0224 42.7188 44.9581C42.7188 46.8939 44.2939 48.4688 46.2301 48.4688C46.538 48.4688 46.8447 48.4285 47.1418 48.3491C47.3918 48.2822 47.5404 48.0253 47.4735 47.7751C47.4067 47.525 47.1497 47.3766 46.8996 47.4433C46.6816 47.5016 46.4562 47.5312 46.2301 47.5312C44.8109 47.5312 43.6562 46.3769 43.6562 44.9581C43.6562 44.6264 43.7201 44.3095 43.8349 44.0181H48.3156C48.4169 44.0181 48.5181 44.0135 48.619 44.0054C48.7369 44.3003 48.8025 44.6216 48.8025 44.9581C48.8025 45.4607 48.6576 45.9477 48.3835 46.3663C48.2416 46.5828 48.3022 46.8734 48.5189 47.0152C48.7354 47.157 49.0259 47.0964 49.1678 46.8798C49.5421 46.3082 49.74 45.6436 49.74 44.958C49.74 43.0224 48.1654 41.4475 46.2301 41.4475ZM47.9865 43.0806H44.4727C44.9331 42.6496 45.5511 42.385 46.2301 42.385C46.9087 42.385 47.5263 42.6497 47.9865 43.0806Z" fill="black"/>
<path d="M53.1231 45.8578L52.653 45.5866C52.6732 45.3776 52.6834 45.1672 52.6834 44.9579C52.6834 44.7486 52.6732 44.5384 52.653 44.3299L53.1231 44.0581C53.8978 43.6107 54.1643 42.6166 53.7171 41.8419L52.672 40.0319C52.5356 39.7957 52.3483 39.6071 52.1319 39.4712V28.435C52.1319 28.1761 51.9221 27.9662 51.6631 27.9662C51.4042 27.9662 51.1944 28.1761 51.1944 28.435V39.2228C50.9423 39.2337 50.6892 39.3032 50.456 39.4378L50.0976 39.6446V24.8163C50.0976 23.8337 49.2982 23.0344 48.3156 23.0344H25.8801C24.8976 23.0344 24.0982 23.8338 24.0982 24.8163V40.2019C24.0982 41.1844 24.8976 41.9837 25.8801 41.9837H38.6695C38.5093 42.3376 38.4866 42.7254 38.5836 43.0806H32.7576H25.8801C24.2931 43.0806 23.002 41.7892 23.002 40.2019V24.8163C23.002 23.2289 24.2931 21.9375 25.8801 21.9375H48.3157C49.903 21.9375 51.1945 23.2289 51.1945 24.8163V26.2512C51.1945 26.5101 51.4043 26.72 51.6633 26.72C51.9222 26.72 52.132 26.5101 52.132 26.2512V24.8163C52.132 22.712 50.42 21 48.3157 21H25.8801C23.7761 21 22.0645 22.712 22.0645 24.8163V40.2019C22.0645 42.3061 23.7761 44.0181 25.8801 44.0181H31.3997L30.6121 45.7642C30.4093 46.2142 30.4481 46.7303 30.716 47.1448C30.9836 47.5589 31.4377 47.8062 31.9308 47.8062H38.6193C38.6517 47.8974 38.6923 47.9872 38.7423 48.0741L39.7878 49.8834C40.0039 50.2587 40.3534 50.5273 40.7719 50.6397C41.1911 50.7522 41.6286 50.6948 42.0045 50.4779L42.475 50.2061C42.8166 50.4506 43.1805 50.6611 43.5621 50.8346V51.3778C43.5621 52.2723 44.2898 53 45.1842 53H47.2752C48.1697 53 48.8974 52.2723 48.8974 51.3778V50.8347C49.2799 50.6608 49.6438 50.4504 49.9848 50.2061L50.456 50.4779C51.2306 50.9253 52.2248 50.6588 52.6721 49.8839L53.7172 48.0739C54.1643 47.2994 53.8979 46.3052 53.1231 45.8578ZM25.0357 40.2019V24.8163C25.0357 24.3506 25.4145 23.9719 25.8801 23.9719H48.3157C48.7813 23.9719 49.1601 24.3507 49.1601 24.8163V39.2084C49.0735 39.1642 48.986 39.1215 48.8973 39.0811V38.538C48.8973 37.6435 48.1696 36.9158 47.2751 36.9158H45.1841C44.2896 36.9158 43.562 37.6435 43.562 38.538V39.0812C43.1804 39.2548 42.8165 39.4652 42.4749 39.7097L42.0043 39.4379C41.6286 39.221 41.191 39.1634 40.7719 39.2761C40.3534 39.3884 40.0039 39.6571 39.7881 40.0317L39.2019 41.0462H25.8801C25.4145 41.0463 25.0357 40.6675 25.0357 40.2019ZM38.5751 46.8687H31.9307C31.7547 46.8687 31.5989 46.7839 31.5034 46.636C31.4076 46.4877 31.3943 46.3105 31.4668 46.1496L32.2931 44.3178C32.3751 44.1358 32.5575 44.0182 32.7576 44.0182H39.2709C39.2922 44.0319 39.3139 44.0452 39.336 44.0581L39.8064 44.3298C39.786 44.5375 39.7758 44.7478 39.7758 44.9581C39.7758 45.1683 39.7861 45.3787 39.8065 45.5868L39.3361 45.8579C38.9408 46.086 38.6783 46.4571 38.5751 46.8687ZM52.9052 47.6052L51.8601 49.4153C51.6713 49.7423 51.2516 49.8549 50.9245 49.666L50.1843 49.2389C50.0176 49.1427 49.809 49.1583 49.6583 49.2781C49.2337 49.6157 48.7618 49.8886 48.2559 50.0889C48.0771 50.1597 47.9598 50.3325 47.9598 50.5247V51.3778C47.9598 51.7554 47.6526 52.0625 47.2751 52.0625H45.1841C44.8066 52.0625 44.4995 51.7554 44.4995 51.3778V50.5247C44.4995 50.3325 44.3821 50.1597 44.2033 50.0889C43.699 49.8892 43.227 49.6163 42.8005 49.2778C42.7157 49.2105 42.6126 49.1763 42.509 49.1763C42.4285 49.1763 42.3475 49.197 42.2746 49.2391L41.5355 49.6661C41.3768 49.7577 41.1921 49.7819 41.0151 49.7344C40.8386 49.6871 40.6913 49.5739 40.5999 49.4151L39.5543 47.6057C39.3658 47.2782 39.4781 46.8584 39.8046 46.6699L40.5438 46.2439C40.7108 46.1476 40.8019 45.9588 40.7733 45.7681C40.7335 45.503 40.7133 45.2304 40.7133 44.958C40.7133 44.6853 40.7335 44.4131 40.7732 44.1489C40.802 43.9584 40.7111 43.7697 40.5442 43.6733L39.8049 43.2462C39.4781 43.0576 39.3658 42.6377 39.554 42.3108L40.6002 40.5002C40.6912 40.3421 40.8385 40.2289 41.0151 40.1815C41.1919 40.1339 41.3769 40.1583 41.5353 40.2498L42.2745 40.6768C42.4411 40.7729 42.6496 40.7576 42.8004 40.6381C43.227 40.2996 43.699 40.0267 44.2033 39.8269C44.382 39.7562 44.4994 39.5834 44.4994 39.3911V38.538C44.4994 38.1604 44.8065 37.8533 45.184 37.8533H47.275C47.6526 37.8533 47.9597 38.1604 47.9597 38.538V39.3911C47.9597 39.5834 48.0771 39.7562 48.2558 39.8269C48.7618 40.0273 49.2336 40.3001 49.6583 40.6378C49.809 40.7576 50.0175 40.7731 50.1843 40.6769L50.9246 40.2498C51.2516 40.061 51.6711 40.1736 51.8601 40.5006L52.9051 42.3106C53.094 42.6376 52.9814 43.0573 52.654 43.2463L51.9156 43.6734C51.7493 43.7696 51.6586 43.9575 51.6866 44.1476C51.726 44.4141 51.7459 44.6868 51.7459 44.9579C51.7459 45.2288 51.726 45.5019 51.6866 45.7694C51.6586 45.9596 51.7496 46.1476 51.916 46.2437L52.6543 46.6698C52.9815 46.8587 53.094 47.2783 52.9052 47.6052Z" fill="black"/>
<defs>
<filter id="filter0_d_257_1543" x="0" y="0" width="76" height="76" filterUnits="userSpaceOnUse" color-interpolation-filters="sRGB">
<feFlood flood-opacity="0" result="BackgroundImageFix"/>
<feColorMatrix in="SourceAlpha" type="matrix" values="0 0 0 0 0 0 0 0 0 0 0 0 0 0 0 0 0 0 127 0" result="hardAlpha"/>
<feOffset dy="4"/>
<feGaussianBlur stdDeviation="3"/>
<feComposite in2="hardAlpha" operator="out"/>
<feColorMatrix type="matrix" values="0 0 0 0 0 0 0 0 0 0 0 0 0 0 0 0 0 0 0.1 0"/>
<feBlend mode="normal" in2="BackgroundImageFix" result="effect1_dropShadow_257_1543"/>
<feBlend mode="normal" in="SourceGraphic" in2="effect1_dropShadow_257_1543" result="shape"/>
</filter>
</defs>
</svg>
