<svg width="498" height="501" viewBox="0 0 498 501" fill="none" xmlns="http://www.w3.org/2000/svg">
<g clip-path="url(#clip0_114_274)">
<path d="M264.772 241C264.772 251.78 256.232 260.5 245.722 260.5C235.212 260.5 226.672 251.78 226.672 241C226.672 230.219 235.212 221.5 245.722 221.5C256.232 221.5 264.772 230.219 264.772 241Z" stroke="#D9D9D9"/>
<path d="M284.824 241C284.824 262.262 267.543 279.5 246.223 279.5C224.904 279.5 207.623 262.262 207.623 241C207.623 219.738 224.904 202.5 246.223 202.5C267.543 202.5 284.824 219.738 284.824 241Z" stroke="#D9D9D9"/>
<path d="M304.875 240.5C304.875 272.531 278.841 298.5 246.725 298.5C214.608 298.5 188.574 272.531 188.574 240.5C188.574 208.468 214.608 182.5 246.725 182.5C278.841 182.5 304.875 208.468 304.875 240.5Z" stroke="#D9D9D9"/>
<path d="M323.922 241C323.922 283.801 289.136 318.5 246.222 318.5C203.308 318.5 168.521 283.801 168.521 241C168.521 198.199 203.308 163.5 246.222 163.5C289.136 163.5 323.922 198.199 323.922 241Z" stroke="#D9D9D9"/>
<path d="M342.973 241.5C342.973 295.073 299.656 338.5 246.224 338.5C192.792 338.5 149.475 295.073 149.475 241.5C149.475 187.927 192.792 144.5 246.224 144.5C299.656 144.5 342.973 187.927 342.973 241.5Z" stroke="#D9D9D9"/>
<path d="M363.024 240.5C363.024 305.118 310.73 357.5 246.224 357.5C181.717 357.5 129.423 305.118 129.423 240.5C129.423 175.882 181.717 123.5 246.224 123.5C310.73 123.5 363.024 175.882 363.024 240.5Z" stroke="#D9D9D9"/>
<path d="M382.073 240.5C382.073 315.611 321.251 376.5 246.224 376.5C171.196 376.5 110.374 315.611 110.374 240.5C110.374 165.389 171.196 104.5 246.224 104.5C321.251 104.5 382.073 165.389 382.073 240.5Z" stroke="#D9D9D9"/>
<path d="M402.125 241C402.125 326.325 332.553 395.5 246.725 395.5C160.897 395.5 91.3252 326.325 91.3252 241C91.3252 155.674 160.897 86.4998 246.725 86.4998C332.553 86.4998 402.125 155.674 402.125 241Z" stroke="#D9D9D9"/>
<path d="M421.174 241C421.174 336.819 343.073 414.5 246.725 414.5C150.377 414.5 72.2764 336.819 72.2764 241C72.2764 145.181 150.377 67.4998 246.725 67.4998C343.073 67.4998 421.174 145.181 421.174 241Z" stroke="#D9D9D9"/>
<path d="M441.225 241C441.225 347.864 354.146 434.5 246.725 434.5C139.303 434.5 52.2246 347.864 52.2246 241C52.2246 134.135 139.303 47.4998 246.725 47.4998C354.146 47.4998 441.225 134.135 441.225 241Z" stroke="#D9D9D9"/>
<path d="M281.925 452.868L281.932 452.149C281.941 451.295 282.055 450.53 282.275 449.855C282.495 449.18 282.807 448.608 283.213 448.138C283.619 447.668 284.104 447.31 284.669 447.066C285.228 446.821 285.855 446.702 286.547 446.709C287.219 446.715 287.835 446.846 288.395 447.101C288.95 447.357 289.431 447.723 289.838 448.201C290.239 448.679 290.549 449.258 290.766 449.937C290.984 450.616 291.089 451.383 291.08 452.237L291.073 452.956C291.065 453.81 290.949 454.572 290.723 455.241C290.493 455.916 290.172 456.489 289.762 456.959C289.351 457.434 288.865 457.794 288.306 458.039C287.741 458.283 287.123 458.402 286.451 458.396C285.758 458.389 285.134 458.258 284.579 458.003C284.019 457.747 283.541 457.378 283.145 456.895C282.743 456.417 282.439 455.839 282.232 455.16C282.019 454.486 281.917 453.722 281.925 452.868ZM283.424 452.163L283.417 452.898C283.411 453.575 283.475 454.174 283.611 454.697C283.741 455.219 283.938 455.658 284.2 456.015C284.462 456.371 284.785 456.643 285.169 456.829C285.547 457.015 285.979 457.11 286.463 457.115C286.932 457.119 287.357 457.032 287.739 456.853C288.116 456.675 288.441 456.41 288.715 456.058C288.984 455.706 289.194 455.271 289.345 454.752C289.496 454.232 289.575 453.634 289.581 452.957L289.588 452.223C289.595 451.54 289.528 450.935 289.387 450.408C289.246 449.886 289.042 449.444 288.775 449.082C288.502 448.725 288.179 448.454 287.806 448.268C287.427 448.082 287.004 447.987 286.535 447.982C286.045 447.977 285.61 448.064 285.228 448.243C284.846 448.422 284.523 448.687 284.259 449.038C283.99 449.395 283.785 449.833 283.645 450.353C283.504 450.878 283.431 451.481 283.424 452.163ZM276.418 455.221L276.499 446.769L277.952 446.782L277.871 455.235L276.418 455.221ZM273.582 455.194L273.594 454.022L280.664 454.09L280.652 455.262L273.582 455.194ZM266.462 451.461L266.473 450.29L270.941 450.333L270.93 451.504L266.462 451.461ZM270.59 455.165L270.671 446.713L272.117 446.726L272.036 455.179L270.59 455.165ZM265.255 455.114L265.336 446.661L266.789 446.675L266.708 455.128L265.255 455.114ZM263.351 450.775L263.349 450.955C263.343 451.564 263.249 452.129 263.067 452.648C262.885 453.172 262.626 453.625 262.289 454.007C261.952 454.395 261.545 454.693 261.069 454.902C260.593 455.116 260.061 455.221 259.472 455.215C258.878 455.209 258.346 455.095 257.874 454.871C257.397 454.653 256.993 454.347 256.664 453.953C256.329 453.565 256.076 453.107 255.904 452.579C255.731 452.056 255.648 451.491 255.654 450.881L255.656 450.701C255.662 450.092 255.756 449.528 255.938 449.009C256.12 448.49 256.382 448.036 256.724 447.649C257.061 447.267 257.468 446.969 257.944 446.755C258.415 446.545 258.947 446.444 259.541 446.45C260.134 446.455 260.667 446.567 261.139 446.785C261.611 447.008 262.014 447.314 262.349 447.703C262.679 448.097 262.929 448.555 263.102 449.078C263.274 449.6 263.357 450.166 263.351 450.775ZM261.904 450.941L261.906 450.761C261.91 450.34 261.864 449.941 261.769 449.565C261.673 449.194 261.528 448.865 261.333 448.576C261.132 448.288 260.882 448.059 260.582 447.889C260.281 447.725 259.93 447.641 259.529 447.637C259.133 447.633 258.786 447.711 258.488 447.869C258.184 448.033 257.932 448.257 257.731 448.542C257.531 448.826 257.379 449.153 257.277 449.522C257.169 449.896 257.113 450.294 257.109 450.715L257.107 450.895C257.103 451.312 257.152 451.705 257.252 452.076C257.348 452.452 257.495 452.784 257.696 453.073C257.891 453.366 258.139 453.598 258.439 453.767C258.734 453.937 259.083 454.024 259.484 454.027C259.879 454.031 260.229 453.951 260.533 453.787C260.831 453.624 261.083 453.397 261.289 453.107C261.49 452.823 261.642 452.493 261.744 452.119C261.847 451.751 261.9 451.358 261.904 450.941ZM253.677 455.003L252.232 454.989L252.302 447.724L249.208 447.694L249.138 454.959L247.685 454.945L247.755 447.68L244.669 447.651L244.599 454.916L243.154 454.902L243.235 446.449L253.758 446.55L253.677 455.003ZM237.425 446.237C238.013 446.243 238.546 446.347 239.023 446.549C239.495 446.757 239.901 447.045 240.241 447.413C240.577 447.781 240.833 448.215 241.01 448.717C241.188 449.219 241.274 449.767 241.268 450.36L241.265 450.688C241.258 451.376 241.151 451.987 240.942 452.521C240.734 453.061 240.454 453.517 240.101 453.888C239.749 454.26 239.35 454.54 238.906 454.728C238.461 454.917 238.002 455.009 237.528 455.004C236.924 454.998 236.404 454.889 235.968 454.677C235.528 454.464 235.169 454.169 234.891 453.791C234.613 453.419 234.409 452.979 234.279 452.473C234.148 451.972 234.086 451.424 234.091 450.83L234.097 450.182L240.41 450.243L240.398 451.422L235.531 451.376L235.53 451.485C235.548 451.86 235.622 452.225 235.754 452.581C235.881 452.936 236.086 453.23 236.371 453.462C236.655 453.694 237.044 453.812 237.539 453.817C237.867 453.82 238.17 453.753 238.447 453.615C238.725 453.482 238.964 453.281 239.164 453.012C239.365 452.743 239.522 452.414 239.635 452.024C239.748 451.635 239.807 451.185 239.812 450.674L239.815 450.346C239.819 449.945 239.768 449.567 239.662 449.212C239.55 448.862 239.389 448.553 239.178 448.285C238.962 448.018 238.701 447.807 238.395 447.653C238.084 447.499 237.731 447.42 237.335 447.416C236.825 447.411 236.391 447.511 236.035 447.716C235.679 447.921 235.367 448.197 235.098 448.543L234.229 447.839C234.414 447.565 234.649 447.304 234.932 447.057C235.216 446.81 235.564 446.61 235.977 446.458C236.385 446.305 236.867 446.232 237.425 446.237ZM226.667 451.08L226.678 449.908L231.146 449.951L231.135 451.122L226.667 451.08ZM230.795 454.783L230.876 446.331L232.322 446.345L232.241 454.797L230.795 454.783ZM225.46 454.732L225.541 446.279L226.994 446.293L226.913 454.746L225.46 454.732ZM221.628 448.531L217.671 454.657L216.218 454.643L216.299 446.191L217.752 446.205L217.693 452.368L221.65 446.242L223.088 446.256L223.007 454.709L221.569 454.695L221.628 448.531ZM212.229 450.183L210.667 450.168L213.151 446.161L214.713 446.176L212.229 450.183ZM210.976 454.593L207.445 454.559L207.526 446.107L208.971 446.12L208.901 453.401L210.987 453.421C211.399 453.425 211.735 453.358 211.997 453.22C212.259 453.087 212.45 452.912 212.572 452.694C212.694 452.477 212.756 452.251 212.759 452.016C212.761 451.787 212.708 451.565 212.601 451.351C212.493 451.141 212.323 450.968 212.09 450.83C211.857 450.693 211.556 450.622 211.186 450.618L208.538 450.593L208.549 449.406L211.197 449.431C211.682 449.436 212.111 449.505 212.484 449.639C212.858 449.772 213.174 449.955 213.432 450.187C213.691 450.424 213.886 450.699 214.018 451.013C214.151 451.332 214.215 451.676 214.211 452.046C214.208 452.416 214.134 452.756 213.991 453.067C213.842 453.378 213.631 453.65 213.358 453.882C213.08 454.113 212.742 454.29 212.345 454.411C211.943 454.537 211.486 454.598 210.976 454.593Z" fill="#A43FD4"/>
<path d="M127.735 423.303L128.495 422.33L132.816 425.708L139.062 417.719L140.243 418.643L133.237 427.605L127.735 423.303ZM135.186 423.248L132.743 421.337C132.086 420.824 131.619 420.28 131.341 419.706C131.059 419.135 130.956 418.562 131.03 417.985C131.104 417.408 131.348 416.855 131.762 416.326C132.07 415.932 132.417 415.622 132.805 415.397C133.19 415.175 133.606 415.044 134.054 415.004C134.499 414.969 134.961 415.033 135.441 415.196C135.918 415.364 136.403 415.641 136.895 416.026L140.243 418.643L133.237 427.605L132.049 426.676L138.3 418.681L136.14 416.992C135.701 416.649 135.283 416.451 134.887 416.4C134.484 416.349 134.116 416.405 133.784 416.568C133.451 416.731 133.168 416.963 132.934 417.262C132.699 417.562 132.548 417.886 132.48 418.236C132.411 418.586 132.457 418.942 132.616 419.305C132.768 419.668 133.064 420.022 133.503 420.365L135.946 422.275L135.186 423.248ZM129.786 413.373L122.918 415.828L121.773 414.933L126.98 408.274L128.125 409.169L124.328 414.025L131.196 411.57L132.328 412.455L127.122 419.115L125.989 418.229L129.786 413.373ZM120.178 408.083L121.403 409.04L120.854 409.742L119.721 408.856C119.406 408.609 119.125 408.453 118.879 408.386C118.63 408.324 118.411 408.334 118.221 408.417C118.03 408.499 117.86 408.637 117.709 408.83C117.574 409.002 117.493 409.2 117.464 409.422C117.429 409.645 117.47 409.88 117.589 410.125C117.705 410.374 117.925 410.625 118.249 410.879C118.512 411.084 118.787 411.223 119.074 411.295C119.358 411.372 119.626 411.38 119.878 411.319C120.123 411.26 120.323 411.131 120.477 410.934L121.615 411.825C121.298 412.231 120.91 412.49 120.453 412.601C119.988 412.714 119.5 412.7 118.989 412.558C118.474 412.413 117.987 412.161 117.528 411.802C117.142 411.5 116.831 411.188 116.595 410.864C116.351 410.542 116.187 410.215 116.102 409.884C116.013 409.557 116.009 409.229 116.087 408.901C116.158 408.573 116.317 408.251 116.564 407.935C116.741 407.709 116.961 407.538 117.225 407.42C117.489 407.302 117.782 407.244 118.105 407.245C118.425 407.251 118.762 407.323 119.117 407.461C119.467 407.596 119.821 407.803 120.178 408.083ZM121.066 409.471L119.841 408.513C119.443 408.202 119.123 407.889 118.88 407.574C118.634 407.262 118.466 406.953 118.377 406.645C118.287 406.336 118.276 406.034 118.343 405.736C118.403 405.439 118.542 405.151 118.761 404.872C119.004 404.56 119.288 404.329 119.611 404.178C119.926 404.028 120.266 403.957 120.631 403.964C120.995 403.972 121.373 404.055 121.763 404.215C122.15 404.372 122.536 404.601 122.922 404.903C123.353 405.239 123.713 405.64 124.004 406.106C124.295 406.571 124.451 407.06 124.473 407.573C124.492 408.09 124.314 408.589 123.938 409.069L122.8 408.179C122.957 407.978 123.043 407.737 123.056 407.457C123.07 407.177 123.008 406.894 122.869 406.607C122.726 406.316 122.504 406.054 122.205 405.82C121.885 405.569 121.58 405.41 121.289 405.342C120.999 405.273 120.736 405.28 120.501 405.36C120.262 405.438 120.067 405.573 119.916 405.766C119.721 406.016 119.613 406.256 119.592 406.485C119.572 406.713 119.637 406.943 119.788 407.173C119.931 407.404 120.161 407.643 120.477 407.89L121.609 408.775L121.066 409.471ZM111.284 402.081L112.006 401.158L115.526 403.91L114.804 404.834L111.284 402.081ZM112.307 407.532L117.514 400.873L118.653 401.763L113.446 408.423L112.307 407.532ZM108.104 404.246L113.31 397.586L114.455 398.481L109.249 405.141L108.104 404.246ZM108.809 393.869C109.273 394.231 109.632 394.638 109.888 395.089C110.136 395.541 110.283 396.017 110.33 396.516C110.372 397.011 110.311 397.512 110.146 398.018C109.982 398.525 109.717 399.012 109.351 399.479L109.149 399.738C108.726 400.279 108.269 400.699 107.778 400.997C107.285 401.298 106.785 401.489 106.279 401.57C105.773 401.65 105.286 401.63 104.819 401.509C104.351 401.388 103.931 401.182 103.558 400.89C103.082 400.518 102.736 400.115 102.519 399.681C102.299 399.245 102.193 398.792 102.203 398.323C102.209 397.859 102.314 397.386 102.519 396.904C102.72 396.427 103.003 395.954 103.369 395.487L103.769 394.976L108.742 398.864L108.015 399.793L104.181 396.795L104.113 396.882C103.899 397.19 103.736 397.525 103.624 397.888C103.509 398.247 103.493 398.605 103.578 398.962C103.662 399.319 103.899 399.65 104.289 399.954C104.548 400.157 104.829 400.287 105.133 400.346C105.434 400.41 105.746 400.396 106.068 400.304C106.391 400.213 106.716 400.047 107.043 399.807C107.369 399.566 107.69 399.245 108.004 398.843L108.206 398.584C108.453 398.268 108.643 397.937 108.775 397.591C108.9 397.245 108.96 396.902 108.955 396.561C108.946 396.217 108.867 395.891 108.718 395.583C108.565 395.272 108.333 394.994 108.021 394.75C107.619 394.436 107.214 394.252 106.807 394.198C106.399 394.144 105.984 394.172 105.559 394.283L105.298 393.197C105.612 393.092 105.956 393.027 106.332 393.003C106.708 392.98 107.106 393.033 107.526 393.163C107.942 393.29 108.37 393.526 108.809 393.869ZM101.492 389.656C101.221 389.444 100.928 389.304 100.611 389.235C100.295 389.166 99.9873 389.17 99.6888 389.248C99.3872 389.329 99.1282 389.487 98.912 389.721L97.8288 388.874C98.1572 388.496 98.5777 388.233 99.0902 388.085C99.5953 387.938 100.127 387.914 100.684 388.013C101.238 388.115 101.752 388.351 102.223 388.72C102.724 389.111 103.092 389.541 103.327 390.01C103.559 390.475 103.677 390.958 103.683 391.458C103.684 391.955 103.591 392.45 103.403 392.945C103.208 393.44 102.935 393.911 102.585 394.358L102.383 394.617C102.034 395.064 101.644 395.44 101.214 395.745C100.776 396.051 100.316 396.263 99.8333 396.382C99.3465 396.497 98.8495 396.498 98.3423 396.386C97.831 396.271 97.325 396.017 96.8244 395.626C96.3033 395.218 95.9313 394.756 95.7083 394.237C95.4821 393.723 95.401 393.197 95.4649 392.659C95.5215 392.121 95.7192 391.615 96.058 391.139L97.1412 391.986C96.9468 392.277 96.8307 392.586 96.7929 392.914C96.7509 393.238 96.7935 393.555 96.9207 393.866C97.0405 394.178 97.2522 394.453 97.5558 394.69C97.9046 394.963 98.2525 395.122 98.5996 395.169C98.9393 395.216 99.2703 395.178 99.5927 395.053C99.9078 394.929 100.207 394.75 100.49 394.515C100.765 394.281 101.017 394.018 101.245 393.726L101.447 393.468C101.675 393.177 101.87 392.867 102.034 392.539C102.198 392.211 102.302 391.879 102.346 391.543C102.387 391.205 102.344 390.874 102.219 390.552C102.087 390.23 101.845 389.932 101.492 389.656Z" fill="#A43FD4"/>
<path d="M30.5124 318.247L31.7114 317.989L33.5268 326.404L32.3278 326.663L30.5124 318.247ZM32.2767 326.426L36.2097 325.578L36.5243 327.036L32.593 327.892L32.2767 326.426ZM30.2357 316.964L34.1643 316.133L34.4789 317.591L30.5536 318.438L30.2357 316.964ZM20.9035 321.83L22.1101 321.57L23.1611 326.442L21.9545 326.703L20.9035 321.83ZM20.63 320.563L31.7493 318.164L32.0656 319.63L20.9463 322.029L20.63 320.563ZM22.0632 327.207L21.7453 325.733L26.2699 324.997C26.9485 324.882 27.5834 324.812 28.1745 324.786C28.7605 324.76 29.303 324.769 29.8022 324.81C30.3013 324.852 30.7565 324.924 31.1677 325.027C31.5738 325.131 31.9343 325.259 32.2492 325.409C32.5589 325.561 32.8251 325.732 33.0476 325.924C33.2639 326.112 33.4324 326.313 33.5531 326.526L33.6981 327.199L32.4991 327.457L32.397 326.984C32.2259 326.882 31.9873 326.776 31.6812 326.667C31.374 326.552 30.9885 326.456 30.5246 326.381C30.0545 326.301 29.4952 326.264 28.8466 326.271C28.1969 326.273 27.4445 326.342 26.5895 326.478L22.0632 327.207ZM29.7507 313.049L21.8471 312.348L21.5209 310.836L31.7743 312.093C31.9944 312.125 32.2353 312.18 32.497 312.256C32.7626 312.327 33.0232 312.436 33.2788 312.583C33.5343 312.731 33.758 312.928 33.9496 313.174C34.1453 313.414 34.2838 313.723 34.365 314.099C34.3892 314.211 34.4047 314.357 34.4115 314.537C34.4183 314.717 34.4192 314.844 34.4142 314.92L33.2703 315.175C33.2666 315.133 33.258 315.068 33.2444 314.98C33.2348 314.887 33.2262 314.822 33.2185 314.786C33.1493 314.465 33.0473 314.202 32.9124 313.997C32.7826 313.791 32.602 313.632 32.3705 313.523C32.1429 313.406 31.8466 313.329 31.4813 313.291L29.7507 313.049ZM22.707 316.334L28.6591 312.805L30.0692 312.117L30.8076 313.021L23.0398 317.877L22.707 316.334ZM21.0399 308.606L23.6584 306.147L20.2541 304.963L19.8966 303.306L24.5579 305.13L28.1416 301.439L28.4941 303.074L25.8054 305.652L29.3178 306.892L29.672 308.534L24.8873 306.657L21.3908 310.233L21.0399 308.606ZM23.909 301.417L23.7333 301.455C23.1376 301.584 22.5666 301.616 22.0201 301.553C21.4685 301.491 20.9693 301.338 20.5222 301.093C20.0701 300.85 19.6897 300.519 19.381 300.1C19.0672 299.683 18.8483 299.187 18.7242 298.612C18.599 298.031 18.5933 297.486 18.7072 296.977C18.8149 296.463 19.0246 296.003 19.3361 295.594C19.6415 295.182 20.0326 294.834 20.5095 294.55C20.9813 294.267 21.515 294.062 22.1107 293.933L22.2863 293.895C22.882 293.767 23.4531 293.734 23.9995 293.797C24.546 293.861 25.0458 294.016 25.4991 294.265C25.9461 294.51 26.3265 294.84 26.6403 295.258C26.9478 295.671 27.1642 296.168 27.2894 296.748C27.4146 297.328 27.4228 297.873 27.314 298.381C27.2001 298.891 26.9905 299.351 26.6851 299.764C26.3736 300.172 25.9819 300.517 25.5101 300.8C25.0384 301.083 24.5046 301.289 23.909 301.417ZM23.4285 300.042L23.6042 300.005C24.0166 299.916 24.3956 299.783 24.7413 299.607C25.0819 299.433 25.3714 299.218 25.6097 298.965C25.8469 298.706 26.0151 298.411 26.1143 298.08C26.2084 297.751 26.2132 297.39 26.1286 296.998C26.0452 296.612 25.8932 296.29 25.6728 296.034C25.4462 295.774 25.172 295.577 24.8502 295.444C24.5285 295.311 24.1764 295.235 23.7941 295.216C23.4056 295.194 23.0051 295.227 22.5927 295.316L22.4171 295.353C22.0098 295.441 21.6364 295.575 21.2969 295.755C20.9512 295.931 20.6597 296.148 20.4225 296.407C20.1791 296.662 20.0078 296.955 19.9086 297.285C19.8083 297.611 19.8004 297.969 19.885 298.361C19.9685 298.748 20.1235 299.072 20.3501 299.332C20.5756 299.587 20.8524 299.783 21.1803 299.92C21.5021 300.053 21.8566 300.128 22.2441 300.146C22.6264 300.165 23.0212 300.13 23.4285 300.042ZM21.472 288.157L22.0568 290.868L20.9299 291.127L20.4521 288.912C20.3577 288.474 20.2359 288.119 20.0867 287.848C19.9365 287.571 19.7589 287.378 19.5539 287.268C19.349 287.157 19.1192 287.13 18.8647 287.184C18.6661 287.227 18.5024 287.308 18.3734 287.426C18.2382 287.541 18.1404 287.692 18.0799 287.881C18.0143 288.071 17.9855 288.296 17.9935 288.555C17.9953 288.811 18.0319 289.104 18.1033 289.435L18.4937 291.245L25.6112 289.709L25.916 291.122L17.6529 292.905L16.9578 289.682C16.8446 289.157 16.7889 288.677 16.7905 288.239C16.791 287.797 16.8535 287.408 16.9782 287.072C17.0967 286.732 17.2815 286.452 17.5325 286.233C17.7836 286.014 18.1026 285.862 18.4895 285.779C18.739 285.725 18.9867 285.725 19.2327 285.778C19.4787 285.832 19.7096 285.939 19.9256 286.1C20.1415 286.262 20.3368 286.475 20.5114 286.741C20.6809 287.008 20.8216 287.327 20.9334 287.697L21.472 288.157ZM25.1072 287.372L25.8023 290.595L24.5053 290.14L23.9616 287.62C23.8771 287.227 23.7584 286.912 23.6057 286.673C23.4478 286.436 23.2635 286.273 23.0528 286.185C22.8359 286.093 22.5976 286.076 22.3379 286.132C22.0783 286.188 21.8711 286.302 21.7164 286.473C21.5554 286.641 21.4546 286.866 21.4139 287.146C21.3681 287.428 21.3875 287.765 21.472 288.157L21.9349 290.302L20.8014 290.531L20.2232 287.851L20.5405 287.247C20.4783 286.786 20.5074 286.377 20.6277 286.021C20.748 285.665 20.9357 285.374 21.1907 285.148C21.4407 284.924 21.7337 284.775 22.0697 284.703C22.4566 284.619 22.8137 284.62 23.1408 284.704C23.4669 284.782 23.7588 284.938 24.0167 285.17C24.2695 285.403 24.489 285.705 24.6754 286.075C24.8567 286.446 25.0006 286.879 25.1072 287.372ZM18.1228 277.706L19.2683 277.459L20.2106 281.827L19.0651 282.074L18.1228 277.706ZM15.4191 282.549L23.6822 280.767L23.987 282.179L15.7239 283.962L15.4191 282.549ZM14.294 277.333L22.5571 275.551L22.8635 276.971L14.6004 278.753L14.294 277.333ZM16.3936 273.284L15.8582 270.802C15.7143 270.135 15.7101 269.547 15.8454 269.038C15.9757 268.53 16.2192 268.116 16.576 267.794C16.9266 267.468 17.359 267.249 17.8732 267.138C18.255 267.056 18.6283 267.045 18.9928 267.104C19.3523 267.165 19.6853 267.301 19.9919 267.512C20.2974 267.718 20.5632 267.999 20.7892 268.355C21.009 268.708 21.1727 269.133 21.2804 269.632L22.0381 273.145L13.7751 274.927L13.4703 273.515L20.5726 271.983L20.1196 269.882C20.0317 269.475 19.8876 269.165 19.6872 268.953C19.4869 268.74 19.2581 268.606 19.0008 268.549C18.7435 268.493 18.4876 268.492 18.2331 268.547C17.9836 268.601 17.7507 268.707 17.5345 268.866C17.3183 269.024 17.1576 269.243 17.0525 269.521C16.9423 269.801 16.9311 270.144 17.019 270.551L17.5544 273.033L16.3936 273.284ZM11.7175 265.389L19.9806 263.607L20.2854 265.019L12.0223 266.802L11.7175 265.389ZM16.8798 260.088L10.0323 257.576L9.72588 256.156L17.9889 254.374L18.2954 255.794L12.2699 257.094L19.1174 259.605L19.4205 261.01L11.1574 262.792L10.8543 261.387L16.8798 260.088ZM7.20503 258.994L6.95793 257.848C7.35504 257.762 7.72865 257.778 8.07875 257.894C8.42376 258.011 8.71961 258.222 8.96629 258.526C9.21298 258.83 9.38684 259.216 9.48788 259.684C9.64053 260.392 9.57296 260.992 9.28517 261.486C8.99118 261.976 8.54381 262.285 7.94305 262.415L7.69594 261.269C7.99633 261.205 8.2424 261.061 8.43416 260.838C8.62593 260.616 8.67678 260.296 8.58673 259.878C8.49887 259.471 8.32172 259.206 8.05527 259.082C7.78883 258.958 7.50541 258.929 7.20503 258.994ZM42.7246 301.834L52.5761 299.709L52.8825 301.13L41.4425 303.597L41.1625 302.299L42.7246 301.834ZM43.998 295.733L44.1584 295.699C44.7591 295.569 45.332 295.52 45.877 295.552C46.4169 295.584 46.9048 295.698 47.3409 295.891C47.7758 296.08 48.1405 296.35 48.4349 296.702C48.7293 297.054 48.932 297.488 49.0429 298.002C49.156 298.526 49.1694 299.008 49.0831 299.448C48.9967 299.887 48.8183 300.283 48.5478 300.634C48.2772 300.986 47.9284 301.295 47.5014 301.563C47.0732 301.826 46.5755 302.051 46.0083 302.237L45.153 302.421C44.5289 302.492 43.9568 302.496 43.4369 302.432C42.917 302.368 42.4569 302.236 42.0564 302.034C41.6498 301.829 41.3146 301.547 41.0508 301.188C40.7818 300.831 40.5913 300.392 40.4793 299.873C40.3673 299.354 40.3697 298.871 40.4866 298.425C40.5984 297.98 40.8105 297.58 41.1228 297.225C41.4352 296.87 41.8362 296.567 42.3258 296.318C42.8093 296.064 43.3667 295.869 43.998 295.733ZM44.4648 297.119L44.3044 297.154C43.892 297.243 43.5144 297.369 43.1716 297.534C42.8237 297.7 42.5321 297.904 42.2967 298.146C42.0551 298.385 41.8856 298.661 41.7882 298.975C41.6857 299.29 41.6761 299.641 41.7596 300.028C41.8365 300.385 41.9646 300.682 42.1439 300.921C42.3221 301.154 42.5353 301.34 42.7836 301.478C43.0268 301.617 43.2934 301.717 43.5834 301.777C43.8672 301.833 44.1551 301.859 44.4472 301.854L46.4252 301.428C46.7596 301.249 47.0649 301.034 47.341 300.783C47.612 300.532 47.8113 300.234 47.9389 299.886C48.0614 299.54 48.0726 299.136 47.9727 298.672C47.8903 298.29 47.7406 297.979 47.5235 297.738C47.3001 297.493 47.0292 297.312 46.7108 297.194C46.3912 297.071 46.0414 297.006 45.6612 296.997C45.276 296.989 44.8772 297.03 44.4648 297.119ZM43.8503 294.271L43.6747 294.308C43.079 294.437 42.5079 294.47 41.9615 294.406C41.4099 294.344 40.9106 294.191 40.4636 293.946C40.0115 293.703 39.6311 293.372 39.3224 292.954C39.0086 292.536 38.7897 292.04 38.6656 291.465C38.5404 290.884 38.5347 290.34 38.6486 289.83C38.7563 289.317 38.9659 288.856 39.2775 288.448C39.5829 288.035 39.974 287.687 40.4509 287.403C40.9226 287.12 41.4564 286.915 42.052 286.786L42.2277 286.748C42.8234 286.62 43.3944 286.587 43.9409 286.65C44.4874 286.714 44.9872 286.87 45.4404 287.118C45.8875 287.363 46.2679 287.694 46.5816 288.111C46.8892 288.524 47.1056 289.021 47.2308 289.601C47.356 290.182 47.3642 290.726 47.2554 291.234C47.1415 291.744 46.9319 292.205 46.6265 292.617C46.315 293.025 45.9233 293.371 45.4515 293.653C44.9797 293.936 44.446 294.142 43.8503 294.271ZM43.3699 292.896L43.5456 292.858C43.958 292.769 44.337 292.636 44.6827 292.461C45.0233 292.286 45.3128 292.072 45.5511 291.818C45.7882 291.559 45.9564 291.264 46.0557 290.934C46.1498 290.604 46.1546 290.244 46.07 289.852C45.9865 289.465 45.8346 289.143 45.6142 288.887C45.3876 288.627 45.1134 288.43 44.7916 288.297C44.4699 288.164 44.1178 288.088 43.7355 288.069C43.3469 288.047 42.9465 288.08 42.5341 288.169L42.3584 288.207C41.9511 288.295 41.5777 288.428 41.2382 288.608C40.8925 288.784 40.6011 289.001 40.3639 289.26C40.1205 289.515 39.9492 289.808 39.85 290.138C39.7497 290.464 39.7418 290.822 39.8264 291.214C39.9098 291.601 40.0649 291.925 40.2915 292.185C40.517 292.44 40.7937 292.636 41.1217 292.773C41.4434 292.906 41.798 292.982 42.1855 292.999C42.5678 293.018 42.9626 292.984 43.3699 292.896ZM44.164 281.016C44.0915 280.68 43.9558 280.384 43.7569 280.129C43.5579 279.873 43.319 279.68 43.0402 279.548C42.7563 279.417 42.4563 279.373 42.1402 279.414L41.8503 278.07C42.3445 277.99 42.8359 278.057 43.3244 278.272C43.8066 278.482 44.2303 278.804 44.5954 279.236C44.9554 279.67 45.1985 280.18 45.3248 280.765C45.4588 281.387 45.4663 281.952 45.3473 282.463C45.2272 282.968 45.0092 283.415 44.6933 283.803C44.3762 284.186 43.9873 284.507 43.5264 284.766C43.0593 285.021 42.5482 285.209 41.9933 285.328L41.6726 285.398C41.1176 285.517 40.5773 285.557 40.0516 285.515C39.5197 285.47 39.0304 285.339 38.5838 285.121C38.1361 284.898 37.7533 284.581 37.4356 284.17C37.1167 283.753 36.8903 283.235 36.7563 282.614C36.6168 281.967 36.6273 281.373 36.7877 280.833C36.943 280.293 37.2176 279.837 37.6114 279.464C37.999 279.088 38.4752 278.825 39.0399 278.677L39.3299 280.021C38.9942 280.12 38.7071 280.283 38.4684 280.51C38.2286 280.732 38.058 281.004 37.9566 281.324C37.849 281.64 37.8358 281.987 37.9171 282.363C38.0104 282.796 38.1755 283.141 38.4123 283.399C38.6429 283.653 38.922 283.836 39.2495 283.946C39.5709 284.053 39.9154 284.106 40.2832 284.107C40.6448 284.103 41.0063 284.063 41.3678 283.985L41.6885 283.915C42.05 283.838 42.3987 283.725 42.7346 283.578C43.0706 283.431 43.363 283.243 43.6118 283.013C43.8596 282.778 44.0387 282.497 44.1492 282.17C44.2535 281.838 44.2585 281.454 44.164 281.016ZM35.1299 274.333L43.3929 272.551L43.6994 273.971L35.4363 275.753L35.1299 274.333ZM34.5319 271.561L35.6774 271.314L37.1683 278.225L36.0227 278.472L34.5319 271.561Z" fill="#A43FD4"/>
<path d="M140.708 44.2899L144.416 55.0438L143.012 55.5276L139.305 44.7737L140.708 44.2899ZM144.165 43.0982L144.567 44.2652L136.258 47.1298L135.856 45.9628L144.165 43.0982ZM151.092 48.8087L148.47 49.7126L148.078 48.6246L150.22 47.8862C150.644 47.7402 150.981 47.577 151.233 47.3965C151.49 47.2143 151.661 47.0149 151.746 46.7983C151.831 46.5817 151.831 46.3502 151.746 46.104C151.68 45.912 151.58 45.759 151.447 45.6451C151.318 45.5245 151.155 45.4455 150.961 45.4079C150.764 45.3655 150.538 45.3637 150.281 45.4025C150.028 45.4348 149.741 45.5061 149.421 45.6164L147.671 46.2199L150.044 53.1035L148.677 53.5746L145.922 45.583L149.039 44.5085C149.546 44.3337 150.017 44.221 150.451 44.1704C150.891 44.1181 151.284 44.1339 151.633 44.2176C151.984 44.2947 152.284 44.4448 152.532 44.668C152.78 44.8911 152.968 45.1897 153.097 45.564C153.18 45.8052 153.21 46.0512 153.186 46.3018C153.162 46.5524 153.083 46.7945 152.949 47.0281C152.815 47.2617 152.626 47.4811 152.382 47.6862C152.137 47.8863 151.838 48.064 151.484 48.2191L151.092 48.8087ZM152.304 52.3244L149.187 53.3989L149.485 52.0568L151.922 51.2165C152.301 51.0858 152.6 50.9304 152.819 50.7502C153.036 50.5652 153.176 50.3628 153.238 50.1431C153.303 49.9168 153.292 49.6781 153.206 49.427C153.119 49.1758 152.981 48.9837 152.792 48.8506C152.606 48.7108 152.372 48.6375 152.088 48.6305C151.803 48.6186 151.471 48.678 151.092 48.8087L149.016 49.5242L148.654 48.426L151.247 47.5322L151.884 47.7753C152.334 47.6586 152.743 47.6388 153.112 47.7158C153.48 47.7927 153.791 47.9443 154.045 48.1707C154.298 48.3921 154.48 48.6653 154.592 48.9903C154.721 49.3645 154.763 49.719 154.719 50.0538C154.68 50.387 154.56 50.6954 154.36 50.9791C154.159 51.2578 153.886 51.5118 153.541 51.741C153.194 51.9653 152.781 52.1597 152.304 52.3244ZM155.499 46.8513L155.441 46.6814C155.242 46.1053 155.142 45.5422 155.139 44.9921C155.135 44.4371 155.228 43.923 155.417 43.45C155.605 42.9721 155.888 42.555 156.267 42.1986C156.644 41.8373 157.11 41.5608 157.667 41.369C158.228 41.1754 158.768 41.1048 159.288 41.1572C159.81 41.2029 160.293 41.3561 160.735 41.6167C161.181 41.8708 161.573 42.2176 161.912 42.6572C162.249 43.0919 162.517 43.5973 162.716 44.1734L162.774 44.3432C162.973 44.9193 163.073 45.4824 163.076 46.0325C163.078 46.5827 162.983 47.0975 162.79 47.5772C162.601 48.0502 162.317 48.4673 161.941 48.8286C161.567 49.1833 161.1 49.4573 160.538 49.6509C159.977 49.8444 159.438 49.9174 158.92 49.87C158.4 49.8177 157.918 49.6645 157.472 49.4105C157.03 49.1498 156.64 48.8021 156.303 48.3675C155.966 47.9328 155.698 47.4274 155.499 46.8513ZM156.807 46.2104L156.866 46.3802C157.003 46.7791 157.18 47.1396 157.396 47.4619C157.61 47.7792 157.857 48.0411 158.137 48.2474C158.423 48.452 158.735 48.5839 159.075 48.643C159.414 48.6972 159.772 48.6589 160.151 48.5282C160.526 48.3992 160.827 48.21 161.055 47.9606C161.286 47.7046 161.448 47.4089 161.542 47.0736C161.636 46.7382 161.669 46.3797 161.642 45.9978C161.619 45.6093 161.538 45.2157 161.401 44.8168L161.342 44.647C161.206 44.253 161.029 43.8983 160.81 43.5826C160.594 43.2603 160.343 42.9969 160.058 42.7923C159.776 42.581 159.465 42.4459 159.125 42.3868C158.79 42.326 158.433 42.3609 158.054 42.4916C157.679 42.6206 157.377 42.8131 157.145 43.0692C156.919 43.3235 156.757 43.6216 156.661 43.9636C156.567 44.2989 156.534 44.6599 156.563 45.0467C156.59 45.4286 156.671 45.8164 156.807 46.2104ZM164.976 40.7333L168.26 50.2611L166.887 50.7347L163.072 39.6706L164.328 39.2378L164.976 40.7333ZM171.185 41.2701L171.239 41.4252C171.439 42.0063 171.556 42.5692 171.589 43.114C171.621 43.654 171.567 44.1519 171.427 44.608C171.291 45.0623 171.067 45.4566 170.752 45.7909C170.438 46.1252 170.032 46.3781 169.534 46.5495C169.027 46.7244 168.55 46.7951 168.104 46.7618C167.657 46.7285 167.243 46.5985 166.862 46.3718C166.481 46.1451 166.132 45.8357 165.815 45.4437C165.503 45.0499 165.22 44.5826 164.968 44.0416L164.682 43.2144C164.538 42.6031 164.466 42.0356 164.467 41.5118C164.469 40.988 164.545 40.5154 164.697 40.0938C164.853 39.6656 165.093 39.2991 165.418 38.9944C165.741 38.6847 166.153 38.4433 166.655 38.2702C167.158 38.097 167.637 38.0419 168.094 38.1047C168.549 38.1627 168.972 38.3255 169.362 38.5933C169.751 38.8611 170.099 39.2232 170.405 39.6796C170.715 40.1294 170.975 40.6596 171.185 41.2701ZM169.865 41.8988L169.811 41.7437C169.674 41.3449 169.503 40.9851 169.299 40.6644C169.093 40.3387 168.855 40.0735 168.586 39.8687C168.321 39.6573 168.026 39.5219 167.703 39.4627C167.378 39.3984 167.028 39.4309 166.654 39.5599C166.309 39.6787 166.029 39.8413 165.814 40.0478C165.603 40.2525 165.444 40.4864 165.337 40.7494C165.227 41.0074 165.16 41.284 165.135 41.5791C165.113 41.8676 165.122 42.1566 165.161 42.446L165.821 44.359C166.038 44.6697 166.288 44.9472 166.571 45.1913C166.851 45.4306 167.172 45.5929 167.532 45.6781C167.89 45.7584 168.293 45.7214 168.741 45.5669C169.11 45.4396 169.402 45.2538 169.615 45.0095C169.831 44.7585 169.979 44.468 170.058 44.1377C170.142 43.8058 170.166 43.4506 170.129 43.0722C170.09 42.6888 170.002 42.2977 169.865 41.8988ZM177.6 34.6622L180.356 42.6537L178.989 43.1248L176.234 35.1332L177.6 34.6622ZM178.401 38.4934L178.788 39.616C178.548 39.8145 178.299 40.0048 178.042 40.187C177.789 40.3625 177.513 40.5292 177.215 40.6871C176.92 40.8384 176.59 40.9768 176.226 41.1024C175.596 41.3197 175.012 41.3998 174.474 41.3427C173.935 41.2807 173.464 41.0714 173.06 40.7148C172.654 40.3533 172.334 39.8328 172.1 39.1533L171.295 36.8193L172.662 36.3483L173.466 38.6822C173.619 39.1254 173.809 39.4619 174.037 39.6918C174.265 39.9217 174.53 40.059 174.832 40.1037C175.132 40.1435 175.467 40.0997 175.836 39.9724C176.191 39.8501 176.516 39.7134 176.811 39.5621C177.109 39.4043 177.387 39.2367 177.646 39.0595C177.909 38.8805 178.161 38.6918 178.401 38.4934ZM185.924 40.8994C185.367 41.0912 184.83 41.1716 184.313 41.1407C183.799 41.1031 183.32 40.968 182.876 40.7354C182.437 40.5011 182.05 40.1773 181.714 39.764C181.379 39.3507 181.115 38.8634 180.921 38.302L180.814 37.9918C180.59 37.3419 180.487 36.7302 180.504 36.1568C180.519 35.5785 180.631 35.0553 180.839 34.587C181.046 34.1188 181.328 33.7214 181.684 33.3949C182.04 33.0684 182.442 32.828 182.89 32.6735C183.461 32.4766 183.987 32.4053 184.469 32.4597C184.955 32.5124 185.392 32.6701 185.78 32.933C186.167 33.1909 186.506 33.5366 186.799 33.9701C187.09 34.3987 187.332 34.8936 187.526 35.455L187.737 36.068L181.769 38.1254L181.385 37.0101L185.986 35.4238L185.951 35.3204C185.809 34.9726 185.616 34.6534 185.373 34.3627C185.134 34.0703 184.842 33.8625 184.497 33.7392C184.151 33.6159 183.744 33.6349 183.277 33.7962C182.966 33.9031 182.704 34.068 182.489 34.2909C182.272 34.5089 182.114 34.7782 182.015 35.0988C181.916 35.4193 181.879 35.7821 181.903 36.187C181.927 36.5919 182.022 37.0357 182.188 37.5182L182.295 37.8284C182.426 38.2076 182.601 38.5467 182.819 38.8459C183.041 39.1385 183.297 39.3755 183.585 39.557C183.878 39.7369 184.195 39.8481 184.535 39.8908C184.879 39.9317 185.239 39.8877 185.613 39.7587C186.096 39.5923 186.47 39.3529 186.737 39.0405C187.004 38.7281 187.206 38.3637 187.344 37.9472L188.398 38.3194C188.315 38.6398 188.182 38.964 187.997 39.292C187.813 39.62 187.552 39.9249 187.214 40.2068C186.881 40.4869 186.451 40.7178 185.924 40.8994ZM193.44 37.0522C193.765 36.9402 194.042 36.7702 194.272 36.5422C194.502 36.3142 194.666 36.0539 194.763 35.7614C194.859 35.4639 194.867 35.1607 194.788 34.8519L196.088 34.4038C196.227 34.8849 196.219 35.3808 196.064 35.8913C195.913 36.3953 195.644 36.8543 195.258 37.2683C194.87 37.6775 194.393 37.9797 193.827 38.1749C193.226 38.382 192.665 38.4569 192.144 38.3997C191.628 38.3407 191.158 38.1775 190.736 37.9101C190.318 37.6409 189.953 37.293 189.64 36.8663C189.331 36.433 189.084 35.948 188.899 35.4112L188.792 35.101C188.607 34.5643 188.504 34.0326 188.482 33.5057C188.463 32.9722 188.535 32.4708 188.699 32.0013C188.867 31.5302 189.136 31.1123 189.506 30.7478C189.881 30.3816 190.369 30.095 190.97 29.8879C191.595 29.6723 192.186 29.6119 192.742 29.7067C193.296 29.7966 193.782 30.0148 194.199 30.3613C194.619 30.7013 194.937 31.1427 195.151 31.6857L193.851 32.1339C193.713 31.8125 193.517 31.5468 193.263 31.3369C193.013 31.1254 192.724 30.9883 192.394 30.9258C192.067 30.8567 191.721 30.8849 191.357 31.0106C190.938 31.1548 190.615 31.3599 190.387 31.6258C190.163 31.885 190.015 32.1839 189.944 32.5222C189.877 32.854 189.865 33.2025 189.908 33.5677C189.954 33.9263 190.038 34.2804 190.159 34.63L190.265 34.9402C190.386 35.2898 190.539 35.6226 190.725 35.9386C190.911 36.2546 191.133 36.5224 191.391 36.7421C191.653 36.9602 191.954 37.1045 192.292 37.1752C192.634 37.2392 193.016 37.1982 193.44 37.0522ZM198.997 27.2857L201.753 35.2772L200.379 35.7508L197.624 27.7593L198.997 27.2857ZM201.679 26.3614L202.061 27.4693L195.376 29.7736L194.994 28.6657L201.679 26.3614ZM208.318 29.0803L205.696 29.9842L205.304 28.8962L207.446 28.1578C207.87 28.0118 208.207 27.8486 208.459 27.6681C208.716 27.486 208.887 27.2866 208.972 27.0699C209.057 26.8533 209.057 26.6219 208.972 26.3757C208.906 26.1836 208.806 26.0307 208.673 25.9167C208.544 25.7962 208.381 25.7171 208.187 25.6796C207.99 25.6371 207.764 25.6353 207.507 25.6742C207.254 25.7064 206.967 25.7777 206.647 25.888L204.897 26.4915L207.27 33.3752L205.903 33.8462L203.148 25.8547L206.265 24.7802C206.772 24.6053 207.243 24.4926 207.677 24.442C208.117 24.3898 208.511 24.4055 208.859 24.4892C209.211 24.5664 209.51 24.7165 209.758 24.9396C210.006 25.1627 210.194 25.4614 210.323 25.8356C210.406 26.0769 210.436 26.3228 210.412 26.5734C210.388 26.824 210.309 27.0661 210.175 27.2997C210.041 27.5334 209.852 27.7527 209.608 27.9578C209.363 28.158 209.064 28.3356 208.71 28.4908L208.318 29.0803ZM209.53 32.596L206.413 33.6705L206.711 32.3284L209.148 31.4881C209.527 31.3574 209.826 31.202 210.045 31.0219C210.262 30.8368 210.402 30.6345 210.464 30.4148C210.529 30.1884 210.518 29.9497 210.432 29.6986C210.345 29.4475 210.207 29.2553 210.018 29.1222C209.832 28.9825 209.598 28.9091 209.314 28.9021C209.029 28.8902 208.697 28.9496 208.318 29.0803L206.242 29.7958L205.88 28.6976L208.473 27.8039L209.11 28.0469C209.56 27.9303 209.969 27.9104 210.338 27.9874C210.706 28.0643 211.017 28.216 211.271 28.4423C211.524 28.6637 211.706 28.9369 211.818 29.2619C211.947 29.6361 211.99 29.9907 211.945 30.3255C211.906 30.6586 211.786 30.967 211.587 31.2507C211.385 31.5295 211.112 31.7835 210.767 32.0126C210.42 32.2369 210.008 32.4314 209.53 32.596ZM212.725 27.1229L212.667 26.9531C212.468 26.3769 212.368 25.8138 212.365 25.2637C212.361 24.7087 212.454 24.1947 212.644 23.7217C212.831 23.2437 213.114 22.8266 213.493 22.4702C213.87 22.109 214.336 21.8324 214.893 21.6406C215.454 21.4471 215.994 21.3765 216.514 21.4288C217.036 21.4745 217.519 21.6277 217.961 21.8884C218.407 22.1424 218.799 22.4892 219.138 22.9288C219.475 23.3635 219.743 23.8689 219.942 24.445L220 24.6149C220.199 25.191 220.299 25.7541 220.302 26.3042C220.304 26.8543 220.209 27.3692 220.016 27.8488C219.827 28.3218 219.544 28.739 219.167 29.1002C218.793 29.4549 218.326 29.729 217.764 29.9225C217.203 30.116 216.664 30.1891 216.146 30.1417C215.627 30.0893 215.144 29.9361 214.698 29.6821C214.256 29.4214 213.866 29.0738 213.529 28.6391C213.192 28.2044 212.924 27.699 212.725 27.1229ZM214.033 26.482L214.092 26.6519C214.229 27.0507 214.406 27.4113 214.622 27.7335C214.836 28.0509 215.083 28.3127 215.363 28.519C215.649 28.7236 215.961 28.8555 216.301 28.9146C216.64 28.9688 216.998 28.9305 217.377 28.7998C217.752 28.6708 218.053 28.4816 218.281 28.2322C218.512 27.9762 218.675 27.6805 218.768 27.3452C218.862 27.0099 218.895 26.6513 218.868 26.2694C218.845 25.881 218.764 25.4873 218.627 25.0885L218.568 24.9186C218.432 24.5247 218.255 24.1699 218.036 23.8542C217.82 23.532 217.57 23.2685 217.284 23.0639C217.002 22.8527 216.691 22.7175 216.351 22.6584C216.016 22.5976 215.659 22.6325 215.28 22.7632C214.906 22.8923 214.603 23.0848 214.372 23.3408C214.145 23.5951 213.984 23.8933 213.887 24.2352C213.793 24.5705 213.76 24.9316 213.789 25.3183C213.816 25.7002 213.897 26.0881 214.033 26.482Z" fill="#A43FD4"/>
<path d="M413.178 384.11L411.793 385.386C411.31 385.831 410.788 386.16 410.227 386.373C409.665 386.593 409.093 386.695 408.511 386.679C407.926 386.666 407.356 386.532 406.803 386.277C406.253 386.026 405.748 385.651 405.29 385.154C404.831 384.656 404.497 384.12 404.288 383.548C404.079 382.975 403.991 382.395 404.022 381.807C404.053 381.225 404.2 380.662 404.462 380.116C404.723 379.578 405.095 379.086 405.578 378.641L406.962 377.365C407.445 376.921 407.965 376.59 408.523 376.373C409.085 376.16 409.659 376.06 410.244 376.073C410.826 376.089 411.392 376.223 411.942 376.474C412.491 376.733 412.996 377.111 413.454 377.609C413.913 378.107 414.247 378.638 414.456 379.203C414.665 379.776 414.754 380.352 414.723 380.934C414.691 381.522 414.547 382.087 414.289 382.63C414.031 383.172 413.66 383.666 413.178 384.11ZM412.373 383.237C412.875 382.775 413.203 382.278 413.357 381.746C413.515 381.218 413.511 380.683 413.345 380.142C413.18 379.601 412.865 379.079 412.403 378.577C412.054 378.198 411.688 377.901 411.306 377.687C410.92 377.476 410.527 377.353 410.127 377.318C409.727 377.283 409.326 377.34 408.926 377.49C408.525 377.639 408.137 377.887 407.762 378.233L406.366 379.519C405.868 379.978 405.542 380.47 405.388 380.994C405.233 381.526 405.239 382.063 405.405 382.604C405.57 383.153 405.884 383.678 406.347 384.179C406.693 384.555 407.058 384.848 407.444 385.059C407.83 385.27 408.223 385.393 408.623 385.428C409.02 385.466 409.418 385.411 409.819 385.261C410.215 385.115 410.601 384.869 410.977 384.524L412.373 383.237ZM413.033 386.421L404.69 377.367L405.753 376.387L414.096 385.442L413.033 386.421ZM400.612 384.874L401.923 392.049L400.854 393.033L395.126 386.817L396.194 385.832L400.371 390.365L399.061 383.191L400.118 382.216L405.847 388.433L404.789 389.407L400.612 384.874ZM392.448 395.797L391.654 394.935L394.94 391.907L395.734 392.769L392.448 395.797ZM397.993 395.67L392.265 389.453L393.328 388.474L399.056 394.69L397.993 395.67ZM394.069 399.286L388.341 393.069L389.409 392.085L395.137 398.301L394.069 399.286ZM383.942 399.087L386.891 402.288C387.117 402.533 387.363 402.699 387.628 402.788C387.893 402.883 388.17 402.891 388.457 402.81C388.744 402.73 389.031 402.557 389.318 402.293C389.586 402.046 389.78 401.783 389.898 401.504C390.012 401.228 390.058 400.963 390.035 400.708C390.009 400.456 389.916 400.244 389.757 400.072L390.82 399.092C391.025 399.314 391.17 399.587 391.257 399.912C391.343 400.236 391.36 400.585 391.308 400.959C391.255 401.34 391.126 401.722 390.918 402.104C390.711 402.493 390.419 402.861 390.044 403.207C389.592 403.624 389.123 403.914 388.637 404.078C388.147 404.246 387.662 404.265 387.181 404.135C386.699 404.012 386.245 403.719 385.818 403.255L383.15 400.36C382.959 400.153 382.739 399.949 382.489 399.747C382.236 399.548 381.995 399.399 381.767 399.297L381.682 399.205L382.791 398.183C382.957 398.257 383.149 398.381 383.367 398.555C383.588 398.734 383.78 398.911 383.942 399.087ZM386.252 401.963L385.552 401.227L386.627 400.237C386.929 399.958 387.176 399.684 387.368 399.415C387.563 399.151 387.697 398.896 387.77 398.652C387.842 398.408 387.854 398.175 387.804 397.952C387.758 397.732 387.646 397.527 387.47 397.335C387.29 397.14 387.082 397.002 386.845 396.923C386.609 396.843 386.358 396.836 386.094 396.903C385.829 396.977 385.567 397.134 385.306 397.374C384.981 397.674 384.757 398.008 384.635 398.375C384.513 398.742 384.471 399.092 384.509 399.426C384.543 399.763 384.641 400.03 384.803 400.228L383.878 400.135C383.756 399.95 383.665 399.705 383.604 399.4C383.542 399.095 383.528 398.761 383.562 398.397C383.595 398.041 383.692 397.678 383.855 397.309C384.017 396.947 384.267 396.611 384.604 396.3C385.025 395.912 385.471 395.654 385.94 395.526C386.406 395.401 386.854 395.395 387.284 395.509C387.714 395.629 388.088 395.862 388.406 396.207C388.713 396.54 388.918 396.893 389.021 397.266C389.127 397.643 389.135 398.028 389.045 398.422C388.959 398.821 388.784 399.223 388.52 399.628C388.257 400.034 387.913 400.433 387.487 400.825L386.252 401.963ZM379.257 407.952L378.462 407.09L381.749 404.062L382.543 404.924L379.257 407.952ZM384.802 407.825L379.074 401.609L380.136 400.629L385.865 406.846L384.802 407.825ZM380.878 411.441L375.15 405.225L376.218 404.24L381.946 410.456L380.878 411.441ZM371.649 409.853C371.396 410.086 371.21 410.353 371.091 410.654C370.971 410.955 370.926 411.259 370.954 411.566C370.985 411.877 371.099 412.158 371.295 412.409L370.284 413.341C369.964 412.956 369.773 412.498 369.71 411.969C369.647 411.446 369.709 410.918 369.896 410.384C370.088 409.854 370.403 409.385 370.844 408.98C371.311 408.549 371.795 408.255 372.295 408.099C372.792 407.946 373.287 407.907 373.782 407.983C374.272 408.062 374.746 408.234 375.204 408.5C375.661 408.773 376.081 409.118 376.466 409.536L376.689 409.777C377.073 410.194 377.381 410.64 377.612 411.114C377.843 411.595 377.978 412.084 378.017 412.579C378.052 413.078 377.973 413.569 377.78 414.051C377.583 414.537 377.251 414.995 376.784 415.426C376.297 415.874 375.781 416.166 375.233 416.302C374.689 416.442 374.157 416.437 373.636 416.287C373.115 416.144 372.647 415.867 372.232 415.455L373.244 414.524C373.499 414.763 373.785 414.927 374.102 415.018C374.416 415.112 374.736 415.121 375.063 415.046C375.39 414.978 375.696 414.814 375.979 414.553C376.305 414.253 376.519 413.935 376.621 413.6C376.723 413.273 376.738 412.94 376.667 412.601C376.596 412.27 376.467 411.946 376.281 411.629C376.095 411.319 375.876 411.028 375.626 410.756L375.403 410.515C375.153 410.243 374.879 410 374.582 409.785C374.285 409.57 373.974 409.413 373.65 409.315C373.322 409.221 372.989 409.209 372.651 409.28C372.312 409.358 371.978 409.549 371.649 409.853ZM370.164 417.361L368.297 419.082C367.795 419.544 367.291 419.846 366.784 419.988C366.28 420.133 365.799 420.133 365.341 419.989C364.882 419.853 364.474 419.591 364.118 419.204C363.853 418.917 363.654 418.601 363.52 418.256C363.391 417.916 363.339 417.56 363.365 417.188C363.387 416.821 363.495 416.449 363.687 416.074C363.879 415.706 364.163 415.349 364.538 415.003L367.181 412.567L372.909 418.784L371.846 419.763L366.923 414.42L365.343 415.876C365.036 416.158 364.842 416.44 364.761 416.72C364.679 417.001 364.68 417.266 364.762 417.516C364.843 417.767 364.973 417.988 365.149 418.179C365.322 418.367 365.532 418.514 365.778 418.62C366.024 418.725 366.294 418.753 366.587 418.702C366.884 418.656 367.186 418.491 367.492 418.209L369.359 416.488L370.164 417.361ZM365.733 425.396L360.005 419.18L361.068 418.2L366.796 424.417L365.733 425.396Z" fill="#A43FD4"/>
<path d="M297.029 20.4384L292.675 30.9472L291.282 30.3702L295.636 19.8614L297.029 20.4384ZM303.503 23.1204L296.546 27.012L294.078 25.9895L294.34 24.745L296.195 25.5134L301.778 22.4058L303.503 23.1204ZM297.749 33.0491L295.834 26.5057L297.119 25.6088L299.452 33.7547L297.749 33.0491ZM304.289 28.3675L300.431 37.6781L299.089 37.122L303.568 26.3101L304.795 26.8184L304.289 28.3675ZM308.582 32.8856L308.519 33.0372C308.284 33.605 307.998 34.1039 307.662 34.5341C307.328 34.9595 306.957 35.2964 306.55 35.5448C306.147 35.7952 305.717 35.9413 305.26 35.9831C304.803 36.025 304.332 35.9452 303.846 35.7439C303.35 35.5386 302.946 35.2754 302.634 34.9543C302.321 34.6332 302.098 34.2615 301.963 33.8391C301.828 33.4167 301.771 32.9537 301.794 32.4501C301.821 31.9484 301.92 31.4114 302.089 30.8389L302.424 30.0305C302.721 29.4771 303.044 29.0047 303.392 28.6133C303.74 28.222 304.111 27.9189 304.504 27.7042C304.905 27.4866 305.327 27.3714 305.772 27.3584C306.219 27.3407 306.688 27.4335 307.179 27.6368C307.67 27.8401 308.066 28.1167 308.366 28.4667C308.668 28.8118 308.877 29.2138 308.991 29.6727C309.105 30.1316 309.126 30.6333 309.052 31.178C308.986 31.7197 308.829 32.289 308.582 32.8856ZM307.176 32.4811L307.239 32.3295C307.401 31.9398 307.511 31.5571 307.571 31.1816C307.633 30.8013 307.631 30.4453 307.565 30.1137C307.506 29.7793 307.376 29.4827 307.173 29.2239C306.972 28.9603 306.689 28.7528 306.323 28.6013C305.986 28.4617 305.669 28.3979 305.371 28.4097C305.077 28.4236 304.803 28.4932 304.548 28.6188C304.295 28.7395 304.062 28.902 303.847 29.1064C303.64 29.3079 303.455 29.53 303.292 29.7728L302.518 31.6421C302.474 32.0188 302.478 32.3922 302.527 32.7623C302.579 33.1275 302.711 33.4614 302.924 33.7638C303.139 34.0615 303.465 34.301 303.903 34.4824C304.264 34.6319 304.605 34.6858 304.927 34.6443C305.256 34.6 305.559 34.4804 305.837 34.2855C306.12 34.0926 306.373 33.8423 306.596 33.5345C306.822 33.222 307.015 32.8708 307.176 32.4811ZM313.799 38.1332L315.464 34.113C315.592 33.8051 315.64 33.5121 315.608 33.2341C315.584 32.9533 315.475 32.6996 315.281 32.4728C315.088 32.246 314.81 32.0579 314.449 31.9084C314.113 31.7689 313.793 31.704 313.49 31.7139C313.192 31.7257 312.932 31.7956 312.71 31.9234C312.492 32.0533 312.339 32.2265 312.249 32.443L310.914 31.8899C311.029 31.6108 311.216 31.364 311.474 31.1495C311.732 30.9351 312.042 30.773 312.403 30.6633C312.771 30.5507 313.172 30.5082 313.606 30.5358C314.047 30.5605 314.503 30.6706 314.974 30.8659C315.542 31.1011 316.003 31.4046 316.356 31.7765C316.714 32.1504 316.935 32.583 317.019 33.0744C317.11 33.563 317.035 34.0984 316.793 34.6806L315.286 38.3183C315.179 38.5781 315.086 38.8637 315.007 39.1752C314.934 39.4886 314.899 39.7701 314.903 40.0197L314.855 40.1352L313.462 39.5582C313.458 39.3763 313.49 39.1499 313.557 38.8789C313.626 38.6031 313.707 38.3546 313.799 38.1332ZM315.438 34.8294L315.064 35.7737L313.714 35.2146C313.334 35.0571 312.982 34.9479 312.657 34.8868C312.335 34.821 312.048 34.8063 311.796 34.8429C311.544 34.8795 311.327 34.9673 311.146 35.1063C310.966 35.2405 310.826 35.4278 310.727 35.6684C310.625 35.9138 310.588 36.1605 310.615 36.4084C310.642 36.6564 310.741 36.8863 310.912 37.0983C311.091 37.3075 311.343 37.4798 311.671 37.6154C312.08 37.7848 312.476 37.8477 312.861 37.804C313.245 37.7604 313.581 37.6513 313.868 37.4768C314.159 37.3044 314.361 37.1032 314.473 36.8734L314.777 37.752C314.659 37.9401 314.475 38.126 314.224 38.3096C313.974 38.4932 313.676 38.6463 313.332 38.7688C312.995 38.8885 312.625 38.9521 312.221 38.9598C311.825 38.9646 311.415 38.8793 310.991 38.7039C310.462 38.4846 310.041 38.1888 309.727 37.8165C309.418 37.4461 309.225 37.0419 309.147 36.6037C309.076 36.1628 309.13 35.7258 309.31 35.2927C309.483 34.8741 309.717 34.5399 310.012 34.2901C310.31 34.0355 310.656 33.8661 311.052 33.782C311.449 33.693 311.888 33.6829 312.367 33.7516C312.845 33.8203 313.352 33.9653 313.886 34.1866L315.438 34.8294ZM320.201 41.2336C320.519 41.3651 320.839 41.4218 321.162 41.4035C321.486 41.3852 321.781 41.2988 322.048 41.1444C322.316 40.9852 322.524 40.7639 322.669 40.4803L323.94 41.0065C323.724 41.4585 323.39 41.8244 322.935 42.1041C322.488 42.3811 321.982 42.5466 321.419 42.6006C320.857 42.6499 320.3 42.5599 319.746 42.3306C319.159 42.0875 318.69 41.7717 318.338 41.3834C317.99 40.9971 317.747 40.5638 317.608 40.0833C317.473 39.6048 317.431 39.1023 317.48 38.5758C317.536 38.0464 317.672 37.5195 317.889 36.995L318.015 36.6919C318.232 36.1674 318.507 35.7007 318.84 35.2918C319.18 34.88 319.567 34.5525 320 34.3092C320.438 34.0679 320.917 33.9335 321.436 33.906C321.959 33.8805 322.514 33.9894 323.102 34.2325C323.713 34.4857 324.195 34.832 324.548 35.2716C324.904 35.7064 325.123 36.1917 325.205 36.7276C325.294 37.2606 325.239 37.8016 325.04 38.3505L323.77 37.8242C323.879 37.4919 323.909 37.1629 323.857 36.8373C323.811 36.5137 323.685 36.2191 323.479 35.9535C323.281 35.6851 323.003 35.4771 322.647 35.3296C322.238 35.1602 321.86 35.0995 321.513 35.1474C321.173 35.1926 320.864 35.3184 320.587 35.5249C320.317 35.7286 320.077 35.9815 319.867 36.2836C319.664 36.5829 319.492 36.9034 319.35 37.245L319.225 37.5481C319.083 37.8898 318.977 38.2405 318.907 38.6005C318.837 38.9604 318.825 39.308 318.873 39.6432C318.925 39.9804 319.054 40.2876 319.26 40.5648C319.474 40.8392 319.787 41.0622 320.201 41.2336ZM325.647 40.1322L325.715 39.9662C325.949 39.4033 326.247 38.9151 326.61 38.5017C326.975 38.0835 327.385 37.7601 327.84 37.5316C328.298 37.2983 328.786 37.1737 329.306 37.1578C329.827 37.1371 330.36 37.2394 330.904 37.4646C331.452 37.6919 331.904 37.9972 332.258 38.3807C332.619 38.7614 332.879 39.1959 333.037 39.6844C333.202 40.17 333.266 40.6897 333.228 41.2434C333.193 41.7924 333.058 42.3483 332.825 42.9113L332.756 43.0773C332.523 43.6403 332.225 44.1285 331.862 44.5419C331.499 44.9553 331.086 45.2776 330.624 45.5089C330.168 45.7374 329.68 45.862 329.158 45.8827C328.643 45.9006 328.112 45.7959 327.563 45.5687C327.015 45.3415 326.562 45.0385 326.206 44.6599C325.852 44.2764 325.592 43.8418 325.427 43.3562C325.269 42.8678 325.207 42.3491 325.243 41.8001C325.279 41.2512 325.413 40.6952 325.647 40.1322ZM327.051 40.5194L326.982 40.6854C326.82 41.0751 326.714 41.4622 326.661 41.8465C326.611 42.226 326.623 42.5859 326.696 42.9263C326.774 43.2687 326.921 43.5747 327.136 43.8443C327.353 44.109 327.647 44.3182 328.018 44.4716C328.383 44.6231 328.734 44.6811 329.07 44.6456C329.413 44.6072 329.731 44.4936 330.023 44.3047C330.316 44.1158 330.579 43.8694 330.812 43.5657C331.051 43.2591 331.252 42.9109 331.414 42.5212L331.482 42.3552C331.642 41.9702 331.744 41.587 331.789 41.2055C331.842 40.8212 331.829 40.4579 331.751 40.1155C331.679 39.7703 331.536 39.4629 331.321 39.1933C331.11 38.9257 330.82 38.7152 330.449 38.5617C330.084 38.4102 329.729 38.3536 329.387 38.392C329.048 38.4324 328.73 38.5484 328.43 38.7401C328.138 38.929 327.874 39.1778 327.639 39.4863C327.406 39.7901 327.21 40.1344 327.051 40.5194ZM339.108 41.0324L335.873 48.8418L334.53 48.2857L337.766 40.4763L339.108 41.0324ZM341.728 42.1178L341.28 43.2004L334.748 40.4945L335.196 39.4119L341.728 42.1178ZM344.849 50.9958L346.515 46.9756C346.642 46.6677 346.69 46.3747 346.659 46.0967C346.634 45.8159 346.525 45.5622 346.332 45.3354C346.138 45.1086 345.861 44.9205 345.5 44.771C345.163 44.6315 344.843 44.5666 344.541 44.5765C344.242 44.5883 343.982 44.6582 343.76 44.786C343.543 44.9159 343.39 45.0891 343.3 45.3056L341.965 44.7524C342.08 44.4734 342.267 44.2266 342.525 44.0121C342.783 43.7977 343.092 43.6356 343.454 43.5258C343.822 43.4133 344.223 43.3708 344.657 43.3984C345.097 43.4231 345.553 43.5331 346.025 43.7285C346.593 43.9637 347.053 44.2672 347.407 44.6391C347.765 45.0129 347.986 45.4456 348.07 45.937C348.161 46.4256 348.085 46.961 347.844 47.5432L346.337 51.1808C346.229 51.4407 346.136 51.7263 346.058 52.0378C345.985 52.3512 345.95 52.6327 345.953 52.8823L345.906 52.9978L344.513 52.4208C344.509 52.2389 344.541 52.0124 344.608 51.7415C344.677 51.4657 344.757 51.2171 344.849 50.9958ZM346.489 47.692L346.114 48.6363L344.765 48.0772C344.384 47.9197 344.032 47.8104 343.708 47.7494C343.386 47.6836 343.099 47.6689 342.847 47.7055C342.595 47.7421 342.378 47.8299 342.196 47.9689C342.017 48.103 341.877 48.2904 341.777 48.531C341.676 48.7764 341.638 49.0231 341.665 49.271C341.692 49.519 341.792 49.7489 341.963 49.9609C342.141 50.1701 342.394 50.3424 342.721 50.478C343.13 50.6474 343.527 50.7103 343.912 50.6666C344.296 50.623 344.632 50.5139 344.918 50.3394C345.209 50.167 345.411 49.9658 345.523 49.736L345.827 50.6146C345.71 50.8027 345.526 50.9886 345.275 51.1722C345.024 51.3558 344.727 51.5089 344.383 51.6314C344.046 51.7511 343.676 51.8147 343.272 51.8224C342.875 51.8272 342.465 51.7419 342.042 51.5665C341.513 51.3472 341.091 51.0514 340.778 50.6791C340.469 50.3087 340.275 49.9045 340.198 49.4663C340.127 49.0254 340.181 48.5884 340.36 48.1553C340.534 47.7367 340.768 47.4025 341.063 47.1527C341.36 46.8981 341.707 46.7287 342.102 46.6446C342.5 46.5556 342.938 46.5455 343.417 46.6142C343.896 46.6829 344.403 46.8279 344.937 47.0492L346.489 47.692Z" fill="#A43FD4"/>
<path d="M447.741 103.254L437.473 108.15L436.824 106.789L447.091 101.893L447.741 103.254ZM450.757 109.579L442.983 107.816L441.833 105.405L442.861 104.655L443.725 106.467L449.953 107.894L450.757 109.579ZM439.837 113.107L442.793 106.964L444.348 107.157L440.631 114.772L439.837 113.107ZM444.576 119.685L448.504 117.812C448.804 117.668 449.036 117.483 449.199 117.255C449.368 117.03 449.457 116.769 449.465 116.471C449.473 116.172 449.393 115.847 449.225 115.495C449.068 115.166 448.873 114.903 448.642 114.708C448.412 114.517 448.172 114.395 447.922 114.342C447.673 114.293 447.443 114.319 447.232 114.42L446.61 113.115C446.882 112.985 447.186 112.927 447.522 112.94C447.857 112.953 448.195 113.04 448.537 113.2C448.886 113.363 449.212 113.599 449.516 113.91C449.827 114.223 450.093 114.61 450.312 115.071C450.577 115.626 450.716 116.16 450.73 116.672C450.746 117.19 450.621 117.659 450.354 118.081C450.095 118.504 449.68 118.852 449.112 119.123L445.558 120.818C445.304 120.939 445.043 121.089 444.777 121.268C444.513 121.452 444.298 121.638 444.134 121.826L444.021 121.88L443.372 120.519C443.491 120.381 443.666 120.234 443.897 120.078C444.133 119.919 444.359 119.788 444.576 119.685ZM448.005 118.327L447.095 118.778L446.466 117.459C446.289 117.088 446.1 116.771 445.9 116.509C445.705 116.244 445.501 116.041 445.289 115.9C445.078 115.758 444.858 115.679 444.63 115.66C444.407 115.64 444.177 115.686 443.942 115.798C443.703 115.912 443.51 116.07 443.364 116.273C443.218 116.475 443.138 116.712 443.123 116.985C443.116 117.259 443.188 117.557 443.341 117.876C443.532 118.276 443.784 118.588 444.099 118.813C444.414 119.038 444.737 119.181 445.066 119.243C445.398 119.31 445.683 119.296 445.92 119.2L445.558 120.056C445.345 120.117 445.083 120.132 444.774 120.101C444.465 120.07 444.141 119.984 443.804 119.845C443.473 119.709 443.156 119.508 442.851 119.244C442.553 118.982 442.305 118.644 442.108 118.231C441.861 117.713 441.746 117.212 441.762 116.725C441.78 116.243 441.907 115.813 442.142 115.436C442.385 115.061 442.717 114.772 443.14 114.57C443.549 114.375 443.947 114.284 444.334 114.296C444.725 114.305 445.096 114.411 445.446 114.613C445.801 114.813 446.134 115.099 446.444 115.471C446.753 115.842 447.033 116.289 447.282 116.811L448.005 118.327ZM451.657 122.029L442.561 126.367L441.935 125.055L452.499 120.018L453.07 121.217L451.657 122.029ZM451.824 128.259L451.676 128.33C451.122 128.594 450.575 128.774 450.038 128.869C449.505 128.961 449.004 128.964 448.535 128.876C448.068 128.792 447.651 128.613 447.283 128.339C446.916 128.064 446.619 127.689 446.392 127.214C446.161 126.73 446.037 126.264 446.02 125.817C446.003 125.369 446.085 124.943 446.267 124.539C446.45 124.134 446.718 123.753 447.072 123.394C447.428 123.039 447.86 122.706 448.369 122.394L449.159 122.017C449.75 121.805 450.306 121.67 450.826 121.612C451.347 121.554 451.825 121.577 452.261 121.68C452.704 121.787 453.096 121.984 453.435 122.272C453.779 122.558 454.066 122.941 454.294 123.42C454.523 123.9 454.632 124.37 454.621 124.831C454.615 125.29 454.501 125.728 454.278 126.146C454.056 126.563 453.736 126.95 453.317 127.305C452.905 127.663 452.407 127.981 451.824 128.259ZM451.051 127.018L451.199 126.948C451.58 126.766 451.918 126.556 452.213 126.317C452.514 126.075 452.751 125.809 452.924 125.519C453.104 125.231 453.205 124.923 453.228 124.595C453.255 124.265 453.183 123.921 453.013 123.564C452.856 123.235 452.663 122.975 452.433 122.784C452.206 122.598 451.956 122.467 451.682 122.389C451.413 122.31 451.131 122.274 450.835 122.283C450.546 122.294 450.26 122.335 449.976 122.407L448.15 123.278C447.866 123.528 447.618 123.808 447.408 124.116C447.202 124.422 447.076 124.759 447.032 125.126C446.993 125.491 447.075 125.888 447.279 126.315C447.447 126.668 447.665 126.936 447.932 127.121C448.205 127.308 448.511 127.422 448.848 127.463C449.187 127.509 449.543 127.492 449.915 127.413C450.291 127.331 450.67 127.2 451.051 127.018ZM454.257 130.457L455.35 132.749C455.644 133.365 455.784 133.936 455.769 134.462C455.76 134.986 455.618 135.446 455.345 135.841C455.079 136.239 454.709 136.552 454.234 136.778C453.881 136.946 453.521 137.043 453.152 137.069C452.788 137.092 452.433 137.037 452.086 136.902C451.741 136.772 451.418 136.56 451.116 136.266C450.821 135.974 450.563 135.597 450.344 135.136L448.797 131.893L456.427 128.254L457.049 129.559L450.491 132.686L451.416 134.625C451.595 135.001 451.807 135.27 452.051 135.43C452.295 135.591 452.548 135.669 452.812 135.665C453.075 135.66 453.324 135.602 453.559 135.49C453.789 135.38 453.992 135.223 454.165 135.019C454.339 134.815 454.445 134.565 454.483 134.27C454.526 133.973 454.458 133.636 454.279 133.26L453.186 130.968L454.257 130.457ZM453.848 142.848C453.595 142.316 453.454 141.792 453.427 141.274C453.406 140.759 453.486 140.268 453.667 139.801C453.851 139.338 454.129 138.917 454.502 138.537C454.875 138.158 455.329 137.84 455.865 137.584L456.161 137.443C456.782 137.147 457.378 136.975 457.949 136.928C458.526 136.878 459.058 136.93 459.547 137.083C460.036 137.237 460.462 137.472 460.827 137.789C461.191 138.105 461.476 138.478 461.68 138.905C461.94 139.451 462.07 139.966 462.07 140.45C462.073 140.94 461.965 141.392 461.748 141.807C461.535 142.22 461.23 142.596 460.832 142.936C460.439 143.274 459.975 143.57 459.439 143.826L458.854 144.105L456.136 138.407L457.201 137.899L459.296 142.292L459.395 142.245C459.724 142.065 460.02 141.838 460.281 141.563C460.545 141.293 460.718 140.979 460.802 140.622C460.886 140.265 460.821 139.863 460.608 139.417C460.467 139.12 460.273 138.878 460.027 138.689C459.786 138.499 459.501 138.372 459.171 138.31C458.842 138.248 458.477 138.252 458.077 138.321C457.678 138.39 457.247 138.535 456.787 138.755L456.49 138.896C456.128 139.069 455.811 139.28 455.539 139.532C455.273 139.785 455.066 140.066 454.918 140.373C454.773 140.684 454.698 141.012 454.694 141.354C454.692 141.701 454.776 142.053 454.947 142.41C455.166 142.871 455.447 143.216 455.787 143.446C456.128 143.676 456.513 143.836 456.942 143.926L456.691 145.015C456.363 144.969 456.026 144.873 455.679 144.727C455.333 144.581 455 144.355 454.682 144.051C454.366 143.752 454.088 143.351 453.848 142.848ZM462.917 145.638L453.82 149.976L453.195 148.664L463.758 143.627L464.33 144.826L462.917 145.638ZM463.084 151.868L462.936 151.939C462.381 152.203 461.835 152.383 461.297 152.478C460.764 152.57 460.264 152.572 459.795 152.484C459.328 152.401 458.911 152.222 458.543 151.947C458.175 151.673 457.878 151.298 457.652 150.823C457.421 150.339 457.297 149.873 457.28 149.425C457.262 148.978 457.345 148.552 457.527 148.147C457.709 147.743 457.977 147.361 458.331 147.002C458.687 146.648 459.12 146.315 459.629 146.003L460.419 145.626C461.01 145.413 461.566 145.278 462.086 145.22C462.607 145.163 463.085 145.185 463.521 145.289C463.964 145.395 464.355 145.592 464.695 145.881C465.039 146.167 465.325 146.549 465.554 147.029C465.783 147.508 465.892 147.979 465.881 148.44C465.874 148.899 465.76 149.337 465.538 149.754C465.316 150.172 464.995 150.558 464.576 150.914C464.164 151.272 463.667 151.59 463.084 151.868ZM462.31 150.627L462.458 150.556C462.839 150.375 463.177 150.164 463.473 149.925C463.773 149.684 464.01 149.418 464.183 149.128C464.363 148.84 464.465 148.532 464.487 148.204C464.514 147.874 464.443 147.53 464.272 147.173C464.115 146.844 463.922 146.584 463.693 146.393C463.466 146.207 463.215 146.076 462.942 145.998C462.673 145.919 462.391 145.883 462.095 145.892C461.805 145.902 461.519 145.944 461.236 146.015L459.41 146.886C459.125 147.137 458.878 147.417 458.667 147.725C458.461 148.031 458.336 148.368 458.292 148.735C458.253 149.1 458.335 149.496 458.539 149.924C458.707 150.277 458.924 150.545 459.191 150.729C459.465 150.916 459.77 151.03 460.107 151.072C460.447 151.117 460.802 151.101 461.174 151.022C461.551 150.94 461.93 150.809 462.31 150.627ZM463.449 159.258L467.377 157.385C467.678 157.242 467.91 157.056 468.073 156.829C468.242 156.604 468.331 156.342 468.339 156.044C468.347 155.746 468.267 155.421 468.098 155.068C467.941 154.739 467.747 154.477 467.515 154.281C467.286 154.091 467.046 153.969 466.795 153.915C466.547 153.866 466.317 153.892 466.106 153.993L465.483 152.688C465.756 152.558 466.06 152.5 466.395 152.513C466.73 152.527 467.069 152.613 467.411 152.773C467.76 152.936 468.086 153.173 468.39 153.484C468.701 153.797 468.966 154.184 469.186 154.645C469.451 155.199 469.59 155.733 469.604 156.246C469.62 156.763 469.494 157.233 469.228 157.654C468.968 158.078 468.554 158.425 467.985 158.697L464.431 160.391C464.177 160.512 463.917 160.663 463.651 160.842C463.386 161.025 463.172 161.211 463.008 161.399L462.895 161.453L462.246 160.092C462.365 159.954 462.54 159.807 462.771 159.651C463.007 159.492 463.233 159.362 463.449 159.258ZM466.878 157.9L465.968 158.351L465.34 157.033C465.162 156.661 464.974 156.345 464.774 156.082C464.578 155.818 464.375 155.615 464.163 155.473C463.951 155.332 463.731 155.252 463.503 155.234C463.28 155.213 463.051 155.259 462.816 155.371C462.576 155.486 462.383 155.644 462.238 155.846C462.092 156.048 462.011 156.286 461.997 156.558C461.99 156.833 462.062 157.13 462.215 157.45C462.405 157.849 462.658 158.162 462.973 158.386C463.288 158.611 463.61 158.755 463.94 158.817C464.272 158.884 464.556 158.869 464.793 158.773L464.431 159.63C464.218 159.691 463.957 159.706 463.648 159.674C463.339 159.643 463.015 159.558 462.678 159.419C462.347 159.282 462.029 159.082 461.724 158.817C461.426 158.556 461.179 158.218 460.981 157.804C460.735 157.287 460.62 156.785 460.636 156.299C460.654 155.817 460.781 155.387 461.016 155.009C461.258 154.634 461.591 154.346 462.014 154.144C462.423 153.949 462.821 153.857 463.207 153.869C463.599 153.879 463.969 153.985 464.32 154.187C464.675 154.387 465.007 154.673 465.317 155.044C465.627 155.416 465.906 155.862 466.155 156.384L466.878 157.9ZM420.873 116.81L428.115 117.676L428.741 118.987L421.111 122.626L420.485 121.314L426.049 118.661L418.807 117.796L418.188 116.498L425.818 112.86L426.437 114.157L420.873 116.81ZM430.604 126.668L421.507 131.006L420.881 129.694L431.445 124.657L432.017 125.856L430.604 126.668ZM430.771 132.898L430.623 132.969C430.068 133.233 429.522 133.413 428.984 133.508C428.451 133.6 427.95 133.602 427.481 133.515C427.015 133.431 426.597 133.252 426.23 132.977C425.862 132.703 425.565 132.328 425.339 131.853C425.108 131.369 424.984 130.903 424.966 130.455C424.949 130.008 425.032 129.582 425.214 129.178C425.396 128.773 425.664 128.392 426.018 128.032C426.374 127.678 426.807 127.345 427.316 127.033L428.105 126.656C428.696 126.444 429.252 126.308 429.773 126.251C430.293 126.193 430.772 126.216 431.208 126.319C431.651 126.425 432.042 126.623 432.381 126.911C432.726 127.197 433.012 127.579 433.241 128.059C433.469 128.538 433.578 129.009 433.567 129.47C433.561 129.929 433.447 130.367 433.225 130.784C433.003 131.202 432.682 131.588 432.263 131.944C431.851 132.302 431.354 132.62 430.771 132.898ZM429.997 131.657L430.145 131.586C430.526 131.405 430.864 131.195 431.16 130.955C431.46 130.714 431.697 130.448 431.87 130.158C432.05 129.87 432.151 129.562 432.174 129.234C432.201 128.904 432.129 128.56 431.959 128.203C431.802 127.874 431.609 127.614 431.379 127.423C431.152 127.237 430.902 127.106 430.628 127.028C430.36 126.949 430.077 126.913 429.781 126.922C429.492 126.933 429.206 126.974 428.923 127.045L427.096 127.916C426.812 128.167 426.565 128.447 426.354 128.755C426.148 129.061 426.023 129.398 425.979 129.765C425.939 130.13 426.021 130.526 426.226 130.954C426.394 131.307 426.611 131.575 426.878 131.76C427.152 131.946 427.457 132.06 427.794 132.102C428.133 132.148 428.489 132.131 428.861 132.052C429.238 131.97 429.616 131.839 429.997 131.657ZM431.136 140.288L435.064 138.415C435.365 138.272 435.597 138.086 435.759 137.859C435.929 137.634 436.018 137.372 436.025 137.074C436.033 136.776 435.953 136.451 435.785 136.098C435.628 135.769 435.434 135.507 435.202 135.312C434.973 135.121 434.733 134.999 434.482 134.945C434.234 134.896 434.004 134.922 433.792 135.023L433.17 133.719C433.443 133.589 433.747 133.53 434.082 133.543C434.417 133.557 434.756 133.643 435.097 133.803C435.446 133.966 435.773 134.203 436.077 134.514C436.388 134.827 436.653 135.214 436.873 135.675C437.137 136.229 437.276 136.763 437.29 137.276C437.306 137.793 437.181 138.263 436.914 138.684C436.655 139.108 436.241 139.455 435.672 139.727L432.118 141.422C431.864 141.543 431.604 141.693 431.337 141.872C431.073 142.055 430.859 142.241 430.694 142.429L430.581 142.483L429.932 141.122C430.051 140.985 430.227 140.838 430.458 140.681C430.694 140.523 430.92 140.392 431.136 140.288ZM434.565 138.93L433.655 139.382L433.026 138.063C432.849 137.692 432.66 137.375 432.46 137.112C432.265 136.848 432.061 136.645 431.85 136.503C431.638 136.362 431.418 136.282 431.19 136.264C430.967 136.243 430.738 136.289 430.503 136.401C430.263 136.516 430.07 136.674 429.924 136.876C429.778 137.079 429.698 137.316 429.684 137.588C429.676 137.863 429.749 138.16 429.901 138.48C430.092 138.879 430.345 139.192 430.66 139.416C430.975 139.641 431.297 139.785 431.627 139.847C431.958 139.914 432.243 139.899 432.48 139.803L432.118 140.66C431.905 140.721 431.644 140.736 431.334 140.705C431.025 140.673 430.702 140.588 430.364 140.449C430.034 140.312 429.716 140.112 429.411 139.847C429.113 139.586 428.865 139.248 428.668 138.834C428.421 138.317 428.306 137.815 428.322 137.329C428.341 136.847 428.467 136.417 428.703 136.039C428.945 135.664 429.278 135.376 429.701 135.174C430.11 134.979 430.508 134.887 430.894 134.899C431.285 134.909 431.656 135.015 432.006 135.217C432.361 135.417 432.694 135.703 433.004 136.074C433.314 136.446 433.593 136.892 433.842 137.414L434.565 138.93ZM444.718 143.939L445.229 145.01C444.768 145.23 444.368 145.335 444.028 145.324C443.693 145.31 443.394 145.216 443.132 145.041C442.872 144.871 442.631 144.651 442.41 144.381C442.191 144.116 441.969 143.838 441.744 143.548C441.467 143.184 441.153 142.872 440.804 142.611C440.462 142.353 440.067 142.178 439.619 142.086C439.173 141.998 438.659 142.021 438.076 142.155C437.496 142.293 436.83 142.573 436.079 142.995L435.431 143.304L434.919 142.232L435.568 141.923C436.438 141.508 437.236 141.228 437.964 141.083C438.693 140.943 439.354 140.92 439.946 141.012C440.539 141.105 441.066 141.297 441.529 141.59C441.994 141.888 442.397 142.267 442.738 142.728C442.983 143.061 443.209 143.34 443.414 143.565C443.624 143.788 443.833 143.934 444.039 144.003C444.247 144.077 444.473 144.055 444.718 143.939ZM440.223 144.187C440.46 144.685 440.585 145.171 440.597 145.644C440.609 146.117 440.525 146.564 440.345 146.984C440.165 147.405 439.897 147.787 439.541 148.13C439.192 148.475 438.771 148.765 438.277 149.001L438.122 149.075C437.591 149.328 437.06 149.486 436.53 149.548C436.007 149.613 435.506 149.578 435.026 149.443C434.553 149.311 434.122 149.078 433.732 148.744C433.345 148.416 433.023 147.983 432.767 147.448C432.512 146.912 432.377 146.387 432.363 145.874C432.352 145.366 432.442 144.885 432.635 144.429C432.832 143.972 433.119 143.558 433.497 143.187C433.881 142.82 434.339 142.509 434.87 142.256L435.025 142.182C435.143 142.126 435.268 142.092 435.401 142.08C435.534 142.069 435.674 142.066 435.82 142.071C435.969 142.081 436.122 142.08 436.278 142.069C436.784 142.041 437.29 142.091 437.796 142.219C438.303 142.352 438.769 142.578 439.191 142.895C439.621 143.216 439.965 143.646 440.223 144.187ZM439.037 144.441C438.808 143.961 438.509 143.619 438.14 143.414C437.774 143.214 437.371 143.126 436.933 143.15C436.499 143.172 436.07 143.284 435.647 143.486L435.492 143.56C435.135 143.731 434.817 143.934 434.537 144.171C434.258 144.408 434.034 144.671 433.866 144.959C433.704 145.25 433.616 145.56 433.6 145.891C433.587 146.226 433.667 146.574 433.839 146.936C434.012 147.298 434.231 147.577 434.498 147.773C434.765 147.969 435.061 148.094 435.386 148.146C435.716 148.197 436.061 148.188 436.421 148.12C436.781 148.052 437.139 147.933 437.497 147.763L437.652 147.689C437.971 147.537 438.254 147.35 438.501 147.128C438.747 146.907 438.939 146.657 439.077 146.377C439.218 146.103 439.287 145.801 439.287 145.473C439.293 145.147 439.209 144.803 439.037 144.441ZM438.812 150.139L438.974 150.062C439.524 149.8 440.072 149.636 440.618 149.572C441.169 149.505 441.691 149.54 442.182 149.675C442.678 149.807 443.125 150.042 443.521 150.377C443.923 150.711 444.25 151.144 444.504 151.675C444.759 152.211 444.89 152.74 444.897 153.262C444.91 153.786 444.813 154.283 444.604 154.752C444.401 155.223 444.101 155.652 443.702 156.038C443.309 156.422 442.837 156.745 442.287 157.008L442.124 157.085C441.574 157.347 441.026 157.511 440.48 157.575C439.933 157.639 439.411 157.603 438.913 157.465C438.421 157.33 437.975 157.096 437.573 156.762C437.179 156.431 436.854 155.998 436.598 155.462C436.343 154.926 436.209 154.398 436.198 153.878C436.191 153.356 436.289 152.86 436.491 152.388C436.7 151.919 437.002 151.493 437.396 151.109C437.79 150.725 438.262 150.402 438.812 150.139ZM439.596 151.366L439.434 151.444C439.053 151.625 438.715 151.842 438.419 152.092C438.128 152.341 437.895 152.616 437.722 152.918C437.551 153.225 437.455 153.55 437.435 153.894C437.419 154.237 437.497 154.589 437.67 154.951C437.841 155.308 438.062 155.586 438.336 155.784C438.616 155.985 438.929 156.113 439.272 156.169C439.616 156.224 439.976 156.217 440.353 156.147C440.736 156.08 441.118 155.955 441.499 155.773L441.661 155.696C442.037 155.517 442.37 155.3 442.659 155.047C442.954 154.797 443.188 154.518 443.359 154.211C443.537 153.907 443.636 153.583 443.657 153.238C443.679 152.899 443.604 152.548 443.432 152.186C443.261 151.829 443.036 151.549 442.755 151.349C442.477 151.152 442.163 151.025 441.812 150.968C441.468 150.912 441.106 150.921 440.725 150.993C440.348 151.062 439.972 151.187 439.596 151.366ZM448.213 159.816L440.583 163.454L439.958 162.143L447.588 158.504L448.213 159.816ZM449.434 162.376L448.376 162.88L445.333 156.498L446.391 155.994L449.434 162.376ZM445.813 171.062L449.74 169.189C450.041 169.045 450.273 168.86 450.436 168.632C450.605 168.407 450.694 168.145 450.702 167.847C450.71 167.549 450.63 167.224 450.462 166.871C450.305 166.542 450.11 166.28 449.879 166.085C449.649 165.894 449.409 165.772 449.159 165.718C448.91 165.669 448.68 165.695 448.469 165.796L447.847 164.492C448.119 164.362 448.423 164.303 448.758 164.317C449.094 164.33 449.432 164.416 449.774 164.577C450.123 164.739 450.449 164.976 450.753 165.287C451.064 165.6 451.33 165.987 451.549 166.448C451.814 167.003 451.953 167.536 451.967 168.049C451.983 168.566 451.857 169.036 451.591 169.457C451.332 169.881 450.917 170.229 450.349 170.5L446.794 172.195C446.541 172.316 446.28 172.466 446.014 172.645C445.749 172.829 445.535 173.014 445.371 173.202L445.258 173.256L444.609 171.895C444.728 171.758 444.903 171.611 445.134 171.454C445.37 171.296 445.596 171.165 445.813 171.062ZM449.242 169.703L448.332 170.155L447.703 168.836C447.526 168.465 447.337 168.148 447.137 167.885C446.941 167.621 446.738 167.418 446.526 167.277C446.314 167.135 446.095 167.055 445.867 167.037C445.643 167.017 445.414 167.062 445.179 167.174C444.939 167.289 444.747 167.447 444.601 167.649C444.455 167.852 444.375 168.089 444.36 168.361C444.353 168.636 444.425 168.933 444.578 169.253C444.768 169.652 445.021 169.965 445.336 170.19C445.651 170.414 445.973 170.558 446.303 170.62C446.635 170.687 446.919 170.672 447.157 170.577L446.795 171.433C446.581 171.494 446.32 171.509 446.011 171.478C445.702 171.446 445.378 171.361 445.041 171.222C444.71 171.085 444.392 170.885 444.088 170.621C443.79 170.359 443.542 170.021 443.345 169.607C443.098 169.09 442.983 168.588 442.999 168.102C443.017 167.62 443.144 167.19 443.379 166.812C443.622 166.437 443.954 166.149 444.377 165.947C444.786 165.752 445.184 165.66 445.571 165.672C445.962 165.682 446.333 165.788 446.683 165.99C447.038 166.19 447.37 166.476 447.68 166.847C447.99 167.219 448.27 167.665 448.519 168.187L449.242 169.703Z" fill="#A43FD4"/>
<path d="M18.1723 152.915L19.2463 153.524L16.6817 158.051L15.6077 157.442L18.1723 152.915ZM18.8115 151.787L28.7085 157.394L27.9653 158.706L18.0683 153.099L18.8115 151.787ZM15.3536 157.891L16.0929 156.586L20.8124 159.556C21.4923 159.983 22.0846 160.39 22.5892 160.778C23.092 161.159 23.5065 161.531 23.8328 161.896C24.1545 162.258 24.3852 162.622 24.5248 162.988C24.6599 163.352 24.701 163.729 24.6482 164.118C24.598 164.502 24.4483 164.914 24.1993 165.354L23.9991 165.707L22.9319 165.103L23.0655 164.819C23.1912 164.555 23.2578 164.306 23.2653 164.07C23.2708 163.828 23.2099 163.587 23.0823 163.347C22.9574 163.103 22.7594 162.85 22.4884 162.589C22.2174 162.327 21.8659 162.045 21.4339 161.74C20.9999 161.428 20.4825 161.084 19.8816 160.708L15.3536 157.891ZM28.7192 152.731L25.2776 146.3L25.9938 145.036L33.3486 149.203L32.6323 150.467L27.2692 147.429L30.7108 153.859L30.0023 155.11L22.6475 150.943L23.3561 149.692L28.7192 152.731ZM30.2796 137.47L37.6344 141.637L36.922 142.895L29.5672 138.728L30.2796 137.47ZM33.4153 139.812L34.4485 140.398C34.3999 140.706 34.3397 141.013 34.2678 141.319C34.194 141.618 34.0976 141.926 33.9786 142.242C33.8577 142.55 33.7022 142.872 33.5123 143.208C33.1837 143.788 32.799 144.234 32.3583 144.547C31.9131 144.858 31.4211 145.013 30.8823 145.013C30.339 145.011 29.7547 144.832 29.1294 144.478L26.9814 143.261L27.6938 142.003L29.8417 143.22C30.2496 143.451 30.615 143.578 30.9381 143.599C31.2612 143.62 31.5507 143.548 31.8065 143.382C32.0578 143.213 32.2797 142.958 32.4723 142.618C32.6571 142.292 32.81 141.975 32.9309 141.666C33.0499 141.35 33.1476 141.041 33.224 140.737C33.3029 140.428 33.3667 140.12 33.4153 139.812ZM37.4415 132.261L38.4611 132.839L36.2585 136.727L35.2389 136.149L37.4415 132.261ZM32.2011 134.078L39.5559 138.245L38.8435 139.503L31.4887 135.336L32.2011 134.078ZM34.8311 129.435L42.1859 133.602L41.4697 134.867L34.1149 130.7L34.8311 129.435ZM39.5489 129.873L39.3926 129.784C38.8624 129.484 38.4143 129.128 38.0484 128.717C37.678 128.304 37.4073 127.857 37.2363 127.377C37.0607 126.894 36.9968 126.394 37.0446 125.877C37.0879 125.356 37.2546 124.84 37.5447 124.328C37.8373 123.812 38.1956 123.401 38.6196 123.096C39.0415 122.785 39.5046 122.58 40.0088 122.483C40.511 122.378 41.0346 122.379 41.5795 122.484C42.12 122.586 42.6553 122.788 43.1855 123.088L43.3418 123.177C43.872 123.477 44.3201 123.833 44.6859 124.244C45.0518 124.654 45.3213 125.103 45.4943 125.591C45.6653 126.071 45.7292 126.571 45.6859 127.091C45.6407 127.604 45.4717 128.119 45.1791 128.636C44.8864 129.152 44.5304 129.564 44.111 129.871C43.687 130.176 43.224 130.38 42.7218 130.485C42.2176 130.582 41.6953 130.58 41.1549 130.477C40.6144 130.374 40.0791 130.173 39.5489 129.873ZM40.1049 128.526L40.2613 128.615C40.6283 128.823 40.9994 128.976 41.3744 129.075C41.745 129.171 42.1036 129.204 42.4504 129.173C42.7998 129.137 43.1214 129.029 43.4153 128.848C43.7047 128.665 43.9482 128.399 44.1459 128.05C44.341 127.706 44.4414 127.365 44.4473 127.027C44.4512 126.682 44.3773 126.352 44.2256 126.039C44.0739 125.726 43.8616 125.435 43.5886 125.166C43.3137 124.891 42.9927 124.649 42.6256 124.441L42.4693 124.353C42.1067 124.147 41.7389 123.999 41.3658 123.907C40.9908 123.808 40.6286 123.777 40.2792 123.812C39.9279 123.841 39.6053 123.945 39.3114 124.126C39.0201 124.302 38.7756 124.565 38.5779 124.914C38.3828 125.258 38.2833 125.603 38.2794 125.948C38.2781 126.288 38.3543 126.619 38.5079 126.939C38.6596 127.253 38.8742 127.545 39.1517 127.816C39.4247 128.084 39.7424 128.321 40.1049 128.526ZM48.6011 120.185C48.7705 119.886 48.8659 119.575 48.8874 119.252C48.9088 118.929 48.8592 118.626 48.7386 118.342C48.6135 118.055 48.4192 117.823 48.1556 117.643L48.8333 116.447C49.2555 116.716 49.5776 117.093 49.7997 117.578C50.0199 118.056 50.1223 118.578 50.1069 119.144C50.0871 119.707 49.9295 120.25 49.6343 120.771C49.3211 121.324 48.9503 121.751 48.5218 122.053C48.0959 122.35 47.636 122.539 47.1421 122.618C46.6508 122.693 46.1468 122.674 45.6303 122.561C45.1117 122.441 44.6055 122.241 44.1115 121.961L43.826 121.799C43.3321 121.519 42.9026 121.189 42.5374 120.809C42.1704 120.421 41.8926 119.997 41.7042 119.537C41.5184 119.073 41.4435 118.582 41.4797 118.063C41.5185 117.541 41.6944 117.003 42.0076 116.45C42.3337 115.874 42.7364 115.438 43.2159 115.141C43.6909 114.841 44.1994 114.684 44.7413 114.667C45.2813 114.644 45.8115 114.765 46.3319 115.03L45.6541 116.226C45.3377 116.077 45.0147 116.007 44.6853 116.018C44.3585 116.025 44.0507 116.114 43.7619 116.285C43.4712 116.45 43.2308 116.7 43.0408 117.035C42.8226 117.42 42.7161 117.788 42.7213 118.138C42.7245 118.481 42.8116 118.803 42.9826 119.103C43.1517 119.397 43.3733 119.666 43.6475 119.911C43.9197 120.149 44.2167 120.359 44.5384 120.541L44.8239 120.703C45.1457 120.886 45.4808 121.033 45.8295 121.147C46.1781 121.261 46.5216 121.315 46.8601 121.309C47.2012 121.299 47.5219 121.208 47.8223 121.037C48.1207 120.859 48.3803 120.575 48.6011 120.185ZM46.3023 109.185L53.6571 113.352L52.9409 114.617L45.5861 110.45L46.3023 109.185ZM47.7001 106.718L48.7197 107.296L45.2349 113.447L44.2152 112.87L47.7001 106.718ZM54.4153 102.297L55.4349 102.875L53.2323 106.763L52.2127 106.186L54.4153 102.297ZM49.1749 104.114L56.5297 108.281L55.8173 109.539L48.4626 105.372L49.1749 104.114ZM51.805 99.4717L59.1597 103.639L58.4435 104.903L51.0887 100.736L51.805 99.4717ZM56.0664 97.8453L57.3179 95.6361C57.6542 95.0425 58.0421 94.6008 58.4815 94.311C58.9165 94.0187 59.3743 93.871 59.8549 93.8679C60.3336 93.8577 60.8017 93.9823 61.2594 94.2416C61.5993 94.4342 61.8854 94.6741 62.1177 94.9613C62.3456 95.2461 62.5037 95.5691 62.5923 95.9306C62.6834 96.2875 62.6949 96.6741 62.6267 97.0904C62.5565 97.4996 62.3956 97.9263 62.144 98.3704L60.3727 101.497L53.0179 97.3304L53.7303 96.0729L60.0519 99.6543L61.1108 97.785C61.3162 97.4225 61.4148 97.0952 61.4066 96.8032C61.3984 96.5113 61.317 96.2586 61.1625 96.0454C61.0079 95.8321 60.8174 95.6613 60.5908 95.5329C60.3687 95.4071 60.1243 95.3315 59.8574 95.306C59.5905 95.2805 59.3252 95.3367 59.0615 95.4746C58.7932 95.61 58.5564 95.8589 58.3511 96.2215L57.0996 98.4307L56.0664 97.8453ZM57.8274 88.8402L65.1822 93.0071L64.4698 94.2646L57.1151 90.0978L57.8274 88.8402ZM65.2083 88.3168L61.7667 81.8863L62.4829 80.6219L69.8377 84.7888L69.1215 86.0531L63.7583 83.0146L67.2 89.4451L66.4914 90.6959L59.1367 86.529L59.8452 85.2783L65.2083 88.3168ZM58.7132 81.0632L59.2908 80.0436C59.6443 80.2438 59.913 80.5038 60.097 80.8236C60.2765 81.1408 60.3573 81.4948 60.3393 81.8857C60.3214 82.2767 60.1944 82.6806 59.9582 83.0975C59.6014 83.7274 59.1513 84.1309 58.608 84.308C58.0628 84.478 57.5228 84.4115 56.9881 84.1085L57.5657 83.0889C57.833 83.2404 58.1123 83.2968 58.4035 83.2583C58.6947 83.2198 58.9456 83.0147 59.1561 82.6431C59.3615 82.2805 59.4058 81.9645 59.2892 81.6949C59.1726 81.4252 58.9805 81.2147 58.7132 81.0632ZM52.2868 144.524L61.0555 149.492L60.3392 150.756L50.1567 144.987L50.8114 143.832L52.2868 144.524ZM57.2963 140.816L57.4391 140.897C57.9738 141.2 58.4341 141.545 58.8199 141.931C59.2012 142.314 59.4902 142.724 59.6869 143.158C59.8862 143.588 59.9786 144.033 59.9641 144.492C59.9497 144.95 59.8128 145.409 59.5536 145.866C59.2891 146.333 58.9785 146.702 58.6216 146.973C58.2647 147.243 57.8684 147.42 57.4327 147.502C56.9969 147.585 56.5305 147.584 56.0334 147.5C55.5389 147.411 55.0179 147.248 54.4705 147.009L53.7092 146.578C53.1962 146.215 52.7669 145.837 52.4211 145.444C52.0753 145.051 51.8199 144.646 51.6549 144.229C51.4879 143.805 51.4253 143.371 51.4669 142.928C51.504 142.482 51.6535 142.028 51.9153 141.566C52.1772 141.104 52.5001 140.745 52.8842 140.49C53.2637 140.232 53.6882 140.074 54.1576 140.017C54.6271 139.959 55.1276 140.001 55.6591 140.14C56.1887 140.272 56.7344 140.498 57.2963 140.816ZM56.7228 142.161L56.5801 142.081C56.213 141.873 55.8468 141.716 55.4814 141.611C55.1115 141.503 54.758 141.461 54.4209 141.486C54.0818 141.503 53.7714 141.597 53.4897 141.766C53.2035 141.934 52.9629 142.189 52.7678 142.534C52.5881 142.851 52.4859 143.158 52.4611 143.455C52.439 143.748 52.4746 144.029 52.568 144.297C52.6568 144.563 52.7895 144.815 52.9661 145.052C53.1408 145.283 53.3386 145.494 53.5596 145.685L55.3201 146.682C55.6887 146.772 56.0596 146.814 56.433 146.81C56.8018 146.804 57.1494 146.713 57.4756 146.539C57.7973 146.362 58.075 146.067 58.3086 145.655C58.5011 145.315 58.5964 144.983 58.5946 144.659C58.5908 144.327 58.5092 144.012 58.3498 143.712C58.193 143.407 57.9755 143.126 57.6974 142.866C57.4148 142.604 57.0899 142.369 56.7228 142.161ZM58.1592 139.626L58.0028 139.537C57.4726 139.237 57.0246 138.881 56.6587 138.471C56.2883 138.057 56.0176 137.61 55.8465 137.13C55.671 136.648 55.6071 136.148 55.6549 135.63C55.6982 135.11 55.8649 134.594 56.1549 134.082C56.4476 133.565 56.8059 133.154 57.2298 132.85C57.6518 132.538 58.1149 132.334 58.619 132.236C59.1212 132.132 59.6448 132.132 60.1898 132.237C60.7302 132.34 61.2655 132.541 61.7957 132.842L61.9521 132.93C62.4823 133.231 62.9303 133.586 63.2962 133.997C63.6621 134.408 63.9315 134.857 64.1045 135.344C64.2756 135.824 64.3394 136.324 64.2962 136.844C64.2509 137.357 64.082 137.872 63.7893 138.389C63.4967 138.906 63.1406 139.317 62.7212 139.625C62.2973 139.929 61.8342 140.134 61.332 140.238C60.8279 140.336 60.3056 140.333 59.7651 140.231C59.2247 140.128 58.6894 139.926 58.1592 139.626ZM58.7152 138.28L58.8715 138.368C59.2386 138.576 59.6096 138.73 59.9847 138.828C60.3552 138.925 60.7139 138.957 61.0607 138.926C61.41 138.891 61.7316 138.783 62.0255 138.602C62.3149 138.419 62.5584 138.153 62.7561 137.804C62.9512 137.459 63.0517 137.118 63.0575 136.78C63.0614 136.435 62.9875 136.106 62.8358 135.793C62.6841 135.479 62.4718 135.188 62.1988 134.92C61.9239 134.644 61.6029 134.403 61.2359 134.195L61.0795 134.106C60.717 133.901 60.3492 133.752 59.9761 133.661C59.601 133.562 59.2388 133.53 58.8895 133.566C58.5382 133.594 58.2156 133.699 57.9217 133.879C57.6303 134.056 57.3858 134.318 57.1881 134.667C56.993 135.011 56.8935 135.356 56.8897 135.701C56.8884 136.042 56.9645 136.372 57.1182 136.693C57.2699 137.006 57.4845 137.298 57.762 137.569C58.0349 137.838 58.3527 138.074 58.7152 138.28ZM67.2114 129.939C67.3808 129.64 67.4762 129.329 67.4976 129.005C67.519 128.682 67.4694 128.379 67.3489 128.095C67.2238 127.809 67.0294 127.576 66.7658 127.397L67.4436 126.2C67.8657 126.469 68.1879 126.846 68.41 127.331C68.6301 127.809 68.7325 128.331 68.7172 128.897C68.6973 129.461 68.5398 130.003 68.2446 130.524C67.9314 131.077 67.5605 131.504 67.1321 131.806C66.7062 132.104 66.2463 132.292 65.7524 132.372C65.2611 132.446 64.7571 132.427 64.2405 132.314C63.722 132.194 63.2157 131.994 62.7218 131.714L62.4363 131.552C61.9424 131.273 61.5128 130.942 61.1477 130.562C60.7806 130.174 60.5029 129.751 60.3145 129.291C60.1286 128.826 60.0538 128.335 60.09 127.817C60.1287 127.294 60.3047 126.756 60.6179 126.203C60.9439 125.628 61.3467 125.191 61.8262 124.894C62.3012 124.595 62.8097 124.437 63.3516 124.421C63.8916 124.397 64.4217 124.518 64.9421 124.783L64.2644 125.979C63.9479 125.83 63.625 125.761 63.2956 125.772C62.9687 125.778 62.6609 125.867 62.3721 126.039C62.0814 126.203 61.8411 126.453 61.6511 126.789C61.4329 127.174 61.3264 127.541 61.3316 127.892C61.3348 128.235 61.4219 128.556 61.5929 128.857C61.762 129.15 61.9836 129.419 62.2577 129.664C62.53 129.902 62.8269 130.113 63.1487 130.295L63.4342 130.457C63.7559 130.639 64.0911 130.787 64.4397 130.901C64.7883 131.014 65.1319 131.068 65.4704 131.063C65.8114 131.052 66.1321 130.962 66.4325 130.791C66.731 130.612 66.9906 130.329 67.2114 129.939ZM64.9126 118.939L72.2674 123.106L71.5511 124.37L64.1963 120.203L64.9126 118.939ZM66.3104 116.471L67.33 117.049L63.8451 123.201L62.8255 122.623L66.3104 116.471Z" fill="#A43FD4"/>
<path d="M463.077 261.513L463.361 260.192L464.3 260.393L464.028 261.661C463.908 262.222 463.89 262.692 463.974 263.072C464.057 263.452 464.222 263.751 464.468 263.969C464.715 264.187 465.021 264.335 465.388 264.414C465.739 264.489 466.079 264.472 466.406 264.361C466.738 264.251 467.03 264.034 467.281 263.709C467.536 263.386 467.726 262.939 467.848 262.369C467.94 261.941 467.941 261.536 467.852 261.155C467.769 260.775 467.606 260.453 467.365 260.188C467.128 259.924 466.827 259.753 466.46 259.674L466.776 258.2C467.25 258.301 467.654 258.492 467.988 258.771C468.327 259.052 468.592 259.394 468.783 259.797C468.979 260.201 469.099 260.645 469.144 261.129C469.189 261.618 469.156 262.117 469.047 262.626C468.919 263.222 468.735 263.747 468.494 264.201C468.257 264.656 467.97 265.029 467.631 265.318C467.292 265.608 466.906 265.802 466.475 265.902C466.044 266.001 465.568 265.995 465.049 265.883C464.667 265.801 464.327 265.635 464.029 265.385C463.731 265.135 463.49 264.817 463.307 264.431C463.123 264.045 463.007 263.605 462.959 263.11C462.915 262.616 462.955 262.084 463.077 261.513ZM464.01 260.331L463.727 261.653C463.592 262.279 463.409 262.823 463.177 263.285C462.945 263.746 462.67 264.119 462.354 264.403C462.037 264.686 461.68 264.876 461.281 264.972C460.886 265.073 460.457 265.075 459.994 264.975C459.474 264.864 459.035 264.663 458.677 264.373C458.317 264.088 458.036 263.732 457.835 263.306C457.634 262.879 457.516 262.398 457.481 261.863C457.446 261.334 457.492 260.771 457.619 260.175C457.722 259.697 457.885 259.236 458.107 258.794C458.334 258.358 458.618 257.979 458.958 257.658C459.304 257.338 459.705 257.107 460.162 256.965C460.617 256.828 461.13 256.821 461.7 256.943L461.384 258.418C461.012 258.338 460.649 258.367 460.295 258.504C459.94 258.646 459.628 258.88 459.361 259.206C459.099 259.534 458.916 259.942 458.811 260.431C458.691 260.991 458.676 261.483 458.766 261.907C458.86 262.338 459.038 262.687 459.3 262.957C459.566 263.232 459.892 263.411 460.28 263.494C460.621 263.567 460.928 263.575 461.202 263.516C461.479 263.464 461.722 263.348 461.931 263.169C462.139 262.995 462.315 262.759 462.459 262.46C462.607 262.166 462.725 261.814 462.814 261.401L463.086 260.133L464.01 260.331ZM464.468 269.298L464.165 270.712L461.098 269.926C460.32 269.727 459.662 269.493 459.123 269.223C458.584 268.953 458.138 268.66 457.785 268.345C457.437 268.03 457.159 267.702 456.95 267.359C456.74 267.021 456.576 266.682 456.457 266.342L456.608 265.639L457.753 265.925L457.698 266.217C457.861 266.427 458.03 266.634 458.204 266.837C458.384 267.04 458.605 267.24 458.867 267.434C459.134 267.63 459.47 267.816 459.874 267.994C460.282 268.177 460.792 268.348 461.402 268.505L464.468 269.298ZM464.393 269.65L463.326 274.623L455.061 272.85L455.364 271.437L462.323 272.929L463.087 269.37L464.393 269.65ZM457.837 265.567L455.995 274.161L452.397 273.39L452.7 271.976L455.136 272.499L456.373 266.732L453.936 266.209L454.241 264.788L457.837 265.567ZM458.619 275.97L458.795 276.008C459.39 276.136 459.924 276.341 460.396 276.623C460.874 276.907 461.266 277.252 461.573 277.658C461.885 278.066 462.096 278.524 462.205 279.032C462.319 279.542 462.315 280.084 462.192 280.66C462.067 281.24 461.848 281.739 461.535 282.157C461.226 282.581 460.845 282.914 460.393 283.158C459.945 283.409 459.446 283.565 458.894 283.628C458.348 283.692 457.777 283.66 457.181 283.532L457.005 283.495C456.409 283.367 455.876 283.162 455.403 282.879C454.931 282.597 454.54 282.249 454.229 281.836C453.922 281.43 453.711 280.972 453.597 280.462C453.486 279.959 453.493 279.417 453.618 278.837C453.742 278.256 453.958 277.757 454.267 277.338C454.58 276.921 454.96 276.587 455.408 276.336C455.86 276.092 456.359 275.938 456.906 275.875C457.452 275.811 458.023 275.843 458.619 275.97ZM458.491 277.421L458.316 277.383C457.903 277.295 457.503 277.26 457.116 277.278C456.734 277.297 456.382 277.374 456.06 277.507C455.737 277.646 455.463 277.845 455.237 278.105C455.015 278.367 454.863 278.694 454.779 279.086C454.696 279.473 454.702 279.829 454.798 280.153C454.897 280.483 455.066 280.775 455.305 281.029C455.543 281.282 455.833 281.496 456.174 281.67C456.519 281.851 456.898 281.985 457.31 282.074L457.486 282.111C457.893 282.199 458.289 282.23 458.672 282.206C459.059 282.188 459.414 282.11 459.737 281.971C460.064 281.839 460.34 281.642 460.567 281.382C460.792 281.126 460.946 280.803 461.03 280.411C461.113 280.024 461.105 279.665 461.006 279.335C460.905 279.009 460.733 278.717 460.491 278.457C460.252 278.204 459.96 277.989 459.614 277.814C459.273 277.639 458.899 277.509 458.491 277.421ZM458.958 287.245L449.104 285.132L449.408 283.711L460.851 286.165L460.573 287.464L458.958 287.245ZM455.288 292.283L455.128 292.249C454.527 292.12 453.985 291.929 453.501 291.676C453.022 291.424 452.624 291.12 452.306 290.765C451.987 290.414 451.766 290.018 451.642 289.576C451.519 289.134 451.512 288.655 451.622 288.141C451.735 287.616 451.921 287.172 452.18 286.806C452.44 286.441 452.765 286.154 453.156 285.945C453.547 285.736 453.992 285.597 454.492 285.528C454.99 285.465 455.536 285.465 456.13 285.528L456.985 285.712C457.583 285.904 458.106 286.136 458.554 286.407C459.002 286.679 459.367 286.989 459.649 287.337C459.935 287.692 460.125 288.087 460.218 288.522C460.316 288.959 460.309 289.437 460.198 289.956C460.087 290.476 459.886 290.915 459.596 291.273C459.311 291.633 458.953 291.91 458.523 292.106C458.092 292.301 457.602 292.412 457.053 292.438C456.508 292.47 455.92 292.418 455.288 292.283ZM455.433 290.828L455.593 290.862C456.006 290.951 456.402 290.99 456.782 290.981C457.167 290.973 457.517 290.907 457.831 290.783C458.15 290.665 458.418 290.483 458.636 290.236C458.859 289.991 459.012 289.675 459.095 289.288C459.171 288.932 459.177 288.608 459.111 288.317C459.045 288.031 458.927 287.774 458.757 287.546C458.593 287.319 458.391 287.118 458.151 286.944C457.916 286.777 457.664 286.635 457.396 286.519L455.417 286.094C455.039 286.12 454.672 286.19 454.317 286.306C453.967 286.423 453.663 286.613 453.404 286.877C453.15 287.142 452.973 287.506 452.874 287.97C452.792 288.352 452.8 288.697 452.899 289.006C453.002 289.321 453.174 289.598 453.416 289.836C453.657 290.079 453.949 290.283 454.292 290.447C454.64 290.613 455.02 290.739 455.433 290.828ZM453.504 297.845L454.086 295.133L455.22 295.361L454.745 297.576C454.651 298.014 454.616 298.387 454.64 298.696C454.664 299.01 454.746 299.259 454.887 299.444C455.029 299.629 455.227 299.749 455.482 299.803C455.68 299.846 455.863 299.84 456.029 299.785C456.199 299.736 456.351 299.638 456.483 299.491C456.621 299.345 456.74 299.152 456.839 298.912C456.943 298.678 457.03 298.396 457.101 298.065L457.489 296.255L450.37 294.728L450.673 293.315L458.938 295.087L458.247 298.311C458.134 298.835 457.987 299.297 457.806 299.694C457.624 300.097 457.407 300.426 457.155 300.681C456.907 300.943 456.624 301.121 456.305 301.218C455.986 301.315 455.633 301.322 455.246 301.239C454.996 301.185 454.77 301.084 454.568 300.934C454.366 300.784 454.199 300.591 454.069 300.355C453.938 300.119 453.848 299.844 453.798 299.53C453.754 299.217 453.756 298.869 453.807 298.485L453.504 297.845ZM449.868 297.065L450.56 293.842L451.555 294.79L451.014 297.311C450.93 297.703 450.909 298.04 450.95 298.32C450.996 298.602 451.097 298.826 451.253 298.992C451.413 299.165 451.623 299.279 451.883 299.335C452.142 299.391 452.378 299.372 452.59 299.279C452.805 299.192 452.99 299.029 453.142 298.79C453.3 298.552 453.42 298.237 453.504 297.845L453.965 295.699L455.092 295.956L454.517 298.638L453.98 299.058C453.847 299.503 453.652 299.864 453.396 300.139C453.14 300.414 452.849 300.602 452.524 300.703C452.204 300.805 451.876 300.82 451.54 300.748C451.153 300.665 450.827 300.518 450.564 300.307C450.299 300.101 450.097 299.839 449.957 299.521C449.822 299.205 449.746 298.84 449.728 298.426C449.716 298.013 449.762 297.559 449.868 297.065ZM453.955 304.462L453.423 306.944C453.28 307.611 453.042 308.149 452.709 308.557C452.382 308.966 451.989 309.244 451.532 309.391C451.078 309.544 450.594 309.566 450.08 309.455C449.698 309.374 449.353 309.23 449.045 309.026C448.743 308.822 448.495 308.562 448.302 308.243C448.108 307.93 447.982 307.565 447.922 307.147C447.867 306.736 447.892 306.28 447.999 305.781L448.753 302.267L457.018 304.04L456.715 305.453L449.611 303.93L449.16 306.03C449.073 306.438 449.077 306.779 449.172 307.056C449.267 307.332 449.421 307.548 449.632 307.706C449.843 307.863 450.076 307.969 450.331 308.023C450.581 308.077 450.836 308.076 451.099 308.02C451.361 307.964 451.597 307.831 451.808 307.621C452.023 307.411 452.174 307.103 452.262 306.695L452.794 304.213L453.955 304.462ZM446.071 314.029C446.194 313.454 446.403 312.952 446.697 312.525C446.995 312.104 447.358 311.764 447.787 311.505C448.214 311.25 448.691 311.086 449.219 311.013C449.746 310.939 450.299 310.965 450.88 311.089L451.201 311.158C451.873 311.302 452.45 311.53 452.932 311.841C453.419 312.153 453.809 312.519 454.103 312.939C454.396 313.359 454.591 313.805 454.687 314.279C454.782 314.752 454.78 315.22 454.681 315.684C454.554 316.274 454.343 316.762 454.048 317.146C453.751 317.535 453.39 317.828 452.964 318.024C452.544 318.222 452.072 318.334 451.55 318.36C451.033 318.388 450.484 318.339 449.903 318.215L449.269 318.079L450.593 311.907L451.746 312.154L450.726 316.913L450.833 316.936C451.204 316.994 451.577 316.994 451.951 316.936C452.325 316.883 452.654 316.74 452.938 316.508C453.222 316.276 453.416 315.918 453.52 315.435C453.589 315.114 453.583 314.804 453.504 314.504C453.429 314.206 453.28 313.932 453.057 313.681C452.833 313.431 452.542 313.212 452.183 313.023C451.824 312.834 451.395 312.686 450.896 312.579L450.575 312.51C450.183 312.426 449.803 312.4 449.433 312.433C449.068 312.472 448.733 312.568 448.429 312.721C448.123 312.879 447.864 313.093 447.652 313.361C447.439 313.635 447.291 313.966 447.208 314.353C447.101 314.852 447.112 315.296 447.242 315.686C447.371 316.076 447.578 316.438 447.864 316.771L447.001 317.48C446.769 317.244 446.56 316.963 446.375 316.635C446.189 316.308 446.063 315.926 445.997 315.491C445.929 315.061 445.954 314.574 446.071 314.029Z" fill="#A43FD4"/>
<path d="M246 241.5L77.5 40.5" stroke="#D9D9D9"/>
<path d="M245 241L-12 195.5" stroke="#D9D9D9"/>
<path d="M245 242.5L18.5 373.5" stroke="#D9D9D9"/>
<path d="M245.5 243L166 462" stroke="#D9D9D9"/>
<path d="M246.5 243L327 463" stroke="#D9D9D9"/>
<path d="M246.5 242L454.5 361.5" stroke="#D9D9D9"/>
<path d="M246.5 241L493.5 197" stroke="#D9D9D9"/>
<path d="M246 241.5V-13" stroke="#D9D9D9"/>
<path d="M246.5 241.5L419.5 35.5" stroke="#D9D9D9"/>
</g>
<defs>
<clipPath id="clip0_114_274">
<rect width="498" height="501" fill="white"/>
</clipPath>
</defs>
</svg>
