<svg width="594" height="594" viewBox="0 0 594 594" fill="none" xmlns="http://www.w3.org/2000/svg">
<g filter="url(#filter0_d_171_260)">
<path d="M297 541C432.31 541 542 431.31 542 296C542 160.69 432.31 51 297 51C161.69 51 52 160.69 52 296C52 431.31 161.69 541 297 541Z" fill="white"/>
</g>
<path d="M117.177 295.761C117.177 395.495 198.027 476.345 297.761 476.345C397.495 476.345 478.345 395.495 478.345 295.761C478.345 196.027 397.495 115.177 297.761 115.177C198.027 115.177 117.177 196.027 117.177 295.761Z" fill="#F4F4F4"/>
<path d="M454.458 291.686C455.367 327.911 443.633 363.32 421.271 391.836C398.909 420.352 367.311 440.199 331.899 447.972L298.355 295.545L454.458 291.686Z" fill="#F4F4F4"/>
<defs>
<filter id="filter0_d_171_260" x="20" y="20" width="554" height="554" filterUnits="userSpaceOnUse" color-interpolation-filters="sRGB">
<feFlood flood-opacity="0" result="BackgroundImageFix"/>
<feColorMatrix in="SourceAlpha" type="matrix" values="0 0 0 0 0 0 0 0 0 0 0 0 0 0 0 0 0 0 127 0" result="hardAlpha"/>
<feOffset dy="1"/>
<feGaussianBlur stdDeviation="16"/>
<feComposite in2="hardAlpha" operator="out"/>
<feColorMatrix type="matrix" values="0 0 0 0 0 0 0 0 0 0 0 0 0 0 0 0 0 0 0.05 0"/>
<feBlend mode="normal" in2="BackgroundImageFix" result="effect1_dropShadow_171_260"/>
<feBlend mode="normal" in="SourceGraphic" in2="effect1_dropShadow_171_260" result="shape"/>
</filter>
</defs>
</svg>
