<svg width="478" height="480" viewBox="0 0 478 480" fill="none" xmlns="http://www.w3.org/2000/svg">
<g clip-path="url(#clip0_97_279)">
<path d="M254.772 241C254.772 251.78 246.232 260.5 235.722 260.5C225.212 260.5 216.672 251.78 216.672 241C216.672 230.219 225.212 221.5 235.722 221.5C246.232 221.5 254.772 230.219 254.772 241Z" stroke="#D9D9D9"/>
<path d="M274.824 241C274.824 262.262 257.543 279.5 236.223 279.5C214.904 279.5 197.623 262.262 197.623 241C197.623 219.738 214.904 202.5 236.223 202.5C257.543 202.5 274.824 219.738 274.824 241Z" stroke="#D9D9D9"/>
<path d="M294.875 240.5C294.875 272.531 268.841 298.5 236.725 298.5C204.608 298.5 178.574 272.531 178.574 240.5C178.574 208.468 204.608 182.5 236.725 182.5C268.841 182.5 294.875 208.468 294.875 240.5Z" stroke="#D9D9D9"/>
<path d="M313.923 241C313.923 283.801 279.137 318.5 236.223 318.5C193.309 318.5 158.522 283.801 158.522 241C158.522 198.199 193.309 163.5 236.223 163.5C279.137 163.5 313.923 198.199 313.923 241Z" stroke="#D9D9D9"/>
<path d="M332.972 241.5C332.972 295.073 289.655 338.5 236.223 338.5C182.791 338.5 139.474 295.073 139.474 241.5C139.474 187.927 182.791 144.5 236.223 144.5C289.655 144.5 332.972 187.927 332.972 241.5Z" stroke="#D9D9D9"/>
<path d="M353.024 240.5C353.024 305.118 300.73 357.5 236.224 357.5C171.717 357.5 119.423 305.118 119.423 240.5C119.423 175.882 171.717 123.5 236.224 123.5C300.73 123.5 353.024 175.882 353.024 240.5Z" stroke="#D9D9D9"/>
<path d="M372.073 240.5C372.073 315.611 311.251 376.5 236.224 376.5C161.196 376.5 100.374 315.611 100.374 240.5C100.374 165.389 161.196 104.5 236.224 104.5C311.251 104.5 372.073 165.389 372.073 240.5Z" stroke="#D9D9D9"/>
<path d="M392.125 241C392.125 326.325 322.553 395.5 236.725 395.5C150.897 395.5 81.3252 326.325 81.3252 241C81.3252 155.674 150.897 86.4998 236.725 86.4998C322.553 86.4998 392.125 155.674 392.125 241Z" stroke="#D9D9D9"/>
<path d="M411.174 241C411.174 336.819 333.073 414.5 236.725 414.5C140.377 414.5 62.2764 336.819 62.2764 241C62.2764 145.181 140.377 67.4998 236.725 67.4998C333.073 67.4998 411.174 145.181 411.174 241Z" stroke="#D9D9D9"/>
<path d="M431.225 241C431.225 347.864 344.146 434.5 236.725 434.5C129.303 434.5 42.2246 347.864 42.2246 241C42.2246 134.135 129.303 47.4998 236.725 47.4998C344.146 47.4998 431.225 134.135 431.225 241Z" stroke="#D9D9D9"/>
<path d="M1 330.056L477.246 153.268" stroke="#D9D9D9"/>
<path d="M127.671 469.399L346.285 10.8453" stroke="#D9D9D9"/>
<path d="M322.058 478.841L149.627 1" stroke="#D9D9D9"/>
<path d="M6.62695 131.433L465.357 351.995" stroke="#D9D9D9"/>
<path d="M31.6435 338.909L38.2286 337.317L39.912 339.207L32.81 345.531L31.1267 343.641L35.5966 339.661L29.0049 341.258L27.3215 339.368L34.4235 333.044L36.1069 334.934L31.6435 338.909ZM42.6724 348.082L41.2021 349.392L37.9874 345.781L39.4577 344.472L42.6724 348.082ZM42.8872 342.548L35.7852 348.872L34.1018 346.982L41.2038 340.658L42.8872 342.548ZM46.6806 346.808L39.5786 353.132L37.8894 351.235L44.9914 344.911L46.6806 346.808ZM47.0052 355.498L45.0237 353.273L46.2526 352.155L47.8892 353.993C48.1074 354.238 48.3088 354.416 48.4933 354.526C48.6822 354.633 48.8581 354.676 49.0211 354.657C49.1924 354.637 49.3524 354.562 49.5012 354.429C49.6325 354.312 49.7226 354.189 49.7716 354.059C49.8289 353.929 49.8473 353.791 49.8267 353.645C49.8062 353.498 49.7467 353.344 49.6482 353.18C49.5581 353.017 49.4311 352.844 49.2675 352.66L48.3206 351.597L42.6823 356.618L40.9989 354.727L48.1009 348.403L50.7312 351.357C51.1443 351.82 51.4729 352.273 51.717 352.715C51.9656 353.152 52.1239 353.573 52.1919 353.975C52.2638 354.382 52.2354 354.764 52.1068 355.122C51.9864 355.48 51.7578 355.809 51.4208 356.109C51.2021 356.304 50.9516 356.437 50.6694 356.508C50.3912 356.583 50.0919 356.59 49.7717 356.53C49.4514 356.47 49.1165 356.341 48.767 356.142C48.4257 355.944 48.0805 355.671 47.7313 355.323L47.0052 355.498ZM44.0384 358.14L41.6419 355.449L43.6843 354.796L45.5021 356.837C45.7086 357.069 45.9066 357.234 46.0959 357.332C46.2853 357.43 46.4659 357.465 46.6376 357.438C46.8176 357.411 46.9864 357.328 47.1439 357.187C47.2971 357.051 47.4013 356.899 47.4566 356.732C47.512 356.565 47.504 356.38 47.4328 356.177C47.3698 355.974 47.2273 355.748 47.0052 355.498L45.4329 353.733L46.6851 352.641L48.4737 354.65L48.384 355.553C48.7976 356.08 49.0698 356.575 49.2006 357.039C49.3314 357.503 49.3425 357.921 49.2339 358.292C49.1335 358.664 48.9389 358.978 48.6501 359.235C48.3131 359.536 47.9613 359.735 47.5945 359.834C47.2277 359.933 46.8479 359.934 46.4551 359.837C46.0706 359.74 45.6748 359.551 45.2678 359.27C44.8651 358.985 44.4553 358.609 44.0384 358.14ZM50.436 365.589C49.945 365.038 49.5922 364.465 49.3776 363.872C49.1673 363.274 49.0833 362.682 49.1256 362.095C49.1718 361.513 49.3307 360.956 49.6022 360.424C49.8781 359.888 50.2523 359.409 50.7249 358.988L50.9875 358.755C51.5257 358.275 52.0862 357.913 52.6689 357.669C53.2516 357.425 53.8337 357.299 54.4152 357.291C55.0006 357.288 55.5639 357.414 56.1052 357.669C56.6509 357.921 57.1537 358.304 57.6135 358.821C58.0616 359.324 58.3759 359.844 58.5565 360.382C58.737 360.919 58.791 361.456 58.7185 361.991C58.6499 362.531 58.4616 363.06 58.1535 363.577C57.8499 364.091 57.4377 364.579 56.9169 365.043L56.1293 365.744L51.1026 360.1L52.3628 358.977L55.7354 362.765L55.8798 362.636C56.1423 362.402 56.3336 362.146 56.4535 361.866C56.5817 361.587 56.6233 361.299 56.5783 361.002C56.5333 360.705 56.3802 360.409 56.1191 360.116C55.897 359.867 55.6514 359.701 55.3822 359.619C55.1131 359.537 54.8294 359.527 54.5311 359.589C54.2368 359.655 53.9308 359.778 53.6133 359.959C53.3039 360.14 52.9918 360.371 52.6767 360.651L52.4142 360.885C52.1297 361.139 51.9022 361.412 51.7317 361.705C51.5651 362.002 51.4605 362.303 51.4179 362.608C51.3793 362.917 51.4073 363.222 51.502 363.522C51.6005 363.826 51.7726 364.116 52.0181 364.392C52.322 364.733 52.6701 364.992 53.0625 365.168C53.4631 365.345 53.8946 365.42 54.3568 365.393L54.1774 367.2C53.8305 367.242 53.4437 367.222 53.0168 367.139C52.5939 367.061 52.1592 366.899 51.7128 366.653C51.2708 366.403 50.8452 366.048 50.436 365.589ZM58.0794 371.199C58.2859 371.431 58.5128 371.597 58.7601 371.699C59.0117 371.796 59.2633 371.823 59.5149 371.78C59.7747 371.737 60.0181 371.618 60.2452 371.424L61.8292 373.203C61.3264 373.642 60.7634 373.904 60.1402 373.989C59.5213 374.069 58.9035 373.988 58.2868 373.744C57.6744 373.497 57.1247 373.1 56.6376 372.553C56.1466 372.002 55.8099 371.439 55.6274 370.864C55.4488 370.293 55.4006 369.728 55.4828 369.168C55.5694 368.605 55.7689 368.062 56.0813 367.541C56.3981 367.015 56.8059 366.531 57.3047 366.086L57.4951 365.917C57.9983 365.469 58.5269 365.12 59.0809 364.87C59.6393 364.616 60.2012 364.48 60.7666 364.463C61.3364 364.442 61.8944 364.553 62.4406 364.797C62.9867 365.04 63.5034 365.435 63.9904 365.982C64.5087 366.564 64.8511 367.173 65.0176 367.809C65.188 368.45 65.1764 369.08 64.9828 369.7C64.7975 370.32 64.4245 370.883 63.8639 371.391L62.2799 369.612C62.5123 369.397 62.6819 369.156 62.7887 368.888C62.8994 368.625 62.9318 368.353 62.8858 368.072C62.8481 367.792 62.7143 367.522 62.4844 367.264C62.2389 366.989 61.9791 366.816 61.7051 366.746C61.4355 366.672 61.1571 366.677 60.8701 366.76C60.5875 366.839 60.3017 366.972 60.0129 367.158C59.7323 367.346 59.4541 367.562 59.1785 367.807L58.9881 367.977C58.7124 368.222 58.4633 368.476 58.2406 368.737C58.018 368.998 57.8511 369.264 57.7399 369.536C57.6326 369.812 57.6 370.088 57.6421 370.364C57.6842 370.64 57.83 370.919 58.0794 371.199ZM70.6862 373.765L63.5842 380.09L61.895 378.193L68.997 371.868L70.6862 373.765ZM72.7203 376.049L71.2565 377.353L65.5284 370.92L66.9921 369.617L72.7203 376.049ZM70.7937 382.873L77.3788 381.281L79.0621 383.171L71.9601 389.496L70.2768 387.605L74.7467 383.625L68.155 385.223L66.4716 383.332L73.5736 377.008L75.257 378.898L70.7937 382.873ZM80.6778 387.734L72.2106 395.275L70.5272 393.384L80.3597 384.628L81.9204 386.381L80.6778 387.734ZM82.5747 394.107L82.4369 394.23C81.9205 394.689 81.3868 395.055 80.8358 395.326C80.2886 395.601 79.7477 395.769 79.2129 395.83C78.6826 395.886 78.1716 395.823 77.68 395.641C77.1966 395.46 76.7562 395.146 76.3588 394.699C75.973 394.266 75.7254 393.812 75.616 393.337C75.5066 392.861 75.512 392.374 75.6322 391.875C75.7607 391.376 75.9765 390.874 76.2797 390.368C76.5829 389.863 76.944 389.361 77.363 388.862L77.724 388.541C78.3027 388.151 78.8649 387.831 79.4106 387.58C79.9607 387.326 80.4888 387.165 80.9948 387.099C81.5091 387.034 81.994 387.08 82.4496 387.239C82.9091 387.403 83.3298 387.699 83.7116 388.128C84.113 388.579 84.3803 389.051 84.5136 389.544C84.6508 390.042 84.6629 390.549 84.55 391.065C84.441 391.586 84.2181 392.102 83.8814 392.614C83.5485 393.13 83.113 393.628 82.5747 394.107ZM80.7477 392.333L80.8855 392.21C81.1874 391.941 81.4419 391.667 81.649 391.389C81.8643 391.111 82.0195 390.831 82.1146 390.551C82.2136 390.274 82.2377 390.002 82.1869 389.733C82.1443 389.465 82.0139 389.208 81.7957 388.963C81.5658 388.705 81.3274 388.521 81.0806 388.411C80.8377 388.306 80.5868 388.267 80.328 388.293C80.0692 388.32 79.805 388.402 79.5356 388.54C79.2661 388.678 78.9877 388.863 78.7003 389.095L77.788 389.908C77.4836 390.218 77.2472 390.538 77.0787 390.869C76.9145 391.196 76.8515 391.53 76.8898 391.873C76.928 392.215 77.0991 392.557 77.4031 392.898C77.6252 393.148 77.8669 393.309 78.1283 393.382C78.3941 393.452 78.6721 393.451 78.9626 393.381C79.2569 393.315 79.5526 393.189 79.8498 393.003C80.1508 392.821 80.4501 392.598 80.7477 392.333ZM83.2012 395.114L83.339 394.992C83.8597 394.528 84.4051 394.176 84.9752 393.935C85.5496 393.69 86.1254 393.566 86.7025 393.562C87.2796 393.558 87.843 393.684 88.3926 393.94C88.9465 394.192 89.4632 394.587 89.9425 395.125C90.4217 395.663 90.7565 396.224 90.9468 396.808C91.1415 397.388 91.2036 397.964 91.1331 398.537C91.0664 399.114 90.8784 399.674 90.5689 400.216C90.2638 400.755 89.8509 401.256 89.3302 401.719L89.1923 401.842C88.676 402.302 88.1306 402.654 87.5561 402.899C86.9861 403.14 86.4083 403.262 85.823 403.266C85.2459 403.27 84.6825 403.144 84.1329 402.888C83.5833 402.632 83.0689 402.235 82.5896 401.696C82.1103 401.158 81.7733 400.599 81.5786 400.019C81.3879 399.444 81.3258 398.867 81.3924 398.29C81.4673 397.714 81.6573 397.156 81.9624 396.618C82.2719 396.075 82.6848 395.574 83.2012 395.114ZM85.0224 396.882L84.8845 397.005C84.587 397.27 84.3325 397.543 84.1211 397.826C83.9097 398.108 83.7562 398.394 83.6606 398.683C83.5732 398.973 83.5586 399.26 83.6168 399.546C83.675 399.831 83.8248 400.11 84.0664 400.381C84.3002 400.644 84.5556 400.82 84.8326 400.911C85.1095 401.002 85.3949 401.018 85.6888 400.961C85.987 400.899 86.2886 400.78 86.5935 400.602C86.9024 400.429 87.2056 400.21 87.5031 399.945L87.641 399.823C87.9298 399.565 88.1757 399.295 88.3789 399.012C88.5903 398.73 88.7418 398.442 88.8335 398.149C88.9335 397.856 88.9566 397.564 88.9028 397.275C88.849 396.985 88.7033 396.707 88.4656 396.44C88.2279 396.173 87.9684 395.996 87.6871 395.91C87.4096 395.827 87.1177 395.816 86.8112 395.877C86.5129 395.939 86.2114 396.059 85.9064 396.236C85.6059 396.409 85.3112 396.625 85.0224 396.882ZM92.8654 406.998L90.8839 404.773L92.1128 403.655L93.7494 405.493C93.9676 405.738 94.169 405.915 94.3535 406.026C94.5424 406.132 94.7184 406.175 94.8813 406.156C95.0526 406.137 95.2126 406.061 95.3614 405.928C95.4927 405.812 95.5828 405.688 95.6319 405.558C95.6892 405.429 95.7075 405.291 95.687 405.144C95.6664 404.998 95.6069 404.843 95.5085 404.679C95.4183 404.517 95.2914 404.343 95.1277 404.159L94.1808 403.096L88.5425 408.117L86.8592 406.227L93.9612 399.902L96.5914 402.856C97.0045 403.32 97.3331 403.772 97.5773 404.214C97.8258 404.652 97.9841 405.072 98.0521 405.474C98.124 405.881 98.0956 406.263 97.967 406.621C97.8467 406.979 97.618 407.308 97.2811 407.608C97.0623 407.803 96.8118 407.936 96.5296 408.007C96.2514 408.082 95.9521 408.09 95.6319 408.03C95.3117 407.969 94.9768 407.84 94.6272 407.641C94.2859 407.443 93.9407 407.17 93.5915 406.822L92.8654 406.998ZM89.8986 409.64L87.5021 406.949L89.5445 406.295L91.3623 408.336C91.5688 408.568 91.7668 408.733 91.9562 408.831C92.1455 408.929 92.3261 408.965 92.4978 408.937C92.6778 408.91 92.8466 408.827 93.0041 408.687C93.1573 408.55 93.2615 408.399 93.3169 408.232C93.3722 408.065 93.3642 407.88 93.293 407.676C93.2301 407.473 93.0875 407.247 92.8654 406.998L91.2931 405.232L92.5453 404.141L94.3339 406.149L94.2442 407.053C94.6578 407.579 94.93 408.074 95.0609 408.538C95.1917 409.002 95.2028 409.42 95.0941 409.791C94.9937 410.163 94.7991 410.478 94.5103 410.735C94.1734 411.035 93.8215 411.234 93.4547 411.334C93.0879 411.433 92.7081 411.433 92.3153 411.336C91.9308 411.239 91.5351 411.05 91.128 410.769C90.7253 410.484 90.3155 410.108 89.8986 409.64ZM98.5317 416.11L101.695 413.292C101.923 413.09 102.085 412.879 102.18 412.661C102.28 412.438 102.306 412.207 102.258 411.968C102.213 411.733 102.082 411.493 101.864 411.248C101.677 411.038 101.478 410.889 101.267 410.802C101.061 410.712 100.853 410.685 100.643 410.723C100.438 410.756 100.245 410.853 100.066 411.013L98.3824 409.123C98.6843 408.854 99.0333 408.669 99.4293 408.567C99.8253 408.465 100.245 408.457 100.688 408.54C101.136 408.62 101.583 408.791 102.028 409.054C102.478 409.32 102.907 409.683 103.316 410.143C103.807 410.694 104.151 411.266 104.35 411.859C104.548 412.451 104.572 413.034 104.423 413.606C104.277 414.183 103.929 414.717 103.377 415.208L100.338 417.914C99.9489 418.261 99.6509 418.569 99.4444 418.839C99.2422 419.106 99.0901 419.367 98.9882 419.622L98.8766 419.722L97.1757 417.812C97.2864 417.548 97.4647 417.264 97.7106 416.959C97.9649 416.654 98.2386 416.371 98.5317 416.11ZM101.478 413.933L100.42 414.899L99.4786 413.843C99.2564 413.593 99.0351 413.402 98.8146 413.269C98.594 413.136 98.3786 413.057 98.1684 413.032C97.9625 413.004 97.7665 413.021 97.5802 413.085C97.3977 413.153 97.2256 413.26 97.0637 413.404C96.9018 413.548 96.7883 413.716 96.7233 413.907C96.6626 414.095 96.6574 414.291 96.7077 414.498C96.7624 414.7 96.8735 414.895 97.0411 415.083C97.2944 415.368 97.5714 415.564 97.8723 415.673C98.1731 415.782 98.4573 415.819 98.7249 415.785C98.9964 415.755 99.2084 415.676 99.3611 415.548L99.0046 416.76C98.7628 416.849 98.4911 416.919 98.1895 416.968C97.8917 417.021 97.5757 417.032 97.2414 417C96.9114 416.964 96.5768 416.866 96.2375 416.705C95.9026 416.541 95.5773 416.281 95.2617 415.927C94.8603 415.476 94.5857 414.987 94.4377 414.46C94.2981 413.933 94.2925 413.42 94.421 412.921C94.5578 412.423 94.8319 411.99 95.2432 411.624C95.6151 411.293 96.0079 411.068 96.4214 410.951C96.8349 410.834 97.2609 410.824 97.6994 410.92C98.1461 411.016 98.603 411.225 99.0699 411.547C99.5412 411.865 100.018 412.295 100.502 412.837L101.478 413.933ZM108.488 421.99L107.017 423.3L103.803 419.69L105.273 418.38L108.488 421.99ZM108.702 416.456L101.6 422.78L99.917 420.89L107.019 414.566L108.702 416.456ZM112.496 420.716L105.394 427.04L103.705 425.143L110.807 418.819L112.496 420.716ZM111.019 428.045L117.604 426.453L119.288 428.343L112.186 434.667L110.502 432.777L114.972 428.797L108.381 430.394L106.697 428.504L113.799 422.18L115.483 424.07L111.019 428.045ZM118.39 434.498L120.096 436.414L114.793 437.595L113.092 435.685L118.39 434.498ZM123.081 432.603L125.858 435.721L118.756 442.045L117.072 440.155L122.71 435.134L121.617 433.906C121.388 433.648 121.148 433.477 120.9 433.392C120.656 433.303 120.423 433.283 120.2 433.332C119.986 433.382 119.802 433.475 119.649 433.612C119.5 433.744 119.391 433.912 119.321 434.116C119.251 434.319 119.244 434.545 119.3 434.793C119.356 435.041 119.495 435.29 119.718 435.539L121.465 437.502L120.179 438.648L118.431 436.685C118.014 436.217 117.697 435.746 117.479 435.273C117.266 434.804 117.143 434.349 117.11 433.907C117.086 433.465 117.147 433.054 117.294 432.672C117.449 432.291 117.69 431.955 118.019 431.662C118.36 431.358 118.735 431.15 119.144 431.036C119.553 430.923 119.982 430.902 120.43 430.974C120.878 431.046 121.325 431.217 121.77 431.487C122.223 431.758 122.66 432.13 123.081 432.603Z" fill="#A43FD4"/>
<path d="M60.3989 105.758L67.1573 112.448L65.3704 114.253L58.6119 107.563L60.3989 105.758ZM62.5506 103.584L63.9435 104.963L57.884 111.085L56.4911 109.706L62.5506 103.584ZM66.5395 102.153L74.5972 110.13L72.8165 111.929L63.4596 102.666L65.1105 100.998L66.5395 102.153ZM72.7801 99.8594L72.9112 99.9893C73.4026 100.476 73.8009 100.985 74.106 101.518C74.4153 102.047 74.6169 102.576 74.7107 103.106C74.8004 103.632 74.7699 104.146 74.6191 104.648C74.4683 105.142 74.1827 105.601 73.7622 106.026C73.3542 106.438 72.9164 106.714 72.4489 106.853C71.9814 106.992 71.4947 107.017 70.9888 106.929C70.4828 106.832 69.9681 106.648 69.4447 106.377C68.9213 106.106 68.3975 105.778 67.8735 105.391L67.53 105.051C67.1046 104.498 66.7496 103.957 66.4652 103.428C66.1766 102.895 65.9834 102.378 65.8856 101.877C65.7877 101.368 65.8039 100.881 65.9341 100.416C66.0684 99.9473 66.3376 99.5089 66.7416 99.1008C67.1661 98.6719 67.6204 98.3754 68.1043 98.2113C68.5924 98.0431 69.0976 97.9991 69.6201 98.0793C70.1467 98.1554 70.6759 98.3454 71.2078 98.6493C71.7438 98.949 72.2679 99.3524 72.7801 99.8594ZM71.1243 101.794L70.9931 101.665C70.7058 101.38 70.4166 101.143 70.1257 100.954C69.8346 100.757 69.546 100.62 69.2597 100.542C68.9775 100.461 68.704 100.454 68.4392 100.522C68.1744 100.581 67.9265 100.727 67.6957 100.96C67.4525 101.206 67.2839 101.456 67.1898 101.709C67.1 101.958 67.0764 102.211 67.1191 102.467C67.1618 102.724 67.2605 102.982 67.4151 103.243C67.5698 103.503 67.7721 103.769 68.022 104.041L68.8903 104.901C69.219 105.185 69.5537 105.401 69.8942 105.548C70.2305 105.692 70.5684 105.733 70.9078 105.674C71.2473 105.614 71.5778 105.422 71.8993 105.097C72.1342 104.859 72.28 104.608 72.3367 104.343C72.3892 104.073 72.3712 103.796 72.2828 103.51C72.1984 103.22 72.054 102.933 71.8496 102.648C71.6492 102.359 71.4075 102.075 71.1243 101.794ZM80.5452 99.1736C80.0258 99.6983 79.4767 100.086 78.8979 100.338C78.315 100.585 77.7293 100.706 77.141 100.701C76.5567 100.692 75.9905 100.568 75.4424 100.331C74.8901 100.089 74.3891 99.7456 73.9394 99.3004L73.6896 99.0531C73.1774 98.546 72.781 98.0094 72.5006 97.4432C72.2201 96.877 72.0577 96.304 72.0133 95.7242C71.973 95.1402 72.0634 94.57 72.2843 94.0137C72.501 93.4533 72.8526 92.9274 73.339 92.436C73.8131 91.9571 74.3126 91.6107 74.8377 91.3967C75.3629 91.1827 75.8948 91.0951 76.4336 91.1338C76.9766 91.1683 77.516 91.323 78.0519 91.5979C78.5836 91.8687 79.0972 92.2493 79.5927 92.7399L80.3423 93.4818L75.0247 98.8536L73.8255 97.6665L77.3932 94.0624L77.2557 93.9263C77.0059 93.679 76.7378 93.5043 76.4514 93.4021C76.1649 93.2917 75.8748 93.2683 75.5809 93.332C75.2871 93.3956 75.0021 93.567 74.7259 93.846C74.4909 94.0833 74.341 94.3389 74.2761 94.6127C74.2112 94.8864 74.2188 95.1702 74.299 95.464C74.3834 95.7536 74.5258 96.0512 74.7262 96.3568C74.9266 96.6541 75.1767 96.9511 75.4765 97.2479L75.7264 97.4952C75.997 97.7632 76.284 97.973 76.5872 98.1248C76.8946 98.2724 77.2016 98.3578 77.5083 98.3811C77.8191 98.4003 78.1214 98.3532 78.415 98.2398C78.7127 98.1223 78.9914 97.9323 79.2511 97.67C79.5726 97.3452 79.809 96.9815 79.9603 96.5788C80.1115 96.1678 80.159 95.7326 80.1028 95.2729L81.9179 95.3383C81.9818 95.6819 81.9858 96.0692 81.93 96.5004C81.8783 96.9274 81.7438 97.3715 81.5266 97.8325C81.3051 98.2893 80.978 98.7364 80.5452 99.1736ZM83.4432 90.9739L81.4402 84.502L83.221 82.703L89.9795 89.3932L88.1987 91.1922L83.945 86.9814L85.9542 93.4596L84.1735 95.2585L77.415 88.5683L79.1957 86.7694L83.4432 90.9739ZM78.5191 82.0184L79.7866 80.7379C80.1447 81.0924 80.3747 81.4973 80.4764 81.9525C80.5781 82.3995 80.5473 82.8637 80.3841 83.3451C80.2166 83.8225 79.9144 84.2818 79.4775 84.7232C78.8138 85.3937 78.1175 85.7556 77.3886 85.809C76.6637 85.8583 76.0307 85.615 75.4893 85.0791L76.7507 83.8048C76.9672 84.0192 77.2268 84.1442 77.5294 84.18C77.8362 84.2116 78.1524 84.0629 78.4781 83.7339C78.7996 83.4091 78.9409 83.0956 78.9021 82.7933C78.8633 82.4911 78.7356 82.2328 78.5191 82.0184ZM85.7994 80.0984L87.5801 78.2994L89.7856 80.594C90.4937 81.3279 91.0338 82.0274 91.406 82.6926C91.7781 83.3577 92.0175 83.9905 92.1241 84.5907C92.2307 85.1909 92.2315 85.7565 92.1265 86.2873C92.0214 86.8099 91.8478 87.2976 91.6056 87.7505L91.2717 88.0878L89.8665 86.7338L90.0333 86.5279C90.0228 86.0971 89.9815 85.7099 89.9093 85.3664C89.833 85.0187 89.7153 84.692 89.5563 84.3862C89.3973 84.0804 89.1906 83.7686 88.9363 83.4509C88.686 83.129 88.3756 82.7763 88.0049 82.3929L85.7994 80.0984ZM86.2817 79.6111L90.715 75.1326L97.4735 81.8228L95.6989 83.6154L90.3833 78.3536L87.7246 81.0395L86.2817 79.6111ZM89.4582 87.1088L97.0265 79.4634L100.462 82.8641L98.6812 84.6631L96.6511 82.6535L92.6877 86.6574L94.7177 88.6669L92.8937 90.5096L89.4582 87.1088ZM98.5302 75.733L96.5272 69.2611L98.308 67.4621L105.066 74.1523L103.286 75.9513L99.032 71.7405L101.041 78.2187L99.2604 80.0176L92.502 73.3274L94.2827 71.5285L98.5302 75.733ZM106.992 64.149L108.391 65.5341L104.99 68.9695L103.591 67.5845L106.992 64.149ZM101.455 64.2828L108.214 70.973L106.433 72.7719L99.6744 66.0817L101.455 64.2828ZM105.468 60.229L112.227 66.9192L110.44 68.7243L103.681 62.0341L105.468 60.229ZM111.404 54.2325L112.816 55.6299L110.033 58.4408L115.38 63.7336L113.599 65.5325L106.841 58.8423L111.404 54.2325Z" fill="#A43FD4"/>
<path d="M389.017 42.9041L379.605 51.574L377.818 49.6348L385.711 42.3642L382.228 38.5826L374.334 45.8532L372.548 43.914L381.96 35.244L389.017 42.9041ZM388.423 49.8086L380.083 57.4901L378.368 55.6284L388.052 46.7084L389.642 48.4343L388.423 49.8086ZM390.427 56.1481L390.291 56.2731C389.782 56.7415 389.255 57.1159 388.708 57.3962C388.166 57.6808 387.628 57.8577 387.094 57.9271C386.565 57.9924 386.053 57.9382 385.558 57.7645C385.072 57.5911 384.626 57.2847 384.221 56.8451C383.828 56.4185 383.573 55.9684 383.456 55.4951C383.338 55.0217 383.335 54.5343 383.447 54.0331C383.567 53.5321 383.775 53.0264 384.069 52.516C384.364 52.0057 384.717 51.4977 385.127 50.992L385.483 50.6645C386.055 50.2651 386.611 49.9354 387.153 49.6757C387.699 49.412 388.224 49.2428 388.729 49.1681C389.242 49.0938 389.728 49.1324 390.186 49.2839C390.648 49.4397 391.074 49.7288 391.463 50.1511C391.872 50.595 392.147 51.0624 392.288 51.5533C392.434 52.0486 392.455 52.5553 392.35 53.0735C392.25 53.596 392.036 54.1159 391.708 54.6332C391.384 55.1548 390.957 55.6598 390.427 56.1481ZM388.57 54.405L388.706 54.2799C389.003 54.006 389.253 53.7281 389.455 53.4461C389.666 53.1645 389.816 52.8825 389.907 52.6001C390.001 52.322 390.02 52.0491 389.965 51.7814C389.918 51.5141 389.783 51.2598 389.561 51.0185C389.327 50.7642 389.085 50.5843 388.837 50.4787C388.592 50.3775 388.341 50.3423 388.082 50.3731C387.824 50.404 387.561 50.4907 387.294 50.6331C387.027 50.7756 386.752 50.9654 386.468 51.2026L385.57 52.0303C385.271 52.3456 385.04 52.6699 384.877 53.0032C384.718 53.3326 384.661 53.6682 384.705 54.01C384.749 54.3518 384.926 54.6908 385.235 55.027C385.461 55.2726 385.706 55.4298 385.968 55.4987C386.235 55.5635 386.513 55.5583 386.803 55.4831C387.096 55.4122 387.389 55.2812 387.683 55.0901C387.981 54.9033 388.277 54.6749 388.57 54.405ZM392.225 60.0595L398.783 58.3569L400.498 60.2186L393.503 66.6615L391.788 64.7998L396.191 60.7447L389.627 62.4533L387.912 60.5916L394.906 54.1487L396.621 56.0104L392.225 60.0595ZM400.957 68.8893L398.938 66.6979L400.148 65.5595L401.816 67.3695C402.038 67.6108 402.242 67.7851 402.429 67.8923C402.619 67.9954 402.796 68.0359 402.959 68.0135C403.13 67.9915 403.288 67.913 403.435 67.778C403.564 67.6589 403.652 67.534 403.699 67.4032C403.754 67.2728 403.77 67.1346 403.747 66.9885C403.724 66.8424 403.662 66.6885 403.561 66.5268C403.468 66.3654 403.338 66.1942 403.171 66.0132L402.207 64.966L396.654 70.081L394.939 68.2194L401.933 61.7765L404.613 64.6853C405.034 65.1421 405.37 65.5893 405.622 66.0267C405.877 66.4601 406.043 66.8774 406.118 67.2786C406.196 67.684 406.174 68.0667 406.052 68.4265C405.937 68.7868 405.714 69.1197 405.383 69.4254C405.167 69.6239 404.919 69.7609 404.638 69.8364C404.361 69.9163 404.062 69.9289 403.741 69.8742C403.419 69.8196 403.082 69.6959 402.73 69.5031C402.385 69.3107 402.035 69.0434 401.68 68.7012L400.957 68.8893ZM398.035 71.5807L395.594 68.9304L397.625 68.2425L399.477 70.2529C399.687 70.4813 399.888 70.6429 400.079 70.7378C400.27 70.8328 400.451 70.8651 400.622 70.8348C400.802 70.8048 400.969 70.7184 401.124 70.5755C401.275 70.4365 401.377 70.2831 401.429 70.1153C401.482 69.9474 401.471 69.7625 401.396 69.5604C401.33 69.3586 401.183 69.1349 400.957 68.8893L399.355 67.1504L400.589 66.0379L402.411 68.0159L402.337 68.921C402.759 69.44 403.04 69.9305 403.178 70.3923C403.317 70.8541 403.335 71.2716 403.233 71.6447C403.139 72.0182 402.949 72.3359 402.665 72.5979C402.333 72.9036 401.984 73.1091 401.619 73.2144C401.254 73.3196 400.875 73.3269 400.48 73.236C400.094 73.1456 399.695 72.9633 399.283 72.6893C398.876 72.4114 398.46 72.0419 398.035 71.5807ZM413.051 73.8451L411.59 75.1909L408.422 71.7519L409.883 70.4062L413.051 73.8451ZM414.308 75.2091L407.313 81.652L405.598 79.7903L412.593 73.3474L414.308 75.2091ZM409.454 69.9407L411.14 71.7701L407.437 74.8339C406.909 75.2725 406.416 75.6275 405.957 75.8989C405.498 76.1704 405.069 76.3622 404.67 76.4744C404.276 76.5909 403.905 76.6337 403.558 76.6029C403.219 76.5724 402.896 76.4679 402.588 76.2894C402.284 76.1152 401.995 75.8794 401.721 75.5821L401.197 75.0132L402.647 73.6421L402.893 73.8575C403.033 73.9835 403.183 74.0684 403.343 74.1123C403.511 74.1565 403.691 74.1577 403.884 74.1159C404.085 74.0743 404.306 73.9901 404.547 73.8632C404.793 73.7323 405.064 73.5589 405.359 73.3429C405.658 73.1313 405.988 72.8711 406.349 72.5625L409.454 69.9407ZM411.477 86.4318C410.977 85.8888 410.615 85.3224 410.39 84.7327C410.17 84.139 410.076 83.5484 410.108 82.9609C410.145 82.3777 410.294 81.8178 410.556 81.2812C410.823 80.7407 411.189 80.2561 411.655 79.8273L411.914 79.5891C412.444 79.1009 412.998 78.7297 413.576 78.4756C414.155 78.2215 414.735 78.0857 415.316 78.0681C415.901 78.0547 416.467 78.1712 417.012 78.4175C417.562 78.6599 418.071 79.0353 418.54 79.5438C418.996 80.0394 419.319 80.5544 419.509 81.0888C419.699 81.6232 419.762 82.1586 419.698 82.6951C419.639 83.2358 419.459 83.7675 419.16 84.2901C418.865 84.8088 418.461 85.3043 417.948 85.7767L417.173 86.4913L412.051 80.9321L413.292 79.7888L416.728 83.5186L416.871 83.3876C417.129 83.1494 417.316 82.8897 417.431 82.6083C417.555 82.3272 417.592 82.0385 417.542 81.742C417.492 81.4455 417.333 81.1529 417.067 80.8642C416.841 80.6186 416.593 80.457 416.322 80.3796C416.052 80.3021 415.768 80.2967 415.471 80.3633C415.178 80.4342 414.874 80.5627 414.559 80.7489C414.253 80.9353 413.945 81.1715 413.634 81.4573L413.376 81.6955C413.096 81.9535 412.873 82.2305 412.707 82.5264C412.546 82.8266 412.446 83.1294 412.409 83.4347C412.375 83.7443 412.409 84.0484 412.508 84.3469C412.612 84.6497 412.789 84.9368 413.039 85.2083C413.349 85.5445 413.701 85.7974 414.096 85.967C414.5 86.137 414.933 86.2045 415.394 86.1695L415.245 87.9796C414.899 88.0276 414.512 88.0138 414.084 87.9382C413.66 87.8669 413.222 87.7121 412.772 87.4738C412.326 87.2316 411.894 86.8843 411.477 86.4318ZM427.653 89.6954L420.658 96.1383L418.937 94.2701L425.932 87.8272L427.653 89.6954ZM423.85 91.5732L422.395 92.913C422.191 92.8383 421.953 92.7186 421.682 92.5541C421.411 92.3895 421.141 92.2002 420.872 91.9859C420.611 91.7721 420.384 91.5595 420.189 91.3484C419.57 90.6761 419.13 90.0133 418.871 89.3599C418.616 88.7109 418.567 88.0744 418.726 87.4507C418.884 86.8269 419.273 86.2292 419.894 85.6575L422.085 83.6389L423.8 85.5006L421.609 87.5192C421.294 87.809 421.09 88.0847 420.996 88.3462C420.907 88.6038 420.917 88.8654 421.026 89.1311C421.144 89.3972 421.35 89.6897 421.644 90.0086C421.85 90.2327 422.068 90.4344 422.297 90.6138C422.526 90.7932 422.768 90.9607 423.023 91.1163C423.277 91.2719 423.553 91.4242 423.85 91.5732ZM424.816 100.912C424.316 100.369 423.954 99.8022 423.729 99.2125C423.509 98.6188 423.415 98.0282 423.447 97.4407C423.484 96.8575 423.633 96.2976 423.896 95.7611C424.162 95.2205 424.529 94.7359 424.994 94.3071L425.253 94.069C425.783 93.5807 426.337 93.2095 426.916 92.9554C427.494 92.7013 428.074 92.5655 428.655 92.5479C429.241 92.5346 429.806 92.6511 430.352 92.8974C430.901 93.1397 431.411 93.5151 431.879 94.0236C432.336 94.5192 432.659 95.0342 432.848 95.5686C433.038 96.103 433.101 96.6384 433.037 97.1749C432.978 97.7156 432.798 98.2473 432.499 98.77C432.204 99.2886 431.8 99.7841 431.287 100.257L430.512 100.971L425.39 95.4119L426.632 94.2686L430.068 97.9984L430.21 97.8674C430.468 97.6293 430.655 97.3695 430.77 97.0881C430.894 96.807 430.931 96.5183 430.881 96.2218C430.831 95.9254 430.673 95.6328 430.407 95.344C430.18 95.0984 429.932 94.9368 429.661 94.8594C429.391 94.782 429.107 94.7765 428.81 94.8431C428.517 94.914 428.213 95.0425 427.898 95.2287C427.592 95.4151 427.284 95.6513 426.974 95.9371L426.715 96.1753C426.435 96.4333 426.212 96.7103 426.046 97.0062C425.885 97.3064 425.785 97.6092 425.748 97.9145C425.715 98.2241 425.748 98.5282 425.847 98.8267C425.951 99.1295 426.128 99.4166 426.378 99.6881C426.688 100.024 427.04 100.277 427.435 100.447C427.839 100.617 428.272 100.684 428.733 100.649L428.585 102.459C428.238 102.507 427.851 102.494 427.423 102.418C426.999 102.347 426.561 102.192 426.111 101.954C425.665 101.711 425.233 101.364 424.816 100.912ZM437.149 105.672L435.7 107.006L432.425 103.45L433.873 102.117L437.149 105.672ZM437.27 100.135L430.275 106.578L428.56 104.716L435.555 98.2733L437.27 100.135ZM441.135 104.33L434.14 110.773L432.419 108.905L439.414 102.462L441.135 104.33ZM439.782 111.683L446.339 109.98L448.054 111.842L441.06 118.285L439.345 116.423L443.747 112.368L437.183 114.076L435.468 112.215L442.463 105.772L444.178 107.634L439.782 111.683ZM445.218 123.058C444.718 122.515 444.355 121.949 444.131 121.359C443.911 120.765 443.817 120.175 443.849 119.587C443.885 119.004 444.035 118.444 444.297 117.907C444.564 117.367 444.93 116.882 445.396 116.454L445.654 116.215C446.184 115.727 446.739 115.356 447.317 115.102C447.896 114.848 448.476 114.712 449.057 114.694C449.642 114.681 450.208 114.797 450.753 115.044C451.303 115.286 451.812 115.661 452.281 116.17C452.737 116.666 453.06 117.181 453.25 117.715C453.439 118.249 453.503 118.785 453.439 119.321C453.38 119.862 453.2 120.394 452.901 120.916C452.606 121.435 452.202 121.931 451.689 122.403L450.913 123.117L445.792 117.558L447.033 116.415L450.469 120.145L450.612 120.014C450.87 119.776 451.057 119.516 451.172 119.234C451.296 118.953 451.332 118.665 451.282 118.368C451.232 118.072 451.074 117.779 450.808 117.49C450.582 117.245 450.334 117.083 450.063 117.006C449.793 116.928 449.509 116.923 449.212 116.989C448.918 117.06 448.615 117.189 448.3 117.375C447.994 117.562 447.686 117.798 447.375 118.083L447.117 118.322C446.837 118.58 446.614 118.857 446.448 119.153C446.287 119.453 446.187 119.756 446.15 120.061C446.116 120.37 446.149 120.675 446.249 120.973C446.353 121.276 446.53 121.563 446.78 121.835C447.089 122.171 447.442 122.424 447.837 122.593C448.241 122.763 448.673 122.831 449.135 122.796L448.986 124.606C448.64 124.654 448.253 124.64 447.825 124.564C447.401 124.493 446.963 124.338 446.513 124.1C446.066 123.858 445.635 123.51 445.218 123.058ZM376.924 75.6835L376.788 75.8086C376.284 76.273 375.769 76.6438 375.244 76.9208C374.726 77.1981 374.211 77.3698 373.699 77.4358C373.19 77.4979 372.705 77.4469 372.243 77.2828C371.781 77.1187 371.358 76.8277 370.973 76.4096C370.615 76.0218 370.379 75.6182 370.263 75.1988C370.156 74.7797 370.147 74.3502 370.236 73.9101C370.332 73.4704 370.504 73.0255 370.751 72.5753C371.005 72.1255 371.316 71.68 371.682 71.239L372.801 70.2088C373.301 69.852 373.796 69.5551 374.287 69.3181C374.782 69.0772 375.261 68.9186 375.724 68.8422C376.192 68.7702 376.634 68.8008 377.052 68.934C377.469 69.0672 377.857 69.3278 378.214 69.7156C378.524 70.0518 378.745 70.4092 378.879 70.7878C379.017 71.1708 379.073 71.565 379.048 71.9703C379.027 72.38 378.927 72.7947 378.748 73.2145C378.578 73.6346 378.337 74.0518 378.025 74.4661C377.718 74.8847 377.351 75.2905 376.924 75.6835ZM375.067 73.9404L375.203 73.8154C375.444 73.5931 375.661 73.3656 375.853 73.133C376.053 72.9007 376.218 72.669 376.348 72.438C376.482 72.2113 376.572 71.989 376.618 71.7711C376.669 71.5493 376.669 71.3378 376.619 71.1367C376.574 70.9317 376.472 70.743 376.313 70.5706C376.035 70.2689 375.746 70.0767 375.447 69.9939C375.156 69.9115 374.857 69.9241 374.55 70.0318C374.251 70.1398 373.949 70.3223 373.644 70.5793L371.976 72.1156C371.742 72.363 371.574 72.6174 371.472 72.8786C371.378 73.1401 371.367 73.4133 371.438 73.6982C371.518 73.9835 371.699 74.2791 371.981 74.585C372.183 74.8048 372.403 74.9445 372.641 75.004C372.883 75.0678 373.137 75.0616 373.401 74.9854C373.669 74.9135 373.94 74.7877 374.213 74.6082C374.494 74.429 374.779 74.2064 375.067 73.9404ZM368.684 67.0108L368.819 66.8857C369.246 66.4927 369.681 66.1602 370.123 65.8881C370.565 65.616 371.001 65.4099 371.43 65.2699C371.867 65.1303 372.288 65.0647 372.694 65.073C373.1 65.0814 373.487 65.1677 373.853 65.3321C374.224 65.5007 374.564 65.7531 374.873 66.0892C375.227 66.4727 375.453 66.878 375.551 67.305C375.65 67.732 375.642 68.1733 375.528 68.6289C375.414 69.0845 375.216 69.5491 374.936 70.0227C374.659 70.4924 374.325 70.9638 373.932 71.437L372.866 72.4195C372.379 72.7562 371.899 73.035 371.426 73.2561C370.956 73.4732 370.494 73.6118 370.04 73.6719C369.594 73.7324 369.166 73.6921 368.757 73.5509C368.349 73.4097 367.965 73.1452 367.608 72.7574C367.227 72.3437 366.972 71.8978 366.842 71.4198C366.716 70.946 366.705 70.4584 366.809 69.9567C366.92 69.4554 367.134 68.9562 367.449 68.4591C367.768 67.958 368.179 67.4753 368.684 67.0108ZM370.534 68.7474L370.399 68.8725C370.11 69.1385 369.863 69.402 369.657 69.6631C369.46 69.9245 369.312 70.1838 369.215 70.4411C369.125 70.6986 369.101 70.9485 369.14 71.1906C369.18 71.4328 369.301 71.6637 369.504 71.8835C369.79 72.1938 370.072 72.3961 370.35 72.4904C370.632 72.5891 370.911 72.5985 371.188 72.5186C371.465 72.4388 371.739 72.2821 372.01 72.0485L373.626 70.5599C373.911 70.2813 374.118 69.9954 374.246 69.7021C374.382 69.4091 374.422 69.1143 374.363 68.8175C374.309 68.5167 374.139 68.2112 373.853 67.9009C373.651 67.6811 373.42 67.5472 373.161 67.4993C372.905 67.4556 372.633 67.4797 372.343 67.5715C372.057 67.6675 371.758 67.8191 371.447 68.0261C371.14 68.2291 370.836 68.4696 370.534 68.7474ZM365.858 75.9945L378.477 64.3711L380.198 66.2393L367.579 77.8627L365.858 75.9945ZM378.858 79.4948L385.415 77.7921L387.13 79.6538L380.136 86.0967L378.421 84.2351L382.823 80.18L376.259 81.8885L374.544 80.0269L381.539 73.584L383.254 75.4456L378.858 79.4948ZM390.04 88.481L388.592 89.8149L385.317 86.2596L386.765 84.9257L390.04 88.481ZM390.161 82.9441L383.167 89.387L381.452 87.5253L388.446 81.0824L390.161 82.9441ZM394.026 87.1394L387.032 93.5823L385.311 91.7141L392.305 85.2712L394.026 87.1394ZM393.42 97.3524L396.536 94.4823C396.76 94.2759 396.919 94.0626 397.01 93.8425C397.107 93.6183 397.129 93.387 397.076 93.1485C397.028 92.9143 396.892 92.6766 396.67 92.4352C396.48 92.2284 396.278 92.0833 396.066 91.9999C395.858 91.9126 395.65 91.8896 395.441 91.9307C395.236 91.968 395.045 92.0679 394.868 92.2307L393.153 90.369C393.451 90.0951 393.797 89.904 394.191 89.7958C394.585 89.6876 395.005 89.6716 395.449 89.7479C395.898 89.8203 396.348 89.9838 396.798 90.2386C397.251 90.4978 397.687 90.8536 398.104 91.3061C398.604 91.8491 398.958 92.4151 399.166 93.0041C399.374 93.5932 399.408 94.1751 399.268 94.7499C399.133 95.329 398.793 95.8687 398.25 96.3688L395.257 99.1258C394.874 99.4791 394.581 99.7926 394.379 100.066C394.181 100.336 394.034 100.599 393.936 100.857L393.826 100.958L392.093 99.0769C392.199 98.8117 392.373 98.5244 392.614 98.215C392.863 97.9059 393.132 97.6184 393.42 97.3524ZM396.33 95.1269L395.288 96.1104L394.329 95.0697C394.103 94.8241 393.878 94.6366 393.655 94.5072C393.433 94.3778 393.216 94.3025 393.005 94.2815C392.799 94.2564 392.603 94.2774 392.418 94.3444C392.237 94.4158 392.066 94.5249 391.907 94.6718C391.748 94.8187 391.637 94.9883 391.575 95.1806C391.518 95.369 391.516 95.5659 391.57 95.7713C391.628 95.9727 391.742 96.1661 391.913 96.3514C392.171 96.6315 392.451 96.8234 392.754 96.927C393.056 97.0307 393.341 97.0631 393.608 97.0243C393.879 96.9898 394.09 96.9072 394.24 96.7765L393.904 97.9943C393.664 98.0881 393.393 98.162 393.093 98.216C392.796 98.2743 392.48 98.2904 392.145 98.2642C391.815 98.234 391.478 98.1415 391.137 97.9865C390.799 97.8275 390.469 97.5734 390.148 97.2244C389.739 96.7805 389.456 96.2962 389.299 95.7714C389.151 95.247 389.136 94.7343 389.257 94.2334C389.385 93.7328 389.652 93.2959 390.057 92.9227C390.423 92.5853 390.812 92.3545 391.223 92.2304C391.635 92.1063 392.061 92.0885 392.501 92.1771C392.949 92.266 393.409 92.4673 393.882 92.7811C394.358 93.0909 394.843 93.513 395.335 94.0474L396.33 95.1269ZM403.474 103.064L402.026 104.398L398.751 100.843L400.199 99.509L403.474 103.064ZM403.596 97.5274L396.601 103.97L394.886 102.109L401.881 95.6657L403.596 97.5274ZM407.461 101.723L400.466 108.166L398.745 106.297L405.74 99.8545L407.461 101.723ZM405.787 111.282C405.997 111.511 406.227 111.674 406.476 111.771C406.729 111.864 406.981 111.887 407.232 111.839C407.491 111.792 407.732 111.669 407.956 111.471L409.57 113.223C409.075 113.671 408.516 113.942 407.895 114.037C407.277 114.128 406.658 114.057 406.037 113.824C405.421 113.587 404.864 113.2 404.368 112.661C403.868 112.118 403.522 111.56 403.33 110.989C403.141 110.421 403.084 109.857 403.156 109.296C403.234 108.731 403.424 108.185 403.727 107.659C404.035 107.128 404.435 106.637 404.926 106.184L405.114 106.011C405.609 105.555 406.132 105.197 406.682 104.937C407.236 104.674 407.795 104.529 408.36 104.503C408.93 104.472 409.49 104.574 410.04 104.808C410.59 105.042 411.113 105.428 411.609 105.967C412.137 106.54 412.49 107.143 412.667 107.777C412.848 108.414 412.847 109.045 412.664 109.667C412.489 110.291 412.126 110.86 411.574 111.377L409.96 109.625C410.189 109.406 410.355 109.162 410.457 108.893C410.563 108.628 410.591 108.355 410.54 108.075C410.498 107.796 410.359 107.529 410.125 107.274C409.875 107.003 409.612 106.835 409.337 106.769C409.066 106.7 408.788 106.709 408.503 106.797C408.221 106.881 407.938 107.019 407.652 107.21C407.375 107.402 407.1 107.623 406.829 107.873L406.641 108.046C406.37 108.296 406.125 108.553 405.907 108.818C405.689 109.083 405.526 109.352 405.42 109.625C405.317 109.903 405.289 110.18 405.336 110.455C405.382 110.731 405.533 111.007 405.787 111.282ZM411.312 113.064L411.448 112.939C411.961 112.467 412.5 112.105 413.066 111.855C413.636 111.6 414.21 111.466 414.787 111.453C415.364 111.439 415.929 111.555 416.483 111.802C417.041 112.045 417.564 112.431 418.053 112.961C418.541 113.491 418.885 114.046 419.085 114.627C419.29 115.203 419.362 115.779 419.301 116.352C419.244 116.931 419.065 117.493 418.765 118.041C418.469 118.584 418.064 119.092 417.552 119.565L417.416 119.69C416.907 120.158 416.368 120.52 415.798 120.774C415.232 121.025 414.656 121.156 414.071 121.17C413.494 121.183 412.928 121.067 412.375 120.82C411.821 120.574 411.3 120.185 410.811 119.655C410.323 119.125 409.977 118.572 409.772 117.995C409.572 117.423 409.5 116.848 409.557 116.27C409.622 115.692 409.803 115.131 410.099 114.588C410.399 114.04 410.803 113.532 411.312 113.064ZM413.163 114.801L413.027 114.926C412.734 115.196 412.484 115.474 412.278 115.759C412.071 116.045 411.922 116.334 411.831 116.624C411.749 116.915 411.739 117.203 411.802 117.488C411.865 117.772 412.02 118.048 412.266 118.315C412.504 118.574 412.762 118.746 413.041 118.832C413.319 118.918 413.605 118.93 413.898 118.867C414.195 118.801 414.495 118.676 414.796 118.494C415.102 118.316 415.402 118.092 415.695 117.822L415.831 117.697C416.115 117.435 416.356 117.16 416.555 116.874C416.761 116.588 416.908 116.298 416.995 116.003C417.09 115.708 417.108 115.417 417.049 115.128C416.991 114.84 416.84 114.564 416.598 114.301C416.356 114.038 416.094 113.866 415.811 113.783C415.532 113.706 415.24 113.7 414.934 113.766C414.637 113.833 414.338 113.957 414.036 114.14C413.738 114.318 413.447 114.539 413.163 114.801ZM421.175 124.783L419.157 122.591L420.367 121.453L422.034 123.263C422.256 123.504 422.461 123.678 422.647 123.786C422.838 123.889 423.014 123.929 423.177 123.907C423.348 123.885 423.507 123.806 423.653 123.671C423.782 123.552 423.87 123.427 423.917 123.297C423.972 123.166 423.988 123.028 423.965 122.882C423.942 122.736 423.88 122.582 423.779 122.42C423.686 122.259 423.556 122.088 423.39 121.907L422.425 120.859L416.872 125.974L415.157 124.113L422.151 117.67L424.831 120.579C425.252 121.036 425.588 121.483 425.84 121.92C426.096 122.354 426.261 122.771 426.336 123.172C426.415 123.577 426.393 123.96 426.27 124.32C426.156 124.68 425.933 125.013 425.601 125.319C425.385 125.517 425.137 125.654 424.856 125.73C424.579 125.81 424.28 125.822 423.959 125.768C423.638 125.713 423.301 125.589 422.948 125.396C422.603 125.204 422.253 124.937 421.898 124.595L421.175 124.783ZM418.253 127.474L415.812 124.824L417.843 124.136L419.695 126.146C419.905 126.375 420.106 126.536 420.297 126.631C420.488 126.726 420.669 126.758 420.841 126.728C421.02 126.698 421.187 126.612 421.343 126.469C421.493 126.33 421.595 126.177 421.648 126.009C421.7 125.841 421.689 125.656 421.614 125.454C421.548 125.252 421.402 125.028 421.175 124.783L419.573 123.044L420.807 121.931L422.629 123.909L422.555 124.814C422.977 125.333 423.258 125.824 423.397 126.286C423.535 126.747 423.553 127.165 423.451 127.538C423.357 127.912 423.167 128.229 422.883 128.491C422.551 128.797 422.203 129.002 421.838 129.108C421.473 129.213 421.093 129.22 420.698 129.129C420.312 129.039 419.913 128.857 419.502 128.583C419.094 128.305 418.678 127.935 418.253 127.474Z" fill="#A43FD4"/>
<path d="M343.58 425.33L345.693 423.42C346.258 422.91 346.864 422.532 347.511 422.287C348.154 422.037 348.809 421.927 349.475 421.956C350.142 421.978 350.794 422.143 351.429 422.453C352.061 422.759 352.646 423.21 353.184 423.805C353.711 424.388 354.092 425.007 354.329 425.662C354.561 426.312 354.653 426.968 354.603 427.629C354.557 428.287 354.377 428.923 354.064 429.537C353.751 430.152 353.312 430.715 352.747 431.226L350.634 433.135C350.065 433.65 349.458 434.032 348.815 434.281C348.172 434.531 347.521 434.65 346.862 434.637C346.199 434.62 345.553 434.465 344.925 434.172C344.301 433.875 343.726 433.435 343.2 432.853C342.662 432.257 342.272 431.63 342.032 430.97C341.792 430.303 341.693 429.634 341.735 428.964C341.777 428.294 341.953 427.65 342.262 427.03C342.571 426.411 343.011 425.845 343.58 425.33ZM344.994 426.895C344.577 427.272 344.292 427.695 344.14 428.165C343.988 428.634 343.986 429.125 344.134 429.639C344.278 430.148 344.584 430.662 345.052 431.179C345.39 431.553 345.738 431.838 346.097 432.035C346.457 432.223 346.817 432.328 347.177 432.35C347.536 432.373 347.89 432.318 348.237 432.186C348.583 432.054 348.911 431.849 349.22 431.57L351.345 429.649C351.758 429.276 352.039 428.861 352.186 428.403C352.338 427.942 352.346 427.461 352.209 426.961C352.073 426.46 351.783 425.964 351.339 425.473C350.989 425.086 350.631 424.79 350.264 424.585C349.896 424.38 349.531 424.26 349.168 424.225C348.805 424.19 348.45 424.238 348.103 424.37C347.756 424.493 347.429 424.695 347.12 424.974L344.994 426.895ZM344.45 422.281L353.737 432.558L351.859 434.255L342.572 423.978L344.45 422.281ZM358.103 423.139L356.462 416.566L358.34 414.869L364.717 421.924L362.839 423.621L358.825 419.181L360.472 425.761L358.594 427.458L352.217 420.402L354.095 418.705L358.103 423.139ZM367.195 412.043L368.515 413.504L364.929 416.745L363.609 415.284L367.195 412.043ZM361.659 411.869L368.036 418.925L366.158 420.622L359.781 413.566L361.659 411.869ZM365.891 408.045L372.268 415.1L370.383 416.803L364.007 409.748L365.891 408.045ZM376.098 408.747L373.258 405.604C373.053 405.378 372.842 405.218 372.622 405.124C372.399 405.026 372.168 405.002 371.929 405.052C371.694 405.098 371.455 405.231 371.212 405.451C371.003 405.64 370.856 405.84 370.771 406.051C370.682 406.258 370.657 406.466 370.696 406.676C370.731 406.881 370.829 407.072 370.99 407.251L369.112 408.948C368.841 408.648 368.654 408.3 368.549 407.905C368.445 407.51 368.433 407.09 368.513 406.646C368.59 406.198 368.758 405.75 369.017 405.303C369.28 404.851 369.64 404.42 370.096 404.007C370.644 403.512 371.214 403.163 371.805 402.961C372.396 402.758 372.978 402.73 373.551 402.875C374.129 403.016 374.666 403.361 375.161 403.908L377.889 406.927C378.239 407.314 378.549 407.61 378.821 407.815C379.089 408.015 379.351 408.165 379.607 408.265L379.708 408.376L377.81 410.091C377.546 409.982 377.26 409.806 376.953 409.562C376.646 409.31 376.361 409.038 376.098 408.747ZM373.9 405.817L374.874 406.868L373.824 407.817C373.576 408.041 373.387 408.264 373.255 408.485C373.124 408.707 373.046 408.923 373.023 409.133C372.996 409.339 373.016 409.535 373.081 409.721C373.15 409.903 373.258 410.074 373.403 410.235C373.549 410.396 373.717 410.508 373.909 410.572C374.097 410.631 374.294 410.635 374.5 410.583C374.702 410.527 374.896 410.414 375.083 410.245C375.365 409.99 375.56 409.712 375.667 409.41C375.773 409.108 375.808 408.824 375.772 408.556C375.74 408.285 375.659 408.074 375.53 407.922L376.745 408.27C376.836 408.511 376.908 408.782 376.959 409.083C377.014 409.381 377.027 409.696 376.998 410.031C376.965 410.361 376.869 410.697 376.711 411.037C376.548 411.373 376.291 411.7 375.939 412.019C375.491 412.423 375.004 412.701 374.478 412.853C373.952 412.997 373.44 413.006 372.94 412.881C372.44 412.748 372.006 412.477 371.637 412.069C371.303 411.699 371.076 411.308 370.955 410.895C370.835 410.483 370.822 410.057 370.914 409.618C371.007 409.17 371.213 408.712 371.531 408.243C371.846 407.769 372.272 407.289 372.811 406.801L373.9 405.817ZM381.905 398.748L383.226 400.209L379.639 403.45L378.319 401.99L381.905 398.748ZM376.37 398.574L382.746 405.63L380.868 407.327L374.492 400.272L376.37 398.574ZM380.602 394.75L386.978 401.805L385.094 403.508L378.717 396.453L380.602 394.75ZM390.145 396.514C390.376 396.306 390.541 396.078 390.64 395.83C390.736 395.577 390.761 395.325 390.716 395.074C390.671 394.815 390.55 394.572 390.354 394.347L392.122 392.75C392.565 393.249 392.831 393.81 392.92 394.433C393.005 395.051 392.928 395.669 392.689 396.288C392.447 396.902 392.054 397.455 391.51 397.946C390.963 398.441 390.402 398.782 389.828 398.968C389.259 399.151 388.694 399.204 388.134 399.125C387.57 399.043 387.026 398.847 386.502 398.539C385.975 398.226 385.487 397.822 385.039 397.326L384.868 397.137C384.416 396.637 384.063 396.111 383.809 395.559C383.551 395.002 383.411 394.442 383.39 393.876C383.365 393.307 383.472 392.748 383.711 392.2C383.951 391.652 384.342 391.133 384.885 390.641C385.463 390.119 386.07 389.772 386.705 389.601C387.345 389.426 387.975 389.433 388.596 389.622C389.217 389.803 389.784 390.171 390.295 390.728L388.528 392.325C388.311 392.094 388.069 391.927 387.8 391.822C387.536 391.713 387.264 391.683 386.983 391.731C386.703 391.77 386.435 391.906 386.179 392.138C385.905 392.386 385.734 392.647 385.666 392.921C385.594 393.191 385.601 393.47 385.686 393.756C385.767 394.038 385.902 394.323 386.091 394.61C386.28 394.889 386.498 395.166 386.746 395.44L386.917 395.629C387.164 395.903 387.419 396.15 387.682 396.371C387.945 396.592 388.212 396.756 388.485 396.866C388.762 396.971 389.038 397.001 389.314 396.957C389.59 396.913 389.867 396.765 390.145 396.514ZM391.979 391.006L391.856 390.869C391.388 390.352 391.032 389.809 390.787 389.241C390.538 388.668 390.409 388.093 390.401 387.516C390.393 386.939 390.515 386.375 390.767 385.824C391.015 385.268 391.406 384.748 391.941 384.265C392.475 383.782 393.034 383.443 393.616 383.248C394.195 383.049 394.77 382.983 395.344 383.049C395.921 383.112 396.482 383.296 397.027 383.601C397.568 383.902 398.072 384.312 398.539 384.829L398.663 384.966C399.127 385.479 399.483 386.022 399.732 386.594C399.977 387.162 400.103 387.739 400.111 388.325C400.119 388.902 399.997 389.466 399.746 390.017C399.494 390.569 399.1 391.086 398.566 391.569C398.031 392.053 397.474 392.394 396.896 392.593C396.322 392.788 395.746 392.854 395.169 392.792C394.591 392.721 394.032 392.535 393.492 392.234C392.947 391.928 392.443 391.519 391.979 391.006ZM393.734 389.172L393.857 389.309C394.125 389.605 394.4 389.857 394.684 390.066C394.968 390.276 395.255 390.427 395.545 390.521C395.835 390.606 396.123 390.618 396.408 390.558C396.693 390.498 396.97 390.346 397.24 390.102C397.501 389.867 397.675 389.61 397.764 389.332C397.853 389.055 397.867 388.769 397.807 388.476C397.744 388.178 397.622 387.877 397.442 387.574C397.267 387.266 397.046 386.965 396.779 386.669L396.655 386.532C396.396 386.245 396.124 386.001 395.839 385.8C395.555 385.591 395.266 385.441 394.972 385.352C394.678 385.254 394.387 385.233 394.098 385.289C393.809 385.345 393.532 385.493 393.267 385.732C393.001 385.972 392.826 386.233 392.742 386.515C392.661 386.793 392.653 387.085 392.716 387.391C392.78 387.689 392.901 387.989 393.081 388.293C393.257 388.592 393.474 388.885 393.734 389.172ZM403.792 381.255L401.581 383.253L400.454 382.032L402.28 380.382C402.523 380.162 402.7 379.959 402.809 379.774C402.914 379.584 402.956 379.408 402.935 379.245C402.914 379.074 402.837 378.915 402.704 378.767C402.586 378.636 402.462 378.547 402.332 378.499C402.202 378.443 402.064 378.425 401.917 378.447C401.771 378.469 401.616 378.529 401.454 378.629C401.292 378.72 401.119 378.849 400.937 379.014L399.88 379.968L404.942 385.569L403.064 387.267L396.688 380.211L399.622 377.559C400.083 377.143 400.533 376.811 400.973 376.564C401.409 376.312 401.828 376.151 402.23 376.08C402.636 376.005 403.018 376.03 403.377 376.156C403.736 376.274 404.067 376.5 404.37 376.835C404.566 377.052 404.701 377.302 404.774 377.583C404.851 377.861 404.861 378.16 404.803 378.481C404.745 378.802 404.618 379.137 404.422 379.488C404.226 379.831 403.956 380.178 403.61 380.53L403.792 381.255ZM406.455 384.202L403.782 386.618L403.113 384.581L405.141 382.748C405.371 382.54 405.535 382.341 405.632 382.151C405.728 381.961 405.762 381.78 405.734 381.608C405.706 381.428 405.621 381.26 405.479 381.104C405.342 380.952 405.189 380.849 405.022 380.794C404.855 380.74 404.67 380.75 404.467 380.822C404.264 380.887 404.039 381.031 403.792 381.255L402.037 382.84L400.937 381.596L402.932 379.793L403.836 379.876C404.359 379.458 404.852 379.182 405.316 379.048C405.779 378.914 406.196 378.9 406.569 379.006C406.941 379.103 407.257 379.296 407.516 379.583C407.819 379.917 408.021 380.268 408.123 380.634C408.225 381 408.228 381.38 408.134 381.773C408.04 382.158 407.854 382.555 407.576 382.965C407.294 383.369 406.92 383.782 406.455 384.202ZM412.862 375.522L410.021 372.379C409.817 372.153 409.605 371.993 409.386 371.899C409.163 371.8 408.931 371.776 408.692 371.826C408.458 371.873 408.219 372.006 407.975 372.226C407.767 372.414 407.62 372.614 407.534 372.826C407.445 373.033 407.42 373.241 407.459 373.45C407.494 373.655 407.593 373.847 407.754 374.025L405.876 375.722C405.605 375.423 405.417 375.075 405.312 374.68C405.208 374.284 405.196 373.865 405.276 373.421C405.353 372.973 405.521 372.525 405.78 372.077C406.043 371.626 406.403 371.194 406.86 370.782C407.408 370.287 407.977 369.938 408.568 369.735C409.159 369.533 409.741 369.504 410.315 369.649C410.892 369.791 411.429 370.135 411.924 370.683L414.652 373.702C415.002 374.089 415.313 374.385 415.585 374.589C415.852 374.789 416.114 374.939 416.371 375.04L416.471 375.15L414.573 376.865C414.309 376.757 414.024 376.58 413.716 376.337C413.41 376.085 413.125 375.813 412.862 375.522ZM410.664 372.592L411.637 373.643L410.588 374.592C410.34 374.816 410.15 375.038 410.019 375.26C409.887 375.481 409.81 375.697 409.787 375.908C409.76 376.114 409.779 376.31 409.844 376.496C409.914 376.677 410.021 376.849 410.167 377.01C410.312 377.171 410.481 377.283 410.672 377.346C410.86 377.406 411.057 377.409 411.263 377.358C411.465 377.301 411.659 377.189 411.846 377.02C412.129 376.765 412.323 376.486 412.43 376.184C412.536 375.883 412.571 375.598 412.535 375.331C412.503 375.06 412.423 374.848 412.293 374.697L413.508 375.044C413.6 375.285 413.671 375.556 413.722 375.858C413.778 376.155 413.791 376.471 413.761 376.806C413.728 377.136 413.632 377.471 413.474 377.812C413.312 378.148 413.055 378.475 412.702 378.793C412.255 379.198 411.768 379.476 411.241 379.628C410.716 379.771 410.203 379.781 409.703 379.656C409.204 379.523 408.769 379.252 408.4 378.843C408.066 378.474 407.839 378.083 407.719 377.67C407.599 377.257 407.585 376.831 407.678 376.392C407.771 375.945 407.976 375.486 408.295 375.017C408.609 374.544 409.036 374.063 409.575 373.576L410.664 372.592ZM415.975 369.201L417.879 367.481L419.099 372.775L417.201 374.49L415.975 369.201ZM414.046 364.524L417.143 361.725L423.52 368.78L421.642 370.477L416.58 364.876L415.36 365.978C415.104 366.21 414.934 366.45 414.851 366.699C414.764 366.943 414.746 367.177 414.797 367.399C414.848 367.614 414.943 367.797 415.08 367.949C415.214 368.097 415.382 368.205 415.586 368.273C415.79 368.342 416.016 368.347 416.264 368.289C416.512 368.231 416.759 368.09 417.007 367.866L418.957 366.104L420.112 367.382L418.162 369.144C417.697 369.564 417.229 369.885 416.757 370.106C416.29 370.323 415.835 370.449 415.394 370.485C414.953 370.512 414.541 370.454 414.158 370.31C413.776 370.158 413.437 369.919 413.143 369.593C412.836 369.254 412.625 368.881 412.509 368.472C412.392 368.064 412.368 367.635 412.437 367.187C412.505 366.738 412.673 366.29 412.94 365.843C413.208 365.388 413.577 364.948 414.046 364.524ZM361.444 443.065L362.776 444.538L359.842 447.19L364.887 452.772L363.009 454.469L356.632 447.414L361.444 443.065ZM365.357 441.993L372.959 450.405L371.081 452.102L362.253 442.334L363.994 440.761L365.357 441.993ZM371.715 440.049L371.839 440.186C372.302 440.699 372.672 441.23 372.947 441.779C373.226 442.324 373.398 442.864 373.462 443.398C373.523 443.928 373.464 444.44 373.285 444.933C373.107 445.417 372.797 445.86 372.353 446.261C371.923 446.65 371.47 446.901 370.996 447.014C370.521 447.127 370.034 447.125 369.534 447.008C369.034 446.883 368.53 446.671 368.023 446.372C367.515 446.072 367.01 445.715 366.509 445.3L366.185 444.941C365.791 444.365 365.466 443.805 365.212 443.261C364.953 442.713 364.789 442.186 364.719 441.681C364.65 441.167 364.693 440.682 364.849 440.225C365.009 439.764 365.302 439.341 365.728 438.956C366.176 438.552 366.646 438.281 367.138 438.144C367.635 438.003 368.142 437.987 368.659 438.097C369.18 438.202 369.698 438.421 370.212 438.754C370.731 439.083 371.232 439.515 371.715 440.049ZM369.954 441.889L369.831 441.752C369.559 441.453 369.284 441.2 369.004 440.995C368.724 440.782 368.444 440.629 368.162 440.536C367.885 440.439 367.612 440.417 367.344 440.469C367.076 440.514 366.821 440.646 366.577 440.866C366.321 441.098 366.139 441.338 366.031 441.585C365.927 441.829 365.89 442.08 365.918 442.339C365.946 442.597 366.031 442.861 366.17 443.129C366.31 443.398 366.498 443.675 366.732 443.961L367.551 444.867C367.864 445.169 368.186 445.403 368.518 445.569C368.845 445.731 369.18 445.791 369.523 445.751C369.865 445.71 370.206 445.536 370.545 445.23C370.792 445.006 370.952 444.763 371.023 444.501C371.091 444.235 371.088 443.957 371.016 443.667C370.948 443.373 370.819 443.078 370.631 442.782C370.447 442.483 370.221 442.185 369.954 441.889ZM378.511 437.568L375.671 434.425C375.466 434.199 375.255 434.039 375.035 433.945C374.812 433.846 374.581 433.822 374.342 433.872C374.107 433.919 373.868 434.052 373.625 434.272C373.416 434.46 373.269 434.66 373.184 434.872C373.095 435.079 373.07 435.287 373.109 435.496C373.144 435.701 373.242 435.893 373.403 436.071L371.525 437.768C371.254 437.469 371.067 437.121 370.962 436.726C370.858 436.33 370.846 435.911 370.926 435.467C371.003 435.019 371.171 434.571 371.43 434.123C371.693 433.672 372.053 433.24 372.509 432.828C373.057 432.333 373.627 431.984 374.218 431.781C374.809 431.579 375.391 431.55 375.964 431.695C376.542 431.837 377.079 432.181 377.574 432.729L380.302 435.748C380.652 436.135 380.962 436.431 381.234 436.635C381.502 436.835 381.764 436.985 382.02 437.086L382.121 437.196L380.223 438.911C379.959 438.803 379.673 438.626 379.366 438.383C379.059 438.131 378.774 437.859 378.511 437.568ZM376.313 434.638L377.287 435.689L376.237 436.638C375.989 436.862 375.8 437.084 375.668 437.306C375.537 437.527 375.459 437.743 375.436 437.954C375.409 438.16 375.429 438.356 375.494 438.542C375.563 438.723 375.671 438.895 375.816 439.056C375.962 439.217 376.13 439.329 376.322 439.392C376.51 439.452 376.707 439.455 376.913 439.404C377.115 439.347 377.309 439.235 377.496 439.066C377.778 438.811 377.973 438.532 378.079 438.23C378.186 437.929 378.221 437.644 378.185 437.377C378.153 437.106 378.072 436.894 377.943 436.743L379.158 437.09C379.249 437.331 379.321 437.602 379.372 437.904C379.427 438.201 379.44 438.517 379.411 438.852C379.378 439.182 379.282 439.517 379.124 439.858C378.961 440.194 378.704 440.521 378.352 440.839C377.904 441.244 377.417 441.522 376.891 441.674C376.365 441.817 375.853 441.827 375.353 441.702C374.853 441.569 374.419 441.298 374.05 440.889C373.716 440.52 373.489 440.129 373.368 439.716C373.248 439.303 373.235 438.877 373.327 438.438C373.42 437.991 373.626 437.532 373.944 437.063C374.259 436.59 374.685 436.109 375.224 435.622L376.313 434.638ZM385.628 430.106L383.054 423.535L384.586 422.15L388.211 431.692L386.946 432.836L377.831 428.255L379.363 426.87L385.628 430.106ZM378.913 427.277L385.29 434.332L383.412 436.03L377.035 428.974L378.913 427.277ZM389.913 430.154L383.536 423.099L385.414 421.402L391.791 428.457L389.913 430.154ZM390.011 423.787L389.887 423.65C389.419 423.133 389.063 422.59 388.818 422.022C388.569 421.449 388.44 420.874 388.432 420.297C388.424 419.72 388.546 419.156 388.798 418.604C389.046 418.049 389.437 417.529 389.972 417.046C390.506 416.563 391.065 416.224 391.647 416.029C392.226 415.83 392.801 415.764 393.375 415.83C393.952 415.893 394.514 416.076 395.058 416.382C395.599 416.683 396.103 417.092 396.57 417.61L396.694 417.747C397.158 418.259 397.514 418.802 397.763 419.375C398.008 419.943 398.135 420.52 398.142 421.105C398.15 421.682 398.029 422.247 397.777 422.798C397.525 423.35 397.132 423.867 396.597 424.35C396.062 424.833 395.506 425.174 394.927 425.373C394.353 425.568 393.777 425.635 393.2 425.572C392.622 425.502 392.064 425.316 391.523 425.015C390.978 424.709 390.474 424.3 390.011 423.787ZM391.765 421.953L391.888 422.09C392.156 422.385 392.431 422.638 392.715 422.847C392.999 423.057 393.286 423.208 393.576 423.301C393.866 423.387 394.154 423.399 394.439 423.339C394.724 423.279 395.001 423.127 395.271 422.883C395.532 422.647 395.706 422.391 395.795 422.113C395.884 421.835 395.898 421.55 395.838 421.256C395.775 420.959 395.653 420.658 395.473 420.354C395.298 420.047 395.077 419.745 394.81 419.45L394.686 419.313C394.427 419.026 394.155 418.782 393.87 418.581C393.586 418.371 393.297 418.222 393.003 418.132C392.71 418.035 392.418 418.014 392.129 418.07C391.84 418.126 391.563 418.273 391.298 418.513C391.032 418.753 390.858 419.013 390.773 419.295C390.692 419.573 390.684 419.865 390.747 420.171C390.811 420.469 390.933 420.77 391.112 421.074C391.288 421.373 391.505 421.666 391.765 421.953ZM398.006 410.022L404.382 417.077L402.498 418.78L396.121 411.725L398.006 410.022ZM400.275 407.971L401.589 409.425L395.199 415.201L393.885 413.746L400.275 407.971ZM408.64 405.588L409.96 407.048L406.374 410.289L405.054 408.829L408.64 405.588ZM403.105 405.414L409.481 412.469L407.603 414.166L401.227 407.111L403.105 405.414ZM407.337 401.589L413.713 408.644L411.829 410.347L405.452 403.292L407.337 401.589ZM411.75 404.139L411.627 404.002C411.159 403.485 410.803 402.942 410.558 402.374C410.309 401.801 410.18 401.227 410.172 400.649C410.164 400.072 410.286 399.508 410.538 398.957C410.785 398.401 411.177 397.881 411.712 397.398C412.246 396.915 412.805 396.576 413.387 396.381C413.965 396.182 414.541 396.116 415.115 396.182C415.692 396.245 416.253 396.429 416.798 396.734C417.339 397.035 417.843 397.445 418.31 397.962L418.434 398.099C418.898 398.612 419.254 399.155 419.503 399.727C419.748 400.296 419.874 400.872 419.882 401.458C419.89 402.035 419.768 402.599 419.517 403.15C419.265 403.702 418.871 404.219 418.337 404.702C417.802 405.186 417.245 405.527 416.667 405.726C416.093 405.921 415.517 405.987 414.939 405.925C414.362 405.854 413.803 405.668 413.263 405.367C412.718 405.061 412.214 404.652 411.75 404.139ZM413.505 402.305L413.628 402.442C413.895 402.738 414.171 402.99 414.455 403.199C414.739 403.409 415.026 403.56 415.316 403.654C415.606 403.739 415.894 403.751 416.179 403.691C416.464 403.631 416.741 403.479 417.011 403.235C417.272 403 417.446 402.743 417.535 402.465C417.624 402.188 417.638 401.902 417.578 401.609C417.515 401.311 417.393 401.01 417.213 400.707C417.038 400.399 416.817 400.098 416.55 399.802L416.426 399.665C416.166 399.378 415.895 399.134 415.61 398.933C415.326 398.724 415.037 398.574 414.743 398.485C414.449 398.387 414.158 398.366 413.869 398.422C413.58 398.478 413.303 398.626 413.037 398.865C412.772 399.105 412.597 399.366 412.513 399.648C412.432 399.926 412.424 400.218 412.487 400.524C412.551 400.822 412.672 401.122 412.852 401.426C413.028 401.725 413.245 402.018 413.505 402.305ZM424.418 396.541C424.649 396.333 424.814 396.104 424.913 395.856C425.009 395.604 425.034 395.352 424.989 395.101C424.944 394.842 424.823 394.599 424.627 394.373L426.394 392.776C426.838 393.276 427.104 393.837 427.193 394.459C427.278 395.078 427.201 395.696 426.962 396.315C426.72 396.929 426.327 397.481 425.783 397.973C425.235 398.468 424.675 398.808 424.101 398.995C423.532 399.178 422.967 399.23 422.407 399.152C421.843 399.07 421.299 398.874 420.775 398.566C420.247 398.253 419.76 397.849 419.312 397.353L419.141 397.164C418.689 396.664 418.336 396.138 418.082 395.586C417.824 395.029 417.684 394.468 417.663 393.903C417.638 393.333 417.745 392.775 417.984 392.227C418.223 391.679 418.615 391.159 419.158 390.668C419.736 390.146 420.343 389.799 420.978 389.628C421.617 389.453 422.248 389.459 422.869 389.649C423.49 389.829 424.056 390.198 424.567 390.755L422.8 392.352C422.584 392.121 422.341 391.953 422.073 391.848C421.809 391.74 421.536 391.709 421.256 391.757C420.976 391.797 420.708 391.933 420.451 392.165C420.178 392.412 420.007 392.673 419.939 392.948C419.867 393.218 419.874 393.496 419.959 393.783C420.04 394.065 420.175 394.35 420.364 394.637C420.553 394.916 420.771 395.193 421.019 395.467L421.19 395.656C421.437 395.93 421.692 396.177 421.955 396.398C422.218 396.618 422.485 396.783 422.758 396.892C423.034 396.998 423.311 397.028 423.587 396.984C423.863 396.94 424.14 396.792 424.418 396.541ZM426.892 383.915L433.268 390.971L431.384 392.674L425.008 385.619L426.892 383.915ZM429.161 381.865L430.475 383.319L424.085 389.094L422.771 387.64L429.161 381.865ZM433.309 381.919L435.357 380.068C436 379.487 436.644 379.098 437.289 378.903C437.934 378.699 438.545 378.676 439.121 378.834C439.703 378.987 440.215 379.31 440.659 379.801C440.982 380.158 441.211 380.551 441.346 380.981C441.483 381.403 441.521 381.842 441.46 382.3C441.4 382.757 441.235 383.218 440.967 383.681C440.699 384.145 440.324 384.594 439.841 385.03L436.62 387.942L430.244 380.886L432.128 379.183L437.184 384.778L438.521 383.57C438.804 383.314 438.989 383.065 439.076 382.82C439.163 382.567 439.177 382.329 439.118 382.107C439.063 381.88 438.955 381.677 438.794 381.499C438.625 381.312 438.43 381.18 438.21 381.102C437.991 381.017 437.751 381.004 437.49 381.066C437.234 381.124 436.965 381.28 436.682 381.535L434.635 383.386L433.309 381.919Z" fill="#A43FD4"/>
</g>
<defs>
<clipPath id="clip0_97_279">
<rect width="478" height="480" fill="white"/>
</clipPath>
</defs>
</svg>
