<svg width="401" height="405" viewBox="0 0 401 405" fill="none" xmlns="http://www.w3.org/2000/svg">
<path d="M218.772 203C218.772 213.78 210.232 222.5 199.722 222.5C189.212 222.5 180.672 213.78 180.672 203C180.672 192.219 189.212 183.5 199.722 183.5C210.232 183.5 218.772 192.219 218.772 203Z" stroke="#D9D9D9" stroke-width="0.5"/>
<path d="M238.824 203C238.824 224.262 221.543 241.5 200.223 241.5C178.904 241.5 161.623 224.262 161.623 203C161.623 181.738 178.904 164.5 200.223 164.5C221.543 164.5 238.824 181.738 238.824 203Z" stroke="#D9D9D9" stroke-width="0.5"/>
<path d="M258.875 202.5C258.875 234.531 232.841 260.5 200.725 260.5C168.608 260.5 142.574 234.531 142.574 202.5C142.574 170.468 168.608 144.5 200.725 144.5C232.841 144.5 258.875 170.468 258.875 202.5Z" stroke="#D9D9D9" stroke-width="0.5"/>
<path d="M277.923 203C277.923 245.801 243.137 280.5 200.223 280.5C157.309 280.5 122.522 245.801 122.522 203C122.522 160.199 157.309 125.5 200.223 125.5C243.137 125.5 277.923 160.199 277.923 203Z" stroke="#D9D9D9" stroke-width="0.5"/>
<path d="M296.972 203.5C296.972 257.073 253.655 300.5 200.223 300.5C146.791 300.5 103.474 257.073 103.474 203.5C103.474 149.927 146.791 106.5 200.223 106.5C253.655 106.5 296.972 149.927 296.972 203.5Z" stroke="#D9D9D9" stroke-width="0.5"/>
<path d="M317.024 202.5C317.024 267.118 264.73 319.5 200.224 319.5C135.717 319.5 83.4229 267.118 83.4229 202.5C83.4229 137.882 135.717 85.5 200.224 85.5C264.73 85.5 317.024 137.882 317.024 202.5Z" stroke="#D9D9D9" stroke-width="0.5"/>
<path d="M336.073 202.5C336.073 277.611 275.251 338.5 200.224 338.5C125.196 338.5 64.374 277.611 64.374 202.5C64.374 127.389 125.196 66.5 200.224 66.5C275.251 66.5 336.073 127.389 336.073 202.5Z" stroke="#D9D9D9" stroke-width="0.5"/>
<path d="M356.125 203C356.125 288.325 286.553 357.5 200.725 357.5C114.897 357.5 45.3252 288.325 45.3252 203C45.3252 117.674 114.897 48.4998 200.725 48.4998C286.553 48.4998 356.125 117.674 356.125 203Z" stroke="#D9D9D9" stroke-width="0.5"/>
<path d="M375.174 203C375.174 298.819 297.073 376.5 200.725 376.5C104.377 376.5 26.2764 298.819 26.2764 203C26.2764 107.181 104.377 29.4998 200.725 29.4998C297.073 29.4998 375.174 107.181 375.174 203Z" stroke="#D9D9D9" stroke-width="0.5"/>
</svg>
