<svg width="498" height="501" viewBox="0 0 498 501" fill="none" xmlns="http://www.w3.org/2000/svg">
<g clip-path="url(#clip0_104_261)">
<path d="M264.772 241C264.772 251.78 256.232 260.5 245.722 260.5C235.212 260.5 226.672 251.78 226.672 241C226.672 230.219 235.212 221.5 245.722 221.5C256.232 221.5 264.772 230.219 264.772 241Z" stroke="#D9D9D9"/>
<path d="M284.824 241C284.824 262.262 267.543 279.5 246.223 279.5C224.904 279.5 207.623 262.262 207.623 241C207.623 219.738 224.904 202.5 246.223 202.5C267.543 202.5 284.824 219.738 284.824 241Z" stroke="#D9D9D9"/>
<path d="M304.875 240.5C304.875 272.531 278.841 298.5 246.725 298.5C214.608 298.5 188.574 272.531 188.574 240.5C188.574 208.468 214.608 182.5 246.725 182.5C278.841 182.5 304.875 208.468 304.875 240.5Z" stroke="#D9D9D9"/>
<path d="M323.923 241C323.923 283.801 289.137 318.5 246.223 318.5C203.309 318.5 168.522 283.801 168.522 241C168.522 198.199 203.309 163.5 246.223 163.5C289.137 163.5 323.923 198.199 323.923 241Z" stroke="#D9D9D9"/>
<path d="M342.972 241.5C342.972 295.073 299.655 338.5 246.223 338.5C192.791 338.5 149.474 295.073 149.474 241.5C149.474 187.927 192.791 144.5 246.223 144.5C299.655 144.5 342.972 187.927 342.972 241.5Z" stroke="#D9D9D9"/>
<path d="M363.024 240.5C363.024 305.118 310.73 357.5 246.224 357.5C181.717 357.5 129.423 305.118 129.423 240.5C129.423 175.882 181.717 123.5 246.224 123.5C310.73 123.5 363.024 175.882 363.024 240.5Z" stroke="#D9D9D9"/>
<path d="M382.073 240.5C382.073 315.611 321.251 376.5 246.224 376.5C171.196 376.5 110.374 315.611 110.374 240.5C110.374 165.389 171.196 104.5 246.224 104.5C321.251 104.5 382.073 165.389 382.073 240.5Z" stroke="#D9D9D9"/>
<path d="M402.125 241C402.125 326.325 332.553 395.5 246.725 395.5C160.897 395.5 91.3252 326.325 91.3252 241C91.3252 155.674 160.897 86.4998 246.725 86.4998C332.553 86.4998 402.125 155.674 402.125 241Z" stroke="#D9D9D9"/>
<path d="M421.174 241C421.174 336.819 343.073 414.5 246.725 414.5C150.377 414.5 72.2764 336.819 72.2764 241C72.2764 145.181 150.377 67.4998 246.725 67.4998C343.073 67.4998 421.174 145.181 421.174 241Z" stroke="#D9D9D9"/>
<path d="M441.225 241C441.225 347.864 354.146 434.5 246.725 434.5C139.303 434.5 52.2246 347.864 52.2246 241C52.2246 134.135 139.303 47.4998 246.725 47.4998C354.146 47.4998 441.225 134.135 441.225 241Z" stroke="#D9D9D9"/>
<path d="M248 242L487 153" stroke="#D9D9D9"/>
<path d="M10.893 326L246.002 239.353" stroke="#D9D9D9"/>
<path d="M137.671 469.399L356.285 10.8453" stroke="#D9D9D9"/>
<path d="M332.058 478.841L159.627 1" stroke="#D9D9D9"/>
<path d="M246.506 240L476.196 346.427" stroke="#D9D9D9"/>
<path d="M17 131L247 242" stroke="#D9D9D9"/>
<path d="M46.3039 358.289L45.7788 358.756C45.0568 359.399 44.3254 359.882 43.5846 360.204C42.8438 360.527 42.1163 360.692 41.402 360.7C40.6915 360.713 40.0129 360.572 39.3659 360.277C38.7233 359.979 38.139 359.534 37.613 358.943C37.0908 358.357 36.7185 357.727 36.496 357.055C36.2818 356.382 36.2181 355.69 36.3051 354.977C36.392 354.264 36.6344 353.554 37.0323 352.846C37.4341 352.143 37.996 351.47 38.718 350.827L39.2431 350.36C39.9651 349.717 40.6963 349.238 41.4366 348.924C42.1813 348.606 42.9108 348.443 43.6251 348.435C44.3477 348.427 45.0283 348.57 45.667 348.864C46.314 349.159 46.8985 349.6 47.4207 350.186C47.9467 350.777 48.3188 351.41 48.5369 352.087C48.7594 352.76 48.8231 353.452 48.7278 354.165C48.637 354.873 48.3887 355.577 47.9831 356.276C47.5857 356.975 47.0259 357.646 46.3039 358.289ZM44.3117 357.109L44.8499 356.63C45.3838 356.154 45.8074 355.683 46.1209 355.215C46.4426 354.748 46.6517 354.292 46.7481 353.845C46.8528 353.399 46.8466 352.969 46.7294 352.555C46.6166 352.138 46.3985 351.747 46.0751 351.384C45.7517 351.021 45.3911 350.762 44.9934 350.606C44.6001 350.446 44.1738 350.39 43.7145 350.438C43.2635 350.487 42.7855 350.642 42.2807 350.903C41.7802 351.16 41.263 351.527 40.7292 352.002L40.191 352.481C39.6571 352.957 39.2313 353.43 38.9135 353.902C38.5957 354.373 38.3842 354.836 38.279 355.29C38.1821 355.745 38.1881 356.179 38.2969 356.592C38.4102 357.002 38.6285 357.388 38.952 357.751C39.2793 358.118 39.6396 358.382 40.0329 358.542C40.4306 358.698 40.8572 358.749 41.3126 358.697C41.7723 358.641 42.2527 358.48 42.7537 358.214C43.2585 357.953 43.7779 357.584 44.3117 357.109ZM46.3023 366.164C46.5322 366.422 46.789 366.609 47.0728 366.725C47.3649 366.841 47.6593 366.881 47.9561 366.845C48.2568 366.812 48.5333 366.695 48.7856 366.494L50.1125 367.984C49.6452 368.385 49.1065 368.621 48.4964 368.694C47.8863 368.766 47.2767 368.685 46.6678 368.451C46.0632 368.212 45.5272 367.831 45.0595 367.306C44.5764 366.763 44.2474 366.209 44.0727 365.642C43.9024 365.072 43.8624 364.507 43.9529 363.948C44.0434 363.389 44.2427 362.851 44.5507 362.333C44.8627 361.82 45.2637 361.345 45.7538 360.909L45.9835 360.704C46.4736 360.268 46.9915 359.924 47.5372 359.674C48.0912 359.424 48.6512 359.286 49.2171 359.261C49.783 359.235 50.337 359.342 50.8793 359.581C51.426 359.816 51.939 360.203 52.4183 360.741C52.9248 361.31 53.2553 361.91 53.4096 362.541C53.5683 363.169 53.5555 363.784 53.3711 364.388C53.195 364.992 52.8461 365.534 52.3245 366.014L50.9976 364.524C51.2485 364.278 51.4263 364.001 51.5312 363.696C51.6443 363.392 51.6708 363.078 51.6106 362.755C51.5544 362.436 51.3977 362.132 51.1405 361.843C50.856 361.524 50.5546 361.318 50.2363 361.225C49.9224 361.128 49.6012 361.119 49.2728 361.2C48.9488 361.277 48.6256 361.411 48.3032 361.604C47.989 361.798 47.6853 362.025 47.3921 362.286L47.1624 362.491C46.8692 362.752 46.6062 363.029 46.3734 363.323C46.1406 363.616 45.9674 363.92 45.8538 364.233C45.7485 364.546 45.7237 364.866 45.7795 365.193C45.8397 365.516 46.0139 365.84 46.3023 366.164ZM52.0473 367.897L52.1983 367.763C52.7103 367.307 53.2513 366.958 53.8214 366.717C54.3958 366.473 54.9696 366.346 55.5429 366.338C56.1243 366.33 56.686 366.45 57.2278 366.697C57.7778 366.944 58.2828 367.326 58.7426 367.843C59.2063 368.364 59.5275 368.909 59.7061 369.48C59.8929 370.051 59.9489 370.625 59.874 371.202C59.8035 371.774 59.6135 372.332 59.304 372.874C58.9989 373.413 58.5904 373.91 58.0784 374.366L57.9275 374.5C57.4155 374.956 56.8745 375.305 56.3044 375.545C55.7343 375.786 55.1585 375.911 54.5771 375.918C54 375.922 53.4383 375.803 52.8922 375.559C52.3504 375.312 51.8495 374.93 51.3897 374.414C50.926 373.893 50.6007 373.347 50.4139 372.776C50.2352 372.206 50.1812 371.634 50.2517 371.061C50.3266 370.485 50.5166 369.927 50.8217 369.389C51.1268 368.85 51.5354 368.353 52.0473 367.897ZM53.607 369.344L53.456 369.479C53.1366 369.763 52.8639 370.065 52.6379 370.384C52.4119 370.703 52.254 371.028 52.1643 371.359C52.0746 371.69 52.0659 372.019 52.1382 372.347C52.2105 372.675 52.3811 372.99 52.65 373.292C52.9111 373.585 53.1983 373.784 53.5118 373.89C53.8291 373.999 54.1574 374.029 54.4965 373.978C54.8356 373.927 55.1766 373.808 55.5195 373.62C55.8663 373.437 56.1994 373.203 56.5188 372.918L56.6698 372.784C56.9848 372.503 57.2512 372.203 57.4689 371.884C57.6949 371.565 57.853 371.236 57.9432 370.897C58.0373 370.562 58.0482 370.23 57.9759 369.903C57.9118 369.575 57.7473 369.263 57.4823 368.965C57.2174 368.668 56.924 368.466 56.6023 368.36C56.2888 368.255 55.9603 368.23 55.6169 368.284C55.2734 368.339 54.9302 368.46 54.5873 368.648C54.2488 368.832 53.922 369.064 53.607 369.344ZM61.648 378.837L60.4322 377.472L61.233 376.758L62.2149 377.861C62.4643 378.141 62.7003 378.331 62.9227 378.431C63.1491 378.536 63.3591 378.564 63.5527 378.518C63.7546 378.471 63.9452 378.368 64.1247 378.208C64.2822 378.068 64.3978 377.898 64.4716 377.699C64.5537 377.501 64.5647 377.275 64.5046 377.023C64.4445 376.77 64.2839 376.497 64.0229 376.204C63.8085 375.963 63.5763 375.782 63.3261 375.66C63.0797 375.541 62.8378 375.49 62.6004 375.505C62.363 375.521 62.1523 375.61 61.9686 375.774L60.5599 374.192C61.0019 373.798 61.4936 373.584 62.0352 373.549C62.5806 373.518 63.1277 373.639 63.6763 373.912C64.2249 374.184 64.7253 374.574 65.1773 375.082C65.563 375.515 65.8639 375.946 66.0798 376.373C66.3002 376.797 66.43 377.207 66.4693 377.603C66.5168 378 66.468 378.377 66.3228 378.734C66.1859 379.091 65.949 379.42 65.6121 379.72C65.3714 379.934 65.0932 380.08 64.7775 380.157C64.4617 380.234 64.1253 380.24 63.7681 380.174C63.4152 380.103 63.0565 379.956 62.6918 379.731C62.331 379.511 61.9831 379.213 61.648 378.837ZM60.8917 377.062L62.1074 378.428C62.4815 378.848 62.7712 379.257 62.9764 379.655C63.186 380.048 63.3094 380.425 63.3467 380.784C63.384 381.143 63.3354 381.481 63.2009 381.797C63.0747 382.113 62.8628 382.404 62.5652 382.669C62.2327 382.965 61.8686 383.159 61.4731 383.253C61.0859 383.347 60.6835 383.344 60.2659 383.245C59.8522 383.151 59.4374 382.967 59.0216 382.694C58.6058 382.421 58.2051 382.067 57.8193 381.634C57.3984 381.162 57.0681 380.632 56.8281 380.045C56.5921 379.463 56.5096 378.882 56.5806 378.3C56.6599 377.72 56.9555 377.202 57.4675 376.746L58.8761 378.328C58.6967 378.487 58.5769 378.692 58.5168 378.942C58.4567 379.191 58.4679 379.464 58.5504 379.759C58.6373 380.051 58.8093 380.341 59.0665 380.63C59.3315 380.927 59.5937 381.129 59.8531 381.235C60.117 381.338 60.3664 381.367 60.6014 381.322C60.8407 381.274 61.0479 381.172 61.2229 381.016C61.4592 380.805 61.6087 380.59 61.6712 380.37C61.7338 380.149 61.7141 379.916 61.6122 379.669C61.5147 379.418 61.3393 379.151 61.086 378.866L60.104 377.764L60.8917 377.062ZM70.2162 386.965L68.9691 388.076L65.6959 384.4L66.943 383.289L70.2162 386.965ZM70.3189 381.107L63.2169 387.431L61.8083 385.849L68.9103 379.525L70.3189 381.107ZM74.2001 385.465L67.0981 391.79L65.6894 390.208L72.7914 383.883L74.2001 385.465ZM73.59 396.212L76.977 393.196C77.2308 392.97 77.4086 392.729 77.5106 392.474C77.6125 392.218 77.6301 391.951 77.5631 391.674C77.5001 391.4 77.3439 391.124 77.0945 390.843C76.8646 390.585 76.6221 390.401 76.3671 390.291C76.112 390.181 75.8633 390.139 75.621 390.167C75.3787 390.194 75.1635 390.292 74.9753 390.459L73.5725 388.884C73.8526 388.635 74.1843 388.461 74.5676 388.363C74.951 388.265 75.3604 388.253 75.796 388.328C76.2316 388.403 76.6682 388.567 77.1059 388.821C77.5435 389.075 77.9611 389.425 78.3586 389.871C78.834 390.405 79.1651 390.957 79.352 391.528C79.5428 392.104 79.5618 392.671 79.409 393.231C79.2645 393.791 78.9209 394.313 78.3783 394.796L75.2212 397.608C74.8973 397.896 74.6258 398.177 74.4066 398.451C74.1957 398.725 74.0351 398.989 73.9249 399.244L73.8199 399.338L72.3761 397.717C72.4805 397.49 72.6445 397.238 72.8681 396.961C73.1 396.684 73.3406 396.434 73.59 396.212ZM76.6892 393.864L75.7229 394.748L74.7117 393.613C74.4507 393.319 74.1923 393.087 73.9367 392.914C73.6855 392.738 73.4411 392.622 73.2036 392.567C72.9661 392.511 72.7398 392.513 72.5248 392.571C72.3098 392.629 72.1082 392.742 71.92 392.909C71.7318 393.077 71.598 393.275 71.5184 393.502C71.4431 393.726 71.4358 393.96 71.4964 394.205C71.5608 394.453 71.7002 394.698 71.9145 394.938C72.2029 395.262 72.5199 395.486 72.8655 395.61C73.2193 395.734 73.5549 395.78 73.8721 395.749C74.1937 395.714 74.4459 395.623 74.6288 395.475L74.3823 396.613C74.1562 396.72 73.8838 396.802 73.5651 396.858C73.2464 396.914 72.9014 396.923 72.5301 396.885C72.1671 396.848 71.7999 396.739 71.4284 396.56C71.0609 396.385 70.7135 396.114 70.3861 395.746C69.9731 395.283 69.6967 394.787 69.5571 394.26C69.4218 393.73 69.4202 393.221 69.5521 392.735C69.6884 392.245 69.9578 391.82 70.3604 391.462C70.7367 391.127 71.1316 390.901 71.5451 390.784C71.9669 390.667 72.399 390.659 72.8414 390.759C73.2877 390.864 73.7404 391.073 74.1995 391.385C74.6631 391.695 75.1247 392.107 75.5845 392.624L76.6892 393.864ZM83.5078 401.891L82.2607 403.002L78.9875 399.326L80.2346 398.215L83.5078 401.891ZM83.6106 396.033L76.5086 402.357L75.0999 400.775L82.2019 394.451L83.6106 396.033ZM87.4917 400.391L80.3897 406.716L78.981 405.134L86.083 398.809L87.4917 400.391ZM90.3465 409.571L89.0994 410.681L85.8262 407.006L87.0733 405.895L90.3465 409.571ZM90.4493 403.713L83.3473 410.037L81.9386 408.455L89.0406 402.131L90.4493 403.713ZM94.3304 408.071L87.2284 414.395L85.8197 412.813L92.9217 406.489L94.3304 408.071ZM91.9339 412.688L92.0849 412.554C92.5969 412.098 93.1379 411.749 93.708 411.509C94.2824 411.264 94.8562 411.137 95.4294 411.129C96.0109 411.121 96.5726 411.241 97.1144 411.488C97.6644 411.736 98.1694 412.118 98.6292 412.634C99.0929 413.155 99.414 413.7 99.5927 414.271C99.7795 414.842 99.8355 415.416 99.7606 415.993C99.6901 416.565 99.5001 417.123 99.1906 417.665C98.8855 418.204 98.477 418.701 97.965 419.157L97.814 419.291C97.3021 419.747 96.7611 420.096 96.191 420.337C95.6209 420.577 95.0451 420.702 94.4637 420.71C93.8866 420.714 93.3249 420.594 92.7787 420.351C92.2369 420.103 91.7361 419.722 91.2763 419.205C90.8126 418.685 90.4873 418.139 90.3004 417.568C90.1218 416.997 90.0678 416.425 90.1383 415.852C90.2132 415.276 90.4032 414.718 90.7083 414.18C91.0134 413.641 91.422 413.144 91.9339 412.688ZM93.4936 414.136L93.3426 414.27C93.0232 414.555 92.7504 414.856 92.5245 415.175C92.2985 415.494 92.1406 415.819 92.0509 416.15C91.9612 416.481 91.9525 416.81 92.0248 417.138C92.0971 417.466 92.2677 417.781 92.5366 418.083C92.7976 418.376 93.0849 418.575 93.3984 418.681C93.7157 418.79 94.044 418.82 94.3831 418.769C94.7222 418.718 95.0632 418.599 95.4061 418.411C95.7528 418.228 96.086 417.994 96.4054 417.709L96.5564 417.575C96.8714 417.294 97.1378 416.995 97.3555 416.675C97.5815 416.356 97.7396 416.027 97.8298 415.688C97.9239 415.353 97.9348 415.022 97.8625 414.694C97.7984 414.366 97.6339 414.054 97.3689 413.756C97.104 413.459 96.8106 413.257 96.4889 413.151C96.1754 413.046 95.8469 413.021 95.5035 413.075C95.16 413.13 94.8168 413.252 94.4739 413.439C94.1354 413.623 93.8086 413.855 93.4936 414.136ZM99.235 425.605C99.4649 425.863 99.7217 426.05 100.006 426.166C100.298 426.283 100.592 426.323 100.889 426.286C101.189 426.254 101.466 426.137 101.718 425.936L103.045 427.426C102.578 427.826 102.039 428.063 101.429 428.135C100.819 428.208 100.209 428.127 99.6005 427.892C98.996 427.654 98.4599 427.272 97.9923 426.747C97.5091 426.204 97.1801 425.65 97.0054 425.084C96.8351 424.514 96.7952 423.949 96.8857 423.39C96.9762 422.831 97.1754 422.292 97.4835 421.775C97.7954 421.262 98.1964 420.787 98.6865 420.35L98.9162 420.146C99.4063 419.709 99.9242 419.366 100.47 419.115C101.024 418.865 101.584 418.727 102.15 418.702C102.716 418.677 103.27 418.784 103.812 419.022C104.359 419.257 104.872 419.644 105.351 420.182C105.858 420.751 106.188 421.351 106.342 421.983C106.501 422.61 106.488 423.226 106.304 423.829C106.128 424.434 105.779 424.976 105.257 425.456L103.93 423.966C104.181 423.719 104.359 423.443 104.464 423.138C104.577 422.833 104.603 422.519 104.543 422.196C104.487 421.877 104.33 421.574 104.073 421.285C103.789 420.965 103.487 420.759 103.169 420.666C102.855 420.569 102.534 420.561 102.206 420.641C101.882 420.718 101.558 420.853 101.236 421.046C100.922 421.239 100.618 421.467 100.325 421.728L100.095 421.932C99.802 422.193 99.539 422.471 99.3062 422.764C99.0733 423.058 98.9001 423.361 98.7866 423.674C98.6813 423.988 98.6565 424.308 98.7122 424.635C98.7724 424.958 98.9466 425.281 99.235 425.605ZM111.813 427.703L104.711 434.028L103.296 432.439L110.398 426.115L111.813 427.703ZM113.888 430.033L112.641 431.144L107.111 424.935L108.359 423.824L113.888 430.033ZM113.617 434.276L115.482 436.37C116.027 436.982 116.388 437.594 116.564 438.206C116.741 438.818 116.744 439.4 116.576 439.95C116.415 440.501 116.101 440.985 115.632 441.402C115.287 441.71 114.909 441.933 114.498 442.071C114.092 442.205 113.668 442.245 113.227 442.19C112.79 442.14 112.351 441.99 111.909 441.74C111.471 441.495 111.047 441.143 110.638 440.683L107.838 437.539L114.94 431.215L116.355 432.803L110.506 438.011L111.891 439.567C112.172 439.882 112.451 440.085 112.728 440.175C113.005 440.266 113.268 440.275 113.517 440.203C113.77 440.134 113.995 440.012 114.192 439.837C114.393 439.658 114.544 439.444 114.646 439.197C114.751 438.954 114.777 438.688 114.723 438.399C114.669 438.109 114.502 437.807 114.222 437.492L112.357 435.398L113.617 434.276Z" fill="#A43FD4"/>
<path d="M35.6827 92.6157L36.8751 93.9073L32.9422 97.5381L31.7499 96.2465L35.6827 92.6157ZM31.3036 100.881L32.918 99.3906C33.3469 99.7602 33.7657 100.019 34.1744 100.168C34.5874 100.314 35.0036 100.328 35.4229 100.212C35.8465 100.092 36.2907 99.8176 36.7557 99.3884C37.1303 99.0426 37.3836 98.6691 37.5157 98.2681C37.6521 97.863 37.6814 97.4412 37.6036 97.0027C37.5217 96.5599 37.347 96.1072 37.0794 95.6446C36.8078 95.1776 36.4514 94.7052 36.0102 94.2273L35.2828 93.4394C34.9132 93.0391 34.5472 92.7031 34.1849 92.4315C33.8186 92.1557 33.4557 91.9484 33.0964 91.8096C32.7413 91.6669 32.3939 91.5929 32.0541 91.5876C31.7146 91.5741 31.3848 91.6314 31.0645 91.7596C30.7443 91.8878 30.4378 92.087 30.145 92.3573C29.6929 92.7746 29.3985 93.1899 29.2618 93.6033C29.1211 94.0123 29.1148 94.4288 29.243 94.8527C29.3672 95.2723 29.5944 95.7085 29.9247 96.1612L28.3102 97.6516C27.7905 96.9592 27.4503 96.2365 27.2897 95.4837C27.129 94.7309 27.1776 93.9803 27.4356 93.2318C27.6978 92.4793 28.2035 91.7573 28.9526 91.0657C29.5424 90.5212 30.1694 90.1378 30.8334 89.9155C31.4977 89.685 32.1787 89.6106 32.8762 89.6923C33.5697 89.7698 34.2571 90.0004 34.9384 90.3842C35.624 90.7641 36.2788 91.2919 36.9028 91.9679L37.6182 92.7428C38.2422 93.4187 38.7183 94.1115 39.0466 94.8213C39.3791 95.527 39.5585 96.2266 39.5847 96.9202C39.611 97.6137 39.487 98.2784 39.2128 98.9143C38.9386 99.5502 38.513 100.134 37.9361 100.667C37.1741 101.371 36.4031 101.831 35.6232 102.049C34.8436 102.258 34.0848 102.257 33.3469 102.045C32.609 101.833 31.9279 101.445 31.3036 100.881ZM42.8263 89.7289L41.4831 90.969L40.7557 90.1812L41.8407 89.1796C42.1162 88.9252 42.302 88.6859 42.398 88.4617C42.4983 88.2335 42.5233 88.023 42.473 87.8303C42.423 87.6292 42.3165 87.4404 42.1535 87.2639C42.0104 87.1089 41.8387 86.9964 41.6383 86.9262C41.4383 86.8477 41.2126 86.8407 40.9612 86.9053C40.7098 86.9699 40.4399 87.1354 40.1515 87.4017C39.9147 87.6203 39.7373 87.8558 39.6195 88.1081C39.5059 88.3565 39.4589 88.5993 39.4784 88.8364C39.498 89.0736 39.5912 89.2825 39.7581 89.4634L38.2018 90.9002C37.8004 90.4653 37.5773 89.9775 37.5325 89.4367C37.4921 88.8919 37.6032 88.3428 37.8658 87.7893C38.1284 87.2359 38.5094 86.7286 39.0088 86.2676C39.435 85.8741 39.8599 85.5656 40.2835 85.342C40.7031 85.1141 41.1108 84.977 41.5065 84.9306C41.9026 84.8759 42.2804 84.9179 42.6397 85.0567C42.9994 85.1871 43.3323 85.4181 43.6383 85.7496C43.8569 85.9864 44.0076 86.262 44.0904 86.5763C44.1733 86.8906 44.1847 87.2269 44.1248 87.5852C44.0609 87.9393 43.92 88.3006 43.7021 88.6692C43.4885 89.0339 43.1966 89.3871 42.8263 89.7289ZM41.0658 90.517L42.409 89.2769C42.8223 88.8953 43.226 88.5984 43.6201 88.3861C44.0102 88.1695 44.3845 88.0393 44.7428 87.9955C45.1012 87.9518 45.4395 87.9943 45.7578 88.1231C46.0764 88.2437 46.3708 88.4503 46.6411 88.7431C46.9431 89.0703 47.1444 89.4308 47.2447 89.8245C47.3455 90.21 47.3501 90.6124 47.2587 91.0317C47.1717 91.4471 46.9953 91.865 46.7297 92.2857C46.4641 92.7063 46.1182 93.1134 45.692 93.5068C45.2271 93.9361 44.7035 94.2759 44.1213 94.5263C43.5433 94.7728 42.9633 94.8657 42.381 94.8051C41.7991 94.7363 41.2756 94.45 40.8106 93.9463L42.367 92.5095C42.5299 92.686 42.7368 92.8021 42.9875 92.8577C43.2382 92.9133 43.5104 92.8972 43.8042 92.8095C44.094 92.7174 44.3809 92.5402 44.6651 92.2778C44.9578 92.0076 45.1551 91.7418 45.2567 91.4805C45.3544 91.2148 45.3789 90.965 45.3302 90.7308C45.2775 90.4924 45.1717 90.287 45.0127 90.1148C44.7981 89.8823 44.58 89.7368 44.3584 89.6782C44.1368 89.6196 43.9037 89.6434 43.6589 89.7498C43.4102 89.8518 43.1459 90.032 42.8661 90.2903L41.7812 91.2919L41.0658 90.517ZM46.3324 86.3486L46.1953 86.2001C45.7303 85.6963 45.3722 85.1617 45.1211 84.596C44.8661 84.026 44.7293 83.4546 44.7107 82.8816C44.6924 82.3004 44.802 81.7367 45.0395 81.1905C45.2772 80.6361 45.6501 80.1244 46.1581 79.6554C46.6704 79.1824 47.2103 78.8515 47.7776 78.6627C48.3452 78.4656 48.918 78.3993 49.496 78.4639C50.0699 78.5241 50.6308 78.7041 51.1786 79.0038C51.7224 79.2992 52.2269 79.6987 52.6919 80.2024L52.829 80.351C53.294 80.8547 53.6521 81.3894 53.9032 81.955C54.1543 82.5207 54.2889 83.0941 54.3072 83.6754C54.3215 84.2523 54.2119 84.816 53.9784 85.3664C53.741 85.9126 53.3683 86.4202 52.8602 86.8892C52.3479 87.3621 51.8079 87.6972 51.2403 87.8943C50.673 88.0831 50.1023 88.1474 49.5284 88.0871C48.9504 88.0226 48.3895 87.8426 47.8457 87.5472C47.3019 87.2518 46.7974 86.8523 46.3324 86.3486ZM47.7516 84.7632L47.8888 84.9118C48.1789 85.2261 48.4854 85.4933 48.8084 85.7135C49.1313 85.9338 49.459 86.0858 49.7915 86.1695C50.1241 86.2533 50.4536 86.2561 50.7801 86.1779C51.1067 86.0997 51.4185 85.9235 51.7156 85.6493C52.004 85.383 52.1981 85.0922 52.2977 84.7769C52.4017 84.4576 52.4252 84.1289 52.3682 83.7907C52.3112 83.4526 52.1859 83.1138 51.9921 82.7743C51.8026 82.4309 51.5628 82.102 51.2727 81.7878L51.1356 81.6392C50.8494 81.3293 50.5447 81.0683 50.2214 80.8564C49.8985 80.6361 49.5666 80.484 49.2258 80.3999C48.8893 80.3118 48.5578 80.3068 48.2313 80.385C47.905 80.4549 47.5956 80.625 47.3028 80.8953C47.01 81.1656 46.8137 81.4625 46.7137 81.7861C46.614 82.1014 46.5946 82.4302 46.6556 82.7727C46.7166 83.1151 46.8439 83.4561 47.0377 83.7956C47.2275 84.1307 47.4655 84.4533 47.7516 84.7632ZM53.9235 72.7257L60.3742 79.7131L58.8114 81.1559L52.3607 74.1685L53.9235 72.7257ZM56.216 70.6092L57.3487 71.8362L51.2396 77.4761L50.1069 76.2492L56.216 70.6092ZM66.4282 74.3633C65.9116 74.8403 65.3669 75.1875 64.7943 75.4052C64.222 75.6145 63.6484 75.7015 63.0735 75.6661C62.5028 75.6267 61.9492 75.4719 61.4127 75.2017C60.8761 74.9315 60.3873 74.5574 59.9461 74.0796L59.7076 73.8212C59.2028 73.2745 58.8254 72.7058 58.5753 72.1153C58.3252 71.5248 58.1972 70.9413 58.1912 70.3647C58.1812 69.7838 58.2925 69.2305 58.5249 68.7049C58.7574 68.1793 59.0997 67.7078 59.5517 67.2905C60.0511 66.8294 60.5656 66.51 61.0952 66.3321C61.6247 66.1542 62.1533 66.1048 62.6809 66.1839C63.2088 66.2548 63.7258 66.4434 64.2319 66.7497C64.7423 67.052 65.23 67.4551 65.695 67.9588L66.3091 68.6239L60.9103 73.608L59.8789 72.4908L63.7407 68.9256L63.6274 68.8029C63.3605 68.5311 63.0621 68.3201 62.7322 68.1701C62.4066 68.0161 62.071 67.9592 61.7252 67.9993C61.3794 68.0394 61.0343 68.2184 60.6899 68.5364C60.4316 68.7748 60.2529 69.0434 60.1539 69.3422C60.0553 69.6326 60.0346 69.9428 60.0919 70.2727C60.1492 70.6025 60.2764 70.9476 60.4735 71.3079C60.6709 71.66 60.9366 72.0168 61.2704 72.3785L61.5089 72.6368C61.7911 72.9425 62.0943 73.1888 62.4186 73.3759C62.7431 73.5548 63.0767 73.6655 63.4191 73.7082C63.7616 73.7509 64.1007 73.7209 64.4365 73.6182C64.7684 73.5113 65.0828 73.3206 65.3799 73.0464C65.7544 72.7006 66.0185 72.3172 66.1722 71.8963C66.3258 71.4753 66.3831 71.0277 66.344 70.5534L67.8974 70.5906C67.9495 70.9493 67.9483 71.3411 67.894 71.766C67.8358 72.1866 67.6899 72.6203 67.4565 73.0671C67.2273 73.5099 66.8845 73.942 66.4282 74.3633ZM66.6714 63.4449L74.3622 71.7755L72.8059 73.2123L63.875 63.5385L65.3086 62.2149L66.6714 63.4449ZM73.1499 61.3277L73.2751 61.4633C73.7441 61.9713 74.119 62.4984 74.3999 63.0445C74.6811 63.5823 74.8545 64.12 74.9201 64.6575C74.9861 65.1868 74.9326 65.6947 74.7598 66.1812C74.5869 66.6677 74.2809 67.1137 73.8418 67.5191C73.407 67.9205 72.9524 68.1926 72.4782 68.3354C72.0042 68.4699 71.5182 68.4919 71.0201 68.4016C70.522 68.3112 70.0192 68.1294 69.5118 67.8562C69.0048 67.5747 68.5007 67.2187 67.9995 66.7882L67.5166 66.2651C67.0996 65.7011 66.7651 65.1487 66.513 64.6079C66.2652 64.0631 66.1142 63.5367 66.0598 63.0286C66.0055 62.5206 66.0642 62.0357 66.2361 61.574C66.408 61.1123 66.7092 60.6828 67.1397 60.2853C67.5788 59.8799 68.0479 59.6063 68.547 59.4645C69.0421 59.3184 69.551 59.2952 70.0736 59.3949C70.5923 59.4902 71.1125 59.7038 71.6341 60.0356C72.1518 60.3631 72.657 60.7938 73.1499 61.3277ZM71.7187 62.9001L71.5935 62.7645C71.2954 62.4416 70.9891 62.1702 70.6744 61.9503C70.3558 61.7261 70.0345 61.5682 69.7106 61.4764C69.3867 61.3847 69.0699 61.3741 68.7603 61.4447C68.4509 61.507 68.1564 61.6673 67.8765 61.9256C67.601 62.18 67.4079 62.446 67.2973 62.7235C67.1827 62.9968 67.1342 63.2768 67.1518 63.5636C67.1694 63.8504 67.2429 64.1374 67.3724 64.4245C67.498 64.7073 67.6629 64.9897 67.8673 65.2715L69.0239 66.5243C69.3617 66.7866 69.7123 66.9893 70.0756 67.1323C70.439 67.2754 70.8063 67.3191 71.1775 67.2634C71.5491 67.1995 71.9157 67.0006 72.2774 66.6667C72.5572 66.4084 72.7405 66.1275 72.8273 65.8241C72.914 65.5207 72.9224 65.2059 72.8525 64.8797C72.783 64.5452 72.6491 64.2102 72.4511 63.8747C72.253 63.5393 72.0089 63.2144 71.7187 62.9001ZM77.2682 59.9061L75.6606 52.6581L77.2169 51.2213L83.6677 58.2087L82.1113 59.6455L77.7532 54.9248L79.3667 62.1793L77.8104 63.6161L71.3597 56.6287L72.916 55.1919L77.2682 59.9061ZM84.4756 44.5201L90.9263 51.5075L89.3699 52.9443L82.9192 45.957L84.4756 44.5201ZM86.6726 48.2216L87.8113 49.455C87.6974 49.7117 87.5538 49.9838 87.3806 50.2713C87.2078 50.5505 87.0121 50.8308 86.7935 51.1124C86.5709 51.3896 86.3284 51.6494 86.0657 51.8919C85.4501 52.4602 84.831 52.8564 84.2083 53.0803C83.59 53.3003 82.9795 53.3256 82.3767 53.1564C81.7742 52.9789 81.1928 52.5867 80.6324 51.9796L78.6769 49.8615L80.2268 48.4306L82.1823 50.5488C82.5042 50.8975 82.8122 51.1275 83.1063 51.2388C83.4047 51.3461 83.7012 51.3475 83.9956 51.2432C84.29 51.1389 84.5965 50.9396 84.9151 50.6455C85.182 50.3991 85.418 50.1493 85.623 49.8963C85.824 49.639 86.0109 49.3707 86.1838 49.0915C86.3567 48.8123 86.5196 48.5223 86.6726 48.2216ZM95.7856 47.2607C95.269 47.7376 94.7243 48.0849 94.1517 48.3026C93.5794 48.5119 93.0058 48.5989 92.4309 48.5635C91.8602 48.5241 91.3066 48.3693 90.7701 48.0991C90.2335 47.8289 89.7447 47.4548 89.3035 46.9769L89.065 46.7186C88.5602 46.1719 88.1828 45.6032 87.9327 45.0127C87.6826 44.4222 87.5546 43.8387 87.5486 43.2621C87.5386 42.6812 87.6499 42.1279 87.8823 41.6023C88.1148 41.0767 88.4571 40.6052 88.9091 40.1879C89.4085 39.7268 89.923 39.4074 90.4526 39.2295C90.9821 39.0516 91.5107 39.0022 92.0383 39.0813C92.5662 39.1522 93.0832 39.3408 93.5893 39.6471C94.0997 39.9494 94.5874 40.3524 95.0524 40.8562L95.6665 41.5213L90.2677 46.5054L89.2363 45.3882L93.0981 41.823L92.9848 41.7003C92.7179 41.4284 92.4195 41.2175 92.0896 41.0675C91.764 40.9135 91.4284 40.8566 91.0826 40.8967C90.7368 40.9367 90.3917 41.1158 90.0473 41.4337C89.789 41.6722 89.6103 41.9408 89.5113 42.2396C89.4127 42.53 89.392 42.8402 89.4493 43.1701C89.5066 43.4999 89.6338 43.845 89.8309 44.2053C90.0283 44.5574 90.2939 44.9142 90.6278 45.2759L90.8663 45.5342C91.1485 45.8398 91.4517 46.0862 91.776 46.2733C92.1005 46.4522 92.434 46.5629 92.7765 46.6056C93.119 46.6483 93.4581 46.6183 93.7939 46.5156C94.1258 46.4086 94.4402 46.218 94.7373 45.9438C95.1118 45.598 95.3759 45.2146 95.5296 44.7937C95.6832 44.3727 95.7405 43.9251 95.7014 43.4508L97.2548 43.488C97.3069 43.8467 97.3057 44.2385 97.2514 44.6634C97.1932 45.084 97.0473 45.5177 96.8139 45.9645C96.5847 46.4073 96.2419 46.8394 95.7856 47.2607ZM101.506 39.6833C101.76 39.4488 101.942 39.1887 102.053 38.9028C102.164 38.6087 102.199 38.3136 102.157 38.0176C102.119 37.7175 101.997 37.4431 101.792 37.1944L103.258 35.8411C103.666 36.3011 103.912 36.8354 103.996 37.4441C104.079 38.0529 104.009 38.6638 103.786 39.2768C103.558 39.8856 103.186 40.4284 102.67 40.9053C102.136 41.3982 101.587 41.737 101.024 41.9219C100.457 42.1024 99.8935 42.1525 99.3328 42.072C98.7721 41.9916 98.2303 41.802 97.7073 41.5033C97.1886 41.2006 96.7067 40.8082 96.2616 40.326L96.0529 40.1C95.6077 39.6178 95.255 39.1061 94.9946 38.565C94.7346 38.0155 94.5869 37.4582 94.5514 36.8928C94.5159 36.3275 94.6128 35.7716 94.8419 35.2251C95.0671 34.6743 95.4444 34.1545 95.974 33.6656C96.5337 33.1489 97.1278 32.8077 97.7564 32.6421C98.381 32.4722 98.9967 32.4739 99.6035 32.6475C100.211 32.8127 100.759 33.1518 101.248 33.6648L99.7824 35.0181C99.5311 34.7717 99.2519 34.5989 98.9448 34.4995C98.6381 34.3919 98.3238 34.3711 98.0019 34.437C97.6843 34.4989 97.3834 34.6611 97.0993 34.9234C96.785 35.2135 96.5842 35.5186 96.4967 35.8385C96.4054 36.1541 96.4029 36.4754 96.4894 36.8023C96.5718 37.1249 96.7125 37.4456 96.9112 37.7645C97.1103 38.0752 97.3429 38.3747 97.6092 38.6632L97.8179 38.8892C98.0842 39.1777 98.3662 39.4356 98.664 39.6631C98.9617 39.8907 99.2681 40.0584 99.5831 40.1663C99.8984 40.266 100.219 40.285 100.545 40.2234C100.867 40.1575 101.187 39.9774 101.506 39.6833ZM101.815 28.5126L108.266 35.4999L106.709 36.9368L100.259 29.9494L101.815 28.5126ZM106.374 24.3035L107.11 31.411L105.334 33.0505L103.828 31.8334L105.126 30.6351L104.43 26.098L106.374 24.3035ZM111.004 32.9721L106.084 31.8676L106.495 29.8501L113.051 31.0822L111.004 32.9721ZM113.406 26.5435L111.799 19.2955L113.355 17.8587L119.806 24.8461L118.249 26.2829L113.891 21.5622L115.505 28.8167L113.949 30.2535L107.498 23.2661L109.054 21.8293L113.406 26.5435ZM124.652 20.6112C124.136 21.0881 123.591 21.4354 123.018 21.653C122.446 21.8624 121.872 21.9494 121.297 21.914C120.727 21.8746 120.173 21.7198 119.637 21.4496C119.1 21.1794 118.611 20.8053 118.17 20.3274L117.932 20.0691C117.427 19.5224 117.049 18.9537 116.799 18.3632C116.549 17.7727 116.421 17.1892 116.415 16.6126C116.405 16.0317 116.516 15.4784 116.749 14.9528C116.981 14.4272 117.324 13.9557 117.776 13.5384C118.275 13.0773 118.79 12.7578 119.319 12.58C119.849 12.4021 120.377 12.3527 120.905 12.4318C121.433 12.5027 121.95 12.6912 122.456 12.9976C122.966 13.2999 123.454 13.7029 123.919 14.2066L124.533 14.8718L119.134 19.8559L118.103 18.7387L121.965 15.1735L121.851 15.0508C121.584 14.7789 121.286 14.568 120.956 14.418C120.631 14.264 120.295 14.207 119.949 14.2471C119.603 14.2872 119.258 14.4663 118.914 14.7842C118.656 15.0227 118.477 15.2913 118.378 15.5901C118.279 15.8805 118.259 16.1907 118.316 16.5205C118.373 16.8504 118.5 17.1955 118.697 17.5558C118.895 17.9079 119.161 18.2647 119.494 18.6263L119.733 18.8847C120.015 19.1903 120.318 19.4367 120.643 19.6238C120.967 19.8026 121.301 19.9134 121.643 19.9561C121.986 19.9988 122.325 19.9688 122.661 19.8661C122.992 19.7591 123.307 19.5685 123.604 19.2943C123.978 18.9485 124.243 18.5651 124.396 18.1442C124.55 17.7232 124.607 17.2756 124.568 16.8013L126.121 16.8385C126.173 17.1972 126.172 17.589 126.118 18.0139C126.06 18.4345 125.914 18.8682 125.68 19.315C125.451 19.7578 125.109 20.1899 124.652 20.6112ZM76.5227 89.9233L75.1795 91.1634L74.4522 90.3755L75.5371 89.3739C75.8126 89.1195 75.9984 88.8802 76.0944 88.656C76.1948 88.4278 76.2198 88.2174 76.1694 88.0246C76.1194 87.8236 76.0129 87.6348 75.8499 87.4583C75.7068 87.3033 75.5351 87.1907 75.3347 87.1205C75.1347 87.042 74.909 87.0351 74.6576 87.0997C74.4063 87.1643 74.1363 87.3297 73.8479 87.596C73.6111 87.8146 73.4338 88.0501 73.3159 88.3025C73.2023 88.5509 73.1553 88.7937 73.1748 89.0308C73.1944 89.2679 73.2876 89.4769 73.4546 89.6577L71.8982 91.0945C71.4968 90.6597 71.2737 90.1719 71.229 89.631C71.1885 89.0862 71.2996 88.5371 71.5622 87.9837C71.8248 87.4302 72.2058 86.923 72.7052 86.4619C73.1314 86.0684 73.5563 85.7599 73.9799 85.5363C74.3995 85.3084 74.8072 85.1713 75.203 85.1249C75.5991 85.0702 75.9768 85.1123 76.3361 85.251C76.6958 85.3815 77.0287 85.6125 77.3347 85.944C77.5533 86.1808 77.704 86.4563 77.7869 86.7706C77.8697 87.0849 77.8811 87.4212 77.8212 87.7796C77.7573 88.1336 77.6164 88.495 77.3985 88.8636C77.1849 89.2283 76.893 89.5815 76.5227 89.9233ZM74.7622 90.7113L76.1054 89.4713C76.5187 89.0897 76.9224 88.7928 77.3165 88.5804C77.7067 88.3638 78.0809 88.2336 78.4392 88.1899C78.7976 88.1461 79.1359 88.1887 79.4542 88.3175C79.7728 88.438 80.0672 88.6447 80.3375 88.9374C80.6396 89.2646 80.8408 89.6251 80.9412 90.0189C81.0419 90.4044 81.0465 90.8068 80.9552 91.2261C80.8681 91.6414 80.6917 92.0594 80.4262 92.48C80.1606 92.9006 79.8147 93.3077 79.3885 93.7012C78.9235 94.1304 78.3999 94.4703 77.8177 94.7207C77.2398 94.9671 76.6597 95.0601 76.0774 94.9995C75.4955 94.9307 74.9721 94.6444 74.507 94.1407L76.0634 92.7038C76.2263 92.8804 76.4332 92.9964 76.6839 93.0521C76.9346 93.1077 77.2069 93.0916 77.5006 93.0038C77.7904 92.9117 78.0774 92.7345 78.3615 92.4722C78.6543 92.2019 78.8515 91.9361 78.9531 91.6748C79.0508 91.4092 79.0753 91.1593 79.0266 90.9252C78.9739 90.6867 78.8681 90.4814 78.7091 90.3092C78.4945 90.0767 78.2764 89.9311 78.0548 89.8725C77.8333 89.8139 77.6001 89.8378 77.3554 89.9441C77.1066 90.0461 76.8424 90.2263 76.5625 90.4847L75.4776 91.4863L74.7622 90.7113ZM84.4961 81.2106L85.6289 82.4376L82.0125 85.7763L80.8797 84.5493L84.4961 81.2106ZM78.637 81.213L85.0877 88.2004L83.5314 89.6372L77.0807 82.6498L78.637 81.213ZM82.925 77.2543L89.3758 84.2417L87.8194 85.6785L81.3687 78.6911L82.925 77.2543ZM93.681 77.6714L90.6047 74.3392C90.3741 74.0895 90.1302 73.9159 89.8729 73.8186C89.6155 73.7212 89.3486 73.7085 89.072 73.7804C88.7998 73.8483 88.5259 74.0094 88.2504 74.2638C87.9964 74.4983 87.8166 74.7441 87.7109 75.0011C87.6053 75.2581 87.5684 75.5075 87.6002 75.7493C87.632 75.991 87.7334 76.2045 87.9043 76.3896L86.3544 77.8204C86.1 77.5449 85.9203 77.2164 85.8153 76.8348C85.7103 76.4533 85.6914 76.0441 85.7586 75.6073C85.8258 75.1704 85.9823 74.7309 86.228 74.2888C86.4737 73.8466 86.8161 73.4229 87.2552 73.0174C87.7805 72.5325 88.3269 72.1915 88.8946 71.9945C89.4665 71.7934 90.0337 71.7642 90.5961 71.9069C91.1588 72.0413 91.6865 72.3755 92.1794 72.9093L95.047 76.0156C95.3412 76.3341 95.627 76.6006 95.9046 76.8148C96.1824 77.0208 96.4499 77.1766 96.7069 77.2823L96.8023 77.3856L95.2072 78.8582C94.979 78.7578 94.7241 78.5984 94.4426 78.3798C94.1614 78.153 93.9075 77.9168 93.681 77.6714ZM91.2778 74.6149L92.1791 75.5652L91.0619 76.5966C90.7734 76.8628 90.5452 77.1253 90.3773 77.384C90.2055 77.6384 90.094 77.8848 90.043 78.1232C89.9921 78.3617 89.9975 78.5879 90.0595 78.8019C90.1214 79.0158 90.2379 79.2153 90.4088 79.4005C90.5797 79.5856 90.7797 79.7159 91.0089 79.7914C91.2341 79.8626 91.4683 79.8657 91.7114 79.8008C91.9588 79.7319 92.2008 79.5881 92.4376 79.3695C92.7562 79.0754 92.9743 78.7545 93.0918 78.4067C93.2097 78.0507 93.2501 77.7143 93.213 77.3977C93.1719 77.0768 93.0762 76.8263 92.9258 76.6461L94.0674 76.8721C94.1787 77.0963 94.2654 77.3672 94.3273 77.6848C94.3893 78.0024 94.4045 78.3472 94.3731 78.7191C94.342 79.0828 94.2402 79.4519 94.0676 79.8265C93.8994 80.1971 93.6345 80.5493 93.2728 80.8832C92.8165 81.3045 92.3262 81.5897 91.8019 81.7387C91.2737 81.8835 90.7653 81.8943 90.2768 81.7711C89.7843 81.6437 89.3552 81.3819 88.9895 80.9858C88.6477 80.6155 88.4145 80.2248 88.29 79.8134C88.1658 79.3938 88.1498 78.9619 88.2422 78.5178C88.3389 78.0697 88.5396 77.6133 88.8442 77.1486C89.1449 76.6796 89.5493 76.2106 90.0573 75.7416L91.2778 74.6149ZM99.1813 67.6534L100.314 68.8804L96.6976 72.219L95.5649 70.992L99.1813 67.6534ZM93.3222 67.6557L99.7729 74.6431L98.2166 76.0799L91.7658 69.0925L93.3222 67.6557ZM97.6102 63.6971L104.061 70.6845L102.505 72.1213L96.0538 65.1339L97.6102 63.6971ZM105.23 65.3946L103.622 58.1466L105.179 56.7098L111.63 63.6972L110.073 65.134L105.715 60.4133L107.329 67.6677L105.772 69.1046L99.3215 62.1172L100.878 60.6804L105.23 65.3946ZM111.595 57.4014L113.209 55.9109L114.381 61.1574L112.773 62.6419L111.595 57.4014ZM109.435 52.7809L112.431 50.0146L118.882 57.002L117.332 58.4328L112.014 52.6724L110.567 54.0079C110.274 54.2782 110.081 54.5524 109.987 54.8306C109.889 55.1045 109.87 55.365 109.931 55.612C109.988 55.8548 110.093 56.0601 110.248 56.228C110.403 56.3959 110.593 56.5196 110.818 56.5991C111.047 56.6746 111.296 56.6804 111.564 56.6164C111.836 56.5485 112.108 56.3894 112.379 56.139L114.433 54.2431L115.482 55.3797L113.428 57.2756C112.998 57.673 112.563 57.9749 112.123 58.1813C111.68 58.3833 111.25 58.4968 110.835 58.5217C110.415 58.5422 110.022 58.4788 109.654 58.3315C109.283 58.1798 108.952 57.9468 108.662 57.6326C108.364 57.3097 108.155 56.953 108.033 56.5625C107.912 56.1721 107.879 55.7644 107.933 55.3394C107.991 54.9105 108.145 54.4813 108.395 54.0517C108.644 53.6139 108.991 53.1903 109.435 52.7809Z" fill="#A43FD4"/>
<path d="M198.185 470.704L203.756 461.436L205.962 461.411L206.11 474.207L203.904 474.232L203.797 465.022L198.227 474.298L196.03 474.324L195.881 461.528L198.079 461.502L198.185 470.704ZM212.412 472.622C212.757 472.618 213.067 472.547 213.341 472.409C213.62 472.265 213.844 472.069 214.011 471.821C214.184 471.573 214.277 471.287 214.291 470.965L216.286 470.942C216.281 471.557 216.106 472.119 215.761 472.627C215.415 473.135 214.954 473.541 214.377 473.847C213.801 474.147 213.161 474.301 212.458 474.309C211.731 474.317 211.097 474.202 210.555 473.962C210.013 473.716 209.561 473.376 209.198 472.94C208.836 472.505 208.56 472.001 208.372 471.429C208.19 470.857 208.095 470.243 208.087 469.587L208.083 469.279C208.076 468.623 208.157 468.007 208.326 467.43C208.501 466.848 208.764 466.335 209.117 465.892C209.469 465.448 209.913 465.1 210.449 464.848C210.985 464.59 211.614 464.457 212.334 464.448C213.096 464.439 213.766 464.584 214.343 464.882C214.921 465.174 215.377 465.588 215.711 466.123C216.052 466.652 216.232 467.271 216.252 467.98L214.257 468.003C214.235 467.652 214.143 467.337 213.982 467.057C213.826 466.772 213.607 466.546 213.324 466.379C213.046 466.213 212.714 466.131 212.328 466.136C211.9 466.141 211.546 466.233 211.267 466.412C210.988 466.585 210.771 466.822 210.616 467.123C210.461 467.417 210.351 467.75 210.285 468.12C210.225 468.484 210.197 468.862 210.202 469.255L210.205 469.562C210.21 469.955 210.246 470.335 210.315 470.704C210.384 471.072 210.499 471.402 210.661 471.693C210.828 471.978 211.053 472.207 211.336 472.379C211.62 472.546 211.978 472.627 212.412 472.622ZM224.218 464.486L224.238 466.174L219.545 466.228L219.525 464.541L224.218 464.486ZM220.026 464.535L220.137 474.044L218.019 474.068L217.908 464.559L220.026 464.535ZM225.879 464.467L225.99 473.976L223.863 474.001L223.753 464.492L225.879 464.467ZM227.773 469.306L227.77 469.103C227.762 468.418 227.855 467.781 228.047 467.193C228.239 466.599 228.52 466.083 228.89 465.645C229.266 465.201 229.725 464.856 230.267 464.609C230.815 464.357 231.435 464.227 232.126 464.219C232.823 464.21 233.446 464.326 233.993 464.566C234.547 464.8 235.017 465.134 235.403 465.569C235.789 465.998 236.084 466.508 236.291 467.097C236.497 467.681 236.604 468.315 236.611 469.001L236.614 469.203C236.622 469.888 236.53 470.525 236.337 471.114C236.145 471.702 235.861 472.218 235.485 472.662C235.109 473.1 234.65 473.445 234.108 473.697C233.566 473.944 232.949 474.071 232.258 474.079C231.561 474.087 230.935 473.974 230.382 473.74C229.834 473.501 229.367 473.166 228.981 472.737C228.596 472.302 228.3 471.793 228.094 471.209C227.888 470.626 227.781 469.991 227.773 469.306ZM229.888 469.079L229.891 469.281C229.896 469.709 229.944 470.112 230.037 470.492C230.129 470.872 230.27 471.204 230.461 471.489C230.652 471.774 230.895 471.997 231.19 472.158C231.485 472.318 231.834 472.396 232.238 472.392C232.631 472.387 232.97 472.301 233.255 472.134C233.546 471.966 233.784 471.738 233.968 471.449C234.152 471.159 234.286 470.824 234.369 470.442C234.459 470.06 234.501 469.655 234.496 469.228L234.493 469.025C234.489 468.604 234.437 468.206 234.339 467.832C234.247 467.452 234.102 467.117 233.905 466.826C233.715 466.535 233.472 466.31 233.177 466.149C232.888 465.982 232.544 465.901 232.146 465.906C231.747 465.911 231.402 466 231.112 466.173C230.826 466.34 230.592 466.571 230.408 466.867C230.224 467.162 230.09 467.5 230.006 467.882C229.923 468.258 229.883 468.657 229.888 469.079ZM244.581 464.25L244.601 465.937L239.961 465.991L239.941 464.304L244.581 464.25ZM246.242 464.231L246.353 473.74L244.235 473.764L244.124 464.255L246.242 464.231ZM239.422 464.31L241.514 464.285L241.314 468.99C241.287 469.688 241.224 470.304 241.124 470.838C241.031 471.367 240.901 471.822 240.736 472.205C240.57 472.582 240.366 472.889 240.122 473.126C239.879 473.364 239.594 473.54 239.267 473.655C238.94 473.77 238.572 473.83 238.162 473.835L237.503 473.842L237.474 472.102L237.807 472.072C238.024 472.052 238.211 471.994 238.368 471.899C238.525 471.797 238.658 471.655 238.767 471.472C238.882 471.289 238.973 471.054 239.04 470.766C239.113 470.478 239.168 470.137 239.204 469.744C239.247 469.351 239.276 468.894 239.294 468.372L239.422 464.31ZM255.033 468.101L255.052 469.771L250.131 469.828L250.111 468.159L255.033 468.101ZM250.681 464.179L250.791 473.688L248.673 473.713L248.562 464.204L250.681 464.179ZM256.516 464.111L256.626 473.62L254.508 473.645L254.398 464.136L256.516 464.111ZM263.079 473.721C262.376 473.73 261.739 473.623 261.168 473.401C260.603 473.173 260.119 472.853 259.715 472.442C259.318 472.031 259.011 471.545 258.793 470.985C258.576 470.425 258.463 469.82 258.456 469.169L258.452 468.818C258.443 468.074 258.544 467.399 258.753 466.793C258.963 466.187 259.259 465.667 259.641 465.235C260.022 464.797 260.475 464.461 261 464.226C261.525 463.992 262.095 463.871 262.71 463.864C263.39 463.856 263.986 463.963 264.498 464.186C265.01 464.408 265.436 464.726 265.775 465.138C266.119 465.544 266.377 466.03 266.548 466.597C266.724 467.163 266.816 467.789 266.824 468.474L266.835 469.38L259.488 469.465L259.47 467.944L264.725 467.884L264.723 467.717C264.707 467.336 264.627 466.979 264.483 466.647C264.344 466.315 264.133 466.047 263.849 465.846C263.566 465.644 263.189 465.546 262.721 465.551C262.369 465.555 262.057 465.635 261.783 465.791C261.515 465.94 261.292 466.157 261.114 466.44C260.935 466.723 260.799 467.065 260.704 467.464C260.614 467.858 260.573 468.301 260.578 468.793L260.583 469.145C260.587 469.561 260.648 469.947 260.763 470.303C260.884 470.653 261.058 470.958 261.283 471.22C261.509 471.481 261.781 471.686 262.099 471.834C262.417 471.977 262.778 472.046 263.183 472.041C263.692 472.035 264.145 471.928 264.541 471.718C264.937 471.508 265.28 471.214 265.568 470.836L266.697 471.904C266.495 472.205 266.232 472.495 265.907 472.774C265.582 473.048 265.183 473.272 264.711 473.448C264.244 473.623 263.7 473.714 263.079 473.721ZM274.965 467.87L274.985 469.54L270.063 469.597L270.044 467.927L274.965 467.87ZM270.613 463.948L270.723 473.457L268.605 473.481L268.495 463.972L270.613 463.948ZM276.448 463.88L276.559 473.389L274.441 473.414L274.33 463.905L276.448 463.88ZM280.97 470.244L284.63 463.785L286.748 463.76L286.859 473.27L284.741 473.294L284.666 466.87L281.006 473.338L278.888 473.362L278.777 463.853L280.895 463.828L280.97 470.244ZM293.294 473.371C292.591 473.379 291.954 473.272 291.383 473.05C290.818 472.822 290.333 472.503 289.93 472.091C289.533 471.68 289.225 471.194 289.008 470.634C288.791 470.074 288.678 469.469 288.67 468.819L288.666 468.467C288.658 467.723 288.758 467.048 288.968 466.442C289.178 465.836 289.474 465.317 289.855 464.885C290.237 464.447 290.69 464.11 291.215 463.876C291.74 463.641 292.309 463.52 292.925 463.513C293.604 463.505 294.2 463.612 294.713 463.835C295.225 464.058 295.651 464.375 295.989 464.787C296.334 465.193 296.592 465.68 296.762 466.246C296.939 466.812 297.031 467.438 297.039 468.124L297.049 469.029L289.702 469.114L289.685 467.594L294.94 467.533L294.938 467.366C294.922 466.985 294.842 466.629 294.697 466.296C294.559 465.964 294.348 465.697 294.064 465.495C293.78 465.293 293.404 465.195 292.935 465.201C292.584 465.205 292.271 465.284 291.998 465.44C291.73 465.59 291.507 465.806 291.328 466.089C291.15 466.373 291.013 466.714 290.918 467.114C290.829 467.507 290.788 467.95 290.793 468.442L290.797 468.794C290.802 469.21 290.862 469.596 290.978 469.952C291.099 470.302 291.272 470.608 291.498 470.869C291.724 471.13 291.996 471.335 292.314 471.484C292.632 471.626 292.993 471.695 293.397 471.691C293.907 471.685 294.36 471.577 294.756 471.367C295.152 471.158 295.494 470.864 295.783 470.485L296.912 471.553C296.71 471.854 296.447 472.145 296.122 472.424C295.797 472.697 295.398 472.921 294.926 473.097C294.459 473.272 293.915 473.364 293.294 473.371ZM213.161 493.285L209.299 487.661L211.9 487.631L214.158 491.349L216.013 491.327L215.763 493.255L213.161 493.285ZM214.23 492.965L211.844 497.142L209.242 497.172L212.625 491.78L214.23 492.965ZM217.244 487.569L217.354 497.078L215.245 497.102L215.134 487.593L217.244 487.569ZM223.106 487.501L219.375 493.213L216.764 493.243L216.461 491.322L218.324 491.3L220.495 487.531L223.106 487.501ZM220.773 497.038L218.281 492.918L219.911 491.695L223.4 497.008L220.773 497.038ZM228.763 497.121C228.06 497.129 227.423 497.022 226.852 496.801C226.287 496.573 225.803 496.253 225.4 495.842C225.002 495.43 224.695 494.945 224.477 494.385C224.26 493.825 224.148 493.219 224.14 492.569L224.136 492.217C224.127 491.473 224.228 490.798 224.438 490.192C224.647 489.586 224.943 489.067 225.325 488.635C225.707 488.197 226.16 487.861 226.684 487.626C227.209 487.391 227.779 487.271 228.394 487.263C229.074 487.256 229.67 487.363 230.182 487.585C230.695 487.808 231.12 488.125 231.459 488.538C231.804 488.944 232.061 489.43 232.232 489.996C232.408 490.563 232.501 491.189 232.508 491.874L232.519 492.779L225.172 492.865L225.154 491.344L230.41 491.283L230.408 491.116C230.392 490.736 230.311 490.379 230.167 490.047C230.028 489.714 229.817 489.447 229.533 489.245C229.25 489.044 228.874 488.945 228.405 488.951C228.053 488.955 227.741 489.035 227.467 489.19C227.199 489.34 226.976 489.556 226.798 489.84C226.62 490.123 226.483 490.465 226.388 490.864C226.299 491.258 226.257 491.701 226.263 492.193L226.267 492.544C226.272 492.96 226.332 493.346 226.447 493.702C226.568 494.053 226.742 494.358 226.968 494.619C227.193 494.88 227.465 495.085 227.783 495.234C228.102 495.377 228.463 495.446 228.867 495.441C229.377 495.435 229.83 495.327 230.226 495.118C230.622 494.908 230.964 494.614 231.253 494.236L232.381 495.304C232.18 495.605 231.916 495.895 231.591 496.174C231.267 496.447 230.868 496.672 230.395 496.847C229.928 497.023 229.384 497.114 228.763 497.121ZM240.498 487.299L240.517 488.986L235.877 489.04L235.858 487.353L240.498 487.299ZM242.159 487.279L242.269 496.789L240.151 496.813L240.041 487.304L242.159 487.279ZM235.339 487.359L237.431 487.334L237.23 492.039C237.203 492.737 237.14 493.353 237.041 493.887C236.947 494.416 236.818 494.871 236.652 495.254C236.487 495.631 236.282 495.938 236.039 496.175C235.796 496.413 235.511 496.589 235.184 496.704C234.857 496.819 234.489 496.879 234.078 496.884L233.419 496.891L233.39 495.151L233.724 495.121C233.941 495.101 234.127 495.043 234.284 494.948C234.442 494.846 234.575 494.704 234.684 494.521C234.799 494.338 234.89 494.103 234.957 493.815C235.03 493.527 235.084 493.186 235.121 492.793C235.163 492.4 235.193 491.943 235.21 491.421L235.339 487.359ZM249.858 494.793L249.805 490.258C249.801 489.919 249.736 489.626 249.611 489.382C249.485 489.137 249.295 488.949 249.041 488.817C248.794 488.685 248.483 488.621 248.108 488.626C247.762 488.63 247.464 488.692 247.213 488.812C246.963 488.932 246.768 489.092 246.63 489.293C246.492 489.494 246.424 489.72 246.427 489.972L244.318 489.997C244.313 489.622 244.4 489.258 244.577 488.904C244.755 488.55 245.015 488.234 245.357 487.954C245.7 487.675 246.11 487.453 246.589 487.29C247.068 487.126 247.606 487.04 248.203 487.034C248.918 487.025 249.552 487.138 250.106 487.372C250.665 487.606 251.106 487.964 251.428 488.446C251.756 488.923 251.924 489.525 251.932 490.251L251.981 494.478C251.986 494.912 252.02 495.301 252.083 495.646C252.151 495.985 252.245 496.28 252.366 496.531L252.367 496.671L250.196 496.697C250.094 496.469 250.012 496.18 249.949 495.829C249.892 495.473 249.862 495.127 249.858 494.793ZM250.121 490.914L250.153 492.223L248.633 492.241C248.24 492.245 247.895 492.287 247.597 492.367C247.299 492.441 247.051 492.549 246.854 492.692C246.656 492.835 246.509 493.007 246.412 493.207C246.314 493.407 246.267 493.634 246.27 493.886C246.273 494.137 246.334 494.368 246.454 494.578C246.573 494.781 246.745 494.941 246.969 495.055C247.199 495.17 247.475 495.225 247.797 495.221C248.231 495.216 248.608 495.124 248.928 494.945C249.254 494.759 249.509 494.536 249.694 494.277C249.878 494.011 249.975 493.761 249.984 493.526L250.68 494.458C250.613 494.699 250.496 494.959 250.329 495.236C250.162 495.513 249.943 495.78 249.67 496.035C249.404 496.284 249.081 496.49 248.702 496.652C248.329 496.815 247.896 496.899 247.404 496.905C246.783 496.912 246.228 496.795 245.738 496.555C245.249 496.309 244.865 495.976 244.584 495.558C244.304 495.133 244.161 494.651 244.154 494.112C244.149 493.608 244.237 493.162 244.42 492.773C244.609 492.378 244.886 492.047 245.252 491.779C245.624 491.511 246.079 491.307 246.616 491.166C247.154 491.019 247.768 490.941 248.46 490.933L250.121 490.914ZM260.652 491.038L260.671 492.708L255.75 492.765L255.73 491.095L260.652 491.038ZM256.3 487.115L256.41 496.625L254.292 496.649L254.182 487.14L256.3 487.115ZM262.135 487.048L262.245 496.557L260.127 496.581L260.017 487.072L262.135 487.048ZM266.657 493.412L270.317 486.953L272.435 486.928L272.546 496.437L270.428 496.462L270.353 490.037L266.692 496.505L264.574 496.53L264.464 487.021L266.582 486.996L266.657 493.412ZM276.939 493.292L280.6 486.833L282.718 486.809L282.828 496.318L280.71 496.343L280.635 489.918L276.975 496.386L274.857 496.41L274.747 486.901L276.865 486.877L276.939 493.292ZM279.995 483.184L281.568 483.166C281.574 483.652 281.461 484.084 281.231 484.462C281.007 484.833 280.682 485.127 280.257 485.343C279.838 485.559 279.335 485.67 278.749 485.677C277.865 485.687 277.162 485.467 276.641 485.016C276.126 484.559 275.864 483.964 275.855 483.232L277.429 483.214C277.432 483.542 277.532 483.831 277.729 484.08C277.931 484.324 278.266 484.443 278.735 484.438C279.198 484.433 279.524 484.306 279.715 484.057C279.905 483.803 279.999 483.512 279.995 483.184Z" fill="#A43FD4"/>
<path d="M395.362 47.1451L396.692 48.5965L391.915 57.9927L401.686 54.0459L403.016 55.4973L390.28 60.5402L389.223 59.3868L395.362 47.1451ZM394.756 46.4842L396.021 47.8643L389.942 53.8757L386.806 56.7496L385.321 55.1297L394.756 46.4842ZM402.357 54.7781L403.628 56.1647L394.193 64.8102L392.702 63.1839L395.839 60.3099L402.357 54.7781ZM398.523 69.7952C398.048 69.2768 397.702 68.7309 397.487 68.1575C397.28 67.5845 397.195 67.0106 397.232 66.4358C397.274 65.8653 397.431 65.3123 397.703 64.7768C397.975 64.2412 398.351 63.7538 398.83 63.3144L399.09 63.0769C399.638 62.5741 400.208 62.1988 400.8 61.9509C401.391 61.703 401.975 61.5771 402.552 61.5732C403.133 61.5654 403.686 61.6787 404.21 61.9131C404.735 62.1475 405.205 62.4915 405.621 62.945C406.08 63.4461 406.398 63.9618 406.574 64.492C406.75 65.0222 406.797 65.5509 406.716 66.0782C406.643 66.6058 406.453 67.1221 406.145 67.6271C405.84 68.1363 405.436 68.6225 404.93 69.0857L404.263 69.6973L399.298 64.2803L400.419 63.2531L403.971 67.1279L404.094 67.0151C404.367 66.7491 404.579 66.4515 404.73 66.1222C404.885 65.7972 404.943 65.4617 404.904 65.1158C404.866 64.7699 404.688 64.4242 404.371 64.0786C404.134 63.8194 403.866 63.6398 403.567 63.5397C403.277 63.4399 402.967 63.4181 402.637 63.4742C402.307 63.5303 401.961 63.6562 401.6 63.852C401.247 64.0481 400.89 64.3124 400.527 64.6449L400.268 64.8824C399.961 65.1635 399.713 65.4658 399.525 65.7893C399.345 66.1132 399.233 66.4463 399.189 66.7886C399.145 67.1309 399.174 67.4702 399.275 67.8063C399.381 68.1386 399.57 68.4537 399.844 68.7518C400.188 69.1276 400.57 69.3931 400.991 69.5483C401.411 69.7035 401.859 69.7624 402.333 69.7251L402.29 71.2783C401.931 71.329 401.54 71.3264 401.115 71.2706C400.694 71.2108 400.261 71.0633 399.815 70.8282C399.373 70.5974 398.942 70.2531 398.523 69.7952ZM410.515 68.5455L411.946 70.1071L409.406 72.2917C408.669 72.9272 407.979 73.4092 407.334 73.7378C406.689 74.0663 406.085 74.2784 405.521 74.374C404.961 74.4657 404.436 74.4698 403.946 74.3862C403.46 74.3069 403.008 74.169 402.589 73.9724L402.168 73.5124L403.399 72.3842L403.614 72.5926C403.983 72.5963 404.328 72.574 404.649 72.5258C404.979 72.478 405.309 72.3908 405.638 72.2641C405.971 72.1335 406.325 71.9437 406.701 71.6947C407.081 71.45 407.506 71.1285 407.975 70.7301L410.515 68.5455ZM410.895 68.9602L414.969 73.4053L407.958 79.83L406.532 78.2749L412.222 73.0615L409.573 70.1716L410.895 68.9602ZM403.085 72.0159L410.081 79.6489L406.75 82.701L405.319 81.1394L407.405 79.2274L403.29 74.737L401.204 76.649L399.749 75.0615L403.085 72.0159ZM413.582 81.3879L420.836 79.8071L422.267 81.3687L415.256 87.7935L413.825 86.2319L418.561 81.8913L411.301 83.478L409.87 81.9165L416.881 75.4917L418.312 77.0533L413.582 81.3879ZM426.762 86.2738L419.751 92.6985L418.314 91.1305L425.325 84.7057L426.762 86.2738ZM428.87 88.5741L427.639 89.7023L422.021 83.5725L423.253 82.4443L428.87 88.5741ZM427.748 98.6024L431.092 95.5385C431.343 95.3089 431.517 95.0656 431.615 94.8086C431.714 94.5517 431.727 94.2848 431.656 94.008C431.59 93.7355 431.429 93.461 431.176 93.1846C430.942 92.9297 430.697 92.749 430.441 92.6424C430.184 92.5358 429.935 92.498 429.693 92.5289C429.451 92.5598 429.237 92.6604 429.051 92.8306L427.626 91.2755C427.903 91.0222 428.232 90.8437 428.614 90.7401C428.996 90.6365 429.405 90.6191 429.842 90.6879C430.278 90.7567 430.717 90.9148 431.159 91.1621C431.6 91.4095 432.022 91.7534 432.426 92.1941C432.909 92.7211 433.248 93.2687 433.443 93.8371C433.642 94.4098 433.669 94.977 433.524 95.5389C433.388 96.1011 433.052 96.6276 432.516 97.1184L429.399 99.9745C429.08 100.267 428.812 100.552 428.597 100.829C428.39 101.106 428.233 101.373 428.126 101.63L428.023 101.725L426.556 100.124C426.657 99.8964 426.818 99.6421 427.037 99.3614C427.265 99.0811 427.502 98.8281 427.748 98.6024ZM430.814 96.2106L429.86 97.1083L428.833 95.9873C428.568 95.6979 428.306 95.4688 428.048 95.2999C427.794 95.1271 427.548 95.0148 427.31 94.9629C427.072 94.9111 426.845 94.9157 426.631 94.9769C426.417 95.038 426.217 95.1537 426.031 95.3239C425.846 95.4941 425.715 95.6937 425.638 95.9226C425.566 96.1476 425.562 96.3817 425.626 96.625C425.694 96.8726 425.837 97.1153 426.055 97.3528C426.348 97.6725 426.668 97.8918 427.015 98.0106C427.371 98.1298 427.707 98.1714 428.024 98.1355C428.345 98.0955 428.596 98.0007 428.776 97.851L428.546 98.9918C428.322 99.1023 428.05 99.1879 427.733 99.2487C427.415 99.3094 427.07 99.3234 426.698 99.2906C426.335 99.2582 425.966 99.155 425.592 98.9811C425.222 98.8115 424.871 98.5453 424.538 98.1824C424.118 97.7245 423.835 97.2332 423.688 96.7084C423.545 96.1796 423.536 95.6712 423.661 95.1832C423.79 94.6912 424.054 94.2631 424.451 93.8989C424.823 93.5585 425.214 93.3267 425.626 93.2037C426.046 93.081 426.478 93.0667 426.922 93.1607C427.37 93.259 427.825 93.4614 428.289 93.7678C428.757 94.0702 429.224 94.4762 429.692 94.986L430.814 96.2106ZM429.323 103.144L436.334 96.719L437.766 98.2805L431.998 103.565L434.516 106.313L440.283 101.028L441.72 102.596L434.709 109.021L429.323 103.144ZM436.82 108.839L433.389 111.756L432.077 110.324L434.157 108.418L433.385 107.576L434.623 106.442L436.82 108.839ZM440.351 110.598L447.605 109.017L449.036 110.579L442.025 117.004L440.594 115.442L445.331 111.101L438.07 112.688L436.639 111.127L443.65 104.702L445.081 106.263L440.351 110.598ZM448.321 116.992L449.806 118.612L444.555 119.764L443.076 118.151L448.321 116.992ZM452.95 114.849L455.705 117.855L448.694 124.28L447.268 122.725L453.048 117.429L451.718 115.977C451.449 115.683 451.176 115.489 450.898 115.394C450.624 115.295 450.364 115.275 450.116 115.335C449.874 115.391 449.668 115.496 449.499 115.65C449.331 115.805 449.206 115.994 449.126 116.219C449.05 116.448 449.043 116.696 449.106 116.964C449.173 117.237 449.331 117.509 449.581 117.781L451.469 119.842L450.328 120.887L448.44 118.826C448.044 118.394 447.744 117.958 447.539 117.518C447.339 117.074 447.227 116.644 447.203 116.228C447.184 115.808 447.249 115.415 447.398 115.048C447.551 114.678 447.785 114.348 448.101 114.059C448.425 113.762 448.782 113.554 449.173 113.434C449.564 113.314 449.972 113.282 450.396 113.338C450.825 113.398 451.254 113.554 451.682 113.805C452.119 114.056 452.542 114.404 452.95 114.849Z" fill="#A43FD4"/>
<path d="M360.59 431.332L369.171 440.826L367.541 442.299L360.139 434.109L355.92 437.922L363.322 446.112L361.692 447.585L353.111 438.091L360.59 431.332ZM367.411 432.062L375.013 440.474L373.442 441.894L364.614 432.126L366.061 430.818L367.411 432.062ZM373.912 430.014L374.035 430.151C374.499 430.664 374.868 431.195 375.143 431.744C375.419 432.284 375.586 432.824 375.646 433.362C375.707 433.892 375.648 434.399 375.47 434.884C375.292 435.369 374.981 435.811 374.538 436.212C374.099 436.609 373.641 436.876 373.166 437.014C372.69 437.143 372.204 437.16 371.707 437.065C371.21 436.969 370.709 436.782 370.205 436.503C369.7 436.216 369.2 435.855 368.704 435.419L368.226 434.891C367.815 434.323 367.487 433.767 367.24 433.223C366.998 432.676 366.853 432.148 366.804 431.639C366.755 431.131 366.819 430.647 366.996 430.187C367.172 429.727 367.478 429.301 367.913 428.908C368.356 428.507 368.828 428.238 369.329 428.102C369.825 427.961 370.334 427.943 370.856 428.048C371.374 428.149 371.891 428.368 372.409 428.706C372.924 429.039 373.424 429.475 373.912 430.014ZM372.464 431.571L372.34 431.434C372.045 431.108 371.742 430.833 371.43 430.61C371.113 430.382 370.794 430.221 370.471 430.126C370.148 430.031 369.831 430.017 369.521 430.084C369.211 430.143 368.915 430.3 368.632 430.556C368.354 430.807 368.158 431.071 368.044 431.347C367.927 431.619 367.876 431.899 367.89 432.186C367.905 432.473 367.975 432.761 368.102 433.049C368.224 433.333 368.386 433.617 368.587 433.901L369.731 435.166C370.066 435.432 370.414 435.638 370.776 435.785C371.138 435.932 371.505 435.98 371.876 435.928C372.249 435.868 372.617 435.673 372.982 435.343C373.265 435.088 373.451 434.809 373.541 434.506C373.631 434.204 373.643 433.889 373.577 433.562C373.511 433.227 373.38 432.891 373.186 432.553C372.991 432.216 372.751 431.888 372.464 431.571ZM378.045 428.636L376.514 421.371L378.085 419.951L384.462 427.006L382.89 428.426L378.582 423.66L380.119 430.931L378.548 432.351L372.171 425.296L373.743 423.876L378.045 428.636ZM386.826 419.385L384.57 421.424L383.555 420.327L385.407 418.653C385.711 418.378 385.933 418.122 386.074 417.884C386.219 417.643 386.284 417.418 386.27 417.21C386.252 416.997 386.162 416.802 386.001 416.624C385.867 416.476 385.723 416.373 385.568 416.315C385.41 416.253 385.24 416.241 385.06 416.277C384.88 416.306 384.69 416.383 384.488 416.51C384.287 416.628 384.074 416.79 383.848 416.994L382.563 418.155L387.82 423.971L386.248 425.391L379.872 418.336L382.728 415.755C383.18 415.346 383.622 415.018 384.053 414.77C384.489 414.519 384.908 414.357 385.31 414.286C385.712 414.215 386.092 414.243 386.451 414.369C386.81 414.486 387.139 414.711 387.437 415.041C387.634 415.258 387.771 415.506 387.848 415.784C387.93 416.057 387.946 416.351 387.897 416.663C387.848 416.976 387.734 417.3 387.555 417.636C387.373 417.966 387.119 418.298 386.796 418.63L386.826 419.385ZM389.554 422.404L386.842 424.855L386.348 423.051L388.435 421.165C388.713 420.913 388.912 420.67 389.032 420.436C389.151 420.201 389.196 419.979 389.165 419.77C389.134 419.553 389.036 419.353 388.871 419.171C388.703 418.984 388.514 418.862 388.305 418.806C388.096 418.75 387.869 418.769 387.624 418.865C387.379 418.952 387.113 419.125 386.826 419.385L385.033 421.005L384.044 419.885L386.176 417.958L387.015 417.982C387.49 417.607 387.948 417.367 388.389 417.261C388.83 417.154 389.235 417.156 389.602 417.266C389.97 417.376 390.284 417.574 390.543 417.861C390.842 418.192 391.042 418.54 391.144 418.906C391.25 419.268 391.258 419.644 391.168 420.033C391.078 420.415 390.898 420.806 390.629 421.207C390.356 421.604 389.998 422.003 389.554 422.404ZM392.079 407.304L393.21 408.556L389.767 411.668L388.636 410.416L392.079 407.304ZM393.311 406.19L399.687 413.246L398.116 414.666L391.74 407.611L393.311 406.19ZM388.251 410.763L389.803 409.361L392.767 413.02C393.208 413.561 393.568 414.065 393.848 414.531C394.127 414.989 394.332 415.416 394.461 415.813C394.587 416.205 394.637 416.571 394.611 416.909C394.586 417.248 394.489 417.569 394.32 417.872C394.151 418.174 393.914 418.463 393.61 418.738L393.121 419.18L391.948 417.895L392.178 417.651C392.327 417.493 392.429 417.326 392.483 417.15C392.534 416.97 392.54 416.776 392.5 416.566C392.465 416.353 392.378 416.116 392.238 415.856C392.102 415.592 391.917 415.301 391.684 414.982C391.456 414.659 391.176 414.296 390.843 413.894L388.251 410.763ZM404.585 409.056C404.063 409.528 403.515 409.869 402.94 410.081C402.366 410.284 401.791 410.365 401.217 410.324C400.646 410.278 400.094 410.118 399.561 409.842C399.027 409.566 398.542 409.187 398.106 408.704L397.87 408.443C397.371 407.891 397 407.319 396.756 406.725C396.512 406.132 396.391 405.547 396.391 404.971C396.387 404.39 396.504 403.838 396.742 403.315C396.98 402.792 397.327 402.324 397.784 401.911C398.288 401.455 398.806 401.141 399.337 400.969C399.869 400.797 400.398 400.753 400.924 400.838C401.452 400.914 401.967 401.108 402.469 401.42C402.977 401.728 403.46 402.136 403.92 402.645L404.527 403.316L399.075 408.243L398.056 407.115L401.955 403.591L401.843 403.467C401.579 403.192 401.283 402.978 400.955 402.824C400.631 402.667 400.296 402.607 399.95 402.643C399.603 402.679 399.256 402.855 398.909 403.169C398.648 403.405 398.466 403.672 398.364 403.969C398.262 404.259 398.238 404.569 398.292 404.899C398.346 405.229 398.47 405.576 398.663 405.938C398.857 406.292 399.118 406.652 399.448 407.017L399.684 407.278C399.963 407.587 400.264 407.836 400.586 408.027C400.909 408.209 401.241 408.323 401.583 408.37C401.925 408.416 402.264 408.39 402.601 408.29C402.934 408.187 403.251 408 403.551 407.729C403.929 407.387 404.197 407.006 404.355 406.587C404.513 406.168 404.575 405.721 404.541 405.246L406.094 405.3C406.142 405.659 406.137 406.051 406.078 406.475C406.015 406.895 405.865 407.327 405.627 407.771C405.393 408.212 405.046 408.64 404.585 409.056ZM407.806 393.09L414.183 400.145L412.611 401.566L406.235 394.51L407.806 393.09ZM409.964 396.814L411.09 398.06C410.973 398.315 410.827 398.586 410.65 398.872C410.475 399.149 410.276 399.427 410.054 399.706C409.829 399.981 409.584 400.238 409.318 400.478C408.697 401.04 408.074 401.43 407.449 401.647C406.828 401.86 406.217 401.879 405.616 401.704C405.016 401.52 404.438 401.121 403.884 400.508L401.952 398.37L403.516 396.955L405.449 399.094C405.768 399.446 406.073 399.679 406.366 399.794C406.663 399.904 406.96 399.909 407.255 399.808C407.551 399.706 407.859 399.51 408.181 399.22C408.451 398.976 408.689 398.729 408.897 398.478C409.101 398.223 409.29 397.957 409.466 397.679C409.642 397.402 409.808 397.114 409.964 396.814ZM419.087 395.95C418.565 396.422 418.017 396.763 417.442 396.975C416.868 397.178 416.293 397.259 415.718 397.217C415.148 397.172 414.596 397.011 414.063 396.735C413.529 396.46 413.044 396.08 412.608 395.598L412.372 395.337C411.873 394.785 411.502 394.212 411.258 393.619C411.014 393.026 410.893 392.441 410.893 391.865C410.889 391.284 411.006 390.732 411.244 390.208C411.482 389.685 411.829 389.217 412.286 388.805C412.79 388.349 413.308 388.035 413.839 387.863C414.371 387.691 414.9 387.647 415.426 387.732C415.953 387.808 416.468 388.002 416.971 388.314C417.478 388.621 417.962 389.03 418.421 389.538L419.028 390.21L413.577 395.137L412.558 394.008L416.457 390.484L416.345 390.36C416.081 390.086 415.785 389.872 415.457 389.718C415.133 389.561 414.798 389.5 414.451 389.537C414.105 389.573 413.758 389.748 413.411 390.063C413.15 390.298 412.968 390.565 412.866 390.863C412.764 391.152 412.74 391.462 412.794 391.793C412.848 392.123 412.972 392.47 413.165 392.832C413.358 393.186 413.62 393.546 413.95 393.911L414.186 394.172C414.465 394.48 414.766 394.73 415.088 394.92C415.411 395.103 415.743 395.217 416.085 395.263C416.427 395.31 416.766 395.283 417.103 395.184C417.436 395.081 417.753 394.893 418.052 394.622C418.431 394.28 418.699 393.9 418.857 393.481C419.015 393.061 419.077 392.614 419.043 392.14L420.596 392.193C420.644 392.552 420.639 392.944 420.58 393.369C420.517 393.789 420.367 394.221 420.129 394.665C419.895 395.105 419.548 395.534 419.087 395.95ZM424.124 383.697L425.244 384.936L421.592 388.236L420.473 386.997L424.124 383.697ZM418.266 383.637L424.642 390.693L423.07 392.113L416.694 385.058L418.266 383.637ZM422.595 379.724L428.972 386.78L427.4 388.2L421.024 381.145L422.595 379.724ZM430.197 381.503L428.666 374.238L430.237 372.818L436.614 379.873L435.042 381.293L430.734 376.527L432.271 383.798L430.7 385.218L424.323 378.163L425.895 376.742L430.197 381.503ZM441.505 375.69C440.983 376.161 440.435 376.503 439.86 376.714C439.285 376.917 438.711 376.998 438.136 376.957C437.566 376.911 437.014 376.751 436.481 376.475C435.947 376.199 435.462 375.82 435.026 375.337L434.79 375.076C434.291 374.524 433.92 373.952 433.676 373.359C433.432 372.765 433.31 372.181 433.311 371.604C433.307 371.023 433.424 370.471 433.662 369.948C433.9 369.425 434.247 368.957 434.704 368.544C435.208 368.089 435.726 367.775 436.257 367.602C436.788 367.43 437.318 367.386 437.844 367.471C438.371 367.547 438.886 367.741 439.389 368.053C439.896 368.361 440.38 368.769 440.839 369.278L441.446 369.949L435.995 374.876L434.976 373.748L438.875 370.224L438.763 370.1C438.499 369.825 438.203 369.611 437.875 369.458C437.551 369.3 437.216 369.24 436.869 369.276C436.523 369.313 436.176 369.488 435.829 369.802C435.568 370.038 435.386 370.305 435.284 370.602C435.182 370.892 435.158 371.202 435.212 371.532C435.266 371.863 435.389 372.209 435.583 372.571C435.776 372.925 436.038 373.285 436.368 373.65L436.604 373.911C436.883 374.22 437.184 374.469 437.506 374.66C437.828 374.842 438.161 374.956 438.503 375.003C438.845 375.049 439.184 375.023 439.521 374.923C439.854 374.82 440.17 374.633 440.47 374.362C440.849 374.02 441.117 373.639 441.275 373.22C441.433 372.801 441.495 372.354 441.461 371.879L443.014 371.933C443.062 372.292 443.057 372.684 442.998 373.108C442.935 373.528 442.785 373.96 442.547 374.404C442.313 374.845 441.966 375.273 441.505 375.69ZM393.179 443.874L393.303 444.011C393.755 444.511 394.114 445.023 394.383 445.547C394.651 446.062 394.816 446.573 394.878 447.078C394.939 447.583 394.886 448.065 394.717 448.526C394.553 448.982 394.26 449.401 393.839 449.782C393.469 450.116 393.09 450.343 392.703 450.465C392.315 450.586 391.925 450.618 391.534 450.561C391.139 450.5 390.745 450.366 390.353 450.159C389.958 449.949 389.565 449.68 389.175 449.353L387.33 447.312C387.021 446.865 386.771 446.427 386.581 445.999C386.392 445.562 386.28 445.137 386.247 444.725C386.219 444.308 386.28 443.913 386.432 443.539C386.579 443.161 386.838 442.805 387.208 442.471C387.547 442.164 387.908 441.948 388.292 441.823C388.672 441.692 389.066 441.644 389.475 441.677C389.881 441.706 390.292 441.812 390.71 441.995C391.124 442.173 391.539 442.422 391.954 442.742C392.374 443.058 392.782 443.435 393.179 443.874ZM391.731 445.431L391.607 445.294C391.36 445.021 391.107 444.775 390.848 444.559C390.589 444.343 390.331 444.166 390.072 444.028C389.814 443.882 389.56 443.785 389.309 443.735C389.055 443.68 388.81 443.684 388.574 443.747C388.339 443.802 388.117 443.923 387.909 444.112C387.626 444.367 387.435 444.627 387.334 444.892C387.234 445.148 387.213 445.404 387.27 445.66C387.328 445.908 387.443 446.152 387.613 446.393L390.123 449.171C390.319 449.326 390.527 449.43 390.749 449.482C390.974 449.531 391.216 449.514 391.473 449.432C391.726 449.345 391.994 449.174 392.277 448.919C392.538 448.683 392.708 448.43 392.788 448.161C392.868 447.883 392.875 447.592 392.807 447.29C392.744 446.984 392.618 446.675 392.431 446.363C392.243 446.05 392.01 445.74 391.731 445.431ZM384.656 451.825L384.533 451.688C384.136 451.249 383.799 450.807 383.523 450.362C383.247 449.916 383.041 449.479 382.905 449.049C382.77 448.61 382.708 448.188 382.72 447.782C382.728 447.372 382.816 446.984 382.984 446.62C383.148 446.25 383.4 445.912 383.739 445.606C384.104 445.276 384.48 445.059 384.867 444.954C385.25 444.844 385.643 444.829 386.045 444.907C386.452 444.982 386.861 445.137 387.272 445.374C387.684 445.602 388.097 445.893 388.51 446.246L390.284 448.208C390.582 448.634 390.82 449.059 390.998 449.483C391.175 449.906 391.279 450.318 391.308 450.718C391.338 451.118 391.277 451.505 391.125 451.879C390.974 452.253 390.713 452.607 390.344 452.941C389.926 453.318 389.48 453.567 389.005 453.688C388.53 453.809 388.045 453.814 387.548 453.702C387.052 453.589 386.559 453.376 386.069 453.06C385.579 452.737 385.108 452.325 384.656 451.825ZM386.104 450.268L386.228 450.405C386.507 450.714 386.79 450.979 387.077 451.201C387.369 451.419 387.66 451.579 387.949 451.681C388.235 451.778 388.518 451.803 388.798 451.755C389.078 451.707 389.349 451.565 389.61 451.329C389.897 451.07 390.092 450.814 390.196 450.562C390.3 450.31 390.331 450.065 390.289 449.826C390.252 449.584 390.16 449.351 390.014 449.128L387.574 446.428C387.351 446.235 387.118 446.098 386.873 446.02C386.624 445.936 386.367 445.932 386.102 446.006C385.833 446.075 385.555 446.239 385.268 446.499C385.007 446.734 384.844 447 384.78 447.295C384.719 447.587 384.737 447.899 384.832 448.231C384.927 448.556 385.087 448.893 385.309 449.245C385.533 449.588 385.798 449.929 386.104 450.268ZM393.597 454.679L382.094 441.951L383.672 440.525L395.175 453.253L393.597 454.679ZM397.19 442.335L395.659 435.07L397.23 433.65L403.607 440.705L402.035 442.125L397.727 437.359L399.264 444.63L397.692 446.05L391.316 438.995L392.888 437.574L397.19 442.335ZM406.376 430.739L407.495 431.978L403.844 435.278L402.724 434.039L406.376 430.739ZM400.517 430.68L406.893 437.735L405.322 439.155L398.945 432.1L400.517 430.68ZM404.846 426.766L411.223 433.822L409.651 435.242L403.275 428.187L404.846 426.766ZM415.597 427.297L412.556 423.933C412.329 423.681 412.087 423.505 411.83 423.405C411.574 423.304 411.307 423.289 411.03 423.358C410.757 423.423 410.481 423.581 410.203 423.833C409.947 424.064 409.764 424.308 409.656 424.564C409.548 424.82 409.508 425.069 409.537 425.311C409.567 425.553 409.666 425.768 409.835 425.955L408.27 427.369C408.018 427.091 407.842 426.76 407.741 426.378C407.64 425.995 407.625 425.586 407.697 425.15C407.769 424.713 407.93 424.276 408.181 423.836C408.431 423.397 408.778 422.976 409.221 422.576C409.752 422.096 410.302 421.761 410.871 421.57C411.445 421.375 412.013 421.352 412.574 421.501C413.135 421.641 413.659 421.981 414.146 422.52L416.981 425.656C417.272 425.978 417.555 426.247 417.83 426.464C418.106 426.673 418.371 426.832 418.627 426.94L418.721 427.045L417.111 428.5C416.884 428.398 416.631 428.235 416.351 428.014C416.073 427.784 415.821 427.545 415.597 427.297ZM413.227 424.216L414.118 425.175L412.99 426.195C412.698 426.458 412.468 426.718 412.297 426.975C412.122 427.228 412.008 427.473 411.955 427.711C411.901 427.949 411.904 428.175 411.964 428.389C412.024 428.604 412.138 428.805 412.307 428.992C412.476 429.179 412.675 429.311 412.903 429.389C413.127 429.463 413.362 429.468 413.605 429.406C413.853 429.34 414.097 429.198 414.336 428.982C414.658 428.692 414.879 428.373 415 428.026C415.122 427.672 415.166 427.336 415.132 427.019C415.095 426.698 415.002 426.446 414.853 426.264L415.992 426.502C416.101 426.728 416.185 426.999 416.243 427.318C416.302 427.636 416.314 427.981 416.278 428.352C416.243 428.716 416.138 429.084 415.961 429.457C415.789 429.825 415.52 430.175 415.155 430.505C414.694 430.921 414.201 431.201 413.675 431.345C413.146 431.484 412.637 431.489 412.15 431.361C411.659 431.228 411.233 430.962 410.871 430.562C410.533 430.188 410.304 429.795 410.184 429.382C410.064 428.961 410.053 428.529 410.15 428.086C410.251 427.639 410.457 427.185 410.766 426.723C411.072 426.258 411.481 425.793 411.994 425.329L413.227 424.216ZM421.203 417.338L422.323 418.577L418.672 421.877L417.552 420.638L421.203 417.338ZM415.345 417.279L421.721 424.334L420.15 425.754L413.773 418.699L415.345 417.279ZM419.674 413.366L426.051 420.421L424.479 421.841L418.103 414.786L419.674 413.366ZM429.595 415.18C429.851 414.948 430.037 414.69 430.151 414.405C430.265 414.112 430.303 413.818 430.264 413.521C430.229 413.221 430.11 412.945 429.907 412.694L431.388 411.357C431.791 411.821 432.032 412.358 432.109 412.967C432.186 413.577 432.109 414.187 431.879 414.798C431.645 415.404 431.268 415.943 430.746 416.414C430.207 416.901 429.655 417.234 429.09 417.413C428.521 417.588 427.957 417.632 427.397 417.546C426.837 417.459 426.297 417.264 425.778 416.96C425.262 416.651 424.784 416.254 424.344 415.767L424.138 415.539C423.698 415.052 423.351 414.537 423.096 413.993C422.842 413.441 422.7 412.882 422.671 412.316C422.641 411.75 422.744 411.195 422.979 410.651C423.21 410.103 423.593 409.587 424.127 409.104C424.693 408.593 425.29 408.258 425.921 408.099C426.547 407.936 427.163 407.944 427.767 408.124C428.373 408.296 428.917 408.641 429.402 409.159L427.921 410.497C427.673 410.248 427.395 410.072 427.089 409.969C426.784 409.858 426.47 409.834 426.147 409.897C425.829 409.955 425.526 410.114 425.239 410.374C424.922 410.66 424.718 410.963 424.627 411.282C424.532 411.597 424.527 411.918 424.61 412.246C424.689 412.569 424.826 412.892 425.021 413.213C425.217 413.525 425.446 413.827 425.71 414.119L425.916 414.347C426.179 414.638 426.458 414.899 426.754 415.13C427.049 415.36 427.354 415.531 427.667 415.643C427.982 415.746 428.302 415.768 428.629 415.71C428.951 415.647 429.273 415.471 429.595 415.18ZM431.286 409.422L431.151 409.272C430.691 408.764 430.339 408.225 430.094 407.657C429.845 407.084 429.714 406.511 429.701 405.938C429.689 405.357 429.805 404.794 430.048 404.251C430.292 403.699 430.67 403.191 431.183 402.728C431.7 402.26 432.243 401.935 432.813 401.752C433.382 401.561 433.956 401.501 434.533 401.572C435.106 401.638 435.665 401.824 436.21 402.129C436.751 402.43 437.251 402.835 437.71 403.344L437.846 403.494C438.306 404.002 438.658 404.541 438.903 405.109C439.148 405.677 439.277 406.252 439.289 406.834C439.297 407.411 439.181 407.973 438.942 408.521C438.699 409.065 438.321 409.568 437.808 410.032C437.291 410.5 436.747 410.829 436.177 411.02C435.608 411.203 435.037 411.261 434.464 411.195C433.886 411.124 433.327 410.938 432.787 410.637C432.246 410.336 431.746 409.931 431.286 409.422ZM432.722 407.852L432.858 408.002C433.144 408.319 433.448 408.59 433.769 408.814C434.089 409.037 434.415 409.193 434.747 409.28C435.079 409.367 435.408 409.373 435.735 409.299C436.063 409.224 436.376 409.051 436.676 408.78C436.968 408.517 437.165 408.228 437.268 407.914C437.375 407.596 437.402 407.267 437.349 406.929C437.295 406.59 437.174 406.25 436.983 405.908C436.798 405.563 436.561 405.231 436.274 404.914L436.139 404.764C435.856 404.451 435.554 404.187 435.233 403.972C434.913 403.748 434.582 403.592 434.242 403.505C433.907 403.413 433.575 403.405 433.248 403.479C432.921 403.546 432.61 403.712 432.314 403.98C432.019 404.247 431.819 404.542 431.716 404.864C431.613 405.178 431.59 405.507 431.647 405.85C431.705 406.193 431.828 406.535 432.018 406.877C432.205 407.214 432.439 407.539 432.722 407.852ZM442.982 399.634L440.726 401.673L439.711 400.576L441.563 398.903C441.867 398.628 442.089 398.371 442.23 398.134C442.375 397.892 442.44 397.667 442.426 397.459C442.408 397.247 442.318 397.051 442.157 396.873C442.023 396.725 441.879 396.622 441.724 396.565C441.566 396.503 441.396 396.49 441.216 396.527C441.036 396.555 440.846 396.632 440.644 396.759C440.443 396.878 440.23 397.039 440.004 397.243L438.719 398.404L443.976 404.221L442.404 405.641L436.028 398.586L438.884 396.004C439.336 395.596 439.778 395.268 440.21 395.02C440.645 394.768 441.064 394.607 441.466 394.536C441.868 394.465 442.248 394.492 442.607 394.618C442.966 394.736 443.295 394.96 443.593 395.29C443.79 395.508 443.927 395.755 444.004 396.033C444.086 396.307 444.102 396.6 444.053 396.913C444.004 397.226 443.89 397.55 443.711 397.885C443.529 398.216 443.275 398.547 442.952 398.88L442.982 399.634ZM445.71 402.653L442.998 405.105L442.504 403.3L444.591 401.414C444.869 401.163 445.068 400.92 445.188 400.685C445.307 400.451 445.352 400.229 445.321 400.02C445.29 399.803 445.193 399.603 445.028 399.42C444.859 399.233 444.67 399.112 444.461 399.055C444.252 398.999 444.025 399.019 443.78 399.114C443.535 399.201 443.269 399.375 442.982 399.634L441.189 401.255L440.2 400.134L442.332 398.207L443.171 398.231C443.646 397.857 444.104 397.617 444.545 397.51C444.986 397.404 445.391 397.406 445.759 397.516C446.126 397.625 446.44 397.824 446.699 398.111C446.998 398.441 447.198 398.789 447.3 399.155C447.406 399.517 447.414 399.893 447.324 400.283C447.234 400.664 447.054 401.055 446.785 401.457C446.512 401.854 446.154 402.252 445.71 402.653Z" fill="#A43FD4"/>
</g>
<defs>
<clipPath id="clip0_104_261">
<rect width="498" height="501" fill="white"/>
</clipPath>
</defs>
</svg>
